<svg width="56" height="65" viewBox="0 0 56 65" fill="none" xmlns="http://www.w3.org/2000/svg">
<path d="M29.2032 1.77588C29.2032 3.34579 28.1294 4.61818 26.8052 4.61818C28.1294 4.61818 29.2032 5.89057 29.2032 7.46048C29.2032 5.89057 30.277 4.61818 31.6012 4.61818C30.277 4.61818 29.2032 3.34512 29.2032 1.77588Z" fill="white"/>
<path d="M9.66903 54.0862C9.66903 55.6561 8.59519 56.9285 7.271 56.9285C8.59519 56.9285 9.66903 58.2009 9.66903 59.7708C9.66903 58.2009 10.7429 56.9285 12.067 56.9285C10.7422 56.9285 9.66903 55.6561 9.66903 54.0862Z" fill="white"/>
<path d="M49.0592 35.8069C49.0592 37.3768 47.9853 38.6492 46.6611 38.6492C47.9853 38.6492 49.0592 39.9216 49.0592 41.4915C49.0592 39.9216 50.133 38.6492 51.4572 38.6492C50.1323 38.6492 49.0592 37.3768 49.0592 35.8069Z" fill="white"/>
<path d="M9.6695 15.3223C9.6695 15.8177 9.26773 16.2188 8.77298 16.2188C8.27757 16.2188 7.87646 15.8177 7.87646 15.3223C7.87646 14.8275 8.27757 14.4258 8.77298 14.4258C9.26773 14.4258 9.6695 14.8269 9.6695 15.3223Z" fill="white"/>
<path d="M44.0167 20.8577C44.0167 21.3531 43.6156 21.7542 43.1202 21.7542C42.6247 21.7542 42.2236 21.3531 42.2236 20.8577C42.2236 20.3623 42.6247 19.9612 43.1202 19.9612C43.6156 19.9612 44.0167 20.3623 44.0167 20.8577Z" fill="white"/>
<path d="M6.99372 40.6048C6.99372 41.1002 6.59261 41.5013 6.0972 41.5013C5.60179 41.5013 5.20068 41.1002 5.20068 40.6048C5.20068 40.1094 5.60179 39.7083 6.0972 39.7083C6.59194 39.7083 6.99372 40.11 6.99372 40.6048Z" fill="white"/>
<path d="M54.6514 0.172804C54.1812 0.140263 43.0916 -0.523832 35.4639 6.60384C31.1413 10.6428 28.8502 16.3454 28.6357 23.5594C28.378 23.5461 28.1184 23.5395 27.8574 23.5395C27.5964 23.5395 27.3374 23.5461 27.0797 23.5594C26.8652 16.346 24.5741 10.6428 20.2516 6.60384C12.6245 -0.523832 1.53354 0.140263 1.06336 0.172804C0.486931 0.211985 0.0307025 0.675524 0.00148257 1.25262C-0.0277374 1.82971 0.378023 2.33841 0.947812 2.43536C1.1238 2.46591 18.4147 5.69404 18.7275 26.5989C18.1736 27.0173 17.6483 27.4722 17.1569 27.961C13.7561 23.0268 7.59402 22.8754 4.59034 23.568C4.05177 23.6929 3.67922 24.1863 3.70777 24.7381C4.03317 31.1333 9.45413 33.9935 13.1717 34.8602C12.8463 36.0947 12.6716 37.3904 12.6716 38.7252V44.6548C12.6716 50.6197 16.2557 56.0858 21.6594 58.5117C21.7378 61.8654 24.4851 64.5715 27.8574 64.5715C31.2303 64.5715 33.9776 61.8654 34.056 58.5111C39.4597 56.0851 43.0438 50.619 43.0438 44.6542V38.7245C43.0438 37.4036 42.8738 36.1226 42.555 34.9C46.2746 34.0845 51.8669 31.2349 52.1976 24.7375C52.2261 24.1849 51.8536 23.6922 51.315 23.5673C48.2868 22.8674 42.0536 23.0274 38.6701 28.0745C38.1461 27.5426 37.5836 27.0478 36.9866 26.5976C37.2855 5.37662 54.0258 2.54893 54.7424 2.43869C55.3188 2.35302 55.7378 1.84631 55.7133 1.26391C55.6907 0.683492 55.2331 0.211985 54.6514 0.172804ZM8.77278 3.23094C11.9929 3.99265 15.6939 5.46295 18.7062 8.28333C22.6011 11.9298 24.6465 17.1662 24.8032 23.8483C23.4518 24.1252 22.1681 24.5861 20.9728 25.197C20.3638 12.8483 14.0749 6.44779 8.77278 3.23094ZM6.09849 25.6366C8.19369 25.4075 13.0316 25.4195 15.6009 29.7746C14.9442 30.6718 14.383 31.6433 13.9334 32.6747C11.9219 32.2178 6.94387 30.5967 6.09849 25.6366ZM21.6528 55.9623C17.5899 53.7183 14.9548 49.3699 14.9548 44.6555V44.4483C16.5034 46.1105 18.7029 47.1591 21.1428 47.1591H21.6528V55.9623ZM15.073 39.8747H15.51C18.507 39.8747 21.006 42.033 21.5425 44.8766H21.1428C18.1431 44.8766 15.6295 42.719 15.073 39.8747ZM23.9353 58.3669V54.8898L26.7171 57.677V58.7089L24.1996 59.7715C24.0309 59.3345 23.9353 58.8624 23.9353 58.3669ZM25.8372 53.5643H29.8782L27.8574 55.5891L25.8372 53.5643ZM27.858 62.2897C27.0512 62.2897 26.3007 62.0447 25.6765 61.625L27.858 60.7045L30.0396 61.625C29.4153 62.0447 28.6649 62.2897 27.858 62.2897ZM31.7815 58.3669C31.7815 58.8624 31.6852 59.3345 31.5172 59.7715L28.9996 58.7089V57.6763L31.7821 54.8878V58.3669H31.7815ZM40.762 44.6555C40.762 49.3699 38.1269 53.7183 34.064 55.9623V47.1591H34.7241C37.1241 47.1591 39.2551 46.1636 40.762 44.5545V44.6555ZM34.1742 44.8766C34.7108 42.033 37.2097 39.8747 40.2068 39.8747H40.6504C40.1218 42.7562 37.7052 44.8766 34.7241 44.8766H34.1742ZM49.8095 25.6366C48.9429 30.7946 43.7006 32.328 41.8026 32.7178C41.3743 31.727 40.8416 30.7926 40.2221 29.924C42.7682 25.4188 47.6964 25.4042 49.8095 25.6366ZM40.7095 37.5923H40.2074C35.5615 37.5923 31.7821 41.3722 31.7821 46.0175V51.477C31.5324 51.3522 31.2535 51.2811 30.9607 51.2811H24.7567C24.4645 51.2811 24.1856 51.3515 23.9359 51.4764V46.0175C23.9359 41.3716 20.1559 37.5923 15.5106 37.5923H15.0086C15.585 31.0058 21.1268 25.8219 27.8594 25.8219C34.5912 25.8219 40.1331 31.0065 40.7095 37.5923ZM34.7413 25.1964C33.5466 24.5861 32.2629 24.1252 30.9128 23.8483C31.0696 17.1662 33.115 11.9298 37.0098 8.28333C39.9139 5.56389 43.4575 4.09956 46.594 3.31527C41.3603 6.53478 35.327 12.8968 34.7413 25.1964Z" fill="white"/>
</svg>
