<svg width="59" height="61" viewBox="0 0 59 61" fill="none" xmlns="http://www.w3.org/2000/svg">
<path d="M18.8753 40.2312C18.8753 41.7725 17.821 43.0216 16.521 43.0216C17.821 43.0216 18.8753 44.2708 18.8753 45.8121C18.8753 44.2708 19.9295 43.0216 21.2295 43.0216C19.9295 43.0216 18.8753 41.7725 18.8753 40.2312Z" fill="white"/>
<path d="M26.0247 0C26.0247 1.54125 24.9704 2.79042 23.6704 2.79042C24.9704 2.79042 26.0247 4.0396 26.0247 5.58085C26.0247 4.0396 27.0789 2.79042 28.3789 2.79042C27.0789 2.79042 26.0247 1.54125 26.0247 0Z" fill="white"/>
<path d="M41.8479 50.3865C41.8479 51.9277 40.7937 53.1769 39.4937 53.1769C40.7937 53.1769 41.8479 54.4261 41.8479 55.9673C41.8479 54.4261 42.9021 53.1769 44.2022 53.1769C42.9015 53.1769 41.8479 51.9271 41.8479 50.3865Z" fill="white"/>
<path d="M12.0745 55.1749C12.5606 55.1749 12.9547 54.7808 12.9547 54.2947C12.9547 53.8086 12.5606 53.4146 12.0745 53.4146C11.5884 53.4146 11.1943 53.8086 11.1943 54.2947C11.1943 54.7808 11.5884 55.1749 12.0745 55.1749Z" fill="white"/>
<path d="M4.3272 17.1839C4.3272 17.6702 3.93275 18.064 3.44704 18.064C2.96067 18.064 2.56689 17.6702 2.56689 17.1839C2.56689 16.6975 2.96067 16.3037 3.44704 16.3037C3.93275 16.3037 4.3272 16.6982 4.3272 17.1839Z" fill="white"/>
<path d="M57.7019 18.606C58.188 18.606 58.5821 18.212 58.5821 17.7259C58.5821 17.2398 58.188 16.8457 57.7019 16.8457C57.2158 16.8457 56.8218 17.2398 56.8218 17.7259C56.8218 18.212 57.2158 18.606 57.7019 18.606Z" fill="white"/>
<path d="M9.10213 42.9821C14.1216 42.9821 18.2049 38.8988 18.2049 33.8793C18.2049 33.8754 18.2036 33.8721 18.2036 33.8682C18.2029 33.8252 18.1958 33.7815 18.1906 33.7385C18.1866 33.7065 18.186 33.6739 18.1788 33.6433C18.173 33.6172 18.1625 33.5924 18.1547 33.5663C18.141 33.5194 18.128 33.4718 18.1091 33.4281C18.1078 33.4249 18.1071 33.4216 18.1058 33.419L10.8429 17.1902H23.7695V58.1703H9.10213C8.47884 58.1703 7.97421 58.6756 7.97421 59.2982C7.97421 59.9215 8.4795 60.4261 9.10213 60.4261H24.8973H32.8051H48.6003C49.2236 60.4261 49.7282 59.9209 49.7282 59.2982C49.7282 58.675 49.2229 58.1703 48.6003 58.1703H33.9336V17.1902H46.8602L39.5973 33.419C39.596 33.4223 39.5953 33.4255 39.594 33.4281C39.5745 33.4725 39.5621 33.5194 39.5484 33.5663C39.5406 33.5924 39.5301 33.6172 39.5249 33.6433C39.5184 33.6746 39.5171 33.7072 39.5132 33.7398C39.508 33.7828 39.5008 33.8258 39.5001 33.8689C39.5001 33.8728 39.4988 33.876 39.4988 33.8799C39.4988 38.8994 43.5821 42.9827 48.6016 42.9827C53.6211 42.9827 57.7044 38.8994 57.7044 33.8799C57.7044 33.876 57.7031 33.8728 57.7031 33.8689C57.7024 33.8258 57.6953 33.7821 57.69 33.7391C57.6861 33.7072 57.6848 33.6746 57.6783 33.6439C57.6724 33.6179 57.662 33.5931 57.6542 33.567C57.6405 33.5201 57.6275 33.4725 57.6085 33.4288C57.6072 33.4255 57.6066 33.4223 57.6053 33.4197L49.6409 15.6248C49.6409 15.6242 49.6402 15.6235 49.6402 15.6229L49.6311 15.602C49.6278 15.5942 49.6213 15.5883 49.6174 15.5805C49.5796 15.501 49.532 15.428 49.4772 15.3601C49.4629 15.3419 49.4492 15.3243 49.4335 15.3067C49.3696 15.2369 49.2999 15.1737 49.221 15.1215C49.2112 15.115 49.2008 15.1111 49.191 15.1052C49.1193 15.0609 49.0417 15.0263 48.9602 14.999C48.9374 14.9911 48.9146 14.984 48.8911 14.9774C48.7978 14.9527 48.702 14.9351 48.6016 14.9351H9.10344C9.00238 14.9351 8.90654 14.9527 8.81396 14.9774C8.79049 14.984 8.76831 14.9911 8.74484 14.999C8.66335 15.0263 8.58576 15.0609 8.51404 15.1052C8.50426 15.1111 8.49384 15.115 8.48406 15.1215C8.40517 15.1737 8.33477 15.2369 8.27153 15.3067C8.25588 15.3236 8.24217 15.3419 8.22718 15.3601C8.17241 15.428 8.12482 15.501 8.08701 15.5805C8.08309 15.5883 8.07658 15.5942 8.07332 15.602L8.06419 15.6229C8.06419 15.6235 8.06355 15.6242 8.06355 15.6248L0.0991044 33.4197C0.0978005 33.4229 0.0971453 33.4262 0.0958414 33.4288C0.0762823 33.4731 0.0638902 33.5201 0.0501988 33.567C0.0423752 33.5931 0.031952 33.6179 0.0260843 33.6439C0.0195646 33.6752 0.0182572 33.7078 0.0143454 33.7404C0.00912962 33.7835 0.00196514 33.8265 0.00131317 33.8695C0.00131317 33.8734 0 33.8767 0 33.8806C0 38.8988 4.08327 42.9821 9.10213 42.9821ZM48.6003 40.7263C45.2094 40.7263 42.3864 38.2488 41.8472 35.0078H55.3534C54.8142 38.2488 51.9912 40.7263 48.6003 40.7263ZM54.8338 32.752H42.3662L48.5997 18.8234L54.8338 32.752ZM26.0253 17.3773H31.6765V58.1703H26.0253V17.3773ZM9.10213 18.8234L15.3356 32.752H2.868L9.10213 18.8234ZM15.8552 35.0078C15.316 38.2481 12.493 40.7263 9.10213 40.7263C5.71124 40.7263 2.88822 38.2488 2.34904 35.0078H15.8552Z" fill="white"/>
<path d="M9.10203 6.95972C8.47875 6.95972 7.97412 7.46499 7.97412 8.08762C7.97412 8.7109 8.4794 9.21553 9.10203 9.21553H48.6002C49.2235 9.21553 49.7281 8.71025 49.7281 8.08762C49.7281 7.46434 49.2228 6.95972 48.6002 6.95972H9.10203Z" fill="white"/>
</svg>
