<svg width="600" height="194" viewBox="0 0 600 194" fill="none" xmlns="http://www.w3.org/2000/svg">
<rect x="0.5" y="0.5" width="599" height="193" rx="9.5" fill="white" stroke="url(#paint0_linear_2_7)"/>
<path opacity="0.2" d="M538.022 55.5868C539.781 57.7844 540.799 61.4793 542.303 66.9812C540.855 61.4644 539.889 57.755 540.314 54.9726C544.722 54.4977 550.407 57.5673 560.75 63.2999C550.903 57.462 545.413 54.1331 543.449 50.2707C547.194 47.6593 554.642 45.6421 568.067 42.0226C554.631 45.6006 547.172 47.577 542.623 47.1888C542.393 42.8616 545.483 37.2339 551.092 27.2547C545 37.3909 541.612 42.8917 537.557 44.6844C535.798 42.4867 534.78 38.7918 533.276 33.2899C534.724 38.8068 535.69 42.5162 535.265 45.2986C530.857 45.7735 525.172 42.7039 514.829 36.9712C524.676 42.8091 530.166 46.138 532.13 50.0004C528.385 52.6118 520.936 54.6291 507.511 58.2485C520.948 54.6706 528.407 52.6942 532.956 53.0824C533.186 57.4095 530.097 63.0371 524.487 73.0165C530.579 62.8803 533.967 57.3795 538.022 55.5868Z" fill="url(#paint1_linear_2_7)" stroke="url(#paint2_linear_2_7)" stroke-width="0.5" stroke-miterlimit="10" stroke-linecap="round" stroke-linejoin="round"/>
<path opacity="0.2" d="M180.637 136.829C181.585 134.026 184.834 132.178 190.397 129.04C184.804 132.123 181.523 133.916 178.641 133.249C178.557 131.242 179.3 128.405 180.485 124.02C179.204 128.269 178.347 131.045 177.252 132.722C173.764 130.853 170.408 124.876 163.496 112.526C170.37 124.897 173.69 130.894 173.447 134.844C171.445 134.893 168.633 134.164 164.345 133.02C168.697 134.317 171.501 135.176 173.166 136.302C172.218 139.105 168.968 140.953 163.405 144.091C168.999 141.008 172.279 139.215 175.162 139.882C175.245 141.89 174.502 144.727 173.318 149.111C174.599 144.862 175.456 142.087 176.551 140.409C180.039 142.279 183.395 148.255 190.307 160.605C183.433 148.234 180.113 142.237 180.356 138.287C182.358 138.238 185.169 138.967 189.458 140.111C185.105 138.814 182.301 137.955 180.637 136.829Z" fill="url(#paint3_linear_2_7)" stroke="url(#paint4_linear_2_7)" stroke-width="0.5" stroke-miterlimit="10" stroke-linecap="round" stroke-linejoin="round"/>
<defs>
<linearGradient id="paint0_linear_2_7" x1="600" y1="97" x2="0" y2="97" gradientUnits="userSpaceOnUse">
<stop stop-color="#FDF3EC"/>
<stop offset="1" stop-color="#F9E9EC"/>
</linearGradient>
<linearGradient id="paint1_linear_2_7" x1="532.96" y1="32.113" x2="542.619" y2="68.1582" gradientUnits="userSpaceOnUse">
<stop stop-color="#C32853"/>
<stop offset="1" stop-color="#EE7E49"/>
</linearGradient>
<linearGradient id="paint2_linear_2_7" x1="532.96" y1="32.113" x2="542.619" y2="68.1582" gradientUnits="userSpaceOnUse">
<stop stop-color="#C32853"/>
<stop offset="1" stop-color="#EE7E49"/>
</linearGradient>
<linearGradient id="paint3_linear_2_7" x1="163.405" y1="144.091" x2="190.397" y2="129.04" gradientUnits="userSpaceOnUse">
<stop stop-color="#C32853"/>
<stop offset="1" stop-color="#EE7E49"/>
</linearGradient>
<linearGradient id="paint4_linear_2_7" x1="163.405" y1="144.091" x2="190.397" y2="129.04" gradientUnits="userSpaceOnUse">
<stop stop-color="#C32853"/>
<stop offset="1" stop-color="#EE7E49"/>
</linearGradient>
</defs>
</svg>
