<svg width="52" height="52" viewBox="0 0 52 52" fill="none" xmlns="http://www.w3.org/2000/svg">
<path d="M6.55273 15.1959C6.55273 14.0498 7.00805 12.9505 7.81852 12.1401C8.62899 11.3296 9.72822 10.8743 10.8744 10.8743H41.1261C42.2722 10.8743 43.3715 11.3296 44.1819 12.1401C44.9924 12.9505 45.4477 14.0498 45.4477 15.1959M6.55273 15.1959V36.8043C6.55273 37.9504 7.00805 39.0497 7.81852 39.8601C8.62899 40.6706 9.72822 41.1259 10.8744 41.1259H41.1261C42.2722 41.1259 43.3715 40.6706 44.1819 39.8601C44.9924 39.0497 45.4477 37.9504 45.4477 36.8043V15.1959M6.55273 15.1959L26.0002 28.1609L45.4477 15.1959" stroke="white" stroke-width="3" stroke-linecap="round" stroke-linejoin="round"/>
</svg>
