<svg width="53" height="53" viewBox="0 0 53 53" fill="none" xmlns="http://www.w3.org/2000/svg">
<path d="M25.8564 38.2671L19.3733 35.0256M19.3733 35.0256L6.40723 41.5086V13.4154L19.3733 6.93237M19.3733 35.0256V6.93237M19.3733 6.93237L32.3394 13.4154M32.3394 13.4154L45.3055 6.93237V23.14M32.3394 13.4154V25.301M40.9835 37.1866V37.2082M45.567 41.7705C46.4739 40.8639 47.0915 39.7087 47.3418 38.4511C47.5921 37.1934 47.4639 35.8898 46.9732 34.705C46.4826 33.5203 45.6517 32.5077 44.5855 31.7952C43.5193 31.0828 42.2658 30.7025 40.9835 30.7025C39.7012 30.7025 38.4477 31.0828 37.3815 31.7952C36.3153 32.5077 35.4844 33.5203 34.9938 34.705C34.5031 35.8898 34.3749 37.1934 34.6252 38.4511C34.8755 39.7087 35.4931 40.8639 36.4 41.7705C37.3033 42.6759 38.8311 44.0287 40.9835 45.831C43.2547 43.9077 44.7847 42.5549 45.567 41.7705Z" stroke="white" stroke-width="3" stroke-linecap="round" stroke-linejoin="round"/>
</svg>
