<svg width="40" height="41" viewBox="0 0 40 41" fill="none" xmlns="http://www.w3.org/2000/svg">
<path d="M20.0381 40.6465H19.9501C8.94974 40.6465 0 31.6941 0 20.6905V20.6025C0 9.59888 8.94974 0.646484 19.9501 0.646484H20.0381C31.0385 0.646484 39.9882 9.59888 39.9882 20.6025V20.6905C39.9882 31.6941 31.0385 40.6465 20.0381 40.6465ZM19.9501 2.00044C9.69555 2.00044 1.35356 10.3449 1.35356 20.6025V20.6905C1.35356 30.9481 9.69555 39.2925 19.9501 39.2925H20.0381C30.2927 39.2925 38.6347 30.9481 38.6347 20.6905V20.6025C38.6347 10.3449 30.2927 2.00044 20.0381 2.00044H19.9501Z" fill="url(#paint0_linear_5736_32657)"/>
<path d="M22.6845 16.1614V20.3708H27.8902L27.0659 26.0412H22.6845V39.1056C21.806 39.2274 20.9072 39.2911 19.9949 39.2911C18.9419 39.2911 17.9077 39.2071 16.9007 39.0447V26.0412H12.0996V20.3708H16.9007V15.2204C16.9007 12.0251 19.4901 9.43359 22.6858 9.43359V9.4363C22.6953 9.4363 22.7034 9.43359 22.7129 9.43359H27.8916V14.3376H24.5077C23.502 14.3376 22.6858 15.1541 22.6858 16.1601L22.6845 16.1614Z" fill="url(#paint1_linear_5736_32657)"/>
<defs>
<linearGradient id="paint0_linear_5736_32657" x1="0" y1="20.6465" x2="39.9882" y2="20.6465" gradientUnits="userSpaceOnUse">
<stop stop-color="#C32853"/>
<stop offset="1" stop-color="#EE7E49"/>
</linearGradient>
<linearGradient id="paint1_linear_5736_32657" x1="12.0996" y1="24.3623" x2="27.8916" y2="24.3623" gradientUnits="userSpaceOnUse">
<stop stop-color="#C32853"/>
<stop offset="1" stop-color="#EE7E49"/>
</linearGradient>
</defs>
</svg>
