<svg width="41" height="41" viewBox="0 0 41 41" fill="none" xmlns="http://www.w3.org/2000/svg">
<path d="M20.7178 40.6465H20.6298C9.62943 40.6465 0.679688 31.6941 0.679688 20.6905V20.6025C0.679688 9.59885 9.62943 0.646484 20.6298 0.646484H20.7178C31.7182 0.646484 40.6679 9.59885 40.6679 20.6025V20.6905C40.6679 31.6941 31.7182 40.6465 20.7178 40.6465ZM20.6298 2.00044C10.3752 2.00044 2.03325 10.3449 2.03325 20.6025V20.6905C2.03325 30.9481 10.3752 39.2925 20.6298 39.2925H20.7178C30.9724 39.2925 39.3144 30.9481 39.3144 20.6905V20.6025C39.3144 10.3449 30.9724 2.00044 20.7178 2.00044H20.6298Z" fill="url(#paint0_linear_5736_32651)"/>
<path d="M26.6512 9.18555H14.6965C11.3938 9.18555 8.70703 11.8732 8.70703 15.1768V26.1168C8.70703 29.4204 11.3938 32.108 14.6965 32.108H26.6512C29.9539 32.108 32.6407 29.4204 32.6407 26.1168V15.1768C32.6407 11.8732 29.9539 9.18555 26.6512 9.18555ZM10.8199 15.1768C10.8199 13.0389 12.5593 11.2991 14.6965 11.2991H26.6512C28.7885 11.2991 30.5278 13.0389 30.5278 15.1768V26.1168C30.5278 28.2547 28.7885 29.9945 26.6512 29.9945H14.6965C12.5593 29.9945 10.8199 28.2547 10.8199 26.1168V15.1768Z" fill="url(#paint1_linear_5736_32651)"/>
<path d="M20.6728 26.2178C23.7441 26.2178 26.2441 23.7184 26.2441 20.6449C26.2441 17.5714 23.7454 15.072 20.6728 15.072C17.6002 15.072 15.1016 17.5714 15.1016 20.6449C15.1016 23.7184 17.6002 26.2178 20.6728 26.2178ZM20.6728 17.1869C22.58 17.1869 24.1312 18.7385 24.1312 20.6463C24.1312 22.554 22.58 24.1056 20.6728 24.1056C18.7657 24.1056 17.2145 22.554 17.2145 20.6463C17.2145 18.7385 18.7657 17.1869 20.6728 17.1869Z" fill="url(#paint2_linear_5736_32651)"/>
<path d="M26.7609 15.9728C27.5879 15.9728 28.262 15.2999 28.262 14.4713C28.262 13.6427 27.5892 12.9697 26.7609 12.9697C25.9325 12.9697 25.2598 13.6427 25.2598 14.4713C25.2598 15.2999 25.9325 15.9728 26.7609 15.9728Z" fill="url(#paint3_linear_5736_32651)"/>
<defs>
<linearGradient id="paint0_linear_5736_32651" x1="0.679688" y1="20.6465" x2="40.6679" y2="20.6465" gradientUnits="userSpaceOnUse">
<stop stop-color="#C32853"/>
<stop offset="1" stop-color="#EE7E49"/>
</linearGradient>
<linearGradient id="paint1_linear_5736_32651" x1="8.70703" y1="20.6468" x2="32.6407" y2="20.6468" gradientUnits="userSpaceOnUse">
<stop stop-color="#C32853"/>
<stop offset="1" stop-color="#EE7E49"/>
</linearGradient>
<linearGradient id="paint2_linear_5736_32651" x1="15.1016" y1="20.6449" x2="26.2441" y2="20.6449" gradientUnits="userSpaceOnUse">
<stop stop-color="#C32853"/>
<stop offset="1" stop-color="#EE7E49"/>
</linearGradient>
<linearGradient id="paint3_linear_5736_32651" x1="25.2598" y1="14.4713" x2="28.262" y2="14.4713" gradientUnits="userSpaceOnUse">
<stop stop-color="#C32853"/>
<stop offset="1" stop-color="#EE7E49"/>
</linearGradient>
</defs>
</svg>
