<svg width="41" height="41" viewBox="0 0 41 41" fill="none" xmlns="http://www.w3.org/2000/svg">
<path d="M20.4014 40.6465H20.3134C9.31303 40.6465 0.363281 31.6941 0.363281 20.6905V20.6025C0.363281 9.59885 9.31303 0.646484 20.3134 0.646484H20.4014C31.4018 0.646484 40.3515 9.59885 40.3515 20.6025V20.6905C40.3515 31.6941 31.4018 40.6465 20.4014 40.6465ZM20.3134 2.00044C10.0588 2.00044 1.71684 10.3449 1.71684 20.6025V20.6905C1.71684 30.9481 10.0588 39.2925 20.3134 39.2925H20.4014C30.656 39.2925 38.998 30.9481 38.998 20.6905V20.6025C38.998 10.3449 30.656 2.00044 20.4014 2.00044H20.3134Z" fill="url(#paint0_linear_5736_32660)"/>
<path d="M8.87581 10.0723L17.7849 21.9871L8.82031 31.6747H10.8385L18.6878 23.1935L25.0292 31.6747H31.8958L22.4859 19.0896L30.8306 10.0723H28.8124L21.5844 17.8833L15.7438 10.0723H8.87715H8.87581ZM11.8428 11.5589H14.9966L28.9261 30.188H25.7723L11.8428 11.5589Z" fill="url(#paint1_linear_5736_32660)"/>
<defs>
<linearGradient id="paint0_linear_5736_32660" x1="0.363281" y1="20.6465" x2="40.3515" y2="20.6465" gradientUnits="userSpaceOnUse">
<stop stop-color="#C32853"/>
<stop offset="1" stop-color="#EE7E49"/>
</linearGradient>
<linearGradient id="paint1_linear_5736_32660" x1="8.82031" y1="20.8735" x2="31.8958" y2="20.8735" gradientUnits="userSpaceOnUse">
<stop stop-color="#C32853"/>
<stop offset="1" stop-color="#EE7E49"/>
</linearGradient>
</defs>
</svg>
