<svg width="40" height="41" viewBox="0 0 40 41" fill="none" xmlns="http://www.w3.org/2000/svg">
<path d="M19.9823 40.5366C8.9873 40.5366 0.0429688 31.5896 0.0429688 20.5914C0.0429688 9.59321 8.9873 0.64624 19.9823 0.64624C30.9772 0.64624 39.9215 9.59321 39.9215 20.5914C39.9215 31.5896 30.9772 40.5366 19.9823 40.5366ZM19.9823 2.0002C9.73447 2.0002 1.39653 10.3406 1.39653 20.5914C1.39653 30.8422 9.73447 39.1826 19.9823 39.1826C30.2301 39.1826 38.568 30.8422 38.568 20.5914C38.568 10.3406 30.2301 2.0002 19.9823 2.0002Z" fill="url(#paint0_linear_5736_32648)"/>
<path d="M32.1108 16.5985C31.9592 15.1348 31.633 13.5169 30.4324 12.6666C29.5025 12.0072 28.2802 11.9828 27.1391 11.9842C24.7271 11.9855 22.3137 11.9882 19.9016 11.9896C17.5816 11.9923 15.2616 11.9937 12.9416 11.9964C11.9725 11.9977 11.0304 11.9219 10.1303 12.3416C9.3574 12.7018 8.75236 13.3869 8.38825 14.1492C7.88337 15.2093 7.7778 16.4103 7.71689 17.5828C7.60455 19.718 7.61673 21.8586 7.75073 23.9925C7.84954 25.5495 8.09995 27.2704 9.30326 28.2628C10.3699 29.1415 11.875 29.1849 13.2584 29.1862C17.6493 29.1903 22.0416 29.1944 26.4339 29.1971C26.997 29.1984 27.5845 29.1876 28.1584 29.1253C29.2872 29.0035 30.3633 28.6799 31.0888 27.8431C31.8211 26.9996 32.0092 25.8257 32.1202 24.7141C32.3909 22.017 32.3882 19.2942 32.1108 16.5985ZM17.3624 24.3715V16.8097L23.9082 20.5899L17.3624 24.3715Z" fill="url(#paint1_linear_5736_32648)"/>
<defs>
<linearGradient id="paint0_linear_5736_32648" x1="0.0429688" y1="20.5914" x2="39.9215" y2="20.5914" gradientUnits="userSpaceOnUse">
<stop stop-color="#C32853"/>
<stop offset="1" stop-color="#EE7E49"/>
</linearGradient>
<linearGradient id="paint1_linear_5736_32648" x1="7.64062" y1="20.5907" x2="32.3211" y2="20.5907" gradientUnits="userSpaceOnUse">
<stop stop-color="#C32853"/>
<stop offset="1" stop-color="#EE7E49"/>
</linearGradient>
</defs>
</svg>
