<svg width="50" height="50" viewBox="0 0 50 50" fill="none" xmlns="http://www.w3.org/2000/svg">
<circle cx="25" cy="25" r="25" fill="url(#paint0_linear_6141_33224)"/>
<path d="M36.3177 37.2711C34.8514 38.4576 33.182 39.4027 31.3693 40.0435C29.6192 40.6625 27.7382 41 25.7812 41C21.147 41 16.9521 39.1175 13.9152 36.0759C10.8782 33.0335 9 28.831 9 24.1884C9 21.4121 9.67383 18.7899 10.8668 16.4786C12.1044 14.0817 13.9 12.0213 16.0819 10.4706C16.5602 10.1312 17.1135 9.97718 17.6582 10.0048C18.2068 10.0323 18.743 10.2415 19.1843 10.6275C19.6256 11.0135 19.9037 11.5174 20.0043 12.0556C20.1049 12.5937 20.0271 13.1642 19.7557 13.6843C19.2678 14.617 18.8882 15.6153 18.632 16.663C18.3843 17.6747 18.2533 18.7386 18.2533 19.8396C18.2533 23.5096 19.7376 26.8325 22.1387 29.237C24.5399 31.6425 27.8559 33.1295 31.5192 33.1295C31.9938 33.1295 32.4493 33.1067 32.8859 33.062C33.3414 33.0154 33.7903 32.946 34.2307 32.8538C34.8049 32.734 35.3733 32.8148 35.8621 33.0591C36.3509 33.3025 36.759 33.7095 37.0095 34.24C37.2591 34.7677 37.3132 35.34 37.1927 35.8725C37.0712 36.4087 36.7723 36.9022 36.3177 37.2701V37.2711ZM26.3649 16.8731C26.7455 16.3036 27.1659 15.8235 27.5901 15.4204C28.0153 15.0163 28.4424 14.6892 28.8353 14.4297C28.8742 14.403 28.9036 14.3726 28.9217 14.3403C28.9387 14.3099 28.9473 14.268 28.9473 14.2195C28.9473 14.1701 28.9387 14.1302 28.9217 14.0988C28.9036 14.0655 28.8752 14.0351 28.8353 14.0094C28.4424 13.7489 28.0144 13.4218 27.5901 13.0178C27.1669 12.6146 26.7455 12.1345 26.3649 11.565C26.3383 11.525 26.308 11.4965 26.2766 11.4794C26.2472 11.4632 26.2064 11.4556 26.1552 11.4556C26.1039 11.4556 26.064 11.4642 26.0337 11.4794C26.0024 11.4965 25.972 11.525 25.9454 11.565C25.6019 12.0793 25.2251 12.5215 24.8417 12.8999C24.3776 13.3581 23.9059 13.7232 23.475 14.0085C23.4361 14.0341 23.4067 14.0646 23.3887 14.0978C23.3716 14.1283 23.363 14.1691 23.363 14.2186C23.363 14.268 23.3716 14.308 23.3887 14.3393C23.4067 14.3717 23.4352 14.403 23.475 14.4287C23.8679 14.6892 24.295 15.0153 24.7202 15.4194C25.1435 15.8225 25.5648 16.3027 25.9454 16.8722C25.972 16.9121 26.0024 16.9407 26.0337 16.9578C26.0631 16.9739 26.1039 16.9815 26.1552 16.9815C26.2064 16.9815 26.2463 16.973 26.2766 16.9578C26.308 16.9407 26.3383 16.9121 26.3649 16.8722V16.8731ZM28.5885 16.4729C28.2326 16.8113 27.8824 17.2107 27.5683 17.6804C27.4079 17.92 27.2001 18.1082 26.9571 18.2385C26.7113 18.3697 26.4399 18.4391 26.1552 18.4391C25.8704 18.4391 25.5981 18.3697 25.3532 18.2385C25.1102 18.1082 24.9024 17.92 24.742 17.6804C24.4279 17.2107 24.0777 16.8104 23.7218 16.4729C23.3678 16.1363 23.0071 15.8615 22.675 15.6409C22.433 15.4803 22.2431 15.272 22.1122 15.0286C21.9803 14.7824 21.911 14.5086 21.911 14.2195C21.911 13.9305 21.9803 13.6567 22.1122 13.4114C22.2431 13.168 22.433 12.9588 22.675 12.7991C23.0394 12.5576 23.438 12.2495 23.8252 11.8664C24.1451 11.5507 24.4582 11.1837 24.742 10.7587C24.9024 10.5191 25.1102 10.3309 25.3532 10.2006C25.5981 10.0694 25.8695 10 26.1552 10C26.4399 10 26.7123 10.0694 26.9571 10.2006C27.2001 10.3309 27.4079 10.5191 27.5683 10.7587C27.8824 11.2284 28.2326 11.6287 28.5885 11.9672C28.9435 12.3037 29.3032 12.5785 29.6353 12.7991C29.8774 12.9598 30.0672 13.168 30.1981 13.4114C30.3301 13.6576 30.3993 13.9315 30.3993 14.2205C30.3993 14.5095 30.3301 14.7833 30.1981 15.0296C30.0681 15.273 29.8774 15.4822 29.6353 15.6419C29.3032 15.8625 28.9425 16.1372 28.5885 16.4738V16.4729ZM34.1661 28.4317C34.7185 27.6045 35.3259 26.8934 35.9418 26.2839C36.6897 25.5452 37.4508 24.9566 38.1455 24.4965C38.2784 24.408 38.3809 24.2987 38.4473 24.1732C38.5138 24.0505 38.5479 23.9051 38.5479 23.7434C38.5479 23.5818 38.5128 23.4363 38.4473 23.3137C38.3809 23.1891 38.2784 23.0789 38.1455 22.9904C37.4508 22.5303 36.6897 21.9417 35.9418 21.203C35.3249 20.5935 34.7185 19.8823 34.1661 19.0552C34.0779 18.923 33.9678 18.8213 33.8444 18.7547C33.7229 18.6901 33.5787 18.6559 33.4164 18.6559C33.2541 18.6559 33.1089 18.6901 32.9884 18.7547C32.865 18.8213 32.7558 18.9221 32.6666 19.0552C32.1143 19.8814 31.5069 20.5935 30.89 21.203C30.1431 21.9417 29.382 22.5303 28.6863 22.9904C28.5534 23.0789 28.4509 23.1882 28.3835 23.3137C28.3181 23.4363 28.2829 23.5818 28.2829 23.7434C28.2829 23.9051 28.3181 24.0505 28.3835 24.1732C28.4509 24.2977 28.5525 24.408 28.6863 24.4965C29.3203 24.9167 30.0093 25.4434 30.6935 26.0938C31.3769 26.7431 32.0535 27.5161 32.6657 28.4317C32.7549 28.5639 32.864 28.6656 32.9874 28.7312C33.1079 28.7959 33.2532 28.8301 33.4154 28.8301C33.5777 28.8301 33.7229 28.7959 33.8435 28.7312C33.9668 28.6656 34.076 28.5639 34.1652 28.4317H34.1661ZM36.9583 27.3193C36.4059 27.866 35.8621 28.5021 35.3696 29.2399C35.1475 29.5726 34.8599 29.8332 34.5258 30.0119C34.188 30.1925 33.8131 30.2867 33.4164 30.2867C33.0197 30.2867 32.6439 30.1916 32.3069 30.0119C31.9729 29.8332 31.6853 29.5726 31.4632 29.2399C30.9185 28.4241 30.3101 27.731 29.6951 27.1463C29.082 26.5634 28.4595 26.0881 27.8862 25.7077C27.5503 25.4853 27.2874 25.1972 27.1071 24.8616C26.9258 24.524 26.8309 24.1456 26.8309 23.7434C26.8309 23.3422 26.9258 22.9638 27.1071 22.6253C27.2874 22.2897 27.5503 22.0016 27.8862 21.7791C28.5155 21.3618 29.2026 20.8312 29.8736 20.1676C30.4269 19.6209 30.9697 18.9848 31.4623 18.247C31.6844 17.9142 31.9719 17.6537 32.306 17.475C32.6429 17.2953 33.0187 17.2002 33.4154 17.2002C33.8121 17.2002 34.188 17.2953 34.5249 17.475C34.859 17.6537 35.1465 17.9152 35.3686 18.247C35.8612 18.9839 36.404 19.6209 36.9573 20.1676C37.6283 20.8312 38.3154 21.3618 38.9446 21.7791C39.2806 22.0016 39.5435 22.2897 39.7229 22.6253C39.9041 22.9629 40 23.3413 40 23.7434C40 24.1447 39.9051 24.524 39.7229 24.8616C39.5426 25.1972 39.2797 25.4853 38.9446 25.7077C38.3154 26.1251 37.6283 26.6557 36.9564 27.3193H36.9583ZM30.8881 38.6744C32.5442 38.0878 34.0712 37.2254 35.4104 36.1406C35.604 35.9837 35.7302 35.7774 35.7805 35.5559C35.8317 35.3315 35.8071 35.0881 35.6998 34.8608C35.5945 34.6365 35.4217 34.4653 35.2168 34.3626C35.0108 34.26 34.7707 34.2257 34.5277 34.2761C34.039 34.3779 33.5407 34.4558 33.0349 34.5072C32.5243 34.5595 32.0194 34.5861 31.5211 34.5861C27.4563 34.5861 23.7768 32.9355 21.1128 30.2667C18.4498 27.5979 16.8012 23.9117 16.8012 19.8396C16.8012 18.633 16.9484 17.455 17.2255 16.3217C17.5102 15.1589 17.9316 14.0493 18.4735 13.0121C18.5893 12.7905 18.6225 12.549 18.5807 12.3218C18.539 12.0955 18.4203 11.8825 18.2315 11.718C18.0436 11.5536 17.8186 11.4651 17.5909 11.4537C17.3602 11.4423 17.1258 11.5079 16.9227 11.6524C14.9278 13.0701 13.2869 14.9535 12.1566 17.1432C11.0689 19.251 10.454 21.646 10.454 24.1875C10.454 28.4279 12.1699 32.2671 14.9439 35.0453C17.7171 37.8235 21.5494 39.5425 25.7822 39.5425C27.5749 39.5425 29.2937 39.2354 30.8881 38.6716V38.6744Z" fill="url(#paint1_linear_6141_33224)"/>
<defs>
<linearGradient id="paint0_linear_6141_33224" x1="50" y1="25" x2="0" y2="25" gradientUnits="userSpaceOnUse">
<stop stop-color="#FDF3EC"/>
<stop offset="1" stop-color="#F9E9EC"/>
</linearGradient>
<linearGradient id="paint1_linear_6141_33224" x1="9" y1="25.5" x2="40" y2="25.5" gradientUnits="userSpaceOnUse">
<stop stop-color="#C32853"/>
<stop offset="1" stop-color="#EE7E49"/>
</linearGradient>
</defs>
</svg>
