<svg width="50" height="50" viewBox="0 0 50 50" fill="none" xmlns="http://www.w3.org/2000/svg">
<circle cx="25" cy="25" r="25" fill="url(#paint0_linear_6141_33169)"/>
<path d="M40.1168 24.3291H35.6723C35.6723 24.3291 35.639 24.3291 35.6168 24.3402C35.3945 22.0943 34.5056 20.0485 33.1501 18.4029C33.1612 18.3918 33.1834 18.3807 33.2056 18.3696L36.3501 15.223C36.7834 14.7894 36.7834 14.089 36.3501 13.6553C35.9168 13.2217 35.2168 13.2217 34.7834 13.6553L31.639 16.8019C31.639 16.8019 31.6168 16.8352 31.6056 16.8575C29.9501 15.501 27.9056 14.6115 25.6723 14.3892C25.6723 14.3669 25.6834 14.3558 25.6834 14.3336V9.87504C25.6834 9.26352 25.1834 8.76318 24.5723 8.76318C23.9612 8.76318 23.4612 9.26352 23.4612 9.87504V14.3224C23.4612 14.3224 23.4612 14.3558 23.4723 14.378C21.2279 14.6004 19.1834 15.4899 17.539 16.8464C17.5279 16.8352 17.5168 16.813 17.5056 16.7908L14.3612 13.6442C13.9279 13.2106 13.2279 13.2106 12.7945 13.6442C12.3612 14.0778 12.3612 14.7783 12.7945 15.2119L15.939 18.3585C15.939 18.3585 15.9723 18.3807 15.9945 18.3918C14.639 20.0485 13.7501 22.0943 13.5279 24.3291C13.5056 24.3291 13.4945 24.318 13.4723 24.318H9.00564C8.39453 24.318 7.89453 24.8183 7.89453 25.4298C7.89453 26.0414 8.39453 26.5417 9.00564 26.5417H13.4501C13.4501 26.5417 13.4834 26.5417 13.5056 26.5306C13.7279 28.7765 14.6168 30.8223 15.9723 32.4679C15.9612 32.479 15.939 32.4901 15.9168 32.5012L12.7723 35.6478C12.339 36.0814 12.339 36.7819 12.7723 37.2155C12.9945 37.4379 13.2723 37.5379 13.5612 37.5379C13.8501 37.5379 14.1279 37.4267 14.3501 37.2155L17.4945 34.0689C17.4945 34.0689 17.5168 34.0356 17.5279 34.0133C19.1834 35.3698 21.2279 36.2593 23.4612 36.4817C23.4612 36.5039 23.4501 36.515 23.4501 36.5373V40.9847C23.4501 41.5962 23.9501 42.0965 24.5612 42.0965C25.1723 42.0965 25.6723 41.5962 25.6723 40.9847V36.5373C25.6723 36.5373 25.6723 36.5039 25.6612 36.4817C27.9056 36.2593 29.9501 35.3698 31.5945 34.0133C31.6056 34.0245 31.6168 34.0467 31.6279 34.0689L34.7723 37.2155C34.9945 37.4379 35.2723 37.5379 35.5612 37.5379C35.8501 37.5379 36.1279 37.4267 36.3501 37.2155C36.7834 36.7819 36.7834 36.0814 36.3501 35.6478L33.2056 32.5012C33.2056 32.5012 33.1723 32.479 33.1501 32.4679C34.5056 30.8112 35.3945 28.7654 35.6168 26.5306C35.639 26.5306 35.6501 26.5417 35.6723 26.5417H40.1168C40.7279 26.5417 41.2279 26.0414 41.2279 25.4298C41.2279 24.8183 40.7279 24.318 40.1168 24.318V24.3291ZM24.5612 34.3358C19.6612 34.3358 15.6723 30.3442 15.6723 25.441C15.6723 20.5377 19.6612 16.5461 24.5612 16.5461C29.4612 16.5461 33.4501 20.5377 33.4501 25.441C33.4501 30.3442 29.4612 34.3358 24.5612 34.3358Z" fill="url(#paint1_linear_6141_33169)"/>
<defs>
<linearGradient id="paint0_linear_6141_33169" x1="50" y1="25" x2="0" y2="25" gradientUnits="userSpaceOnUse">
<stop stop-color="#FDF3EC"/>
<stop offset="1" stop-color="#F9E9EC"/>
</linearGradient>
<linearGradient id="paint1_linear_6141_33169" x1="7.89453" y1="25.4298" x2="41.2279" y2="25.4298" gradientUnits="userSpaceOnUse">
<stop stop-color="#C32853"/>
<stop offset="1" stop-color="#EE7E49"/>
</linearGradient>
</defs>
</svg>
