<svg width="27" height="28" viewBox="0 0 27 28" fill="none" xmlns="http://www.w3.org/2000/svg">
<path d="M14.0025 2.00041C14.1785 2.00041 14.3531 2.00041 14.5265 2.00041C12.8136 3.59202 11.7126 5.73354 11.4149 8.05271C11.1171 10.3719 11.6415 12.7221 12.8968 14.6947C14.1521 16.6674 16.059 18.1378 18.2859 18.8504C20.5129 19.5629 22.9192 19.4726 25.0865 18.5951C24.2528 20.6011 22.8902 22.3431 21.1441 23.6354C19.3979 24.9277 17.3337 25.7218 15.1717 25.9329C13.0096 26.1441 10.8308 25.7643 8.86766 24.8343C6.9045 23.9042 5.23063 22.4587 4.02459 20.6519C2.81856 18.8451 2.12561 16.7448 2.01966 14.575C1.9137 12.4053 2.39872 10.2475 3.42297 8.33176C4.44722 6.41605 5.97229 4.81431 7.83549 3.69739C9.6987 2.58047 11.8301 1.99027 14.0025 1.98975V2.00041Z" stroke="white" stroke-width="2.66667" stroke-linecap="round" stroke-linejoin="round"/>
</svg>
