<svg width="18" height="18" viewBox="0 0 18 18" fill="none" xmlns="http://www.w3.org/2000/svg">
<path d="M3 5.11111H15M7.5 8.22222V12.8889M10.5 8.22222V12.8889M3.75 5.11111L4.5 14.4444C4.5 14.857 4.65804 15.2527 4.93934 15.5444C5.22064 15.8361 5.60218 16 6 16H12C12.3978 16 12.7794 15.8361 13.0607 15.5444C13.342 15.2527 13.5 14.857 13.5 14.4444L14.25 5.11111M6.75 5.11111V2.77778C6.75 2.5715 6.82902 2.37367 6.96967 2.22781C7.11032 2.08194 7.30109 2 7.5 2H10.5C10.6989 2 10.8897 2.08194 11.0303 2.22781C11.171 2.37367 11.25 2.5715 11.25 2.77778V5.11111" stroke="white" stroke-width="1.2" stroke-linecap="round" stroke-linejoin="round"/>
</svg>
