<svg width="18" height="18" viewBox="0 0 18 18" fill="none" xmlns="http://www.w3.org/2000/svg">
<path d="M9 5.99951V8.99951L10.5 10.4995M2.28735 8.24956C2.45542 6.59961 3.22505 5.06927 4.4494 3.95054C5.67376 2.8318 7.26712 2.20298 8.92551 2.18403C10.5839 2.16509 12.1912 2.75736 13.4408 3.84784C14.6904 4.93832 15.4948 6.45067 15.7005 8.09636C15.9062 9.74205 15.4988 11.4059 14.5561 12.7704C13.6134 14.1349 12.2013 15.1046 10.5893 15.4945C8.97729 15.8843 7.27816 15.667 5.8161 14.8841C4.35404 14.1012 3.23139 12.8074 2.66235 11.2496M2.28735 14.9996V11.2496H6.03735" stroke="white" stroke-width="1.2" stroke-linecap="round" stroke-linejoin="round"/>
</svg>
