<svg width="16" height="14" viewBox="0 0 16 14" fill="none" xmlns="http://www.w3.org/2000/svg">
<path d="M9.5 4V2.5C9.5 2.10218 9.34196 1.72064 9.06066 1.43934C8.77936 1.15804 8.39782 1 8 1H2.75C2.35218 1 1.97064 1.15804 1.68934 1.43934C1.40804 1.72064 1.25 2.10218 1.25 2.5V11.5C1.25 11.8978 1.40804 12.2794 1.68934 12.5607C1.97064 12.842 2.35218 13 2.75 13H8C8.39782 13 8.77936 12.842 9.06066 12.5607C9.34196 12.2794 9.5 11.8978 9.5 11.5V10M5.75 7H14.75M14.75 7L12.5 4.75M14.75 7L12.5 9.25" stroke="white" stroke-width="1.2" stroke-linecap="round" stroke-linejoin="round"/>
</svg>
