<svg width="72" height="72" viewBox="0 0 72 72" fill="none" xmlns="http://www.w3.org/2000/svg">
<circle cx="36" cy="36" r="36" fill="white"/>
<circle cx="36" cy="36" r="27.6279" fill="url(#paint0_linear_5315_49054)"/>
<path fill-rule="evenodd" clip-rule="evenodd" d="M60.2731 11.7279C46.8673 -1.67687 25.1322 -1.67687 11.7286 11.7279C-1.67712 25.1326 -1.67712 46.8661 11.7286 60.2716C25.1344 73.6771 46.8695 73.6764 60.2731 60.2716C73.6766 46.8669 73.6759 25.1334 60.2731 11.7279ZM42.8816 19.8586C46.6837 23.6575 46.6837 29.8199 42.8816 33.622C36.7646 39.7386 26.2698 35.381 26.2698 26.7404C26.267 18.0971 36.7673 13.7446 42.8816 19.8586ZM28.8392 37.0456C33.1369 40.0366 38.8644 40.0366 43.1618 37.0456C48.6858 39.349 52.8056 44.2165 54.1383 50.0697H17.8627C19.195 44.2138 23.3151 39.3522 28.8392 37.0456ZM45.4488 34.9972C51.775 38.1142 56.2507 44.2134 57.213 51.2901C57.3276 52.1267 56.6658 52.8831 55.8206 52.8831V52.8859H16.1813C15.316 52.8859 14.6341 52.1296 14.806 51.1756C15.9607 44.0219 20.1266 38.1661 26.5534 34.997C19.4822 26.9147 25.2383 14.192 35.9998 14.192C46.7614 14.192 52.5173 26.9156 45.4488 34.9972Z" fill="url(#paint1_linear_5315_49054)"/>
<defs>
<linearGradient id="paint0_linear_5315_49054" x1="8.37207" y1="36" x2="63.6279" y2="36" gradientUnits="userSpaceOnUse">
<stop stop-color="#C32853"/>
<stop offset="1" stop-color="#EE7E49"/>
</linearGradient>
<linearGradient id="paint1_linear_5315_49054" x1="70.3255" y1="35.9999" x2="1.67432" y2="35.9999" gradientUnits="userSpaceOnUse">
<stop stop-color="#FDF3EC"/>
<stop offset="1" stop-color="#F9E9EC"/>
</linearGradient>
</defs>
</svg>
