<svg width="18" height="18" viewBox="0 0 18 18" fill="none" xmlns="http://www.w3.org/2000/svg">
<path d="M3 9.74957C3.24375 11.6486 4.41075 13.3353 6 14.2496M15 8.24954C14.8166 6.9297 14.2043 5.70678 13.2575 4.76916C12.3107 3.83153 11.0818 3.23122 9.76025 3.0607C8.43869 2.89018 7.09772 3.1589 5.9439 3.82547C4.79009 4.49204 3.88744 5.51949 3.375 6.74954M3 3.74957V6.74957H6M9 11.2496H10.5C10.6989 11.2496 10.8897 11.3286 11.0303 11.4692C11.171 11.6099 11.25 11.8007 11.25 11.9996V12.7496C11.25 12.9485 11.171 13.1393 11.0303 13.2799C10.8897 13.4206 10.6989 13.4996 10.5 13.4996H9.75C9.55109 13.4996 9.36032 13.5786 9.21967 13.7192C9.07902 13.8599 9 14.0507 9 14.2496V14.9996C9 15.1985 9.07902 15.3893 9.21967 15.5299C9.36032 15.6706 9.55109 15.7496 9.75 15.7496H11.25M13.5 11.2496V12.7496C13.5 12.9485 13.579 13.1393 13.7197 13.2799C13.8603 13.4206 14.0511 13.4996 14.25 13.4996H15M15.75 11.2496V15.7496" stroke="white" stroke-width="1.2" stroke-linecap="round" stroke-linejoin="round"/>
</svg>
