<svg width="17" height="18" viewBox="0 0 17 18" fill="none" xmlns="http://www.w3.org/2000/svg">
<path d="M13.2372 5.21135V2.36924C13.2372 2.11799 13.1374 1.87702 12.9597 1.69935C12.782 1.52169 12.5411 1.42188 12.2898 1.42188H2.81612C2.31361 1.42188 1.83167 1.6215 1.47634 1.97683C1.12101 2.33216 0.921387 2.8141 0.921387 3.31661M0.921387 3.31661C0.921387 3.81913 1.12101 4.30106 1.47634 4.65639C1.83167 5.01173 2.31361 5.21135 2.81612 5.21135H14.1845C14.4358 5.21135 14.6768 5.31116 14.8544 5.48883C15.0321 5.66649 15.1319 5.90746 15.1319 6.15872V9.00082M0.921387 3.31661V14.685C0.921387 15.1875 1.12101 15.6695 1.47634 16.0248C1.83167 16.3801 2.31361 16.5798 2.81612 16.5798H14.1845C14.4358 16.5798 14.6768 16.48 14.8544 16.3023C15.0321 16.1246 15.1319 15.8837 15.1319 15.6324V12.7903M16.0793 9.00082V12.7903H12.2898C11.7873 12.7903 11.3054 12.5907 10.95 12.2353C10.5947 11.88 10.3951 11.3981 10.3951 10.8956C10.3951 10.393 10.5947 9.91111 10.95 9.55578C11.3054 9.20045 11.7873 9.00082 12.2898 9.00082H16.0793Z" stroke="#74419D" stroke-width="1.5" stroke-linecap="round" stroke-linejoin="round"/>
</svg>
