<svg width="145" height="42" viewBox="0 0 145 42" fill="none" xmlns="http://www.w3.org/2000/svg">
<path d="M144.198 36.9702C144.198 39.1936 142.36 40.9945 140.086 40.9945H5.50453C3.23163 40.9945 1.38672 39.1936 1.38672 36.9702V4.87814C1.38672 2.65587 3.23163 0.848633 5.50453 0.848633H140.085C142.36 0.848633 144.197 2.65587 144.197 4.87814L144.198 36.9702Z" fill="white"/>
<path d="M32.8128 20.6961C32.7818 17.3345 35.6359 15.6991 35.7664 15.6229C34.15 13.3252 31.6447 13.0112 30.7643 12.9862C28.6601 12.7703 26.619 14.2138 25.5471 14.2138C24.4538 14.2138 22.8032 13.0071 21.0242 13.0425C18.735 13.077 16.5933 14.3692 15.4187 16.376C12.9947 20.4677 14.8026 26.4806 17.125 29.788C18.2867 31.4078 19.6442 33.2163 21.4211 33.1527C23.1594 33.0828 23.8088 32.0722 25.9065 32.0722C27.9851 32.0722 28.5948 33.1527 30.407 33.112C32.2726 33.0828 33.4472 31.4849 34.5683 29.8506C35.9108 27.994 36.45 26.1656 36.4714 26.0718C36.4275 26.0572 32.8482 24.7252 32.8128 20.6961Z" fill="black"/>
<path d="M29.3897 10.8105C30.3246 9.6705 30.9643 8.11955 30.7867 6.54565C29.4335 6.60406 27.7412 7.45828 26.7666 8.57326C25.9044 9.55577 25.1342 11.1662 25.3332 12.6806C26.8533 12.7912 28.414 11.9328 29.3897 10.8105Z" fill="black"/>
<path d="M53.0555 10.5009C53.0555 11.7285 52.6779 12.6526 51.9237 13.2732C51.2251 13.8458 50.2324 14.1327 48.9466 14.1327C48.309 14.1327 47.7634 14.1056 47.3066 14.0513V7.34375C47.9025 7.24988 48.5443 7.2019 49.2375 7.2019C50.4624 7.2019 51.3856 7.46161 52.0082 7.98103C52.7057 8.56824 53.0555 9.40786 53.0555 10.5009ZM51.8734 10.5312C51.8734 9.73536 51.6573 9.12521 51.2251 8.69966C50.793 8.27516 50.1618 8.06238 49.3306 8.06238C48.9776 8.06238 48.677 8.08533 48.4277 8.13331V13.2326C48.5657 13.2534 48.8182 13.2628 49.1851 13.2628C50.0431 13.2628 50.7052 13.0302 51.1716 12.565C51.6381 12.0999 51.8734 11.4219 51.8734 10.5312Z" fill="black"/>
<path d="M59.3218 11.5732C59.3218 12.3294 59.1004 12.949 58.6575 13.435C58.1933 13.9346 57.5782 14.1839 56.8101 14.1839C56.0698 14.1839 55.4804 13.945 55.0407 13.4652C54.6021 12.9865 54.3828 12.3826 54.3828 11.6546C54.3828 10.8932 54.6085 10.2684 55.0621 9.78344C55.5157 9.29844 56.1254 9.05542 56.8935 9.05542C57.6338 9.05542 58.2286 9.29427 58.6789 9.77301C59.1068 10.2382 59.3218 10.839 59.3218 11.5732ZM58.159 11.6087C58.159 11.155 58.0585 10.7659 57.8584 10.4416C57.6231 10.0494 57.2883 9.85332 56.8529 9.85332C56.4025 9.85332 56.0602 10.0494 55.8248 10.4416C55.6237 10.7659 55.5242 11.1612 55.5242 11.6285C55.5242 12.0822 55.6248 12.4713 55.8248 12.7956C56.0677 13.1878 56.4057 13.3839 56.8422 13.3839C57.2701 13.3839 57.606 13.1847 57.8477 12.7852C58.0553 12.4546 58.159 12.0624 58.159 11.6087Z" fill="black"/>
<path d="M67.7263 9.15552L66.1484 14.0722H65.1215L64.4678 11.9372C64.302 11.4042 64.1672 10.8744 64.0624 10.3487H64.0421C63.9447 10.889 63.81 11.4178 63.6367 11.9372L62.9424 14.0722H61.9037L60.4199 9.15552H61.572L62.1422 11.4929C62.2802 12.0457 62.3936 12.5724 62.4845 13.071H62.5049C62.5883 12.66 62.7263 12.1364 62.921 11.5033L63.6367 9.15656H64.5502L65.2359 11.4533C65.4017 12.0134 65.5365 12.5526 65.6403 13.072H65.6713C65.7473 12.5661 65.8617 12.0269 66.0136 11.4533L66.6255 9.15656H67.7263V9.15552Z" fill="black"/>
<path d="M73.5393 14.0722H72.4182V11.2561C72.4182 10.3883 72.0802 9.95445 71.402 9.95445C71.0693 9.95445 70.8008 10.0733 70.5922 10.3122C70.3857 10.551 70.2809 10.8327 70.2809 11.1549V14.0712H69.1598V10.5604C69.1598 10.1286 69.1459 9.66032 69.1191 9.15342H70.1044L70.1568 9.92211H70.1878C70.3183 9.68327 70.513 9.48614 70.7687 9.32864C71.0725 9.14507 71.4127 9.05225 71.7849 9.05225C72.2556 9.05225 72.6472 9.20035 72.9585 9.49761C73.3457 9.86162 73.5393 10.405 73.5393 11.1268V14.0722Z" fill="black"/>
<path d="M76.6298 14.0722H75.5098V6.89941H76.6298V14.0722Z" fill="black"/>
<path d="M83.2301 11.5732C83.2301 12.3294 83.0086 12.949 82.5657 13.435C82.1015 13.9346 81.4853 14.1839 80.7183 14.1839C79.9769 14.1839 79.3875 13.945 78.9489 13.4652C78.5103 12.9865 78.291 12.3826 78.291 11.6546C78.291 10.8932 78.5167 10.2684 78.9703 9.78344C79.4239 9.29844 80.0336 9.05542 80.8006 9.05542C81.542 9.05542 82.1357 9.29427 82.5871 9.77301C83.015 10.2382 83.2301 10.839 83.2301 11.5732ZM82.0662 11.6087C82.0662 11.155 81.9656 10.7659 81.7656 10.4416C81.5313 10.0494 81.1954 9.85332 80.7611 9.85332C80.3096 9.85332 79.9673 10.0494 79.733 10.4416C79.5319 10.7659 79.4324 11.1612 79.4324 11.6285C79.4324 12.0822 79.533 12.4713 79.733 12.7956C79.9759 13.1878 80.3139 13.3839 80.7504 13.3839C81.1783 13.3839 81.5131 13.1847 81.7549 12.7852C81.9635 12.4546 82.0662 12.0624 82.0662 11.6087Z" fill="black"/>
<path d="M88.6555 14.0723H87.6489L87.5655 13.5059H87.5344C87.19 13.9575 86.699 14.1839 86.0614 14.1839C85.5854 14.1839 85.2003 14.0347 84.9104 13.7385C84.6472 13.4694 84.5156 13.1346 84.5156 12.7372C84.5156 12.1365 84.7724 11.6786 85.2891 11.3615C85.8047 11.0444 86.53 10.889 87.4639 10.8963V10.8045C87.4639 10.1568 87.1151 9.8335 86.4166 9.8335C85.9191 9.8335 85.4805 9.95553 85.1019 10.1975L84.874 9.47992C85.3425 9.19727 85.9213 9.05542 86.6038 9.05542C87.9217 9.05542 88.5828 9.73337 88.5828 11.0893V12.8999C88.5828 13.3912 88.6074 13.7823 88.6555 14.0723ZM87.4917 12.3826V11.6243C86.255 11.6035 85.6367 11.9341 85.6367 12.6152C85.6367 12.8718 85.7073 13.0637 85.8517 13.192C85.9962 13.3203 86.1802 13.3839 86.3995 13.3839C86.6455 13.3839 86.8755 13.3078 87.0852 13.1565C87.2959 13.0042 87.4253 12.8113 87.4735 12.5745C87.4852 12.5213 87.4917 12.4567 87.4917 12.3826Z" fill="black"/>
<path d="M95.0268 14.0722H94.0319L93.9795 13.2826H93.9484C93.6307 13.8834 93.0894 14.1838 92.3288 14.1838C91.7212 14.1838 91.2152 13.9512 90.8141 13.486C90.4129 13.0208 90.2129 12.4169 90.2129 11.6753C90.2129 10.8795 90.43 10.2349 90.8665 9.74265C91.2891 9.28372 91.8068 9.05426 92.423 9.05426C93.1001 9.05426 93.574 9.27642 93.8436 9.72179H93.865V6.89941H94.9872V12.7475C94.9872 13.2263 95 13.6675 95.0268 14.0722ZM93.865 11.9987V11.1789C93.865 11.037 93.8543 10.9223 93.834 10.8347C93.7709 10.5718 93.635 10.3507 93.4285 10.1724C93.2199 9.99401 92.9686 9.90431 92.6786 9.90431C92.2604 9.90431 91.933 10.066 91.6923 10.3904C91.4538 10.7147 91.3329 11.1288 91.3329 11.6347C91.3329 12.1207 91.4474 12.515 91.6774 12.8185C91.9202 13.1418 92.2475 13.3035 92.6573 13.3035C93.0253 13.3035 93.3194 13.1689 93.543 12.8988C93.7591 12.6495 93.865 12.3491 93.865 11.9987Z" fill="black"/>
<path d="M104.615 11.5732C104.615 12.3294 104.393 12.949 103.95 13.435C103.486 13.9346 102.872 14.1839 102.103 14.1839C101.364 14.1839 100.774 13.945 100.334 13.4652C99.8951 12.9865 99.6758 12.3826 99.6758 11.6546C99.6758 10.8932 99.9015 10.2684 100.355 9.78344C100.809 9.29844 101.418 9.05542 102.188 9.05542C102.927 9.05542 103.523 9.29427 103.972 9.77301C104.4 10.2382 104.615 10.839 104.615 11.5732ZM103.453 11.6087C103.453 11.155 103.353 10.7659 103.152 10.4416C102.916 10.0494 102.582 9.85332 102.146 9.85332C101.697 9.85332 101.354 10.0494 101.118 10.4416C100.917 10.7659 100.817 11.1612 100.817 11.6285C100.817 12.0822 100.918 12.4713 101.118 12.7956C101.361 13.1878 101.699 13.3839 102.135 13.3839C102.563 13.3839 102.9 13.1847 103.142 12.7852C103.348 12.4546 103.453 12.0624 103.453 11.6087Z" fill="black"/>
<path d="M110.644 14.0722H109.524V11.2561C109.524 10.3883 109.186 9.95445 108.506 9.95445C108.174 9.95445 107.905 10.0733 107.698 10.3122C107.49 10.551 107.386 10.8327 107.386 11.1549V14.0712H106.264V10.5604C106.264 10.1286 106.251 9.66032 106.225 9.15342H107.209L107.261 9.92211H107.292C107.424 9.68327 107.618 9.48614 107.873 9.32864C108.178 9.14507 108.517 9.05225 108.89 9.05225C109.36 9.05225 109.752 9.20035 110.063 9.49761C110.451 9.86162 110.644 10.405 110.644 11.1268V14.0722Z" fill="black"/>
<path d="M118.188 9.97415H116.954V12.3626C116.954 12.9697 117.173 13.2732 117.608 13.2732C117.809 13.2732 117.976 13.2565 118.107 13.2221L118.136 14.0513C117.915 14.1326 117.624 14.1733 117.265 14.1733C116.822 14.1733 116.478 14.0419 116.229 13.779C115.978 13.5162 115.854 13.074 115.854 12.4534V9.97415H115.117V9.1554H115.854V8.25424L116.953 7.93091V9.15435H118.187V9.97415H118.188Z" fill="black"/>
<path d="M124.124 14.0722H123.002V11.2769C123.002 10.3956 122.664 9.95438 121.986 9.95438C121.466 9.95438 121.111 10.2099 120.917 10.721C120.883 10.8284 120.864 10.9598 120.864 11.1142V14.0711H119.744V6.89941H120.864V9.86259H120.886C121.239 9.32336 121.745 9.05426 122.4 9.05426C122.865 9.05426 123.249 9.20237 123.554 9.49963C123.933 9.86989 124.124 10.4206 124.124 11.1486V14.0722Z" fill="black"/>
<path d="M130.245 11.3812C130.245 11.5773 130.23 11.7421 130.203 11.8766H126.841C126.856 12.3627 127.017 12.7329 127.328 12.9895C127.612 13.219 127.979 13.3337 128.429 13.3337C128.926 13.3337 129.38 13.2565 129.788 13.1011L129.964 13.8604C129.486 14.0628 128.923 14.1639 128.271 14.1639C127.49 14.1639 126.875 13.9397 126.43 13.4912C125.983 13.0427 125.762 12.4409 125.762 11.6857C125.762 10.9442 125.968 10.3267 126.384 9.83441C126.819 9.30874 127.406 9.0459 128.147 9.0459C128.873 9.0459 129.423 9.30874 129.796 9.83441C130.096 10.2516 130.245 10.7679 130.245 11.3812ZM129.175 11.0985C129.184 10.7742 129.11 10.4946 128.958 10.2589C128.763 9.9554 128.467 9.80312 128.066 9.80312C127.7 9.80312 127.402 9.95123 127.174 10.2485C126.988 10.4852 126.877 10.7679 126.841 11.0985H129.175Z" fill="black"/>
<path d="M57.9698 32.9201H55.5404L54.2096 28.843H49.584L48.3164 32.9201H45.9512L50.534 19.0398H53.3645L57.9698 32.9201ZM53.8085 27.1325L52.605 23.508C52.4777 23.1378 52.2392 22.2658 51.8872 20.8932H51.8444C51.7043 21.4836 51.4786 22.3555 51.1683 23.508L49.9863 27.1325H53.8085Z" fill="black"/>
<path d="M69.7547 27.7928C69.7547 29.495 69.2829 30.8405 68.3394 31.8282C67.4943 32.7074 66.4449 33.1465 65.1922 33.1465C63.84 33.1465 62.8687 32.673 62.2771 31.726H62.2344V36.9984H59.9536V26.2064C59.9536 25.1363 59.9248 24.038 59.8691 22.9115H61.8749L62.0022 24.4979H62.045C62.8056 23.3027 63.9599 22.7061 65.5089 22.7061C66.7198 22.7061 67.7307 23.1723 68.5395 24.1058C69.3503 25.0403 69.7547 26.269 69.7547 27.7928ZM67.4312 27.8741C67.4312 26.9 67.2065 26.0969 66.7551 25.4648C66.262 24.8056 65.5998 24.476 64.7697 24.476C64.207 24.476 63.6956 24.6596 63.2388 25.0215C62.781 25.3866 62.4815 25.8632 62.3413 26.4536C62.2707 26.7289 62.2354 26.9542 62.2354 27.1315V28.8003C62.2354 29.5284 62.4644 30.1427 62.9222 30.6444C63.3801 31.1461 63.9748 31.3964 64.7065 31.3964C65.5656 31.3964 66.2341 31.073 66.7123 30.4285C67.1916 29.7828 67.4312 28.9318 67.4312 27.8741Z" fill="black"/>
<path d="M81.5622 27.7928C81.5622 29.495 81.0905 30.8405 80.1459 31.8282C79.3018 32.7074 78.2524 33.1465 76.9997 33.1465C75.6476 33.1465 74.6762 32.673 74.0857 31.726H74.0429V36.9984H71.7622V26.2064C71.7622 25.1363 71.7334 24.038 71.6777 22.9115H73.6835L73.8108 24.4979H73.8536C74.6131 23.3027 75.7674 22.7061 77.3175 22.7061C78.5273 22.7061 79.5383 23.1723 80.3491 24.1058C81.1568 25.0403 81.5622 26.269 81.5622 27.7928ZM79.2387 27.8741C79.2387 26.9 79.013 26.0969 78.5616 25.4648C78.0684 24.8056 77.4084 24.476 76.5772 24.476C76.0134 24.476 75.5032 24.6596 75.0453 25.0215C74.5875 25.3866 74.289 25.8632 74.1489 26.4536C74.0793 26.7289 74.0429 26.9542 74.0429 27.1315V28.8003C74.0429 29.5284 74.2719 30.1427 74.7276 30.6444C75.1854 31.145 75.7802 31.3964 76.5141 31.3964C77.3731 31.3964 78.0417 31.073 78.5199 30.4285C78.9991 29.7828 79.2387 28.9318 79.2387 27.8741Z" fill="black"/>
<path d="M94.7635 29.0276C94.7635 30.2083 94.3431 31.1689 93.499 31.9105C92.5716 32.7209 91.2804 33.1256 89.6212 33.1256C88.0893 33.1256 86.8613 32.8377 85.9316 32.2609L86.4601 30.4075C87.4614 30.9979 88.56 31.2941 89.7571 31.2941C90.6161 31.2941 91.2847 31.1043 91.765 30.7267C92.2432 30.3491 92.4817 29.8422 92.4817 29.2102C92.4817 28.6469 92.2849 28.1724 91.8901 27.7875C91.4975 27.4026 90.8418 27.0449 89.9261 26.7142C87.4336 25.8079 86.1884 24.4801 86.1884 22.7341C86.1884 21.5931 86.6248 20.6575 87.4988 19.9295C88.3696 19.2004 89.5313 18.8364 90.9841 18.8364C92.2795 18.8364 93.3557 19.0565 94.2147 19.4956L93.6445 21.3083C92.8422 20.8828 91.9351 20.67 90.9199 20.67C90.1176 20.67 89.4907 20.863 89.0414 21.2468C88.6616 21.59 88.4712 22.0082 88.4712 22.5036C88.4712 23.0523 88.6884 23.506 89.1248 23.8627C89.5046 24.1923 90.1946 24.549 91.1959 24.9338C92.4207 25.4147 93.3204 25.9768 93.8991 26.6214C94.4757 27.2639 94.7635 28.0681 94.7635 29.0276Z" fill="black"/>
<path d="M102.302 24.5801H99.7885V29.4395C99.7885 30.6754 100.231 31.2929 101.119 31.2929C101.527 31.2929 101.865 31.2585 102.132 31.1896L102.195 32.8783C101.746 33.042 101.155 33.1244 100.422 33.1244C99.521 33.1244 98.8172 32.8564 98.309 32.3213C97.803 31.7852 97.5484 30.8861 97.5484 29.623V24.578H96.0508V22.9092H97.5484V21.0767L99.7885 20.4175V22.9092H102.302V24.5801Z" fill="black"/>
<path d="M113.646 27.8334C113.646 29.3718 113.195 30.6349 112.294 31.6226C111.35 32.6396 110.096 33.1465 108.533 33.1465C107.027 33.1465 105.828 32.6594 104.933 31.6852C104.039 30.7111 103.592 29.4813 103.592 27.9992C103.592 26.4483 104.052 25.1779 104.975 24.1902C105.896 23.2014 107.139 22.707 108.702 22.707C110.208 22.707 111.42 23.1941 112.335 24.1693C113.21 25.1153 113.646 26.3367 113.646 27.8334ZM111.28 27.9054C111.28 26.9823 111.078 26.1907 110.668 25.5304C110.19 24.7315 109.506 24.3331 108.621 24.3331C107.704 24.3331 107.008 24.7325 106.529 25.5304C106.12 26.1917 105.917 26.9959 105.917 27.9471C105.917 28.8701 106.12 29.6618 106.529 30.321C107.022 31.1199 107.711 31.5183 108.6 31.5183C109.471 31.5183 110.155 31.1116 110.648 30.3001C111.068 29.6274 111.28 28.8274 111.28 27.9054Z" fill="black"/>
<path d="M121.059 24.8672C120.833 24.8265 120.592 24.8056 120.34 24.8056C119.537 24.8056 118.917 25.1008 118.48 25.6922C118.101 26.2137 117.91 26.8729 117.91 27.6687V32.9202H115.631L115.652 26.0635C115.652 24.9099 115.623 23.8596 115.566 22.9126H117.553L117.636 24.8275H117.699C117.94 24.1694 118.32 23.6395 118.84 23.2422C119.348 22.8844 119.897 22.7061 120.488 22.7061C120.699 22.7061 120.89 22.7207 121.059 22.7467V24.8672Z" fill="black"/>
<path d="M131.26 27.4423C131.26 27.8407 131.233 28.1766 131.176 28.4509H124.334C124.361 29.4397 124.691 30.1958 125.327 30.7174C125.903 31.1836 126.649 31.4172 127.565 31.4172C128.578 31.4172 129.502 31.2597 130.333 30.9437L130.69 32.4873C129.719 32.9004 128.572 33.1058 127.249 33.1058C125.657 33.1058 124.408 32.649 123.499 31.7364C122.591 30.8237 122.137 29.5982 122.137 28.0608C122.137 26.5516 122.559 25.2948 123.405 24.2924C124.291 23.2223 125.488 22.6873 126.994 22.6873C128.474 22.6873 129.594 23.2223 130.355 24.2924C130.957 25.1425 131.26 26.1938 131.26 27.4423ZM129.085 26.8655C129.1 26.2064 128.951 25.6369 128.642 25.156C128.247 24.5375 127.641 24.2288 126.824 24.2288C126.079 24.2288 125.472 24.5302 125.009 25.1352C124.629 25.616 124.404 26.1928 124.334 26.8645H129.085V26.8655Z" fill="black"/>
</svg>
