<svg width="36" height="36" viewBox="0 0 36 36" fill="none" xmlns="http://www.w3.org/2000/svg">
<path d="M12 10.5V7.5C12 6.70435 12.3161 5.94129 12.8787 5.37868C13.4413 4.81607 14.2044 4.5 15 4.5H21C21.7956 4.5 22.5587 4.81607 23.1213 5.37868C23.6839 5.94129 24 6.70435 24 7.5V10.5M18 18V18.015M4.5 19.5C8.68737 21.61 13.311 22.7091 18 22.7091C22.689 22.7091 27.3126 21.61 31.5 19.5M4.5 13.5C4.5 12.7044 4.81607 11.9413 5.37868 11.3787C5.94129 10.8161 6.70435 10.5 7.5 10.5H28.5C29.2956 10.5 30.0587 10.8161 30.6213 11.3787C31.1839 11.9413 31.5 12.7044 31.5 13.5V27C31.5 27.7956 31.1839 28.5587 30.6213 29.1213C30.0587 29.6839 29.2956 30 28.5 30H7.5C6.70435 30 5.94129 29.6839 5.37868 29.1213C4.81607 28.5587 4.5 27.7956 4.5 27V13.5Z" stroke="url(#paint0_linear_5575_43638)" stroke-width="3" stroke-linecap="round" stroke-linejoin="round"/>
<defs>
<linearGradient id="paint0_linear_5575_43638" x1="4.5" y1="17.25" x2="31.5" y2="17.25" gradientUnits="userSpaceOnUse">
<stop stop-color="#C32853"/>
<stop offset="1" stop-color="#EE7E49"/>
</linearGradient>
</defs>
</svg>
