<svg width="36" height="36" viewBox="0 0 36 36" fill="none" xmlns="http://www.w3.org/2000/svg">
<path d="M7.5 33V25.5L6 24V18C6 17.6022 6.15804 17.2206 6.43934 16.9393C6.72064 16.658 7.10218 16.5 7.5 16.5H13.5C13.8978 16.5 14.2794 16.658 14.5607 16.9393C14.842 17.2206 15 17.6022 15 18V24L13.5 25.5V33M22.5 33V27H19.5L22.5 18C22.5 17.6022 22.658 17.2206 22.9393 16.9393C23.2206 16.658 23.6022 16.5 24 16.5H27C27.3978 16.5 27.7794 16.658 28.0607 16.9393C28.342 17.2206 28.5 17.6022 28.5 18L31.5 27H28.5V33M7.5 7.5C7.5 8.29565 7.81607 9.05871 8.37868 9.62132C8.94129 10.1839 9.70435 10.5 10.5 10.5C11.2956 10.5 12.0587 10.1839 12.6213 9.62132C13.1839 9.05871 13.5 8.29565 13.5 7.5C13.5 6.70435 13.1839 5.94129 12.6213 5.37868C12.0587 4.81607 11.2956 4.5 10.5 4.5C9.70435 4.5 8.94129 4.81607 8.37868 5.37868C7.81607 5.94129 7.5 6.70435 7.5 7.5ZM22.5 7.5C22.5 8.29565 22.8161 9.05871 23.3787 9.62132C23.9413 10.1839 24.7044 10.5 25.5 10.5C26.2956 10.5 27.0587 10.1839 27.6213 9.62132C28.1839 9.05871 28.5 8.29565 28.5 7.5C28.5 6.70435 28.1839 5.94129 27.6213 5.37868C27.0587 4.81607 26.2956 4.5 25.5 4.5C24.7044 4.5 23.9413 4.81607 23.3787 5.37868C22.8161 5.94129 22.5 6.70435 22.5 7.5Z" stroke="url(#paint0_linear_5609_48536)" stroke-width="3" stroke-linecap="round" stroke-linejoin="round"/>
<defs>
<linearGradient id="paint0_linear_5609_48536" x1="6" y1="18.75" x2="31.5" y2="18.75" gradientUnits="userSpaceOnUse">
<stop stop-color="#C32853"/>
<stop offset="1" stop-color="#EE7E49"/>
</linearGradient>
</defs>
</svg>
