<svg width="36" height="36" viewBox="0 0 36 36" fill="none" xmlns="http://www.w3.org/2000/svg">
<path d="M12 12V9C12 8.20435 12.3161 7.44129 12.8787 6.87868C13.4413 6.31607 14.2044 6 15 6H21C21.7956 6 22.5587 6.31607 23.1213 6.87868C23.6839 7.44129 24 8.20435 24 9V12M15 21H21M18 18V24M6 15C6 14.2044 6.31607 13.4413 6.87868 12.8787C7.44129 12.3161 8.20435 12 9 12H27C27.7956 12 28.5587 12.3161 29.1213 12.8787C29.6839 13.4413 30 14.2044 30 15V27C30 27.7956 29.6839 28.5587 29.1213 29.1213C28.5587 29.6839 27.7956 30 27 30H9C8.20435 30 7.44129 29.6839 6.87868 29.1213C6.31607 28.5587 6 27.7956 6 27V15Z" stroke="url(#paint0_linear_5575_43678)" stroke-width="3" stroke-linecap="round" stroke-linejoin="round"/>
<defs>
<linearGradient id="paint0_linear_5575_43678" x1="6" y1="18" x2="30" y2="18" gradientUnits="userSpaceOnUse">
<stop stop-color="#C32853"/>
<stop offset="1" stop-color="#EE7E49"/>
</linearGradient>
</defs>
</svg>
