<svg width="36" height="36" viewBox="0 0 36 36" fill="none" xmlns="http://www.w3.org/2000/svg">
<path d="M29.2502 20.3579L18.0002 31.4999L13.6562 27.1979M4.4807 15.0419C4.46817 13.4599 4.95619 11.9145 5.87498 10.6266C6.79377 9.33876 8.09628 8.37441 9.59622 7.87149C11.0962 7.36857 12.7167 7.35283 14.2262 7.82652C15.7356 8.30022 17.0566 9.23908 18.0002 10.5089C18.6205 9.68389 19.4044 8.99584 20.3029 8.48776C21.2013 7.97969 22.1949 7.66253 23.2216 7.55614C24.2483 7.44974 25.2858 7.5564 26.2694 7.86945C27.2529 8.18249 28.1612 8.69517 28.9375 9.3754C29.7138 10.0556 30.3413 10.8888 30.7808 11.8227C31.2203 12.7566 31.4623 13.7712 31.4917 14.8029C31.521 15.8347 31.3371 16.8613 30.9514 17.8187C30.5657 18.7761 29.9866 19.6436 29.2502 20.3669M4.50024 19.5H7.50024L10.5002 24L13.5002 15L15.0002 19.5H19.5002" stroke="url(#paint0_linear_5575_43628)" stroke-width="3" stroke-linecap="round" stroke-linejoin="round"/>
<defs>
<linearGradient id="paint0_linear_5575_43628" x1="4.48047" y1="19.4911" x2="31.4947" y2="19.4911" gradientUnits="userSpaceOnUse">
<stop stop-color="#C32853"/>
<stop offset="1" stop-color="#EE7E49"/>
</linearGradient>
</defs>
</svg>
