<svg width="36" height="36" viewBox="0 0 36 36" fill="none" xmlns="http://www.w3.org/2000/svg">
<path d="M21.0255 27L18 30L6.74996 18.858C6.00792 18.1359 5.42343 17.268 5.03329 16.309C4.64314 15.3499 4.45581 14.3204 4.48307 13.2854C4.51033 12.2504 4.75161 11.2322 5.1917 10.295C5.63179 9.35783 6.26117 8.5219 7.04019 7.83989C7.81922 7.15788 8.73102 6.64455 9.71818 6.33224C10.7053 6.01993 11.7465 5.9154 12.776 6.02522C13.8056 6.13505 14.8012 6.45686 15.7003 6.97038C16.5993 7.4839 17.3823 8.17802 18 9.00902C19.1734 7.44682 20.9101 6.40419 22.8405 6.103C24.771 5.80181 26.7428 6.26583 28.3363 7.39634C29.9298 8.52684 31.0193 10.2346 31.3729 12.1561C31.7265 14.0777 31.3162 16.0613 30.2295 17.685M23.9849 30.0001L30.2804 23.6656C31.0591 22.8768 31.4956 21.813 31.4956 20.7046C31.4956 19.5962 31.0591 18.5324 30.2804 17.7436C29.8978 17.3546 29.4418 17.0455 28.9388 16.8341C28.4357 16.6228 27.8957 16.5135 27.3501 16.5125C26.8045 16.5115 26.2641 16.6189 25.7603 16.8284C25.2566 17.038 24.7994 17.3455 24.4154 17.7331L23.9954 18.1561L23.5769 17.7316C23.1943 17.3426 22.7383 17.0335 22.2353 16.8221C21.7322 16.6108 21.1922 16.5015 20.6466 16.5005C20.101 16.4995 19.5606 16.6069 19.0568 16.8164C18.5531 17.026 18.0959 17.3335 17.7119 17.7211C16.9319 18.5086 16.4934 19.5716 16.4915 20.68C16.4895 21.7883 16.9242 22.8529 17.7014 23.6431L23.9744 30.0001H23.9849Z" stroke="url(#paint0_linear_5575_43658)" stroke-width="3" stroke-linecap="round" stroke-linejoin="round"/>
<defs>
<linearGradient id="paint0_linear_5575_43658" x1="4.48047" y1="17.9915" x2="31.4967" y2="17.9915" gradientUnits="userSpaceOnUse">
<stop stop-color="#C32853"/>
<stop offset="1" stop-color="#EE7E49"/>
</linearGradient>
</defs>
</svg>
