<svg width="36" height="36" viewBox="0 0 36 36" fill="none" xmlns="http://www.w3.org/2000/svg">
<path d="M22.5011 4.5C23.6945 4.5 24.8391 4.97411 25.683 5.81802C26.527 6.66193 27.0011 7.80653 27.0011 9C27.7411 8.99984 28.4697 9.18218 29.1224 9.53087C29.7751 9.87956 30.3318 10.3838 30.743 10.999C31.1543 11.6142 31.4075 12.3214 31.4802 13.0578C31.553 13.7942 31.443 14.5372 31.1599 15.221C30.8769 15.9047 30.4297 16.5081 29.8578 16.9777C29.2859 17.4474 28.607 17.7687 27.8812 17.9133C27.1555 18.0579 26.4053 18.0212 25.6971 17.8066C24.9889 17.592 24.3445 17.2061 23.8211 16.683L16.6841 23.82C17.1992 24.3355 17.5813 24.9684 17.7978 25.6643C18.0142 26.3601 18.0584 27.0982 17.9265 27.8149C17.7946 28.5316 17.4907 29.2056 17.0408 29.7788C16.5909 30.3521 16.0085 30.8076 15.3436 31.106C14.6788 31.4044 13.9514 31.537 13.2241 31.4921C12.4967 31.4473 11.7911 31.2265 11.1679 30.8488C10.5448 30.471 10.0227 29.9475 9.64652 29.3233C9.27038 28.6992 9.05146 27.993 9.00857 27.2655V27H8.74457C8.01682 26.9574 7.31033 26.7385 6.68587 26.3624C6.06142 25.9862 5.53769 25.464 5.15976 24.8406C4.78183 24.2172 4.56101 23.5114 4.51629 22.7838C4.47157 22.0561 4.60429 21.3285 4.90304 20.6636C5.20179 19.9986 5.65762 19.4162 6.23131 18.9664C6.805 18.5166 7.47938 18.2129 8.19643 18.0815C8.91348 17.95 9.65173 17.9947 10.3477 18.2118C11.0436 18.4289 11.6764 18.8117 12.1916 19.3275L19.3286 12.1905C18.699 11.5613 18.2702 10.7596 18.0963 9.8867C17.9224 9.0138 18.0112 8.10893 18.3516 7.28653C18.692 6.46414 19.2686 5.76115 20.0086 5.26649C20.7485 4.77182 21.6185 4.50769 22.5086 4.5075L22.5011 4.5Z" stroke="url(#paint0_linear_5609_48552)" stroke-width="3" stroke-linecap="round" stroke-linejoin="round"/>
<defs>
<linearGradient id="paint0_linear_5609_48552" x1="4.50781" y1="18.0003" x2="31.502" y2="18.0003" gradientUnits="userSpaceOnUse">
<stop stop-color="#C32853"/>
<stop offset="1" stop-color="#EE7E49"/>
</linearGradient>
</defs>
</svg>
