<svg width="100" height="283" viewBox="0 0 100 283" fill="none" xmlns="http://www.w3.org/2000/svg">
<g opacity="0.1">
<circle cx="-41.5" cy="141.5" r="140.074" stroke="url(#paint0_linear_6014_31574)" stroke-width="2.85237"/>
<path fill-rule="evenodd" clip-rule="evenodd" d="M-155.799 75.6078C-137.539 43.9812 -108.188 22.7491 -75.4954 13.9887C-42.803 5.22914 -6.7682 8.94046 24.8584 27.2007C56.4851 45.4601 77.7171 74.8117 86.4775 107.504C95.2371 140.197 91.5258 176.231 73.2656 207.858C55.0062 239.485 25.6546 260.717 -7.03781 269.477C-39.7302 278.237 -75.765 274.525 -107.392 256.265C-139.018 238.006 -160.25 208.654 -169.011 175.962C-177.77 143.269 -174.059 107.234 -155.799 75.6078ZM-75.1391 15.3186C-107.491 23.9875 -136.537 44.9981 -154.606 76.296C-172.676 107.594 -176.35 143.254 -167.681 175.605C-159.012 207.957 -138.001 237.003 -106.703 255.072C-75.4056 273.142 -39.746 276.815 -7.39412 268.147C24.9577 259.478 54.0035 238.468 72.0729 207.17C90.1432 175.872 93.8159 140.212 85.1477 107.86C76.4787 75.5085 55.4682 46.4628 24.1703 28.3934C-7.12766 10.3231 -42.788 6.64966 -75.1391 15.3186Z" fill="url(#paint1_linear_6014_31574)"/>
<path fill-rule="evenodd" clip-rule="evenodd" d="M-98.9588 108.423C-89.7617 92.4922 -74.9771 81.7973 -58.5095 77.3852C-42.0427 72.973 -23.8912 74.8421 -7.96046 84.04C7.97031 93.2371 18.6652 108.022 23.0773 124.489C27.4902 140.956 25.6204 159.108 16.4225 175.038C7.22536 190.969 -7.55923 201.664 -24.0268 206.076C-40.4937 210.489 -58.6451 208.619 -74.5758 199.421C-90.5066 190.223 -101.201 175.439 -105.614 158.972C-110.026 142.505 -108.157 124.354 -98.9588 108.423ZM-58.1532 78.715C-74.2802 83.0357 -88.7589 93.5099 -97.7669 109.111C-106.775 124.713 -108.605 142.489 -104.285 158.616C-99.9639 174.742 -89.4897 189.221 -73.8884 198.229C-58.2864 207.237 -40.5102 209.068 -24.3839 204.747C-8.25688 200.426 6.22186 189.952 15.2298 174.351C24.2377 158.749 26.0681 140.973 21.7474 124.846C17.4268 108.719 6.95259 94.2406 -8.64946 85.2327C-24.2499 76.2248 -42.0261 74.3943 -58.1532 78.715Z" fill="url(#paint2_linear_6014_31574)"/>
<path fill-rule="evenodd" clip-rule="evenodd" d="M-1.13941 267.25L-24.8594 205.501L-23.5342 205.25L0.185726 266.999L-1.13941 267.25Z" fill="url(#paint3_linear_6014_31574)"/>
<path d="M5.84293 187.855L4.87109 188.828L51.7962 235.726L52.7681 234.754L5.84293 187.855Z" fill="url(#paint4_linear_6014_31574)"/>
<path d="M22.6096 158.133L22.2539 159.462L86.3407 176.618L86.6964 175.289L22.6096 158.133Z" fill="url(#paint5_linear_6014_31574)"/>
<path fill-rule="evenodd" clip-rule="evenodd" d="M84.2459 101.607L22.4971 125.327L22.2461 124.002L83.9955 100.282L84.2459 101.607Z" fill="url(#paint6_linear_6014_31574)"/>
<path d="M51.2085 48.2381L4.86719 94.6057L5.83958 95.5776L52.1809 49.21L51.2085 48.2381Z" fill="url(#paint7_linear_6014_31574)"/>
<path fill-rule="evenodd" clip-rule="evenodd" d="M-95.1368 110.63C-86.5483 95.7551 -72.7435 85.7689 -57.3669 81.6485C-41.9903 77.5288 -25.0419 79.2741 -10.1666 87.8627C4.7086 96.4512 14.6948 110.256 18.8152 125.633C22.9349 141.009 21.1896 157.958 12.6011 172.833C4.01252 187.708 -9.7922 197.694 -25.1688 201.815C-40.5454 205.934 -57.4939 204.189 -72.3691 195.601C-87.2443 187.012 -97.2305 173.207 -101.351 157.831C-105.471 142.455 -103.725 125.506 -95.1368 110.63ZM-57.0343 82.8908C-72.0924 86.9254 -85.6125 96.7058 -94.0237 111.274C-102.435 125.841 -104.145 142.441 -100.109 157.499C-96.0741 172.557 -86.2944 186.077 -71.7266 194.487C-57.1588 202.899 -40.5604 204.608 -25.5014 200.573C-10.4433 196.539 3.07681 186.758 11.4872 172.19C19.8984 157.623 21.6082 141.024 17.5729 125.965C13.5384 110.907 3.7579 97.3869 -10.8099 88.9757C-25.3769 80.5653 -41.9762 78.8555 -57.0343 82.8908Z" fill="url(#paint8_linear_6014_31574)"/>
<path fill-rule="evenodd" clip-rule="evenodd" d="M5.49606 189.233L1.83203 185.587L2.79929 184.611L6.4633 188.257L5.49606 189.233Z" fill="url(#paint9_linear_6014_31574)"/>
<path fill-rule="evenodd" clip-rule="evenodd" d="M11.3008 182.732L7.19141 179.595L8.02308 178.502L12.1325 181.638L11.3008 182.732Z" fill="url(#paint10_linear_6014_31574)"/>
<path fill-rule="evenodd" clip-rule="evenodd" d="M16.2018 175.524L11.7188 172.951L12.4006 171.758L16.8837 174.331L16.2018 175.524Z" fill="url(#paint11_linear_6014_31574)"/>
<path fill-rule="evenodd" clip-rule="evenodd" d="M20.1209 167.741L15.3398 165.775L15.8601 164.504L20.6404 166.47L20.1209 167.741Z" fill="url(#paint12_linear_6014_31574)"/>
<path fill-rule="evenodd" clip-rule="evenodd" d="M22.9924 159.516L17.9961 158.19L18.3453 156.861L23.3416 158.186L22.9924 159.516Z" fill="url(#paint13_linear_6014_31574)"/>
<path fill-rule="evenodd" clip-rule="evenodd" d="M24.7631 150.98L19.6367 150.318L19.8101 148.955L24.9365 149.617L24.7631 150.98Z" fill="url(#paint14_linear_6014_31574)"/>
<path fill-rule="evenodd" clip-rule="evenodd" d="M25.4057 142.291L20.236 142.304L20.2305 140.93L25.3994 140.917L25.4057 142.291Z" fill="url(#paint15_linear_6014_31574)"/>
<path fill-rule="evenodd" clip-rule="evenodd" d="M24.91 133.589L19.7868 134.277L19.6016 132.915L24.7247 132.228L24.91 133.589Z" fill="url(#paint16_linear_6014_31574)"/>
<path fill-rule="evenodd" clip-rule="evenodd" d="M23.2815 125.029L18.2915 126.38L17.9297 125.054L22.9196 123.703L23.2815 125.029Z" fill="url(#paint17_linear_6014_31574)"/>
<path fill-rule="evenodd" clip-rule="evenodd" d="M20.5482 116.755L15.7774 118.745L15.2461 117.478L20.0169 115.488L20.5482 116.755Z" fill="url(#paint18_linear_6014_31574)"/>
<path fill-rule="evenodd" clip-rule="evenodd" d="M16.7602 108.904L12.2898 111.5L11.5977 110.314L16.0681 107.718L16.7602 108.904Z" fill="url(#paint19_linear_6014_31574)"/>
<path fill-rule="evenodd" clip-rule="evenodd" d="M11.9809 101.619L7.88798 104.777L7.04688 103.69L11.1397 100.533L11.9809 101.619Z" fill="url(#paint20_linear_6014_31574)"/>
<path fill-rule="evenodd" clip-rule="evenodd" d="M6.28978 95.0207L2.64389 98.6847L1.66797 97.7183L5.31386 94.0535L6.28978 95.0207Z" fill="url(#paint21_linear_6014_31574)"/>
<path fill-rule="evenodd" clip-rule="evenodd" d="M9.90368 235.5C10.0708 235.868 10.1993 236.27 10.193 236.688C10.1646 236.963 9.99906 237.052 9.82485 237.037C9.6057 237.015 9.25885 236.807 8.9924 236.226C7.22109 232.271 5.1723 228.069 3.32216 224.173L-0.550781 225.941L4.86958 237.801C5.35517 238.862 5.33153 239.976 3.96698 240.606L3.54839 240.8C4.86564 241.39 5.92118 241.419 7.31332 240.785C8.20883 240.375 8.88519 239.635 9.18948 238.766L9.32191 238.808L9.47641 238.853C10.6029 239.115 11.6214 238.814 12.3458 238.484C13.2421 238.073 13.9161 237.339 14.2204 236.469L14.3489 236.51L14.5018 236.556C15.6299 236.817 16.6484 236.518 17.3744 236.187C19.0149 235.436 19.9072 233.591 19.156 231.862C18.7382 230.902 18.158 229.638 17.5163 228.263C18.385 229.162 19.7448 230.183 21.0652 229.579C22.1523 229.08 24.3075 228.031 21.2702 221.386C19.0692 216.565 15.3043 214.958 12.9576 214.403C13.1404 214.214 13.3588 214.071 13.5976 213.962C14.7974 213.415 16.2243 213.946 16.2243 213.946L15.6023 212.584C15.6023 212.584 14.5838 211.437 11.5883 212.804C10.6959 213.213 10.0322 213.692 9.55604 214.217C7.44102 214.471 5.06115 215.164 5.06115 215.164L5.73436 216.635C5.73436 216.635 6.90497 216.17 8.57932 216.125C8.23326 217.784 8.85681 219.65 9.52214 221.339L9.69162 221.741L14.9315 233.202C15.0986 233.573 15.2263 233.973 15.2231 234.389C15.194 234.654 15.0371 234.745 14.881 234.74C14.6808 234.733 14.3591 234.569 14.0903 234.066C12.4861 230.432 10.0125 225.355 8.35783 221.872L4.48412 223.641L9.90368 235.5ZM15.7324 224.492L15.6859 224.395L15.4951 223.996C14.6642 222.258 13.8948 220.656 13.3809 219.575C12.8921 218.501 12.6036 217.622 12.472 216.902C14.2914 217.739 16.1462 219.394 17.5612 222.489C21.5808 231.284 16.7832 226.612 15.7324 224.492Z" fill="url(#paint22_linear_6014_31574)"/>
<path fill-rule="evenodd" clip-rule="evenodd" d="M35.3973 198.572L47.7476 176.997L43.6878 174.673L31.3359 196.247L35.3973 198.572ZM45.8714 187.866L44.3264 186.98L49.4755 177.985L53.5361 180.31L51.6907 183.534C52.9709 183.62 54.2424 183.99 55.4185 184.662C59.7771 187.158 61.1771 192.906 58.5473 197.501C55.916 202.097 50.2496 203.8 45.8911 201.303C44.7165 200.631 43.7548 199.722 43.0304 198.66L41.185 201.884L37.1252 199.56L42.2137 190.671L43.7682 191.54L46.3066 192.994C46.2971 194.509 47.0736 195.981 48.4712 196.78C50.5429 197.966 53.1931 197.23 54.3929 195.136C55.5912 193.04 54.8856 190.382 52.8148 189.194C51.399 188.384 49.7144 188.47 48.3711 189.296L45.8714 187.866Z" fill="url(#paint23_linear_6014_31574)"/>
<path fill-rule="evenodd" clip-rule="evenodd" d="M47.32 131.24C47.2743 131.976 47.3113 132.627 47.4193 133.205C47.6463 134.003 47.9317 134.716 49.0345 135.628C49.1386 135.715 49.2474 135.798 49.3601 135.875L49.4358 135.927C50.7309 136.792 52.492 137.082 54.1419 137.277L54.5802 137.316L67.3192 138.117C67.7291 138.143 68.1477 138.221 68.5198 138.422C68.7428 138.575 68.7476 138.76 68.6672 138.895C68.5671 139.074 68.2651 139.282 67.6897 139.281C63.6764 138.977 57.9612 138.76 54.0607 138.572L53.7904 142.876L66.9676 143.704C67.3783 143.73 67.7969 143.807 68.1682 144.009C68.3991 144.168 68.3999 144.359 68.3006 144.506C68.1776 144.694 67.826 144.902 67.1804 144.862C62.8022 144.554 58.0724 144.374 53.7084 144.165L53.4388 148.469L66.616 149.296C67.7961 149.37 68.7807 149.921 68.69 151.444L68.6624 151.907C69.8189 151.015 70.3502 150.088 70.4472 148.54C70.5102 147.544 70.1728 146.586 69.5406 145.901L69.6423 145.802L69.7558 145.686C70.5276 144.805 70.7467 143.753 70.7987 142.947C70.861 141.953 70.5252 140.998 69.8969 140.313L69.9931 140.218L70.1058 140.104C70.8776 139.219 71.0975 138.169 71.1479 137.363C71.263 135.539 70.042 133.86 68.139 133.705C67.6518 133.666 67.089 133.626 66.4741 133.585C63.0135 133.369 53.3355 132.916 52.6513 132.758L52.3485 132.684C52.2067 132.645 52.0742 132.606 51.9457 132.566C49.8962 131.895 49.4681 131.084 49.5871 129.669C49.6841 129.039 49.9553 128.491 50.2304 128.067L51.8172 129.083L51.9378 125.051L47.5525 126.386C47.599 126.4 48.1911 126.771 48.9179 127.231C48.4063 127.571 47.4887 128.553 47.32 131.24Z" fill="url(#paint24_linear_6014_31574)"/>
<path fill-rule="evenodd" clip-rule="evenodd" d="M45.3115 96.1125C45.142 95.4866 45.5117 94.8434 46.1345 94.6723C46.7596 94.5028 47.4044 94.8702 47.5747 95.4961C47.745 96.1196 47.3761 96.7653 46.7525 96.9355C46.1274 97.1058 45.4834 96.7369 45.3115 96.1125ZM47.9247 101.267C50.9006 100.457 52.6632 97.4022 51.8859 94.4256C52.3447 94.3633 52.8106 94.2648 53.2899 94.1197C62.6604 91.2787 56.7048 77.1366 48.2479 81.823C45.1152 83.5596 42.3167 85.8615 39.765 87.9773C37.3788 89.9567 37.0556 87.9789 37.8849 87.5611L36.652 83.3949C29.711 85.4516 34.6482 97.8681 42.539 91.3228C45.1263 89.1755 47.7142 87.2749 50.3543 85.6218C53.3727 83.7339 56.6646 90.946 48.9038 90.1356C47.7915 90.0221 46.4632 90.0182 45.2453 90.3556L44.9702 90.4234C41.9762 91.2393 40.2104 94.3294 41.0263 97.3249C41.8414 100.318 44.9315 102.083 47.9247 101.267Z" fill="url(#paint25_linear_6014_31574)"/>
<path fill-rule="evenodd" clip-rule="evenodd" d="M22.7783 51.7461C22.359 47.4759 18.6011 42.7886 13.1902 40.1904C9.59165 38.4624 5.95916 37.7585 2.01135 38.4601L-0.296009 43.2104C5.13933 42.0863 10.7883 43.0456 14.6864 47.155C13.3526 47.6887 12.2017 48.7056 11.5293 50.1072C10.1048 53.072 11.3543 56.6296 14.3191 58.0533C17.2847 59.477 20.8415 58.2275 22.2667 55.2635C22.8115 54.1268 22.9644 52.9033 22.7783 51.7461ZM16.4105 53.735C15.8003 53.4417 15.5441 52.7102 15.8358 52.1C16.1298 51.4891 16.8614 51.2313 17.4715 51.5254C18.0801 51.8163 18.3387 52.5502 18.0446 53.1603C17.7522 53.7704 17.0206 54.0266 16.4105 53.735ZM2.45044 49.9251C3.06058 50.2168 3.31678 50.9483 3.02432 51.5585C2.73265 52.1678 1.99954 52.4256 1.39097 52.1331C0.780822 51.8399 0.523039 51.1068 0.815499 50.4982C1.10875 49.8881 1.84108 49.6311 2.45044 49.9251ZM-3.91666 51.9116C-4.1027 50.7552 -3.94978 49.531 -3.40507 48.3966C-1.98218 45.4302 1.5778 44.1816 4.54181 45.6044C7.50661 47.0281 8.75606 50.5865 7.33317 53.5521C6.65997 54.9521 5.51141 55.9698 4.17367 56.5035C8.07339 60.6121 13.7208 61.5723 19.1569 60.4481L16.8488 65.1977C12.901 65.9 9.27161 65.1953 5.67223 63.4673C0.261331 60.8699 -3.49729 56.1819 -3.91666 51.9116Z" fill="url(#paint26_linear_6014_31574)"/>
</g>
<defs>
<linearGradient id="paint0_linear_6014_31574" x1="-183" y1="141.5" x2="100" y2="141.5" gradientUnits="userSpaceOnUse">
<stop stop-color="#C32853"/>
<stop offset="1" stop-color="#EE7E49"/>
</linearGradient>
<linearGradient id="paint1_linear_6014_31574" x1="-173.539" y1="141.733" x2="91.0058" y2="141.733" gradientUnits="userSpaceOnUse">
<stop stop-color="#C32853"/>
<stop offset="1" stop-color="#EE7E49"/>
</linearGradient>
<linearGradient id="paint2_linear_6014_31574" x1="-107.895" y1="141.731" x2="25.3586" y2="141.731" gradientUnits="userSpaceOnUse">
<stop stop-color="#C32853"/>
<stop offset="1" stop-color="#EE7E49"/>
</linearGradient>
<linearGradient id="paint3_linear_6014_31574" x1="-24.8594" y1="236.25" x2="0.185726" y2="236.25" gradientUnits="userSpaceOnUse">
<stop stop-color="#C32853"/>
<stop offset="1" stop-color="#EE7E49"/>
</linearGradient>
<linearGradient id="paint4_linear_6014_31574" x1="28.3337" y1="212.277" x2="29.3055" y2="211.305" gradientUnits="userSpaceOnUse">
<stop stop-color="#C32853"/>
<stop offset="1" stop-color="#EE7E49"/>
</linearGradient>
<linearGradient id="paint5_linear_6014_31574" x1="54.2973" y1="168.04" x2="54.653" y2="166.711" gradientUnits="userSpaceOnUse">
<stop stop-color="#C32853"/>
<stop offset="1" stop-color="#EE7E49"/>
</linearGradient>
<linearGradient id="paint6_linear_6014_31574" x1="22.2461" y1="112.804" x2="84.2459" y2="112.804" gradientUnits="userSpaceOnUse">
<stop stop-color="#C32853"/>
<stop offset="1" stop-color="#EE7E49"/>
</linearGradient>
<linearGradient id="paint7_linear_6014_31574" x1="5.35339" y1="95.0916" x2="51.6947" y2="48.7241" gradientUnits="userSpaceOnUse">
<stop stop-color="#C32853"/>
<stop offset="1" stop-color="#EE7E49"/>
</linearGradient>
<linearGradient id="paint8_linear_6014_31574" x1="-103.48" y1="141.732" x2="20.9449" y2="141.732" gradientUnits="userSpaceOnUse">
<stop stop-color="#C32853"/>
<stop offset="1" stop-color="#EE7E49"/>
</linearGradient>
<linearGradient id="paint9_linear_6014_31574" x1="1.83203" y1="186.922" x2="6.4633" y2="186.922" gradientUnits="userSpaceOnUse">
<stop stop-color="#C32853"/>
<stop offset="1" stop-color="#EE7E49"/>
</linearGradient>
<linearGradient id="paint10_linear_6014_31574" x1="7.19141" y1="180.617" x2="12.1325" y2="180.617" gradientUnits="userSpaceOnUse">
<stop stop-color="#C32853"/>
<stop offset="1" stop-color="#EE7E49"/>
</linearGradient>
<linearGradient id="paint11_linear_6014_31574" x1="11.7188" y1="173.641" x2="16.8837" y2="173.641" gradientUnits="userSpaceOnUse">
<stop stop-color="#C32853"/>
<stop offset="1" stop-color="#EE7E49"/>
</linearGradient>
<linearGradient id="paint12_linear_6014_31574" x1="15.3398" y1="166.122" x2="20.6404" y2="166.122" gradientUnits="userSpaceOnUse">
<stop stop-color="#C32853"/>
<stop offset="1" stop-color="#EE7E49"/>
</linearGradient>
<linearGradient id="paint13_linear_6014_31574" x1="17.9961" y1="158.188" x2="23.3416" y2="158.188" gradientUnits="userSpaceOnUse">
<stop stop-color="#C32853"/>
<stop offset="1" stop-color="#EE7E49"/>
</linearGradient>
<linearGradient id="paint14_linear_6014_31574" x1="19.6367" y1="149.968" x2="24.9365" y2="149.968" gradientUnits="userSpaceOnUse">
<stop stop-color="#C32853"/>
<stop offset="1" stop-color="#EE7E49"/>
</linearGradient>
<linearGradient id="paint15_linear_6014_31574" x1="20.2305" y1="141.611" x2="25.4057" y2="141.611" gradientUnits="userSpaceOnUse">
<stop stop-color="#C32853"/>
<stop offset="1" stop-color="#EE7E49"/>
</linearGradient>
<linearGradient id="paint16_linear_6014_31574" x1="19.6016" y1="133.252" x2="24.91" y2="133.252" gradientUnits="userSpaceOnUse">
<stop stop-color="#C32853"/>
<stop offset="1" stop-color="#EE7E49"/>
</linearGradient>
<linearGradient id="paint17_linear_6014_31574" x1="17.9297" y1="125.042" x2="23.2815" y2="125.042" gradientUnits="userSpaceOnUse">
<stop stop-color="#C32853"/>
<stop offset="1" stop-color="#EE7E49"/>
</linearGradient>
<linearGradient id="paint18_linear_6014_31574" x1="15.2461" y1="117.117" x2="20.5482" y2="117.117" gradientUnits="userSpaceOnUse">
<stop stop-color="#C32853"/>
<stop offset="1" stop-color="#EE7E49"/>
</linearGradient>
<linearGradient id="paint19_linear_6014_31574" x1="11.5977" y1="109.609" x2="16.7602" y2="109.609" gradientUnits="userSpaceOnUse">
<stop stop-color="#C32853"/>
<stop offset="1" stop-color="#EE7E49"/>
</linearGradient>
<linearGradient id="paint20_linear_6014_31574" x1="7.04688" y1="102.655" x2="11.9809" y2="102.655" gradientUnits="userSpaceOnUse">
<stop stop-color="#C32853"/>
<stop offset="1" stop-color="#EE7E49"/>
</linearGradient>
<linearGradient id="paint21_linear_6014_31574" x1="1.66797" y1="96.3691" x2="6.28978" y2="96.3691" gradientUnits="userSpaceOnUse">
<stop stop-color="#C32853"/>
<stop offset="1" stop-color="#EE7E49"/>
</linearGradient>
<linearGradient id="paint22_linear_6014_31574" x1="-0.550781" y1="226.693" x2="22.8269" y2="226.693" gradientUnits="userSpaceOnUse">
<stop stop-color="#C32853"/>
<stop offset="1" stop-color="#EE7E49"/>
</linearGradient>
<linearGradient id="paint23_linear_6014_31574" x1="31.3359" y1="188.563" x2="59.8743" y2="188.563" gradientUnits="userSpaceOnUse">
<stop stop-color="#C32853"/>
<stop offset="1" stop-color="#EE7E49"/>
</linearGradient>
<linearGradient id="paint24_linear_6014_31574" x1="47.3008" y1="138.479" x2="71.1554" y2="138.479" gradientUnits="userSpaceOnUse">
<stop stop-color="#C32853"/>
<stop offset="1" stop-color="#EE7E49"/>
</linearGradient>
<linearGradient id="paint25_linear_6014_31574" x1="33.3398" y1="91.1728" x2="58.0496" y2="91.1728" gradientUnits="userSpaceOnUse">
<stop stop-color="#C32853"/>
<stop offset="1" stop-color="#EE7E49"/>
</linearGradient>
<linearGradient id="paint26_linear_6014_31574" x1="-3.99219" y1="51.829" x2="22.8539" y2="51.829" gradientUnits="userSpaceOnUse">
<stop stop-color="#C32853"/>
<stop offset="1" stop-color="#EE7E49"/>
</linearGradient>
</defs>
</svg>
