<svg width="112" height="292" viewBox="0 0 112 292" fill="none" xmlns="http://www.w3.org/2000/svg">
<g opacity="0.1">
<circle cx="146" cy="146" r="144.574" stroke="url(#paint0_linear_6014_31657)" stroke-width="2.85237"/>
<path fill-rule="evenodd" clip-rule="evenodd" d="M28.0661 78.0123C46.907 45.3798 77.1912 23.4725 110.923 14.4335C144.655 5.39536 181.836 9.2247 214.469 28.0656C247.101 46.9057 269.008 77.1908 278.047 110.923C287.086 144.655 283.256 181.836 264.415 214.468C245.575 247.101 215.29 269.008 181.558 278.047C147.826 287.085 110.645 283.256 78.0128 264.415C45.3803 245.575 23.473 215.29 14.434 181.558C5.39585 147.825 9.2252 110.645 28.0661 78.0123ZM111.291 15.8057C77.9103 24.7503 47.9408 46.4291 29.2967 78.7223C10.6518 111.016 6.86154 147.809 15.8062 181.19C24.7508 214.571 46.4296 244.54 78.7228 263.184C111.016 281.828 147.81 285.619 181.19 276.675C214.571 267.73 244.541 246.051 263.185 213.758C281.83 181.465 285.619 144.671 276.675 111.29C267.731 77.9098 246.052 47.9403 213.759 29.2962C181.465 10.6514 144.671 6.86105 111.291 15.8057Z" fill="url(#paint1_linear_6014_31657)"/>
<path fill-rule="evenodd" clip-rule="evenodd" d="M86.7121 111.871C96.2017 95.4336 111.456 84.3986 128.448 79.8461C145.438 75.2937 164.167 77.2222 180.604 86.7126C197.042 96.2022 208.077 111.458 212.629 128.448C217.182 145.439 215.253 164.167 205.763 180.605C196.273 197.042 181.018 208.077 164.027 212.63C147.037 217.183 128.308 215.254 111.87 205.763C95.4331 196.273 84.3981 181.018 79.8456 164.028C75.2932 147.037 77.2217 128.308 86.7121 111.871ZM128.815 81.2183C112.175 85.6764 97.2363 96.4836 87.9419 112.581C78.6476 128.679 76.7589 147.021 81.217 163.66C85.6751 180.299 96.4823 195.239 112.58 204.533C128.678 213.828 147.019 215.716 163.659 211.258C180.299 206.8 195.238 195.993 204.532 179.896C213.826 163.797 215.715 145.456 211.257 128.817C206.799 112.177 195.992 97.2376 179.893 87.9432C163.797 78.6488 145.455 76.7602 128.815 81.2183Z" fill="url(#paint2_linear_6014_31657)"/>
<path d="M15.6562 109.045L15.2894 110.416L80.34 129.317L80.7069 127.946L15.6562 109.045Z" fill="url(#paint3_linear_6014_31657)"/>
<path fill-rule="evenodd" clip-rule="evenodd" d="M14.5117 179.812L80.3336 163.168L80.7037 164.536L14.8818 181.179L14.5117 179.812Z" fill="url(#paint4_linear_6014_31657)"/>
<path d="M97.6246 193.832L50.8825 242.803L51.8858 243.806L98.628 194.835L97.6246 193.832Z" fill="url(#paint5_linear_6014_31657)"/>
<path d="M127.949 211.777L109.637 276.749L111.007 277.116L129.319 212.144L127.949 211.777Z" fill="url(#paint6_linear_6014_31657)"/>
<path fill-rule="evenodd" clip-rule="evenodd" d="M127.172 80.7039L107.536 16.1773L108.86 15.9189L128.496 80.4449L127.172 80.7039Z" fill="url(#paint7_linear_6014_31657)"/>
<path d="M50.4481 50.0348L49.4453 51.0381L97.0472 98.0458L98.05 97.0425L50.4481 50.0348Z" fill="url(#paint8_linear_6014_31657)"/>
<path fill-rule="evenodd" clip-rule="evenodd" d="M90.6559 114.149C99.5176 98.8005 113.761 88.4967 129.627 84.2453C145.493 79.9946 162.98 81.7954 178.328 90.6571C193.677 99.5187 203.98 113.762 208.232 129.628C212.483 145.494 210.682 162.981 201.82 178.329C192.958 193.678 178.715 203.982 162.849 208.233C146.983 212.484 129.496 210.683 114.148 201.821C98.7994 192.96 88.4956 178.716 84.2441 162.85C79.9934 146.985 81.795 129.497 90.6559 114.149ZM129.97 85.5271C114.433 89.69 100.483 99.7815 91.8044 114.813C83.1257 129.844 81.3615 146.971 85.5251 162.508C89.6888 178.045 99.7795 191.995 114.811 200.673C129.842 209.351 146.968 211.116 162.506 206.952C178.043 202.789 191.993 192.698 200.671 177.667C209.349 162.635 211.114 145.509 206.95 129.971C202.787 114.434 192.696 100.484 177.665 91.8055C162.634 83.1277 145.507 81.3635 129.97 85.5271Z" fill="url(#paint9_linear_6014_31657)"/>
<path fill-rule="evenodd" clip-rule="evenodd" d="M112.427 86.4202L115.106 91.032L113.882 91.7461L111.203 87.1335L112.427 86.4202Z" fill="url(#paint10_linear_6014_31657)"/>
<path fill-rule="evenodd" clip-rule="evenodd" d="M104.902 91.3538L108.16 95.5776L107.039 96.4446L103.781 92.2216L104.902 91.3538Z" fill="url(#paint11_linear_6014_31657)"/>
<path fill-rule="evenodd" clip-rule="evenodd" d="M98.0957 97.2275L101.876 100.989L100.878 101.996L97.0977 98.2345L98.0957 97.2275Z" fill="url(#paint12_linear_6014_31657)"/>
<path fill-rule="evenodd" clip-rule="evenodd" d="M92.1081 103.935L96.3482 107.171L95.4901 108.3L91.25 105.064L92.1081 103.935Z" fill="url(#paint13_linear_6014_31657)"/>
<path fill-rule="evenodd" clip-rule="evenodd" d="M87.0551 111.373L91.6808 114.028L90.9772 115.259L86.3516 112.604L87.0551 111.373Z" fill="url(#paint14_linear_6014_31657)"/>
<path fill-rule="evenodd" clip-rule="evenodd" d="M83.0087 119.403L87.9418 121.432L87.4049 122.744L82.4727 120.715L83.0087 119.403Z" fill="url(#paint15_linear_6014_31657)"/>
<path fill-rule="evenodd" clip-rule="evenodd" d="M80.0439 127.893L85.1999 129.261L84.8387 130.631L79.6836 129.264L80.0439 127.893Z" fill="url(#paint16_linear_6014_31657)"/>
<path fill-rule="evenodd" clip-rule="evenodd" d="M78.218 136.697L83.5073 137.379L83.3284 138.786L78.0391 138.102L78.218 136.697Z" fill="url(#paint17_linear_6014_31657)"/>
<path fill-rule="evenodd" clip-rule="evenodd" d="M77.5586 145.662L82.8927 145.649L82.8984 147.067L77.5651 147.08L77.5586 145.662Z" fill="url(#paint18_linear_6014_31657)"/>
<path fill-rule="evenodd" clip-rule="evenodd" d="M78.0703 154.64L83.3564 153.93L83.5476 155.335L78.2615 156.044L78.0703 154.64Z" fill="url(#paint19_linear_6014_31657)"/>
<path fill-rule="evenodd" clip-rule="evenodd" d="M79.75 163.472L84.8986 162.08L85.2712 163.447L80.1225 164.84L79.75 163.472Z" fill="url(#paint20_linear_6014_31657)"/>
<path fill-rule="evenodd" clip-rule="evenodd" d="M82.5703 172.013L87.4928 169.96L88.041 171.268L83.1185 173.321L82.5703 172.013Z" fill="url(#paint21_linear_6014_31657)"/>
<path fill-rule="evenodd" clip-rule="evenodd" d="M86.4766 180.112L91.0892 177.433L91.8033 178.657L87.1907 181.336L86.4766 180.112Z" fill="url(#paint22_linear_6014_31657)"/>
<path fill-rule="evenodd" clip-rule="evenodd" d="M91.4102 187.628L95.6332 184.37L96.501 185.491L92.278 188.748L91.4102 187.628Z" fill="url(#paint23_linear_6014_31657)"/>
<path fill-rule="evenodd" clip-rule="evenodd" d="M97.2812 194.437L101.044 190.656L102.05 191.654L98.2882 195.435L97.2812 194.437Z" fill="url(#paint24_linear_6014_31657)"/>
<path fill-rule="evenodd" clip-rule="evenodd" d="M103.992 200.421L107.228 196.181L108.357 197.039L105.12 201.28L103.992 200.421Z" fill="url(#paint25_linear_6014_31657)"/>
<path fill-rule="evenodd" clip-rule="evenodd" d="M111.426 205.481L114.081 200.855L115.311 201.559L112.656 206.185L111.426 205.481Z" fill="url(#paint26_linear_6014_31657)"/>
<path fill-rule="evenodd" clip-rule="evenodd" d="M58.6019 88.9962L60.9769 84.979C59.8496 77.7725 48.9643 74.7143 48.3738 83.1937C48.1875 85.8404 49.6182 88.5269 51.7907 91.0305C48.5495 90.331 45.5058 90.3733 43.2747 91.8097C36.1268 96.4101 44.0499 104.477 50.9082 101.996L53.2841 97.9791C53.2841 97.9791 50.4121 97.8847 50.02 97.8441C49.4271 97.7798 45.2862 97.0266 47.5327 95.9579C50.5747 94.506 56.675 97.3739 59.3714 98.6168C62.0848 99.8653 65.5538 101.711 65.5538 101.711L65.6912 101.479L67.6401 98.1857L67.7784 97.9531C67.7784 97.9531 64.4899 95.8025 62.0896 94.0237C59.7032 92.2578 54.2536 88.291 54.0576 84.9294C53.9153 82.4413 56.5685 85.7086 56.9101 86.2007C57.1354 86.5228 58.6019 88.9962 58.6019 88.9962Z" fill="url(#paint27_linear_6014_31657)"/>
<path fill-rule="evenodd" clip-rule="evenodd" d="M39.7448 146.027C35.3079 146.282 31.4004 148.016 28.8806 150.614L28.7383 155.502C31.2589 152.905 35.1574 151.481 39.5927 151.294L39.4788 155.232L43.9044 155.361L44.0158 151.514C48.077 152.1 51.5468 153.745 53.7332 156.34L53.8739 151.452C51.6883 148.86 48.2291 146.946 44.1679 146.264L44.2615 143.04C48.3527 142.596 51.9193 140.887 54.2521 138.425L54.3952 133.536C52.0609 135.999 48.5032 137.442 44.4136 137.789L44.5347 133.624L40.1092 133.495L39.9848 137.753C35.5665 137.311 31.7591 135.663 29.3939 132.924L29.2507 137.811C31.6176 140.549 35.4161 142.509 39.8327 143.02L39.7448 146.027Z" fill="url(#paint28_linear_6014_31657)"/>
<path fill-rule="evenodd" clip-rule="evenodd" d="M50.0894 185.544L45.088 188.175L43.4922 198.354L48.4245 198.083L46.7961 204.815L51.7495 204.597L50.2985 211.251L55.7481 211.549L62.2884 208.023L55.8562 206.914L57.2837 199.989L52.2977 200.322L53.5585 193.509L48.5766 193.522L50.0894 185.544Z" fill="url(#paint29_linear_6014_31657)"/>
<path fill-rule="evenodd" clip-rule="evenodd" d="M61.412 179.59L56.4139 182.221L54.8164 192.399L59.7462 192.13L58.1195 198.86L63.0737 198.64L61.6211 205.297L67.0731 205.593L73.6134 202.069L67.1805 200.96L68.6071 194.036L63.6211 194.368L64.8819 187.555L59.9008 187.566L61.412 179.59Z" fill="url(#paint30_linear_6014_31657)"/>
<path fill-rule="evenodd" clip-rule="evenodd" d="M93.343 239.659C92.4922 239.455 93.8692 235.302 94.5598 233.33L91.2355 231.927C88.9549 236.959 88.6767 237.432 87.3362 238.463C86.7213 238.935 85.6412 238.588 85.6412 238.588C85.3654 239.248 84.2227 241.949 84.2227 241.949C86.0536 242.719 87.8804 241.929 89.2932 240.811L89.2997 241.129C89.3371 242.124 89.5844 244.14 91.4145 244.909C97.187 247.335 100.187 229.917 104.683 233.348C104.973 233.568 105.044 234.842 104.01 234.408C102.249 233.375 105.797 222.983 99.4042 221.258C98.7909 221.092 98.3737 221.105 98.3737 221.105L97.2813 224.873C98.4493 225.202 99.6246 226.732 99.588 227.382C99.4254 230.124 98.3184 236.565 102.693 238.402C104.362 239.104 106.945 238.287 108.139 235.447C110.088 230.808 102.992 224.376 96.8925 233.575C95.5936 235.537 93.9099 240.082 93.343 239.659Z" fill="url(#paint31_linear_6014_31657)"/>
<path fill-rule="evenodd" clip-rule="evenodd" d="M96.5348 40.3115C96.5348 40.3115 94.6803 40.8654 92.9706 44.0669C91.1909 47.4025 92.7176 52.0249 90.6085 53.5442C88.4303 54.966 84.6677 51.8752 80.9164 52.334C77.3132 52.7732 76.1289 54.3072 76.1289 54.3072L78.7878 58.1829C78.7878 58.1829 80.4357 56.888 81.8802 56.9628C82.9279 57.0165 85.6193 58.0194 87.6064 58.374C86.71 60.8451 86.941 63.6235 88.484 65.8725C91.1006 69.6905 96.503 70.5331 100.551 67.7579C104.598 64.9819 105.757 59.638 103.14 55.8225C101.552 53.5068 98.9431 52.286 96.2281 52.3014C96.5811 50.3298 96.625 47.6009 96.9414 46.6338C97.392 45.2609 99.1945 44.1889 99.1945 44.1889L96.5348 40.3115ZM99.1392 58.5522C100.384 60.3676 99.8964 62.8638 98.0509 64.1278C96.2045 65.3951 93.7002 64.9493 92.4565 63.1347C91.2129 61.3192 91.7001 58.8238 93.5456 57.5582C95.3903 56.2926 97.8947 56.7384 99.1392 58.5522Z" fill="url(#paint32_linear_6014_31657)"/>
<path fill-rule="evenodd" clip-rule="evenodd" d="M115.143 182.491C114.977 182.491 114.821 182.453 114.68 182.387C113.487 182.287 112.412 181.759 111.611 180.959C110.718 180.065 110.168 178.834 110.168 177.471C110.168 176.109 110.721 174.877 111.611 173.984C112.505 173.09 113.737 172.54 115.099 172.54C123.747 172.671 132.507 172.54 141.167 172.54V151.491H115.143C114.978 151.491 114.821 151.453 114.684 151.388C113.49 151.288 112.415 150.759 111.615 149.959C110.74 149.084 110.193 147.881 110.171 146.55C109.993 136.221 110.327 125.804 110.171 115.469C110.171 114.106 110.724 112.875 111.615 111.981C112.509 111.087 113.74 110.537 115.103 110.537C116.465 110.537 117.697 111.09 118.59 111.981C119.39 112.781 119.919 113.856 120.019 115.05C120.084 115.19 120.122 115.347 120.122 115.512V141.536H141.17C141.17 132.876 141.302 124.116 141.17 115.468C141.17 114.106 141.724 112.874 142.614 111.981C143.508 111.087 144.739 110.537 146.102 110.537C156.437 110.693 166.851 110.362 177.182 110.537C178.479 110.559 179.654 111.081 180.523 111.918L180.592 111.981C181.486 112.874 182.036 114.106 182.036 115.468C182.036 116.831 181.483 118.062 180.592 118.956L180.589 118.953L180.586 118.956C179.808 119.731 178.776 120.25 177.626 120.375C177.479 120.447 177.317 120.488 177.145 120.488H151.122V141.536C159.772 141.536 168.548 141.39 177.183 141.536C178.514 141.558 179.714 142.105 180.592 142.98C181.392 143.78 181.92 144.856 182.02 146.049C182.086 146.19 182.124 146.346 182.124 146.509V177.508C182.124 177.68 182.083 177.846 182.011 177.989C181.889 179.143 181.37 180.177 180.592 180.955C179.698 181.849 178.467 182.399 177.105 182.399C175.742 182.399 174.511 181.846 173.617 180.955C172.742 180.08 172.195 178.877 172.173 177.546C172.023 168.914 172.173 160.131 172.173 151.484H151.124V177.508C151.124 177.68 151.084 177.846 151.012 177.989C150.89 179.142 150.371 180.177 149.593 180.952C148.815 181.73 147.78 182.246 146.63 182.371C146.483 182.443 146.321 182.483 146.149 182.483L115.143 182.491ZM134.131 156.16C133.238 155.267 132.006 154.716 130.644 154.716C129.281 154.716 128.047 155.27 127.156 156.16C126.262 157.054 125.712 158.286 125.712 159.648C125.712 161.011 126.265 162.242 127.156 163.136L127.225 163.198C128.112 164.055 129.319 164.583 130.647 164.583C132.009 164.583 133.241 164.03 134.134 163.139C135.028 162.245 135.578 161.014 135.578 159.651C135.578 158.289 135.025 157.057 134.134 156.164L134.131 156.16ZM165.13 129.805C164.236 128.912 163.005 128.362 161.643 128.362C160.28 128.362 159.049 128.915 158.155 129.805C157.261 130.699 156.711 131.931 156.711 133.293C156.711 134.656 157.264 135.89 158.155 136.781C159.049 137.675 160.28 138.225 161.643 138.225C163.005 138.225 164.236 137.672 165.13 136.781L165.193 136.712C166.049 135.825 166.577 134.618 166.577 133.29C166.577 131.928 166.024 130.696 165.133 129.802L165.13 129.805ZM134.131 129.805C133.238 128.912 132.006 128.362 130.644 128.362C129.281 128.362 128.047 128.915 127.156 129.805C126.262 130.699 125.712 131.931 125.712 133.293C125.712 134.656 126.265 135.884 127.156 136.778L127.159 136.781C128.053 137.675 129.284 138.225 130.644 138.225C132.003 138.225 133.238 137.672 134.131 136.781L134.194 136.712C135.05 135.825 135.578 134.618 135.578 133.29C135.578 131.928 135.025 130.696 134.135 129.802L134.131 129.805ZM165.13 156.16C164.236 155.267 163.005 154.716 161.643 154.716C160.28 154.716 159.049 155.27 158.155 156.16C157.261 157.054 156.711 158.286 156.711 159.648C156.711 161.011 157.264 162.242 158.155 163.136C159.049 164.03 160.28 164.58 161.643 164.58C163.005 164.58 164.236 164.027 165.13 163.136C166.024 162.242 166.574 161.011 166.574 159.648C166.574 158.286 166.021 157.054 165.13 156.16Z" fill="url(#paint33_linear_6014_31657)"/>
</g>
<defs>
<linearGradient id="paint0_linear_6014_31657" x1="0" y1="146" x2="292" y2="146" gradientUnits="userSpaceOnUse">
<stop stop-color="#C32853"/>
<stop offset="1" stop-color="#EE7E49"/>
</linearGradient>
<linearGradient id="paint1_linear_6014_31657" x1="9.76172" y1="146.24" x2="282.72" y2="146.24" gradientUnits="userSpaceOnUse">
<stop stop-color="#C32853"/>
<stop offset="1" stop-color="#EE7E49"/>
</linearGradient>
<linearGradient id="paint2_linear_6014_31657" x1="77.4922" y1="146.238" x2="214.983" y2="146.238" gradientUnits="userSpaceOnUse">
<stop stop-color="#C32853"/>
<stop offset="1" stop-color="#EE7E49"/>
</linearGradient>
<linearGradient id="paint3_linear_6014_31657" x1="47.629" y1="120.56" x2="48.3672" y2="117.802" gradientUnits="userSpaceOnUse">
<stop stop-color="#C32853"/>
<stop offset="1" stop-color="#EE7E49"/>
</linearGradient>
<linearGradient id="paint4_linear_6014_31657" x1="14.5117" y1="172.174" x2="80.7037" y2="172.174" gradientUnits="userSpaceOnUse">
<stop stop-color="#C32853"/>
<stop offset="1" stop-color="#EE7E49"/>
</linearGradient>
<linearGradient id="paint5_linear_6014_31657" x1="50.8335" y1="242.754" x2="98.6769" y2="194.884" gradientUnits="userSpaceOnUse">
<stop stop-color="#C32853"/>
<stop offset="1" stop-color="#EE7E49"/>
</linearGradient>
<linearGradient id="paint6_linear_6014_31657" x1="110.751" y1="277.047" x2="128.205" y2="211.846" gradientUnits="userSpaceOnUse">
<stop stop-color="#C32853"/>
<stop offset="1" stop-color="#EE7E49"/>
</linearGradient>
<linearGradient id="paint7_linear_6014_31657" x1="128.496" y1="48.3114" x2="107.536" y2="48.3114" gradientUnits="userSpaceOnUse">
<stop stop-color="#C32853"/>
<stop offset="1" stop-color="#EE7E49"/>
</linearGradient>
<linearGradient id="paint8_linear_6014_31657" x1="73.1045" y1="74.6839" x2="74.3908" y2="73.3968" gradientUnits="userSpaceOnUse">
<stop stop-color="#C32853"/>
<stop offset="1" stop-color="#EE7E49"/>
</linearGradient>
<linearGradient id="paint9_linear_6014_31657" x1="82.0469" y1="146.239" x2="210.429" y2="146.239" gradientUnits="userSpaceOnUse">
<stop stop-color="#C32853"/>
<stop offset="1" stop-color="#EE7E49"/>
</linearGradient>
<linearGradient id="paint10_linear_6014_31657" x1="111.203" y1="89.0831" x2="115.106" y2="89.0831" gradientUnits="userSpaceOnUse">
<stop stop-color="#C32853"/>
<stop offset="1" stop-color="#EE7E49"/>
</linearGradient>
<linearGradient id="paint11_linear_6014_31657" x1="103.781" y1="93.8992" x2="108.16" y2="93.8992" gradientUnits="userSpaceOnUse">
<stop stop-color="#C32853"/>
<stop offset="1" stop-color="#EE7E49"/>
</linearGradient>
<linearGradient id="paint12_linear_6014_31657" x1="97.0977" y1="99.6119" x2="101.876" y2="99.6119" gradientUnits="userSpaceOnUse">
<stop stop-color="#C32853"/>
<stop offset="1" stop-color="#EE7E49"/>
</linearGradient>
<linearGradient id="paint13_linear_6014_31657" x1="91.25" y1="106.117" x2="96.3482" y2="106.117" gradientUnits="userSpaceOnUse">
<stop stop-color="#C32853"/>
<stop offset="1" stop-color="#EE7E49"/>
</linearGradient>
<linearGradient id="paint14_linear_6014_31657" x1="86.3516" y1="113.316" x2="91.6808" y2="113.316" gradientUnits="userSpaceOnUse">
<stop stop-color="#C32853"/>
<stop offset="1" stop-color="#EE7E49"/>
</linearGradient>
<linearGradient id="paint15_linear_6014_31657" x1="82.4727" y1="121.074" x2="87.9418" y2="121.074" gradientUnits="userSpaceOnUse">
<stop stop-color="#C32853"/>
<stop offset="1" stop-color="#EE7E49"/>
</linearGradient>
<linearGradient id="paint16_linear_6014_31657" x1="79.6836" y1="129.262" x2="85.1999" y2="129.262" gradientUnits="userSpaceOnUse">
<stop stop-color="#C32853"/>
<stop offset="1" stop-color="#EE7E49"/>
</linearGradient>
<linearGradient id="paint17_linear_6014_31657" x1="78.0391" y1="137.741" x2="83.5073" y2="137.741" gradientUnits="userSpaceOnUse">
<stop stop-color="#C32853"/>
<stop offset="1" stop-color="#EE7E49"/>
</linearGradient>
<linearGradient id="paint18_linear_6014_31657" x1="77.5586" y1="146.365" x2="82.8984" y2="146.365" gradientUnits="userSpaceOnUse">
<stop stop-color="#C32853"/>
<stop offset="1" stop-color="#EE7E49"/>
</linearGradient>
<linearGradient id="paint19_linear_6014_31657" x1="78.0703" y1="154.987" x2="83.5476" y2="154.987" gradientUnits="userSpaceOnUse">
<stop stop-color="#C32853"/>
<stop offset="1" stop-color="#EE7E49"/>
</linearGradient>
<linearGradient id="paint20_linear_6014_31657" x1="79.75" y1="163.46" x2="85.2712" y2="163.46" gradientUnits="userSpaceOnUse">
<stop stop-color="#C32853"/>
<stop offset="1" stop-color="#EE7E49"/>
</linearGradient>
<linearGradient id="paint21_linear_6014_31657" x1="82.5703" y1="171.641" x2="88.041" y2="171.641" gradientUnits="userSpaceOnUse">
<stop stop-color="#C32853"/>
<stop offset="1" stop-color="#EE7E49"/>
</linearGradient>
<linearGradient id="paint22_linear_6014_31657" x1="86.4766" y1="179.384" x2="91.8033" y2="179.384" gradientUnits="userSpaceOnUse">
<stop stop-color="#C32853"/>
<stop offset="1" stop-color="#EE7E49"/>
</linearGradient>
<linearGradient id="paint23_linear_6014_31657" x1="91.4102" y1="186.559" x2="96.501" y2="186.559" gradientUnits="userSpaceOnUse">
<stop stop-color="#C32853"/>
<stop offset="1" stop-color="#EE7E49"/>
</linearGradient>
<linearGradient id="paint24_linear_6014_31657" x1="97.2812" y1="193.046" x2="102.05" y2="193.046" gradientUnits="userSpaceOnUse">
<stop stop-color="#C32853"/>
<stop offset="1" stop-color="#EE7E49"/>
</linearGradient>
<linearGradient id="paint25_linear_6014_31657" x1="103.992" y1="198.731" x2="108.357" y2="198.731" gradientUnits="userSpaceOnUse">
<stop stop-color="#C32853"/>
<stop offset="1" stop-color="#EE7E49"/>
</linearGradient>
<linearGradient id="paint26_linear_6014_31657" x1="111.426" y1="203.52" x2="115.311" y2="203.52" gradientUnits="userSpaceOnUse">
<stop stop-color="#C32853"/>
<stop offset="1" stop-color="#EE7E49"/>
</linearGradient>
<linearGradient id="paint27_linear_6014_31657" x1="40.4609" y1="90.2635" x2="67.7784" y2="90.2635" gradientUnits="userSpaceOnUse">
<stop stop-color="#C32853"/>
<stop offset="1" stop-color="#EE7E49"/>
</linearGradient>
<linearGradient id="paint28_linear_6014_31657" x1="28.7383" y1="144.632" x2="54.3952" y2="144.632" gradientUnits="userSpaceOnUse">
<stop stop-color="#C32853"/>
<stop offset="1" stop-color="#EE7E49"/>
</linearGradient>
<linearGradient id="paint29_linear_6014_31657" x1="43.4922" y1="198.547" x2="62.2884" y2="198.547" gradientUnits="userSpaceOnUse">
<stop stop-color="#C32853"/>
<stop offset="1" stop-color="#EE7E49"/>
</linearGradient>
<linearGradient id="paint30_linear_6014_31657" x1="54.8164" y1="192.591" x2="73.6134" y2="192.591" gradientUnits="userSpaceOnUse">
<stop stop-color="#C32853"/>
<stop offset="1" stop-color="#EE7E49"/>
</linearGradient>
<linearGradient id="paint31_linear_6014_31657" x1="84.2227" y1="233.123" x2="108.468" y2="233.123" gradientUnits="userSpaceOnUse">
<stop stop-color="#C32853"/>
<stop offset="1" stop-color="#EE7E49"/>
</linearGradient>
<linearGradient id="paint32_linear_6014_31657" x1="76.1289" y1="54.8521" x2="104.54" y2="54.8521" gradientUnits="userSpaceOnUse">
<stop stop-color="#C32853"/>
<stop offset="1" stop-color="#EE7E49"/>
</linearGradient>
<linearGradient id="paint33_linear_6014_31657" x1="110.117" y1="146.487" x2="182.124" y2="146.487" gradientUnits="userSpaceOnUse">
<stop stop-color="#C32853"/>
<stop offset="1" stop-color="#EE7E49"/>
</linearGradient>
</defs>
</svg>
