<svg width="60" height="60" viewBox="0 0 60 60" fill="none" xmlns="http://www.w3.org/2000/svg">
<path d="M31.079 3.45752L38.2037 15.7981H53.5435C53.6977 15.8024 53.8541 15.8413 53.9975 15.9235C54.4335 16.1735 54.5834 16.7313 54.3333 17.1673L46.6638 30.4512L54.3333 43.735C54.5834 44.171 54.4335 44.7288 53.9975 44.9788C53.8541 45.061 53.6977 45.0999 53.5435 45.0999L38.2059 45.1013L31.079 57.4448C31.0019 57.581 30.888 57.6977 30.7431 57.7813C30.3072 58.0314 29.7494 57.8815 29.4994 57.4455L22.3732 45.1028L7.03481 45.1042C6.52966 45.1042 6.11963 44.6942 6.11963 44.189C6.11963 43.9916 6.18232 43.8078 6.28897 43.6586L13.9146 30.4512L6.28897 17.2437C6.18232 17.0945 6.11963 16.9107 6.11963 16.7133C6.11963 16.2081 6.52966 15.7981 7.03481 15.7981H22.3739L29.4994 3.4568C29.7494 3.02082 30.3072 2.87093 30.7431 3.12099C30.888 3.20458 31.0019 3.32132 31.079 3.45752ZM27.3238 35.6619C26.8187 35.6619 26.4086 35.2519 26.4086 34.7468C26.4086 34.2416 26.8187 33.8316 27.3238 33.8316H29.374V31.179C28.2289 30.9606 27.1552 30.3495 26.3164 29.5122L26.3106 29.5064C25.2513 28.4449 24.5552 27.0059 24.5552 25.5329C24.5552 23.9541 25.1973 22.5215 26.235 21.4823L26.2407 21.4766C27.2791 20.4403 28.711 19.799 30.2892 19.799C31.868 19.799 33.3006 20.441 34.3398 21.4787L34.3455 21.4845C35.3818 22.5229 36.0231 23.9548 36.0231 25.5329C36.0231 27.1125 35.3803 28.5466 34.3412 29.585C33.5103 30.4194 32.4215 30.9988 31.2043 31.1941V33.8316H33.2545C33.7597 33.8316 34.1697 34.2416 34.1697 34.7468C34.1697 35.2519 33.7597 35.6619 33.2545 35.6619H31.2043V39.1425C31.2043 39.6477 30.7943 40.0577 30.2892 40.0577C29.784 40.0577 29.374 39.6477 29.374 39.1425V35.6619H27.3238ZM27.527 22.7715C26.8215 23.4763 26.3856 24.4527 26.3856 25.5329C26.3856 26.5094 26.8684 27.4836 27.6034 28.218C28.3384 28.9537 29.3091 29.4365 30.2892 29.4365C31.3672 29.4365 32.3429 28.9991 33.0491 28.2929C33.7568 27.5896 34.1927 26.6124 34.1927 25.5329C34.1927 24.4527 33.7568 23.4763 33.0527 22.773C32.3458 22.0653 31.3694 21.6293 30.2892 21.6293C29.209 21.6293 28.2325 22.0653 27.527 22.7715ZM39.2609 17.6285L45.6117 28.6294L51.9632 17.6285H39.2609ZM36.1017 45.1013L24.4767 45.1028L30.2892 55.1698L36.1017 45.1013ZM14.9659 28.6294L21.3175 17.6285H8.61513L14.9659 28.6294ZM37.1574 43.2738L44.5603 30.4512L41.1265 24.5039L37.1574 17.6285H23.4209L16.018 30.4512L23.4209 43.2738H37.1574ZM42.7061 37.3064L39.2609 43.2738H51.9632L45.6124 32.2729L42.7061 37.3064ZM21.3175 43.2738L14.9659 32.2729L8.61513 43.2738H21.3175ZM24.4781 15.7981H36.1002L30.2892 5.73251L24.4781 15.7981Z" fill="white"/>
</svg>
