<svg width="60" height="60" viewBox="0 0 60 60" fill="none" xmlns="http://www.w3.org/2000/svg">
<path d="M35.9994 50.8889C35.897 50.8322 35.7844 50.7962 35.6681 50.783C35.5518 50.7698 35.434 50.7797 35.3215 50.812C35.209 50.8443 35.1039 50.8985 35.0124 50.9715C34.9208 51.0444 34.8445 51.1347 34.7878 51.2371C34.7288 51.3395 34.6906 51.4525 34.6753 51.5697C34.66 51.6869 34.6679 51.806 34.6986 51.9201C34.7294 52.0342 34.7823 52.1412 34.8543 52.2349C34.9264 52.3286 35.0162 52.4071 35.1186 52.4661C35.221 52.5251 35.334 52.5633 35.4512 52.5786C35.5684 52.5939 35.6875 52.586 35.8016 52.5553C35.9157 52.5246 36.0227 52.4717 36.1164 52.3996C36.2101 52.3276 36.2886 52.2378 36.3476 52.1354V52.0936C36.46 51.8874 36.4864 51.6452 36.4212 51.4197C36.356 51.1941 36.2045 51.0034 35.9994 50.8889Z" fill="white"/>
<path d="M47.8163 30.3744C48.6589 29.5319 49.4318 28.6823 50.1282 27.8398C53.7213 23.4876 54.8633 19.6368 53.3453 17.0116C52.6809 15.9191 51.6528 15.0956 50.4415 14.6858C50.1877 14.6078 49.9137 14.6294 49.6752 14.7461C49.4368 14.8629 49.2517 15.0661 49.1577 15.3144C49.0637 15.5627 49.0678 15.8376 49.1692 16.083C49.2705 16.3284 49.4615 16.526 49.7034 16.6356C50.459 16.8729 51.1087 17.3652 51.5417 18.0283C52.5723 19.8179 51.4721 22.9027 48.5196 26.4819C47.8233 27.2827 47.1269 28.0974 46.3122 28.8982C44.5062 27.2591 42.5966 25.738 40.5952 24.3441C40.3885 21.914 40.0256 19.4996 39.5089 17.1161C40.2285 16.9211 40.9248 16.754 41.598 16.6147C41.7324 16.5873 41.8601 16.5336 41.9738 16.4568C42.0875 16.3801 42.1849 16.2816 42.2606 16.1672C42.3362 16.0527 42.3886 15.9245 42.4147 15.7898C42.4408 15.6551 42.4401 15.5166 42.4127 15.3822C42.3852 15.2478 42.3316 15.12 42.2548 15.0064C42.178 14.8927 42.0796 14.7952 41.9651 14.7196C41.8507 14.6439 41.7225 14.5915 41.5878 14.5654C41.4531 14.5393 41.3146 14.54 41.1801 14.5675C40.4652 14.7114 39.7341 14.8855 38.9867 15.0897C38.6733 13.9407 38.3321 12.8475 37.9491 11.8239C35.9924 6.56648 33.2349 3.65576 30.1988 3.65576C27.1628 3.65576 24.4122 6.56648 22.4207 11.8517C22.0377 12.8753 21.7243 13.9407 21.3831 15.1176C20.2341 14.8112 19.113 14.5675 18.0337 14.3864C12.463 13.4533 8.56344 14.3864 7.05237 17.0116C6.43641 18.1348 6.23666 19.4393 6.48833 20.6953C6.51028 20.8324 6.55903 20.9639 6.6318 21.0823C6.70457 21.2006 6.79993 21.3034 6.91244 21.3849C7.02495 21.4664 7.15241 21.5249 7.28753 21.5571C7.42266 21.5893 7.5628 21.5946 7.69997 21.5727C7.83714 21.5507 7.96864 21.502 8.08697 21.4292C8.2053 21.3564 8.30813 21.2611 8.38961 21.1486C8.47108 21.0361 8.52959 20.9086 8.56181 20.7735C8.59403 20.6383 8.59931 20.4982 8.57736 20.361C8.40922 19.5797 8.52009 18.7642 8.89072 18.0561C9.88649 16.2665 13.1245 15.6816 17.6995 16.4476C18.73 16.6217 19.7885 16.8584 20.8957 17.1439C20.3789 19.5275 20.0161 21.9418 19.8094 24.372C17.7985 25.7649 15.8796 27.2861 14.0645 28.9261C13.5585 28.4015 13.0711 27.8699 12.6022 27.3314C12.5108 27.229 12.4001 27.1456 12.2764 27.086C12.1527 27.0263 12.0185 26.9917 11.8814 26.9839C11.6046 26.9682 11.3328 27.0632 11.126 27.2479C10.9191 27.4325 10.7941 27.6918 10.7785 27.9687C10.7628 28.2455 10.8577 28.5173 11.0424 28.7241C11.5066 29.2719 12.0219 29.8174 12.5883 30.3605C11.7457 31.217 10.9728 32.0666 10.2764 32.9022C6.69027 37.2613 5.54827 41.1051 7.05934 43.7303C8.19437 45.694 10.6594 46.7107 14.1551 46.7107C15.4576 46.7014 16.7572 46.585 18.0407 46.3625C19.12 46.1814 20.2411 45.9377 21.3901 45.6313C21.7243 46.7733 22.0516 47.8666 22.4207 48.9181C24.3983 54.2033 27.1558 57.114 30.1849 57.114C31.4685 57.0888 32.7019 56.6103 33.6666 55.7631C33.8718 55.5849 33.9994 55.3337 34.0224 55.0629C34.0454 54.7921 33.9619 54.523 33.7897 54.3128C33.6175 54.1025 33.3701 53.9677 33.1001 53.9368C32.8301 53.906 32.5587 53.9816 32.3436 54.1476C31.7517 54.6848 30.9904 54.9977 30.1919 55.032C28.1028 55.032 26.0138 52.539 24.3774 48.1869C24.0153 47.212 23.681 46.1675 23.3886 45.0673C25.7113 44.3228 27.9838 43.4296 30.1919 42.3933C32.3999 43.4296 34.6724 44.3227 36.9951 45.0673C36.8002 45.7636 36.5912 46.46 36.3754 47.1563C36.3061 47.4134 36.3376 47.6872 36.4635 47.9219C36.5893 48.1565 36.8001 48.3342 37.0526 48.4187C37.3051 48.5031 37.5803 48.488 37.822 48.3763C38.0637 48.2646 38.2536 48.0649 38.353 47.8178C38.5828 47.1215 38.7987 46.4252 39.0006 45.6592C40.1496 45.9656 41.2707 46.2093 42.35 46.3903C43.6334 46.6129 44.933 46.7293 46.2356 46.7385C49.7173 46.7385 52.1963 45.7218 53.3313 43.7582C54.8494 41.1329 53.7074 37.2891 50.1142 32.93C49.4249 32.0666 48.6519 31.217 47.8163 30.3744ZM44.7942 30.3744C43.5686 31.4886 42.2177 32.5958 40.7693 33.6681C40.8204 32.5819 40.8459 31.484 40.8459 30.3744C40.8459 29.2649 40.8204 28.167 40.7693 27.0807C42.2177 28.1531 43.5616 29.2603 44.7942 30.3744ZM21.6477 30.3744C21.6477 28.7311 21.7034 27.1086 21.8218 25.5C23.117 24.6435 24.5097 23.787 25.9024 22.9654C27.2951 22.1437 28.7574 21.3847 30.1849 20.6953C31.5776 21.3916 33.0399 22.1437 34.4604 22.9654C35.881 23.787 37.2458 24.6505 38.5689 25.5349C38.6803 27.1156 38.7429 28.7311 38.7429 30.4093C38.7429 32.0874 38.6803 33.6681 38.5689 35.2837C37.2597 36.168 35.8879 37.0315 34.4674 37.8532C33.0469 38.6749 31.6124 39.4339 30.1919 40.1232C28.7992 39.4269 27.3368 38.6749 25.9163 37.8532C24.4958 37.0315 23.1309 36.175 21.8079 35.2767C21.7243 33.6333 21.6408 32.0178 21.6408 30.3744H21.6477ZM38.36 22.8679C37.4315 22.2829 36.503 21.7119 35.5746 21.1549C34.6461 20.5978 33.6829 20.0709 32.6848 19.5742C34.3351 18.8778 35.9645 18.2441 37.5592 17.7358C37.8447 19.3583 38.1302 21.0643 38.3391 22.8679H38.36ZM24.4331 12.5829C26.0138 8.2377 28.1307 5.74479 30.1988 5.74479C32.267 5.74479 34.3769 8.2377 36.0133 12.5898C36.3754 13.5647 36.7096 14.6092 37.0021 15.7095C34.6798 16.4554 32.4075 17.3485 30.1988 18.3834C27.9909 17.3448 25.7185 16.4493 23.3955 15.7025C23.695 14.6023 24.0223 13.5578 24.3913 12.5829H24.4331ZM22.9499 17.7358C24.5306 18.2441 26.16 18.8569 27.8243 19.5742C26.8587 20.0709 25.8954 20.5978 24.9345 21.1549C23.9735 21.7119 23.0451 22.2829 22.1491 22.8679C22.2675 21.0643 22.553 19.3583 22.9081 17.7358H22.9499ZM19.6353 33.6612C18.1939 32.5888 16.8499 31.4816 15.6174 30.3675C16.843 29.2533 18.1939 28.1531 19.6353 27.0738C19.5842 28.1601 19.5587 29.258 19.5587 30.3675C19.5587 31.477 19.5842 32.5749 19.6353 33.6612ZM17.6995 44.3013C13.1245 45.0673 9.90042 44.4824 8.86983 42.6858C7.83924 40.8892 8.93946 37.8114 11.892 34.2322C12.5883 33.4244 13.2846 32.6167 14.0994 31.8089C15.9058 33.454 17.8153 34.9821 19.8163 36.3839C20.0228 38.8164 20.3857 41.233 20.9026 43.6189C19.7955 43.8905 18.73 44.1272 17.6995 44.3013ZM22.9011 43.0131C22.546 41.3906 22.2675 39.6706 22.0586 37.881C22.987 38.4706 23.9155 39.0416 24.8439 39.594C25.7724 40.1465 26.7357 40.6734 27.7338 41.1747C26.1113 41.892 24.5097 42.5047 22.9081 43.0061L22.9011 43.0131ZM32.6499 41.1747C33.6155 40.678 34.5788 40.1511 35.5398 39.594C36.5007 39.037 37.4292 38.466 38.3251 37.881C38.1162 39.6706 37.8377 41.3627 37.4826 43.0061C35.9158 42.5047 34.2585 41.885 32.6291 41.1747H32.6499ZM51.5278 42.6858C50.4972 44.4754 47.2732 45.0673 42.6982 44.3013C41.6676 44.1272 40.6091 43.8905 39.495 43.605C40.01 41.2234 40.3728 38.8115 40.5813 36.3839C42.585 34.9902 44.4969 33.4691 46.3052 31.8298C47.113 32.6376 47.8511 33.4453 48.5126 34.2461C51.4651 37.8184 52.5654 40.8962 51.5278 42.6858Z" fill="white"/>
<path d="M9.07868 25.2914C9.24218 25.2934 9.40323 25.2515 9.54498 25.17C9.68672 25.0885 9.80395 24.9703 9.88438 24.828C9.96482 24.6856 10.0055 24.5242 10.0022 24.3607C9.99888 24.1973 9.95168 24.0377 9.86554 23.8987C9.74088 23.69 9.53843 23.5394 9.30271 23.48C9.067 23.4205 8.81734 23.4572 8.60864 23.5818C8.39995 23.7065 8.24933 23.909 8.18991 24.1447C8.1305 24.3804 8.16715 24.6301 8.29181 24.8387V24.8736C8.37631 25.0047 8.49301 25.1119 8.63077 25.1851C8.76853 25.2582 8.92274 25.2948 9.07868 25.2914Z" fill="white"/>
<path d="M45.957 15.9605H46.0127C46.2464 15.9605 46.4704 15.8677 46.6356 15.7025C46.8008 15.5373 46.8936 15.3132 46.8936 15.0796C46.8936 14.846 46.8008 14.6219 46.6356 14.4567C46.4704 14.2915 46.2464 14.1987 46.0127 14.1987H45.971C45.7373 14.1987 45.5133 14.2915 45.3481 14.4567C45.1829 14.6219 45.0901 14.846 45.0901 15.0796C45.0901 15.3132 45.1829 15.5373 45.3481 15.7025C45.5133 15.8677 45.7373 15.9605 45.971 15.9605H45.957Z" fill="white"/>
<path d="M30.2128 35.5139C31.2319 35.5139 32.2282 35.2117 33.0756 34.6455C33.923 34.0792 34.5834 33.2745 34.9734 32.3329C35.3635 31.3913 35.4655 30.3552 35.2667 29.3557C35.0679 28.3561 34.5771 27.4379 33.8564 26.7173C33.1358 25.9966 32.2176 25.5058 31.218 25.307C30.2185 25.1082 29.1824 25.2102 28.2408 25.6003C27.2992 25.9903 26.4945 26.6507 25.9282 27.4981C25.362 28.3455 25.0598 29.3418 25.0598 30.3609C25.0617 31.727 25.6051 33.0366 26.5711 34.0026C27.5371 34.9686 28.8467 35.512 30.2128 35.5139ZM30.2128 27.297C30.8187 27.297 31.4111 27.4767 31.915 27.8134C32.4188 28.1501 32.8115 28.6286 33.0434 29.1884C33.2753 29.7483 33.336 30.3643 33.2178 30.9587C33.0996 31.553 32.8078 32.099 32.3793 32.5275C31.9508 32.956 31.4048 33.2478 30.8105 33.366C30.2162 33.4842 29.6001 33.4235 29.0402 33.1916C28.4804 32.9597 28.0019 32.567 27.6652 32.0632C27.3285 31.5593 27.1488 30.9669 27.1488 30.3609C27.1507 29.5489 27.4741 28.7707 28.0483 28.1965C28.6225 27.6223 29.4007 27.2989 30.2128 27.297Z" fill="white"/>
<path d="M35.5537 53.3886C36.4959 53.3886 37.2597 52.6248 37.2597 51.6826C37.2597 50.7404 36.4959 49.9766 35.5537 49.9766C34.6115 49.9766 33.8477 50.7404 33.8477 51.6826C33.8477 52.6248 34.6115 53.3886 35.5537 53.3886Z" fill="white"/>
<path d="M46.0127 16.7822C46.9549 16.7822 47.7187 16.0184 47.7187 15.0762C47.7187 14.1339 46.9549 13.3701 46.0127 13.3701C45.0705 13.3701 44.3066 14.1339 44.3066 15.0762C44.3066 16.0184 45.0705 16.7822 46.0127 16.7822Z" fill="white"/>
<path d="M9.06493 26.0639C10.0071 26.0639 10.771 25.3001 10.771 24.3579C10.771 23.4157 10.0071 22.6519 9.06493 22.6519C8.12271 22.6519 7.35889 23.4157 7.35889 24.3579C7.35889 25.3001 8.12271 26.0639 9.06493 26.0639Z" fill="white"/>
<path d="M30.533 47.7623C30.9099 47.7623 31.2154 47.4568 31.2154 47.0799C31.2154 46.703 30.9099 46.3975 30.533 46.3975C30.1561 46.3975 29.8506 46.703 29.8506 47.0799C29.8506 47.4568 30.1561 47.7623 30.533 47.7623Z" fill="white"/>
<path d="M29.3704 49.1621C29.6357 49.1621 29.8508 48.947 29.8508 48.6817C29.8508 48.4163 29.6357 48.2012 29.3704 48.2012C29.105 48.2012 28.8899 48.4163 28.8899 48.6817C28.8899 48.947 29.105 49.1621 29.3704 49.1621Z" fill="white"/>
<path d="M30.5333 48.8556C30.7486 48.8556 30.9232 48.681 30.9232 48.4656C30.9232 48.2503 30.7486 48.0757 30.5333 48.0757C30.3179 48.0757 30.1433 48.2503 30.1433 48.4656C30.1433 48.681 30.3179 48.8556 30.5333 48.8556Z" fill="white"/>
<path d="M46.2494 39.4566C46.4801 39.1586 46.4256 38.73 46.1276 38.4993C45.8296 38.2685 45.401 38.3231 45.1702 38.6211C44.9395 38.9191 44.994 39.3477 45.292 39.5784C45.59 39.8092 46.0186 39.7546 46.2494 39.4566Z" fill="white"/>
<path d="M45.6134 22.5343C45.8441 22.2363 45.7896 21.8076 45.4916 21.5769C45.1936 21.3462 44.765 21.4007 44.5342 21.6987C44.3035 21.9967 44.358 22.4253 44.656 22.6561C44.954 22.8868 45.3827 22.8323 45.6134 22.5343Z" fill="white"/>
<path d="M45.9754 24.0541C46.1378 23.8443 46.0994 23.5425 45.8896 23.38C45.6798 23.2176 45.378 23.256 45.2155 23.4658C45.0531 23.6756 45.0915 23.9774 45.3013 24.1399C45.5111 24.3023 45.8129 24.2639 45.9754 24.0541Z" fill="white"/>
<path d="M30.9313 12.899C31.162 12.601 31.1075 12.1724 30.8095 11.9417C30.5115 11.7109 30.0829 11.7654 29.8521 12.0634C29.6214 12.3614 29.6759 12.7901 29.9739 13.0208C30.2719 13.2516 30.7005 13.197 30.9313 12.899Z" fill="white"/>
<path d="M29.9648 11.3239C30.1226 11.1202 30.0853 10.8272 29.8816 10.6694C29.6778 10.5117 29.3848 10.5489 29.227 10.7527C29.0693 10.9564 29.1066 11.2495 29.3103 11.4072C29.514 11.565 29.8071 11.5277 29.9648 11.3239Z" fill="white"/>
<path d="M31.3465 11.5442C31.4924 11.3557 31.4579 11.0845 31.2694 10.9385C31.0809 10.7925 30.8097 10.827 30.6637 11.0156C30.5178 11.2041 30.5522 11.4753 30.7408 11.6212C30.9293 11.7672 31.2005 11.7327 31.3465 11.5442Z" fill="white"/>
<path d="M15.5336 20.817C15.7643 20.519 15.7098 20.0904 15.4118 19.8596C15.1138 19.6289 14.6851 19.6834 14.4544 19.9814C14.2237 20.2794 14.2782 20.708 14.5762 20.9388C14.8742 21.1695 15.3028 21.115 15.5336 20.817Z" fill="white"/>
<path d="M15.1959 39.4527C15.4267 39.1547 15.3721 38.7261 15.0741 38.4954C14.7761 38.2646 14.3475 38.3192 14.1168 38.6172C13.886 38.9152 13.9406 39.3438 14.2386 39.5745C14.5366 39.8053 14.9652 39.7507 15.1959 39.4527Z" fill="white"/>
<path d="M16.0733 40.4993C16.2569 40.2621 16.2135 39.9209 15.9763 39.7373C15.7392 39.5536 15.398 39.597 15.2144 39.8342C15.0307 40.0714 15.0741 40.4125 15.3113 40.5962C15.5485 40.7798 15.8896 40.7364 16.0733 40.4993Z" fill="white"/>
<path d="M30.1432 31.9969C31.047 31.9969 31.7796 31.2643 31.7796 30.3605C31.7796 29.4568 31.047 28.7241 30.1432 28.7241C29.2395 28.7241 28.5068 29.4568 28.5068 30.3605C28.5068 31.2643 29.2395 31.9969 30.1432 31.9969Z" fill="white"/>
</svg>
