<svg width="60" height="60" viewBox="0 0 60 60" fill="none" xmlns="http://www.w3.org/2000/svg">
<path d="M41.436 30.2251C41.318 29.8509 40.9732 29.578 40.5603 29.578H30.4206V20.3601H40.5603C41.0691 20.3601 41.4821 19.9478 41.4821 19.4384C41.4821 18.9289 41.0691 18.5166 40.5603 18.5166H29.4988C28.9894 18.5166 28.577 18.9289 28.577 19.4384V29.578H19.3284V19.4076C19.3284 18.8982 18.9161 18.4858 18.4067 18.4858C17.8972 18.4858 17.4849 18.8982 17.4849 19.4076V30.4691C17.4849 30.7315 17.5955 30.9668 17.7712 31.1346C17.939 31.3104 18.1744 31.4216 18.4374 31.4216H28.577V40.6395H18.4374C17.9279 40.6395 17.5156 41.0524 17.5156 41.5613C17.5156 42.0701 17.9279 42.483 18.4374 42.483H29.4988C30.0083 42.483 30.4206 42.0701 30.4206 41.5613V31.4216H39.6692V41.6528C39.6692 42.1617 40.0822 42.5746 40.591 42.5746C41.0998 42.5746 41.5128 42.1617 41.5128 41.6528V30.592C41.5128 30.4617 41.4845 30.3376 41.436 30.2251Z" fill="white"/>
<path d="M23.9695 26.1681C24.6483 26.1681 25.1986 25.6178 25.1986 24.939C25.1986 24.2602 24.6483 23.71 23.9695 23.71C23.2907 23.71 22.7405 24.2602 22.7405 24.939C22.7405 25.6178 23.2907 26.1681 23.9695 26.1681Z" fill="white"/>
<path d="M35.0313 26.1681C35.7101 26.1681 36.2603 25.6178 36.2603 24.939C36.2603 24.2602 35.7101 23.71 35.0313 23.71C34.3525 23.71 33.8022 24.2602 33.8022 24.939C33.8022 25.6178 34.3525 26.1681 35.0313 26.1681Z" fill="white"/>
<path d="M23.9695 37.2286C24.6483 37.2286 25.1986 36.6783 25.1986 35.9996C25.1986 35.3208 24.6483 34.7705 23.9695 34.7705C23.2907 34.7705 22.7405 35.3208 22.7405 35.9996C22.7405 36.6783 23.2907 37.2286 23.9695 37.2286Z" fill="white"/>
<path d="M35.0313 37.2286C35.7101 37.2286 36.2603 36.6783 36.2603 35.9996C36.2603 35.3208 35.7101 34.7705 35.0313 34.7705C34.3525 34.7705 33.8022 35.3208 33.8022 35.9996C33.8022 36.6783 34.3525 37.2286 35.0313 37.2286Z" fill="white"/>
<path d="M57 30.5C57 27.2627 54.6347 24.2497 50.3048 21.896C51.6512 17.3172 51.3046 13.4144 48.9448 11.0552C47.5234 9.6338 45.5379 8.91358 43.0429 8.91358C41.5367 8.91358 39.8799 9.19564 38.1328 9.71492C35.8468 5.51832 32.8399 3 29.5 3C26.1601 3 23.1532 5.51832 20.8672 9.7143C19.1201 9.19503 17.4627 8.91296 15.9565 8.91296C13.4615 8.91296 11.4754 9.63318 10.0546 11.0546C7.69788 13.4113 7.34883 17.308 8.69033 21.8801C4.50911 24.1642 2 27.1668 2 30.5C2 33.8369 4.51402 36.8419 8.70386 39.1273C7.30643 43.853 7.76486 47.6563 10.054 49.9454C11.4754 51.3668 13.4609 52.087 15.9559 52.087C17.4621 52.087 19.1188 51.8044 20.8665 51.2851C23.1532 55.4817 26.1601 58 29.5 58C32.8399 58 35.8468 55.4817 38.1335 51.2851C39.8799 51.8044 41.5367 52.087 43.0429 52.087C43.0435 52.087 43.0435 52.087 43.0441 52.087C45.5385 52.087 47.524 51.3662 48.9454 49.9454C51.2351 47.6557 51.693 43.853 50.2955 39.1273C54.4854 36.8413 57 33.8369 57 30.5ZM29.5 50.8697C18.2683 50.8697 9.13034 41.7317 9.13034 30.5C9.13034 19.2683 18.2683 10.1303 29.5 10.1303C40.7317 10.1303 49.8697 19.2683 49.8697 30.5C49.8697 41.7317 40.7317 50.8697 29.5 50.8697ZM47.6414 12.358C49.225 13.9416 49.5851 16.565 48.9221 19.7366C46.9009 16.1029 43.8903 13.0936 40.256 11.0736C41.2325 10.8708 42.1684 10.7565 43.0423 10.7565C45.0315 10.7565 46.5789 11.2955 47.6414 12.358ZM29.5 4.84358C31.7387 4.84358 33.8478 6.44257 35.6207 9.15078C33.6751 8.59218 31.6232 8.28615 29.5 8.28615C27.3768 8.28615 25.3255 8.59218 23.3793 9.15078C25.1522 6.44257 27.2613 4.84358 29.5 4.84358ZM11.3586 12.358C12.4217 11.2955 13.9691 10.7565 15.9571 10.7565C16.8309 10.7565 17.7675 10.8715 18.744 11.0736C15.1097 13.0942 12.0997 16.1035 10.0779 19.7366C9.41425 16.565 9.77436 13.9416 11.3586 12.358ZM3.84358 30.5C3.84358 28.2613 5.44257 26.1528 8.15017 24.3799C7.59156 26.3261 7.28615 28.3774 7.28615 30.5C7.28615 32.6226 7.59156 34.6739 8.15017 36.6194C5.44257 34.8465 3.84358 32.7381 3.84358 30.5ZM11.358 48.6414C9.83888 47.1217 9.41117 44.5118 10.0742 41.2573C12.096 44.8934 15.1072 47.904 18.7427 49.9258C17.7663 50.1279 16.8303 50.2428 15.9565 50.2428C13.9685 50.2435 12.4211 49.7045 11.358 48.6414ZM29.5 56.1564C27.2613 56.1564 25.1522 54.5574 23.3793 51.8492C25.3255 52.4078 27.3768 52.7132 29.5 52.7132C31.6232 52.7132 33.6751 52.4078 35.6207 51.8486C33.8472 54.5574 31.7387 56.1564 29.5 56.1564ZM47.6414 48.6414C46.5789 49.7039 45.0315 50.2428 43.0441 50.2428C42.1703 50.2428 41.2337 50.1279 40.2573 49.9258C43.8928 47.904 46.904 44.8934 48.9258 41.2573C49.5882 44.5124 49.1611 47.1223 47.6414 48.6414ZM50.8492 36.6201C51.4078 34.6745 51.7132 32.6226 51.7132 30.5C51.7132 28.3737 51.4066 26.3188 50.8461 24.3701C53.6158 26.202 55.1564 28.3516 55.1564 30.5C55.1564 32.7381 53.5574 34.8472 50.8492 36.6201Z" fill="white"/>
</svg>
