<svg width="38" height="38" viewBox="0 0 38 38" fill="none" xmlns="http://www.w3.org/2000/svg">
<path d="M28.375 11.5V5.875C28.375 5.37772 28.1775 4.90081 27.8258 4.54918C27.4742 4.19754 26.9973 4 26.5 4H7.75C6.75544 4 5.80161 4.39509 5.09835 5.09835C4.39509 5.80161 4 6.75544 4 7.75M4 7.75C4 8.74456 4.39509 9.69839 5.09835 10.4017C5.80161 11.1049 6.75544 11.5 7.75 11.5H30.25C30.7473 11.5 31.2242 11.6975 31.5758 12.0492C31.9275 12.4008 32.125 12.8777 32.125 13.375V19M4 7.75V30.25C4 31.2446 4.39509 32.1984 5.09835 32.9016C5.80161 33.6049 6.75544 34 7.75 34H30.25C30.7473 34 31.2242 33.8025 31.5758 33.4508C31.9275 33.0992 32.125 32.6223 32.125 32.125V26.5M34 19V26.5H26.5C25.5054 26.5 24.5516 26.1049 23.8484 25.4016C23.1451 24.6984 22.75 23.7446 22.75 22.75C22.75 21.7554 23.1451 20.8016 23.8484 20.0984C24.5516 19.3951 25.5054 19 26.5 19H34Z" stroke="url(#paint0_linear_5698_1504)" stroke-width="2" stroke-linecap="round" stroke-linejoin="round"/>
<defs>
<linearGradient id="paint0_linear_5698_1504" x1="4" y1="19" x2="34" y2="19" gradientUnits="userSpaceOnUse">
<stop stop-color="#C32853"/>
<stop offset="1" stop-color="#EE7E49"/>
</linearGradient>
</defs>
</svg>
