<svg width="61" height="55" viewBox="0 0 61 55" fill="none" xmlns="http://www.w3.org/2000/svg">
<path d="M16.1908 12.5508C16.1908 13.9396 15.2408 15.0653 14.0693 15.0653C15.2408 15.0653 16.1908 16.191 16.1908 17.5798C16.1908 16.191 17.1408 15.0653 18.3123 15.0653C17.1408 15.0653 16.1908 13.9396 16.1908 12.5508Z" fill="white"/>
<path d="M42.5175 35.3552C42.5175 36.7441 41.5675 37.8698 40.396 37.8698C41.5675 37.8698 42.5175 38.9954 42.5175 40.3843C42.5175 38.9954 43.4675 37.8698 44.639 37.8698C43.4675 37.8698 42.5175 36.7441 42.5175 35.3552Z" fill="white"/>
<path d="M8.09163 31.0839C8.09163 31.5222 7.73677 31.877 7.29849 31.877C6.86021 31.877 6.50537 31.5222 6.50537 31.0839C6.50537 30.6456 6.86021 30.2908 7.29849 30.2908C7.73677 30.2908 8.09163 30.6456 8.09163 31.0839Z" fill="white"/>
<path d="M28.5036 6.60286C28.9416 6.60286 29.2967 6.24777 29.2967 5.80974C29.2967 5.3717 28.9416 5.0166 28.5036 5.0166C28.0655 5.0166 27.7104 5.3717 27.7104 5.80974C27.7104 6.24777 28.0655 6.60286 28.5036 6.60286Z" fill="white"/>
<path d="M52.3202 42.3854C52.3202 42.8237 51.9653 43.1786 51.527 43.1786C51.0887 43.1786 50.7339 42.8237 50.7339 42.3854C50.7339 41.9471 51.0887 41.5923 51.527 41.5923C51.9653 41.5923 52.3202 41.9477 52.3202 42.3854Z" fill="white"/>
<path d="M39.7648 2.38346C39.1585 2.69484 38.5851 3.04911 38.0399 3.43392C38.0252 3.44332 38.0117 3.45449 37.997 3.46507C34.7392 5.78278 32.6219 9.34601 32.173 13.3804L27.6698 16.298C26.3802 15.6494 24.7904 15.677 23.4938 16.5165C21.6449 17.715 21.055 20.1309 22.0867 22.0379C19.1586 23.0002 12.7518 26.0876 12.7518 34.6852V44.6733C12.7518 44.7104 12.7536 44.7474 12.7577 44.7838C12.7618 44.8191 13.1167 48.3077 11.2284 50.4115C10.279 51.4696 8.87428 52.006 7.05418 52.006H4.31934C3.06501 52.006 2.04451 50.9855 2.04451 49.7306V48.7589C2.04451 47.6591 2.93929 46.7649 4.03792 46.7649C5.13773 46.7649 6.03193 47.6596 6.03193 48.7589C6.03193 49.3235 6.48958 49.7806 7.05359 49.7806C7.6176 49.7806 8.07527 49.3229 8.07527 48.7589C8.07527 46.5328 6.264 44.7215 4.03735 44.7215C1.81129 44.7215 0 46.5328 0 48.7589V49.7306C0 52.1118 1.937 54.0494 4.31875 54.0494H7.05359C9.4794 54.0494 11.3959 53.2844 12.7489 51.7757C15.1083 49.146 14.8451 45.1845 14.7946 44.624V34.6852C14.7946 26.7045 21.1408 24.3662 23.2165 23.8145L24.5636 25.8937C20.1902 26.9453 17.8008 30.4957 17.8008 36.0682C17.8008 36.6328 18.2585 37.0898 18.8225 37.0898C19.3865 37.0898 19.8442 36.6322 19.8442 36.0682C19.8442 31.146 21.8358 28.3495 25.7574 27.7361L28.1533 31.4339C25.0289 32.0525 22.6648 34.8126 22.6648 38.1156V45.6521C22.6648 48.1902 23.8016 50.4644 25.5871 52.0054H24.1794C21.7889 52.0054 19.8442 50.0602 19.8442 47.6696V45.0364C19.8442 44.4724 19.3865 44.0148 18.8225 44.0148C18.2585 44.0148 17.8008 44.4724 17.8008 45.0364V47.6696C17.8008 51.1876 20.6626 54.0494 24.18 54.0494H31.0615H32.069H32.8069C32.8833 54.0494 32.9573 54.0394 33.029 54.0235C37.4007 53.792 39.6167 51.9314 39.6167 48.4804V48.3664C39.6167 45.7567 37.4935 43.6335 34.8838 43.6335C32.2741 43.6335 30.1508 45.7567 30.1508 48.3664C30.1508 48.931 30.6085 49.3881 31.1725 49.3881C31.7365 49.3881 32.1942 48.9304 32.1942 48.3664C32.1942 46.883 33.4003 45.6768 34.8838 45.6768C36.3672 45.6768 37.5734 46.883 37.5734 48.3664V48.4804C37.5734 50.2235 36.9195 52.0054 32.069 52.0054H31.0615C27.5587 52.0054 24.7088 49.1554 24.7088 45.6521V38.1156C24.7088 35.5135 26.8038 33.395 29.3947 33.3498L29.6556 33.7528C30.2654 34.6946 31.2054 35.342 32.3023 35.577C32.5978 35.6399 32.8939 35.671 33.1888 35.671C33.9902 35.671 34.7751 35.4407 35.4631 34.9948C36.4048 34.3843 37.0528 33.4449 37.2873 32.3475C37.3636 31.9891 37.3883 31.6284 37.3725 31.2718L41.8733 28.3565C45.6851 29.5797 49.7436 29.1514 53.187 27.1692C53.2909 27.1269 53.3838 27.0687 53.4654 26.9994C53.5882 26.9248 53.7122 26.8537 53.8338 26.775C57.115 24.6494 59.3152 21.3617 60.0296 17.517C60.744 13.6748 59.8681 9.81131 57.5627 6.63878C53.5207 1.07686 45.8707 -0.751471 39.7648 2.38346ZM35.2903 31.9204C35.1699 32.4838 34.838 32.9661 34.3544 33.2793H34.3538C33.8697 33.5924 33.2922 33.6982 32.7312 33.5783C32.1677 33.4579 31.6848 33.1259 31.3722 32.6418L24.5554 22.1201C24.5513 22.1137 24.5472 22.1072 24.5431 22.1008L23.9685 21.2142C23.3222 20.216 23.6083 18.8783 24.6053 18.2315C24.9672 17.9976 25.3726 17.8854 25.7745 17.8854C26.4818 17.8854 27.1757 18.232 27.5881 18.8683L34.9913 30.2965C35.305 30.7806 35.4114 31.3569 35.2903 31.9204ZM42.0813 26.268C41.7823 26.1599 41.4474 26.1986 41.1801 26.372L36.745 29.2448L33.0055 23.472L29.3036 17.7573L29.3025 17.7562L29.2654 17.6992L33.6999 14.8263C33.9678 14.6524 34.1394 14.3639 34.1635 14.0455C34.4155 10.7078 35.9965 7.71509 38.5063 5.64824C44.2286 11.4134 48.6032 18.1657 51.5261 25.7433C48.5997 27.2003 45.2274 27.4007 42.0813 26.268ZM58.0215 17.1446C57.454 20.2008 55.7861 22.8446 53.2997 24.6617C50.3199 17.0723 45.926 10.2907 40.216 4.46912C40.3758 4.37806 40.5344 4.28581 40.6989 4.20121C45.9165 1.52041 52.4549 3.08553 55.91 7.84081C57.8823 10.5551 58.632 13.8592 58.0215 17.1446Z" fill="white"/>
<path d="M4.54541 39.405C4.54541 39.969 5.00309 40.4266 5.56709 40.4266C7.86072 40.4266 8.00641 42.4665 8.01229 42.8777C8.01522 43.4394 8.47172 43.8941 9.03397 43.8941C9.59797 43.8941 10.0556 43.4364 10.0556 42.8724C10.0556 41.0676 8.86006 38.3833 5.56709 38.3833C5.0025 38.3827 4.54541 38.8404 4.54541 39.405Z" fill="white"/>
<path d="M26.7256 43.7816C26.7256 44.3456 27.1833 44.8033 27.7473 44.8033C28.3119 44.8033 28.7689 44.3456 28.7689 43.7816C28.7689 41.4874 30.8082 41.3417 31.2194 41.3358C31.7811 41.3329 32.2358 40.8764 32.2358 40.3142C32.2358 39.7502 31.7781 39.2925 31.2141 39.2925C29.4099 39.2925 26.7256 40.4881 26.7256 43.7816Z" fill="white"/>
</svg>
