<svg width="68" height="53" viewBox="0 0 68 53" fill="none" xmlns="http://www.w3.org/2000/svg">
<path d="M13.4412 34.1584C13.4412 35.6933 12.3913 36.9373 11.0967 36.9373C12.3913 36.9373 13.4412 38.1813 13.4412 39.7161C13.4412 38.1813 14.491 36.9373 15.7857 36.9373C14.491 36.9373 13.4412 35.6933 13.4412 34.1584Z" fill="white"/>
<path d="M25.8308 0.285645C25.8308 1.8205 24.781 3.06449 23.4863 3.06449C24.781 3.06449 25.8308 4.30848 25.8308 5.84333C25.8308 4.30848 26.8807 3.06449 28.1753 3.06449C26.88 3.06514 25.8308 1.8205 25.8308 0.285645Z" fill="white"/>
<path d="M49.239 40.7419C49.239 42.2768 48.1892 43.5208 46.8945 43.5208C48.1892 43.5208 49.239 44.7648 49.239 46.2996C49.239 44.7648 50.2889 43.5208 51.5835 43.5208C50.2889 43.5208 49.239 42.2768 49.239 40.7419Z" fill="white"/>
<path d="M52.8145 36.0603C52.8145 36.5447 52.4217 36.9368 51.938 36.9368C51.4543 36.9368 51.0615 36.5447 51.0615 36.0603C51.0615 35.576 51.4537 35.1838 51.938 35.1838C52.4217 35.1838 52.8145 35.576 52.8145 36.0603Z" fill="white"/>
<path d="M42.4962 6.72025C42.4962 7.2046 42.104 7.59676 41.6197 7.59676C41.1353 7.59676 40.7432 7.2046 40.7432 6.72025C40.7432 6.2359 41.1353 5.84375 41.6197 5.84375C42.104 5.84375 42.4962 6.2359 42.4962 6.72025Z" fill="white"/>
<path d="M25.4093 44.3975C25.4093 44.8818 25.0171 45.274 24.5328 45.274C24.0484 45.274 23.6562 44.8818 23.6562 44.3975C23.6562 43.9131 24.0484 43.521 24.5328 43.521C25.0171 43.521 25.4093 43.9138 25.4093 44.3975Z" fill="white"/>
<path d="M33.995 12.4666C33.3743 12.4666 32.8711 12.9697 32.8711 13.5904V31.3484C32.8711 31.9691 33.3743 32.4723 33.995 32.4723C34.6157 32.4723 35.1195 31.9691 35.1195 31.3484V13.5911C35.1195 12.9704 34.6157 12.4666 33.995 12.4666Z" fill="white"/>
<path d="M52.758 5.84399C48.9955 5.84399 45.4532 7.26848 42.7399 9.85709C40.0026 8.26704 36.9037 7.42235 33.7138 7.42235C30.5234 7.42235 27.4244 8.26769 24.6878 9.85709C21.9745 7.26848 18.4321 5.84399 14.669 5.84399C6.65972 5.84399 0.143066 12.3606 0.143066 20.37C0.143066 23.2098 0.966332 25.9646 2.52326 28.3345C2.52456 28.3364 2.52651 28.3377 2.52781 28.3397C3.49846 30.6744 5.77737 32.2164 8.33157 32.2164C11.8012 32.2164 14.6242 29.3941 14.6242 25.9237C14.6242 23.4877 13.1926 21.2478 10.9767 20.2193C10.5702 20.0297 10.0872 20.1012 9.7528 20.4018C9.41778 20.7024 9.29378 21.1731 9.43856 21.599C9.58205 22.0236 9.65477 22.4593 9.65477 22.8949C9.65477 25.1245 7.84073 26.9392 5.61116 26.9392C5.21835 26.9392 4.83334 26.8769 4.45807 26.7632C4.4282 26.4828 4.41132 26.2023 4.41132 25.9244C4.41132 23.702 5.32548 21.5419 6.91942 19.9973C8.44259 18.5215 10.4138 17.745 12.4888 17.8106C14.1723 17.8644 15.5273 18.5222 16.7739 19.3233C16.0747 21.262 15.7182 23.2968 15.7137 25.3849C15.7137 25.3862 15.713 25.3868 15.713 25.3881C15.7117 25.4219 15.7104 25.5465 15.7247 25.7368C15.8572 33.2098 20.7065 39.9206 27.7192 42.402V46.6735C27.7192 49.9789 30.4085 52.6682 33.7145 52.6682C37.0205 52.6682 39.7091 49.9789 39.7091 46.6735V43.261C39.7591 43.1123 39.8033 42.9682 39.837 42.8351C39.8779 42.6721 39.8702 42.5092 39.8396 42.3507C46.8452 39.8089 51.6666 33.0416 51.7127 25.5348C51.7166 25.4693 51.7173 25.4316 51.7173 25.4264C51.7173 23.3247 51.3602 21.2763 50.6557 19.324C51.9023 18.5228 53.2573 17.8651 54.9415 17.8119C57.0016 17.7385 58.987 18.5228 60.5109 19.9986C62.1048 21.5425 63.019 23.7026 63.019 25.9257C63.019 26.2029 63.0014 26.4834 62.9716 26.7645C62.597 26.8782 62.2113 26.9405 61.8185 26.9405C59.5889 26.9405 57.7749 25.1264 57.7749 22.8962C57.7749 22.4606 57.8476 22.0243 57.9911 21.6003C58.1352 21.1744 58.0112 20.703 57.6768 20.4031C57.3418 20.1025 56.8607 20.031 56.453 20.2206C54.237 21.2491 52.8054 23.489 52.8054 25.925C52.8054 29.3947 55.6278 32.2177 59.0981 32.2177C61.6523 32.2177 63.9312 30.6763 64.9012 28.3416C64.9025 28.3397 64.9051 28.3377 64.9064 28.3358C66.4633 25.9659 67.2859 23.2118 67.2859 20.3719C67.284 12.36 60.768 5.84399 52.758 5.84399ZM11.8233 23.8935C12.1772 24.4993 12.3758 25.1979 12.3758 25.9237C12.3758 28.1533 10.5618 29.968 8.33157 29.968C7.44662 29.968 6.61297 29.6797 5.93514 29.1791C8.9185 29.0266 11.3604 26.786 11.8233 23.8935ZM59.0961 29.9674C56.8666 29.9674 55.0519 28.1533 55.0519 25.9231C55.0519 25.1972 55.2499 24.4993 55.6044 23.8929C56.068 26.7853 58.5098 29.0259 61.4932 29.1779C60.8147 29.6791 59.9811 29.9674 59.0961 29.9674ZM12.5596 15.5622C9.88071 15.4771 7.31872 16.4783 5.35405 18.3813C4.08539 19.6097 3.15565 21.1445 2.63624 22.8138C2.47457 22.0145 2.39211 21.1965 2.39211 20.3693C2.39211 13.5994 7.89981 8.09174 14.6697 8.09174C17.9491 8.09174 21.0324 9.36884 23.3516 11.688C23.3672 11.7036 23.3821 11.7185 23.399 11.7328C23.4217 11.7529 25.6812 13.8254 25.8039 16.0595C25.8539 16.9633 25.5455 17.7703 24.8618 18.5293C22.8101 20.8037 21.7408 20.0473 19.3924 18.389C17.6706 17.1717 15.5273 15.6563 12.5596 15.5622ZM19.184 31.4561C20.8273 32.7098 23.2516 33.8506 26.818 34.5271C27.4433 36.6119 27.6458 38.6454 27.7062 39.979C23.8223 38.3682 20.7753 35.2536 19.184 31.4561ZM18.1978 26.6275C20.5585 26.8795 22.5141 27.7949 24.0139 29.3765C24.7579 30.1615 25.3533 31.0633 25.8305 32.0125C20.4182 30.6595 18.7237 28.1234 18.1978 26.6275ZM32.59 50.2458C31.072 49.7673 29.9676 48.346 29.9676 46.6722V46.4366C30.6597 47.0735 31.5265 47.5708 32.59 47.7818V50.2458ZM30.8194 44.0206C33.1672 44.6102 35.0929 44.5855 36.5141 44.3738C35.9019 45.0601 35.002 45.6503 33.7138 45.6503C32.3043 45.6503 31.3927 44.8647 30.8194 44.0206ZM37.4601 46.6722C37.4601 48.346 36.3557 49.7673 34.8377 50.2458V47.7896C35.8869 47.5955 36.755 47.1423 37.4601 46.5625V46.6722ZM39.8864 39.9063C39.9312 38.646 40.0967 36.7872 40.6155 34.8544C43.9345 34.4512 46.2641 33.4383 47.8944 32.2151C46.255 35.6133 43.4294 38.3883 39.8864 39.9063ZM41.4563 32.4579C41.953 31.3464 42.6016 30.2835 43.4515 29.3752C44.9364 27.7897 46.8867 26.873 49.254 26.6243C48.754 28.3513 47.0757 31.4392 41.4563 32.4579ZM41.8102 27.8391C37.8003 32.1216 37.5867 38.9246 37.6237 41.0275C37.5263 41.1951 37.4601 41.3827 37.4601 41.5859V41.8683C36.2752 42.2443 33.6859 42.702 29.9747 41.4165C30.0169 39.9868 30.0195 32.4488 25.652 27.8371C23.673 25.7471 21.1013 24.5811 18.0004 24.3493C18.0848 23.0845 18.3179 21.847 18.699 20.6485C20.9182 22.1768 23.4295 23.4767 26.5311 20.0349C27.6205 18.826 28.1315 17.447 28.0484 15.9368C27.9529 14.1922 27.057 12.632 26.2434 11.5562C28.5301 10.322 31.0863 9.67075 33.7132 9.67075C36.3395 9.67075 38.8963 10.322 41.1836 11.5562C40.3701 12.632 39.4741 14.1922 39.378 15.9368C39.2949 17.447 39.8065 18.826 40.896 20.0349C43.9982 23.476 46.5089 22.1762 48.7274 20.6485C49.1092 21.8477 49.3423 23.0852 49.4267 24.3499C46.3284 24.5811 43.7677 25.7478 41.8102 27.8391ZM64.7915 22.8131C64.272 21.1445 63.3423 19.6103 62.0743 18.3813C60.1869 16.5529 57.7515 15.557 55.1843 15.557C55.0798 15.557 54.974 15.5583 54.8688 15.5622C52.2406 15.6459 50.2597 16.8432 48.6449 17.9612L48.6443 17.9618C48.4359 18.1066 48.232 18.2501 48.0353 18.389C45.6876 20.0466 44.6169 20.803 42.5665 18.5293C41.8848 17.7729 41.5764 16.9678 41.6238 16.0673C41.7426 13.813 44.0092 11.7523 44.03 11.7328C44.0462 11.7185 44.0618 11.7036 44.0774 11.688C46.3965 9.36949 49.4792 8.09174 52.7587 8.09174C59.5285 8.09174 65.0362 13.5994 65.0362 20.3693C65.0356 21.1965 64.9531 22.0145 64.7915 22.8131Z" fill="white"/>
</svg>
