<svg width="40" height="46" viewBox="0 0 40 46" fill="none" xmlns="http://www.w3.org/2000/svg">
<path d="M24.8794 40.3515C24.7934 40.3039 24.6988 40.2737 24.6011 40.2626C24.5034 40.2515 24.4045 40.2598 24.3099 40.2869C24.2154 40.3141 24.1272 40.3596 24.0503 40.4209C23.9733 40.4821 23.9092 40.558 23.8616 40.644C23.8121 40.73 23.78 40.825 23.7671 40.9234C23.7543 41.0219 23.7609 41.1219 23.7867 41.2178C23.8125 41.3136 23.8569 41.4035 23.9175 41.4822C23.978 41.5609 24.0534 41.6269 24.1395 41.6764C24.2255 41.726 24.3205 41.7581 24.4189 41.7709C24.5173 41.7838 24.6174 41.7771 24.7132 41.7513C24.8091 41.7255 24.8989 41.6811 24.9776 41.6206C25.0563 41.56 25.1223 41.4846 25.1719 41.3986V41.3635C25.2663 41.1903 25.2885 40.9869 25.2337 40.7974C25.1789 40.6079 25.0516 40.4477 24.8794 40.3515Z" fill="white"/>
<path d="M34.8056 23.1202C35.5134 22.4124 36.1627 21.6987 36.7476 20.991C39.7659 17.335 40.7252 14.1003 39.4501 11.895C38.892 10.9773 38.0283 10.2856 37.0108 9.94132C36.7976 9.87578 36.5675 9.89389 36.3672 9.99198C36.1668 10.0901 36.0114 10.2608 35.9324 10.4694C35.8534 10.678 35.8569 10.9088 35.942 11.115C36.0272 11.3211 36.1876 11.4871 36.3908 11.5792C37.0255 11.7785 37.5713 12.192 37.9351 12.7491C38.8008 14.2524 37.8766 16.8437 35.3964 19.8503C34.8114 20.523 34.2265 21.2074 33.5421 21.8801C32.025 20.5032 30.4209 19.2254 28.7397 18.0545C28.566 16.0131 28.2612 13.985 27.8272 11.9828C28.4316 11.819 29.0166 11.6786 29.582 11.5616C29.6949 11.5386 29.8022 11.4935 29.8977 11.429C29.9932 11.3645 30.0751 11.2818 30.1386 11.1857C30.2022 11.0895 30.2462 10.9818 30.2681 10.8687C30.29 10.7555 30.2895 10.6392 30.2664 10.5263C30.2434 10.4134 30.1983 10.3061 30.1338 10.2106C30.0693 10.1151 29.9866 10.0332 29.8905 9.96965C29.7943 9.9061 29.6866 9.8621 29.5735 9.84018C29.4603 9.81826 29.344 9.81884 29.2311 9.84188C28.6305 9.96277 28.0163 10.109 27.3885 10.2806C27.1253 9.31543 26.8386 8.39707 26.5169 7.5372C24.8732 3.12085 22.5568 0.675781 20.0065 0.675781C17.4561 0.675781 15.1456 3.12086 13.4726 7.5606C13.1509 8.42047 12.8877 9.31543 12.601 10.304C11.6359 10.0466 10.6941 9.84188 9.78745 9.6898C5.10789 8.90597 1.83219 9.6898 0.562857 11.895C0.0454301 12.8385 -0.122363 13.9343 0.0890512 14.9894C0.107487 15.1046 0.148438 15.2151 0.209564 15.3145C0.270691 15.4139 0.350798 15.5003 0.44531 15.5687C0.539822 15.6372 0.646889 15.6863 0.760397 15.7134C0.873905 15.7404 0.991633 15.7449 1.10686 15.7264C1.22208 15.708 1.33255 15.6671 1.43194 15.6059C1.53134 15.5448 1.61773 15.4647 1.68617 15.3702C1.75461 15.2757 1.80376 15.1686 1.83082 15.0551C1.85789 14.9416 1.86232 14.8239 1.84389 14.7086C1.70265 14.0523 1.79578 13.3673 2.10711 12.7725C2.94359 11.2692 5.66359 10.7778 9.50668 11.4212C10.3724 11.5675 11.2615 11.7664 12.1916 12.0062C11.7575 14.0084 11.4527 16.0365 11.2791 18.0779C9.58986 19.248 7.97791 20.5258 6.45326 21.9035C6.0282 21.4628 5.61874 21.0163 5.22488 20.5639C5.14806 20.4779 5.05505 20.4078 4.95116 20.3578C4.84726 20.3077 4.73452 20.2785 4.61937 20.272C4.38681 20.2589 4.15855 20.3386 3.98479 20.4937C3.81104 20.6489 3.70603 20.8667 3.69286 21.0993C3.6797 21.3318 3.75946 21.5601 3.9146 21.7338C4.30456 22.194 4.73742 22.6522 5.21318 23.1085C4.50539 23.8279 3.8561 24.5416 3.27116 25.2435C0.258685 28.9053 -0.700626 32.1342 0.568707 34.3394C1.52217 35.989 3.59288 36.843 6.52931 36.843C7.62349 36.8352 8.71517 36.7374 9.7933 36.5505C10.7 36.3984 11.6417 36.1937 12.6069 35.9363C12.8877 36.8956 13.1626 37.814 13.4726 38.6973C15.1339 43.137 17.4502 45.5821 19.9948 45.5821C21.0731 45.5609 22.1091 45.1589 22.9195 44.4473C23.0918 44.2976 23.199 44.0866 23.2183 43.8591C23.2376 43.6316 23.1675 43.4056 23.0229 43.229C22.8782 43.0523 22.6705 42.9391 22.4436 42.9132C22.2168 42.8872 21.9888 42.9508 21.8081 43.0902C21.311 43.5415 20.6714 43.8043 20.0006 43.8331C18.2458 43.8331 16.4909 41.739 15.1163 38.0831C14.8121 37.2641 14.5314 36.3867 14.2857 35.4625C16.2369 34.8371 18.1458 34.0868 20.0006 33.2163C21.8555 34.0868 23.7644 34.8371 25.7155 35.4625C25.5517 36.0475 25.3763 36.6324 25.1949 37.2174C25.1367 37.4333 25.1632 37.6633 25.2689 37.8604C25.3747 38.0575 25.5517 38.2068 25.7638 38.2778C25.9759 38.3487 26.2071 38.336 26.4101 38.2422C26.6132 38.1484 26.7727 37.9806 26.8562 37.773C27.0492 37.1881 27.2305 36.6032 27.4002 35.9597C28.3653 36.2171 29.3071 36.4218 30.2138 36.5739C31.2919 36.7608 32.3836 36.8587 33.4778 36.8664C36.4025 36.8664 38.4849 36.0124 39.4384 34.3628C40.7135 32.1576 39.7542 28.9287 36.7359 25.2669C36.1568 24.5416 35.5075 23.8279 34.8056 23.1202ZM32.2669 23.1202C31.2374 24.0561 30.1026 24.9861 28.8859 25.8869C28.9288 24.9744 28.9503 24.0522 28.9503 23.1202C28.9503 22.1881 28.9288 21.2659 28.8859 20.3534C30.1026 21.2542 31.2316 22.1842 32.2669 23.1202ZM12.8233 23.1202C12.8233 21.7397 12.8701 20.3768 12.9696 19.0255C14.0576 18.3061 15.2275 17.5866 16.3973 16.8963C17.5672 16.2061 18.7956 15.5685 19.9948 14.9894C21.1647 15.5744 22.393 16.2061 23.5863 16.8963C24.7796 17.5866 25.9261 18.3119 27.0375 19.0548C27.1311 20.3826 27.1837 21.7397 27.1837 23.1494C27.1837 24.5591 27.1311 25.8869 27.0375 27.244C25.9378 27.9869 24.7855 28.7122 23.5922 29.4025C22.3989 30.0927 21.1939 30.7303 20.0006 31.3094C18.8307 30.7245 17.6023 30.0927 16.409 29.4025C15.2158 28.7122 14.0693 27.9928 12.9579 27.2382C12.8877 25.8577 12.8175 24.5006 12.8175 23.1202H12.8233ZM26.862 16.8144C26.0821 16.3231 25.3022 15.8434 24.5222 15.3755C23.7423 14.9075 22.9331 14.4649 22.0947 14.0476C23.481 13.4627 24.8498 12.9304 26.1893 12.5034C26.4292 13.8663 26.669 15.2994 26.8445 16.8144H26.862ZM15.1631 8.17479C16.4909 4.52473 18.2692 2.43062 20.0065 2.43062C21.7437 2.43062 23.5161 4.52473 24.8908 8.18064C25.1949 8.99956 25.4757 9.87698 25.7214 10.8012C23.7706 11.4278 21.8618 12.178 20.0065 13.0474C18.1518 12.1749 16.2428 11.4227 14.2915 10.7953C14.5431 9.87113 14.818 8.99371 15.128 8.17479H15.1631ZM13.9172 12.5034C15.245 12.9304 16.6138 13.4452 18.0118 14.0476C17.2007 14.4649 16.3915 14.9075 15.5843 15.3755C14.777 15.8434 13.9971 16.3231 13.2445 16.8144C13.3439 15.2994 13.5838 13.8663 13.8821 12.5034H13.9172ZM11.1328 25.8811C9.92199 24.9803 8.79305 24.0502 7.75769 23.1143C8.7872 22.1784 9.92199 21.2542 11.1328 20.3475C11.0899 21.26 11.0685 22.1823 11.0685 23.1143C11.0685 24.0463 11.0899 24.9686 11.1328 25.8811ZM9.50668 34.8191C5.66359 35.4625 2.95529 34.9712 2.08957 33.462C1.22385 31.9528 2.14806 29.3674 4.62823 26.3608C5.21318 25.6822 5.79812 25.0037 6.48251 24.3251C7.99993 25.707 9.60399 26.9907 11.2849 28.1682C11.4584 30.2116 11.7632 32.2416 12.1974 34.2458C11.2674 34.474 10.3724 34.6728 9.50668 34.8191ZM13.8762 33.7369C13.5779 32.374 13.3439 30.9292 13.1684 29.4259C13.9484 29.9211 14.7283 30.4008 15.5082 30.8648C16.2882 31.3289 17.0973 31.7715 17.9358 32.1927C16.5728 32.7952 15.2275 33.3099 13.8821 33.7311L13.8762 33.7369ZM22.0655 32.1927C22.8766 31.7754 23.6858 31.3328 24.493 30.8648C25.3002 30.3969 26.0801 29.9172 26.8328 29.4259C26.6573 30.9292 26.4233 32.3506 26.125 33.7311C24.8089 33.3099 23.4167 32.7893 22.0479 32.1927H22.0655ZM37.9234 33.462C37.0576 34.9653 34.3493 35.4625 30.5062 34.8191C29.6405 34.6728 28.7514 34.474 27.8155 34.2341C28.2481 32.2336 28.5529 30.2075 28.728 28.1682C30.4112 26.9975 32.0172 25.7197 33.5363 24.3427C34.2148 25.0212 34.8348 25.6998 35.3905 26.3725C37.8707 29.3732 38.7949 31.9587 37.9234 33.462Z" fill="white"/>
<path d="M2.26506 18.8497C2.4024 18.8514 2.53769 18.8162 2.65676 18.7477C2.77583 18.6792 2.8743 18.58 2.94187 18.4604C3.00944 18.3408 3.04362 18.2053 3.04084 18.0679C3.03805 17.9306 2.99841 17.7965 2.92605 17.6798C2.82133 17.5045 2.65126 17.378 2.45325 17.328C2.25525 17.2781 2.04552 17.3089 1.87022 17.4136C1.69491 17.5184 1.56839 17.6884 1.51847 17.8864C1.46856 18.0844 1.49935 18.2942 1.60407 18.4695V18.4987C1.67505 18.6088 1.77308 18.6989 1.8888 18.7604C2.00452 18.8218 2.13407 18.8526 2.26506 18.8497Z" fill="white"/>
<path d="M33.2439 11.0112H33.2907C33.4869 11.0112 33.6751 10.9332 33.8139 10.7944C33.9527 10.6557 34.0306 10.4675 34.0306 10.2712C34.0306 10.075 33.9527 9.88675 33.8139 9.74798C33.6751 9.60921 33.4869 9.53125 33.2907 9.53125H33.2556C33.0593 9.53125 32.8711 9.60921 32.7324 9.74798C32.5936 9.88675 32.5156 10.075 32.5156 10.2712C32.5156 10.4675 32.5936 10.6557 32.7324 10.7944C32.8711 10.9332 33.0593 11.0112 33.2556 11.0112H33.2439Z" fill="white"/>
<path d="M20.0181 27.4385C20.8742 27.4385 21.7111 27.1846 22.4229 26.709C23.1347 26.2333 23.6895 25.5573 24.0172 24.7663C24.3448 23.9754 24.4305 23.105 24.2635 22.2654C24.0965 21.4257 23.6842 20.6544 23.0788 20.0491C22.4735 19.4437 21.7022 19.0314 20.8625 18.8644C20.0229 18.6974 19.1525 18.7831 18.3616 19.1107C17.5706 19.4384 16.8946 19.9932 16.419 20.705C15.9433 21.4168 15.6895 22.2537 15.6895 23.1099C15.691 24.2574 16.1475 25.3575 16.959 26.1689C17.7704 26.9804 18.8705 27.4369 20.0181 27.4385ZM20.0181 20.5361C20.5271 20.5361 21.0247 20.687 21.448 20.9698C21.8712 21.2527 22.2011 21.6546 22.3959 22.1249C22.5907 22.5952 22.6417 23.1127 22.5424 23.612C22.4431 24.1112 22.1979 24.5698 21.838 24.9298C21.478 25.2897 21.0194 25.5348 20.5202 25.6342C20.0209 25.7335 19.5034 25.6825 19.0331 25.4877C18.5628 25.2929 18.1609 24.963 17.878 24.5398C17.5952 24.1165 17.4443 23.6189 17.4443 23.1099C17.4458 22.4277 17.7175 21.774 18.1998 21.2916C18.6822 20.8093 19.3359 20.5376 20.0181 20.5361Z" fill="white"/>
<path d="M24.5054 42.4522C25.2969 42.4522 25.9385 41.8105 25.9385 41.0191C25.9385 40.2276 25.2969 39.5859 24.5054 39.5859C23.7139 39.5859 23.0723 40.2276 23.0723 41.0191C23.0723 41.8105 23.7139 42.4522 24.5054 42.4522Z" fill="white"/>
<path d="M33.2905 11.7022C34.082 11.7022 34.7237 11.0605 34.7237 10.2691C34.7237 9.47757 34.082 8.83594 33.2905 8.83594C32.4991 8.83594 31.8574 9.47757 31.8574 10.2691C31.8574 11.0605 32.4991 11.7022 33.2905 11.7022Z" fill="white"/>
<path d="M2.25343 19.499C3.04492 19.499 3.68655 18.8574 3.68655 18.0659C3.68655 17.2744 3.04492 16.6328 2.25343 16.6328C1.46194 16.6328 0.820312 17.2744 0.820312 18.0659C0.820312 18.8574 1.46194 19.499 2.25343 19.499Z" fill="white"/>
<path d="M20.2871 37.7246C20.6037 37.7246 20.8604 37.468 20.8604 37.1514C20.8604 36.8348 20.6037 36.5781 20.2871 36.5781C19.9705 36.5781 19.7139 36.8348 19.7139 37.1514C19.7139 37.468 19.9705 37.7246 20.2871 37.7246Z" fill="white"/>
<path d="M19.3108 38.901C19.5337 38.901 19.7145 38.7203 19.7145 38.4974C19.7145 38.2745 19.5337 38.0938 19.3108 38.0938C19.0879 38.0938 18.9072 38.2745 18.9072 38.4974C18.9072 38.7203 19.0879 38.901 19.3108 38.901Z" fill="white"/>
<path d="M20.2875 38.6434C20.4684 38.6434 20.6151 38.4968 20.6151 38.3158C20.6151 38.1349 20.4684 37.9883 20.2875 37.9883C20.1066 37.9883 19.96 38.1349 19.96 38.3158C19.96 38.4968 20.1066 38.6434 20.2875 38.6434Z" fill="white"/>
<path d="M33.4889 30.7486C33.6827 30.4983 33.6369 30.1383 33.3866 29.9444C33.1363 29.7506 32.7762 29.7964 32.5824 30.0467C32.3886 30.2971 32.4344 30.6571 32.6847 30.851C32.935 31.0448 33.2951 30.999 33.4889 30.7486Z" fill="white"/>
<path d="M32.9557 16.5338C33.1495 16.2835 33.1037 15.9234 32.8534 15.7296C32.6031 15.5358 32.243 15.5816 32.0492 15.8319C31.8554 16.0822 31.9012 16.4423 32.1515 16.6361C32.4018 16.8299 32.7619 16.7841 32.9557 16.5338Z" fill="white"/>
<path d="M33.2594 17.8118C33.3959 17.6355 33.3636 17.382 33.1874 17.2456C33.0111 17.1091 32.7576 17.1413 32.6211 17.3176C32.4847 17.4938 32.5169 17.7473 32.6932 17.8838C32.8694 18.0203 33.1229 17.988 33.2594 17.8118Z" fill="white"/>
<path d="M20.6217 8.44005C20.8156 8.18972 20.7698 7.82966 20.5194 7.63584C20.2691 7.44201 19.909 7.48782 19.7152 7.73815C19.5214 7.98847 19.5672 8.34853 19.8175 8.54236C20.0678 8.73618 20.4279 8.69038 20.6217 8.44005Z" fill="white"/>
<path d="M19.8099 7.1153C19.9424 6.94416 19.9111 6.698 19.74 6.56548C19.5688 6.43297 19.3226 6.46429 19.1901 6.63543C19.0576 6.80657 19.0889 7.05274 19.2601 7.18525C19.4312 7.31776 19.6774 7.28645 19.8099 7.1153Z" fill="white"/>
<path d="M20.9703 7.30183C21.093 7.14346 21.064 6.91567 20.9056 6.79305C20.7473 6.67042 20.5195 6.6994 20.3968 6.85777C20.2742 7.01614 20.3032 7.24394 20.4616 7.36656C20.6199 7.48919 20.8477 7.46021 20.9703 7.30183Z" fill="white"/>
<path d="M7.68716 15.0924C7.88099 14.8421 7.83518 14.482 7.58485 14.2882C7.33452 14.0944 6.97446 14.1402 6.78064 14.3905C6.58681 14.6408 6.63262 15.0009 6.88295 15.1947C7.13328 15.3885 7.49334 15.3427 7.68716 15.0924Z" fill="white"/>
<path d="M7.40298 30.7447C7.59681 30.4944 7.551 30.1343 7.30067 29.9405C7.05034 29.7467 6.69029 29.7925 6.49646 30.0428C6.30263 30.2932 6.34844 30.6532 6.59877 30.847C6.8491 31.0409 7.20915 30.9951 7.40298 30.7447Z" fill="white"/>
<path d="M8.14049 31.6237C8.29476 31.4244 8.25831 31.1379 8.05906 30.9836C7.85982 30.8293 7.57325 30.8658 7.41898 31.065C7.26471 31.2643 7.30116 31.5508 7.50041 31.7051C7.69965 31.8594 7.98623 31.8229 8.14049 31.6237Z" fill="white"/>
<path d="M19.9596 24.4836C20.7188 24.4836 21.3342 23.8682 21.3342 23.109C21.3342 22.3498 20.7188 21.7344 19.9596 21.7344C19.2004 21.7344 18.585 22.3498 18.585 23.109C18.585 23.8682 19.2004 24.4836 19.9596 24.4836Z" fill="white"/>
</svg>
