<svg width="64" height="53" viewBox="0 0 64 53" fill="none" xmlns="http://www.w3.org/2000/svg">
<path d="M59.8518 36.5074L59.3912 35.9853C57.5493 33.8957 56.7864 33.0302 55.1581 32.5933C53.8928 32.2534 52.3999 32.6624 50.6732 33.1363C48.5975 33.7058 46.2789 34.3409 44.472 33.5265C44.6039 33.2968 44.7302 33.0644 44.8509 32.8271C49.9536 32.5521 53.8607 30.8813 56.4612 27.8494C60.5002 23.1397 59.8358 16.9308 59.805 16.6684C59.7304 16.0158 59.1427 15.5503 58.4887 15.6229C57.8354 15.6976 57.3664 16.2866 57.439 16.9392C57.4446 16.9929 58.0037 22.4103 54.6389 26.316C52.6665 28.6053 49.7121 29.9586 45.8525 30.3592C46.071 29.6487 46.2399 28.9172 46.3543 28.1677C52.5402 25.7702 53.5829 20.4031 53.7183 17.9114H53.719C53.7246 17.9114 53.7302 17.9114 53.735 17.9114C54.0477 17.9114 54.3485 17.7879 54.5712 17.568C54.798 17.344 54.9257 17.039 54.9257 16.72C54.9257 8.8696 49.9292 5.28218 48.6827 4.51026C45.3667 -0.200144 39.883 -0.068235 37.4095 0.675072C36.8986 0.828619 36.5517 1.30392 36.5615 1.83714C36.572 2.37107 36.9363 2.83311 37.4521 2.96711C40.9188 3.86955 41.9566 6.11273 42.2651 7.49186L41.898 7.48698L34.176 2.62023C33.8472 2.41225 33.4403 2.37945 33.0837 2.52811C32.7263 2.67677 32.4632 2.99014 32.3787 3.36843C31.4037 7.73893 35.8615 12.5659 36.052 12.769C36.1574 12.8821 36.283 12.9728 36.4226 13.037L46.5686 17.7125C46.6921 17.7697 46.8254 17.799 46.9601 17.8109C46.6495 18.8976 45.7911 20.5552 43.4418 21.2762C40.4658 19.5216 35.7366 18.7008 31.0296 18.7008C26.3744 18.7008 21.6968 19.5034 18.7159 21.2183C16.4999 20.4694 15.6742 18.8732 15.3727 17.8109C15.5081 17.799 15.6414 17.7697 15.765 17.7125L25.9102 13.037C26.0505 12.9728 26.1762 12.8821 26.2808 12.769C26.4714 12.5659 30.9298 7.73893 29.9541 3.36843C29.8697 2.99014 29.6072 2.67677 29.2492 2.52811C28.8919 2.38014 28.4836 2.41225 28.1569 2.62023L20.4335 7.48907L20.0531 7.49395C20.3476 6.11831 21.3715 3.88211 24.8794 2.96921C25.3959 2.8345 25.7595 2.37247 25.77 1.83924C25.7797 1.30601 25.4335 0.830714 24.922 0.677167C22.4499 -0.0661397 16.9654 -0.198051 13.6495 4.51235C12.403 5.28497 7.40643 8.87239 7.40643 16.7221C7.40643 17.0404 7.53415 17.3461 7.76098 17.5701C7.98362 17.79 8.28444 17.9135 8.59711 17.9135C8.6027 17.9135 8.60829 17.9135 8.61317 17.9135C8.74718 20.3668 9.7557 25.6083 15.6889 28.0581C15.802 28.8356 15.9723 29.5943 16.1963 30.3306C12.4749 29.8937 9.61682 28.5508 7.69329 26.3174C4.33201 22.4166 4.88618 17.0069 4.89316 16.9413C4.96714 16.2887 4.49882 15.6996 3.84625 15.6243C3.19437 15.5426 2.60181 16.0165 2.52713 16.6705C2.49642 16.9322 1.83129 23.1418 5.87097 27.8515C8.42265 30.8275 12.2334 32.4921 17.1985 32.8132C17.3367 33.0854 17.4826 33.3527 17.6355 33.6151C15.8634 34.2858 13.6495 33.6842 11.659 33.1377C9.93089 32.6645 8.4394 32.2548 7.17403 32.5947C5.54574 33.0316 4.78357 33.8964 2.9417 35.9853L2.48038 36.5087C-0.00429243 39.318 0.637814 42.7839 0.666429 42.9298C0.777402 43.4986 1.27573 43.893 1.83409 43.893C1.90946 43.893 1.98622 43.886 2.06299 43.8706C2.70859 43.7443 3.13016 43.1196 3.00383 42.4741C2.99895 42.4496 2.57739 39.9936 4.26431 38.0868L4.72913 37.5605C6.48655 35.5672 6.88996 35.1373 7.7924 34.8944C8.4345 34.7192 9.75361 35.0843 11.0294 35.4339C13.4639 36.1025 16.4238 36.9108 19.023 35.6154C19.3042 35.9595 19.6016 36.2896 19.9107 36.6086C19.3496 37.0531 18.8192 37.3896 18.5965 37.4175C17.8574 37.4175 13.7556 36.8982 11.3428 36.5716C10.9317 36.5115 10.5269 36.6749 10.2652 36.9917L3.94256 44.6321C3.81135 44.7905 3.72341 44.9818 3.68712 45.1842C3.62081 45.5617 3.07921 48.9328 4.59863 51.042C4.83104 51.3651 5.19536 51.5368 5.56597 51.5368C5.80676 51.5368 6.05034 51.4642 6.26112 51.3121C6.79504 50.9275 6.91578 50.1835 6.53121 49.6496C5.8242 48.6683 5.87794 46.8166 5.98961 45.8933L11.6785 39.0185C13.3878 39.2461 17.6334 39.7981 18.5951 39.7981C19.6365 39.7981 20.8613 38.9432 21.7205 38.2096C22.1414 38.5265 22.579 38.8231 23.0319 39.0967C22.4143 39.8763 21.4874 40.4298 21.0379 40.6385L17.2586 41.6114C16.9012 41.7035 16.6074 41.9555 16.4615 42.294L15.1571 45.3286C15.0126 45.665 15.0307 46.0503 15.2073 46.3714L18.2664 51.9521C18.4834 52.3478 18.8911 52.5705 19.3119 52.5705C19.5052 52.5705 19.7014 52.5237 19.8828 52.4239C20.4593 52.1077 20.6715 51.3847 20.3546 50.8075L17.5747 45.7348L18.4186 43.7715L21.7289 42.9193C21.7861 42.9047 21.8419 42.8858 21.8971 42.8621C21.9962 42.8202 24.0111 41.945 25.1893 40.1771C26.9927 40.9128 28.9623 41.3218 31.0275 41.3218C33.1737 41.3218 35.2194 40.8827 37.0801 40.0906C38.2491 41.9178 40.3311 42.8195 40.4316 42.8621C40.486 42.8851 40.5426 42.9047 40.5998 42.9193L43.9101 43.7715L44.754 45.7348L41.9741 50.8075C41.6579 51.384 41.8694 52.1077 42.4459 52.4239C42.6273 52.523 42.8234 52.5705 43.0168 52.5705C43.4376 52.5705 43.8459 52.3471 44.0623 51.9521L47.1214 46.3714C47.2972 46.0503 47.3154 45.6657 47.1716 45.3286L45.8678 42.294C45.722 41.9555 45.4274 41.7035 45.0708 41.6114L41.2963 40.6399C41.0123 40.5038 39.8907 39.9189 39.2109 38.9788C39.6485 38.7059 40.0715 38.4106 40.4784 38.0966C41.341 38.8524 42.6392 39.7981 43.7349 39.7981C44.696 39.7981 48.9423 39.2461 50.6515 39.0185L56.3405 45.8933C56.4479 46.7943 56.5045 48.6704 55.7989 49.6496C55.4143 50.1835 55.5357 50.9275 56.069 51.3121C56.2797 51.4635 56.5233 51.5368 56.7641 51.5368C57.134 51.5368 57.499 51.3651 57.7315 51.042C59.2509 48.9328 58.7093 45.5617 58.643 45.1842C58.6067 44.9811 58.5194 44.7905 58.3875 44.6321L52.0649 36.9917C51.8025 36.6756 51.399 36.5129 50.9873 36.5716C48.5752 36.8982 44.4727 37.4175 43.7517 37.4182C43.4928 37.3868 42.8849 36.9924 42.2651 36.4829C42.5617 36.1702 42.8458 35.8464 43.1159 35.5107C45.7604 36.9464 48.8055 36.1193 51.3013 35.4346C52.5779 35.085 53.897 34.7213 54.5384 34.8951C55.4408 35.1373 55.8442 35.5679 57.6016 37.5619L58.0651 38.0868C59.7527 39.9936 59.3451 42.3728 59.3248 42.4803C59.2027 43.1231 59.6229 43.745 60.2664 43.8706C60.3431 43.886 60.4199 43.893 60.4953 43.893C61.0536 43.893 61.552 43.4986 61.663 42.9298C61.6951 42.7825 62.3365 39.3166 59.8518 36.5074ZM37.6398 10.9753C36.7807 10.0037 35.2173 7.86317 34.7532 5.79866L40.9146 9.6827C41.1009 9.79995 41.3152 9.86346 41.535 9.86626L43.5674 9.89138C44.2026 9.88649 44.7351 9.40352 44.7707 8.767C44.8524 7.30621 44.3115 4.79223 42.2358 2.86382C43.8089 3.2065 45.5384 4.08102 46.8603 6.06318C46.9692 6.2258 47.1158 6.3598 47.2889 6.45193C47.3384 6.47845 51.9727 9.0378 52.4969 15.5133L47.3356 15.4421L37.6398 10.9753ZM49.405 17.8528L51.3551 17.8793C51.2636 19.6933 50.5566 23.4272 46.5162 25.4932C46.4492 24.5621 46.0989 23.7322 45.5161 23.0008C48.0182 21.7208 49.0833 19.493 49.405 17.8528ZM15.0447 6.45193C15.2171 6.3598 15.3644 6.2258 15.4732 6.06318C16.7951 4.07963 18.5246 3.2065 20.0971 2.86382C18.0221 4.79223 17.4805 7.30621 17.5629 8.7677C17.5985 9.40352 18.1401 9.88091 18.7661 9.89138L20.7985 9.86626C21.0184 9.86346 21.2326 9.79995 21.419 9.6827L27.5804 5.79866C27.1156 7.86317 25.5515 10.0044 24.693 10.9753L14.9972 15.4428L9.83598 15.514C10.349 9.09852 14.8465 6.56081 15.0447 6.45193ZM15.5514 25.3543C11.7448 23.2632 11.0678 19.6535 10.9785 17.88L12.9292 17.8535C13.2426 19.4511 14.2651 21.6042 16.6311 22.8989C16.0267 23.6185 15.6463 24.4351 15.5514 25.3543ZM31.0303 38.9404C23.7948 38.9404 17.9083 33.0539 17.9083 25.8191C17.9083 23.1627 23.672 21.0822 31.0303 21.0822C34.5905 21.0822 38.0265 21.5958 40.4581 22.4906C41.8373 22.9987 44.1516 24.1063 44.1516 25.8191C44.1516 33.0539 38.2652 38.9404 31.0303 38.9404Z" fill="white"/>
<path d="M60.908 27.0237C60.908 28.6736 59.7794 30.0109 58.3877 30.0109C59.7794 30.0109 60.908 31.3481 60.908 32.9981C60.908 31.3481 62.0365 30.0109 63.4282 30.0109C62.0358 30.0109 60.908 28.6736 60.908 27.0237Z" fill="white"/>
<path d="M31.1677 10.9365C31.1677 12.5865 30.0392 13.9237 28.6475 13.9237C30.0392 13.9237 31.1677 15.261 31.1677 16.9109C31.1677 15.261 32.2963 13.9237 33.688 13.9237C32.2963 13.9237 31.1677 12.5865 31.1677 10.9365Z" fill="white"/>
<path d="M29.902 44.469C30.0123 46.1147 28.9758 47.5253 27.5869 47.6181C28.9758 47.5253 30.1909 48.7844 30.3012 50.4301C30.1909 48.7844 31.2274 47.3745 32.6163 47.281C31.2274 47.3738 30.0123 46.1147 29.902 44.469Z" fill="white"/>
<path d="M39.6424 46.3864C40.1628 46.3864 40.5846 45.9645 40.5846 45.4442C40.5846 44.9238 40.1628 44.502 39.6424 44.502C39.122 44.502 38.7002 44.9238 38.7002 45.4442C38.7002 45.9645 39.122 46.3864 39.6424 46.3864Z" fill="white"/>
<path d="M24.0915 17.8529C24.0915 18.3735 23.6699 18.7951 23.1493 18.7951C22.6286 18.7951 22.207 18.3735 22.207 17.8529C22.207 17.3322 22.6286 16.9106 23.1493 16.9106C23.6699 16.9106 24.0915 17.3329 24.0915 17.8529Z" fill="white"/>
<path d="M2.45783 30.8044C2.9782 30.8044 3.40005 30.3825 3.40005 29.8621C3.40005 29.3418 2.9782 28.9199 2.45783 28.9199C1.93745 28.9199 1.51562 29.3418 1.51562 29.8621C1.51562 30.3825 1.93745 30.8044 2.45783 30.8044Z" fill="white"/>
</svg>
