<svg width="32" height="32" viewBox="0 0 32 32" fill="none" xmlns="http://www.w3.org/2000/svg">
<g clip-path="url(#clip0_5609_48526)">
<path d="M0.118066 26.6781C-0.0444763 27.4077 0.129778 28.1601 0.596467 28.7425C1.06032 29.3213 1.75166 29.6532 2.49339 29.6532H10.036C9.95225 29.9342 9.88127 30.2206 9.8362 30.5163C9.76202 31.0046 9.90363 31.499 10.2245 31.872C10.5417 32.2414 11.0031 32.4533 11.49 32.4533H21.1276C21.6145 32.4533 22.0759 32.2414 22.3931 31.872C22.714 31.499 22.8556 31.0046 22.7814 30.5163C22.7363 30.2203 22.665 29.9339 22.5816 29.6532H29.5681C30.3183 29.6532 31.0136 29.3149 31.4757 28.7251C31.9452 28.126 32.1095 27.3559 31.9264 26.6117C31.1605 23.4989 28.7937 21.1385 25.8278 20.2998C27.5239 19.4279 28.6894 17.6637 28.6894 15.6287C28.6894 12.7324 26.3329 10.3759 23.4365 10.3759C20.5402 10.3759 18.1841 12.732 18.1841 15.6287C18.1841 17.663 19.3488 19.4268 21.0442 20.2991C20.6914 20.3996 20.3468 20.5199 20.0139 20.6622C19.466 19.1432 18.0144 18.0526 16.3092 18.0526C14.7962 18.0526 13.4813 18.9108 12.8209 20.165C12.4025 19.9861 11.9688 19.8367 11.5216 19.7203C13.4153 18.8352 14.7338 16.917 14.7338 14.6921C14.7338 11.6304 12.2428 9.13977 9.18141 9.13977C6.11972 9.13977 3.62906 11.6308 3.62906 14.6921C3.62906 16.9205 4.9514 18.8409 6.8501 19.7246C3.55275 20.5933 0.881449 23.2526 0.118066 26.6781ZM11.7505 30.5603C12.192 28.4302 14.1095 26.8527 16.3084 26.8527C18.5074 26.8527 20.4249 28.4302 20.8664 30.5603H11.7505ZM20.0764 15.6291C20.0764 13.7765 21.5836 12.2692 23.4362 12.2692C25.2888 12.2692 26.796 13.7765 26.796 15.6291C26.796 17.4816 25.2888 18.9889 23.4362 18.9889C21.5836 18.9889 20.0764 17.4816 20.0764 15.6291ZM20.1853 22.6862C21.1539 22.1609 22.2594 21.8568 23.4362 21.8568C26.5983 21.8568 29.3335 23.9982 30.0877 27.0638C30.131 27.2391 30.0933 27.4191 29.9851 27.5571C29.9258 27.6331 29.7924 27.7598 29.5674 27.7598H21.6645C20.8689 26.6333 19.7289 25.7731 18.4155 25.3195C19.33 24.7382 19.9884 23.7924 20.1853 22.6862ZM16.3084 19.946C17.4381 19.946 18.3569 20.8648 18.3569 21.9945C18.3569 23.1241 17.4381 24.0429 16.3084 24.0429C15.1788 24.0429 14.26 23.1241 14.26 21.9945C14.26 20.8648 15.1788 19.946 16.3084 19.946ZM5.52101 14.6925C5.52101 12.6745 7.16276 11.0328 9.18071 11.0328C11.1986 11.0328 12.8404 12.6745 12.8404 14.6925C12.8404 16.7104 11.1986 18.3522 9.18071 18.3522C7.16276 18.3522 5.52101 16.7104 5.52101 14.6925ZM9.18071 21.3141C10.3224 21.3141 11.4031 21.5775 12.3695 22.0417C12.3861 23.4201 13.1133 24.6278 14.2014 25.3195C12.888 25.7731 11.7477 26.6333 10.9523 27.7598H2.49303C2.26838 27.7598 2.13352 27.6334 2.07319 27.5582C2.01108 27.4808 1.91455 27.3172 1.9653 27.0897C2.7113 23.7434 5.74602 21.3141 9.18071 21.3141Z" fill="url(#paint0_linear_5609_48526)"/>
<path d="M16.0301 11.4227L16.0648 11.4575L20.6632 6.85912C21.3666 6.15571 21.7545 5.2202 21.7545 4.22543C21.7545 3.23065 21.367 2.29515 20.6632 1.59174C19.4069 0.335408 17.4695 0.166122 16.0286 1.08318C14.5881 0.165768 12.6504 0.335408 11.394 1.59139C10.6906 2.29479 10.3027 3.2303 10.3027 4.22507C10.3027 5.21985 10.6903 6.15536 11.394 6.85876L15.9939 11.4589L16.0301 11.4227ZM12.7324 5.52045C12.3863 5.17478 12.1958 4.71483 12.1958 4.22543C12.1958 3.73603 12.3863 3.27608 12.7324 2.93006C13.4468 2.21636 14.609 2.21601 15.3213 2.92828L16.0269 3.63737L16.7342 2.93006C17.4482 2.21565 18.6102 2.21565 19.3249 2.9297C19.6709 3.27573 19.8615 3.73603 19.8615 4.22507C19.8615 4.71412 19.6709 5.17442 19.3249 5.52045L16.0648 8.78017L16.0269 8.7422L15.9907 8.77875L12.7324 5.52045Z" fill="url(#paint1_linear_5609_48526)"/>
</g>
<defs>
<linearGradient id="paint0_linear_5609_48526" x1="0.0585938" y1="20.7965" x2="31.9996" y2="20.7965" gradientUnits="userSpaceOnUse">
<stop stop-color="#C32853"/>
<stop offset="1" stop-color="#EE7E49"/>
</linearGradient>
<linearGradient id="paint1_linear_5609_48526" x1="10.3027" y1="5.98069" x2="21.7545" y2="5.98069" gradientUnits="userSpaceOnUse">
<stop stop-color="#C32853"/>
<stop offset="1" stop-color="#EE7E49"/>
</linearGradient>
<clipPath id="clip0_5609_48526">
<rect width="32" height="32" fill="white"/>
</clipPath>
</defs>
</svg>
