<svg width="60" height="60" viewBox="0 0 60 60" fill="none" xmlns="http://www.w3.org/2000/svg">
<path d="M48.3154 19.7852H39.3264H30.3384H21.3494H12.3615C11.8786 19.7852 11.4875 20.1762 11.4875 20.6591V29.647V38.6355V47.6235C11.4875 48.1063 11.8786 48.4974 12.3615 48.4974H21.3494H30.3384H39.3264H48.3154C48.7982 48.4974 49.1893 48.1063 49.1893 47.6235V38.6355V29.647V20.6591C49.1893 20.1762 48.7982 19.7852 48.3154 19.7852ZM20.4755 45.7496C20.4755 46.3019 20.0278 46.7496 19.4755 46.7496H14.2348C13.6825 46.7496 13.2348 46.3019 13.2348 45.7496V40.5089C13.2348 39.9566 13.6825 39.5089 14.2348 39.5089H19.4755C20.0278 39.5089 20.4755 39.9566 20.4755 40.5089V45.7496ZM20.4755 36.7621C20.4755 37.3144 20.0278 37.7621 19.4755 37.7621H14.2348C13.6825 37.7621 13.2348 37.3144 13.2348 36.7621V31.5204C13.2348 30.9681 13.6825 30.5204 14.2348 30.5204H19.4755C20.0278 30.5204 20.4755 30.9681 20.4755 31.5204V36.7621ZM20.4755 27.7731C20.4755 28.3254 20.0278 28.7731 19.4755 28.7731H14.2348C13.6825 28.7731 13.2348 28.3254 13.2348 27.7731V22.5324C13.2348 21.9802 13.6825 21.5324 14.2348 21.5324H19.4755C20.0278 21.5324 20.4755 21.9802 20.4755 22.5324V27.7731ZM29.4645 46.7496H23.2233C22.671 46.7496 22.2233 46.3019 22.2233 45.7496V40.5089C22.2233 39.9566 22.671 39.5089 23.2233 39.5089H28.465C29.0173 39.5089 29.465 39.9566 29.465 40.5089V46.7491C29.465 46.7493 29.4648 46.7496 29.4645 46.7496V46.7496ZM29.4645 37.7621H23.2233C22.671 37.7621 22.2233 37.3144 22.2233 36.7621V31.5204C22.2233 30.9681 22.671 30.5204 23.2233 30.5204H28.465C29.0173 30.5204 29.465 30.9681 29.465 31.5204V37.7616C29.465 37.7619 29.4648 37.7621 29.4645 37.7621V37.7621ZM29.4645 28.7731H23.2233C22.671 28.7731 22.2233 28.3254 22.2233 27.7731V22.5324C22.2233 21.9802 22.671 21.5324 23.2233 21.5324H28.465C29.0173 21.5324 29.465 21.9802 29.465 22.5324V28.7726C29.465 28.7729 29.4648 28.7731 29.4645 28.7731V28.7731ZM38.453 45.7496C38.453 46.3019 38.0053 46.7496 37.453 46.7496H32.2123C31.66 46.7496 31.2123 46.3019 31.2123 45.7496V40.5089C31.2123 39.9566 31.66 39.5089 32.2123 39.5089H37.453C38.0053 39.5089 38.453 39.9566 38.453 40.5089V45.7496ZM38.453 36.7621C38.453 37.3144 38.0053 37.7621 37.453 37.7621H32.2123C31.66 37.7621 31.2123 37.3144 31.2123 36.7621V31.5204C31.2123 30.9681 31.66 30.5204 32.2123 30.5204H37.453C38.0053 30.5204 38.453 30.9681 38.453 31.5204V36.7621ZM38.453 27.7731C38.453 28.3254 38.0053 28.7731 37.453 28.7731H32.2123C31.66 28.7731 31.2123 28.3254 31.2123 27.7731V22.5324C31.2123 21.9802 31.66 21.5324 32.2123 21.5324H37.453C38.0053 21.5324 38.453 21.9802 38.453 22.5324V27.7731ZM47.442 45.7496C47.442 46.3019 46.9943 46.7496 46.442 46.7496H41.2003C40.648 46.7496 40.2003 46.3019 40.2003 45.7496V40.5089C40.2003 39.9566 40.648 39.5089 41.2003 39.5089H46.442C46.9943 39.5089 47.442 39.9566 47.442 40.5089V45.7496ZM47.442 36.7621C47.442 37.3144 46.9943 37.7621 46.442 37.7621H41.2003C40.648 37.7621 40.2003 37.3144 40.2003 36.7621V31.5204C40.2003 30.9681 40.648 30.5204 41.2003 30.5204H46.442C46.9943 30.5204 47.442 30.9681 47.442 31.5204V36.7621ZM47.442 27.7731C47.442 28.3254 46.9943 28.7731 46.442 28.7731H41.2003C40.648 28.7731 40.2003 28.3254 40.2003 27.7731V22.5324C40.2003 21.9802 40.648 21.5324 41.2003 21.5324H46.442C46.9943 21.5324 47.442 21.9802 47.442 22.5324V27.7731Z" fill="url(#paint0_linear_5315_48818)"/>
<path d="M7.8739 53H52.8039C53.2867 53 53.6778 52.6089 53.6778 52.1261V16.2152V16.1535V8.8739C53.6778 8.39105 53.2867 8 52.8039 8H7.8739C7.39105 8 7 8.39105 7 8.8739V16.1535V16.2152V52.1261C7 52.6089 7.39105 53 7.8739 53ZM44.6955 10.7468C44.6955 10.1945 45.1432 9.74677 45.6955 9.74677H50.93C51.4823 9.74677 51.93 10.1945 51.93 10.7468V14.2796C51.93 14.8319 51.4823 15.2796 50.93 15.2796H45.6955C45.1432 15.2796 44.6955 14.8319 44.6955 14.2796V10.7468ZM17.7295 10.7468C17.7295 10.1945 18.1773 9.74677 18.7295 9.74677H41.9482C42.5005 9.74677 42.9482 10.1945 42.9482 10.7468V14.2796C42.9482 14.8319 42.5005 15.2796 41.9482 15.2796H18.7295C18.1773 15.2796 17.7295 14.8319 17.7295 14.2796V10.7468ZM8.74729 10.7468C8.74729 10.1945 9.195 9.74677 9.74729 9.74677H14.9817C15.534 9.74677 15.9817 10.1945 15.9817 10.7468V14.2796C15.9817 14.8319 15.534 15.2796 14.9817 15.2796H9.74729C9.195 15.2796 8.74729 14.8319 8.74729 14.2796V10.7468ZM8.74729 18.0891C8.74729 17.5368 9.195 17.0891 9.74729 17.0891H50.93C51.4823 17.0891 51.93 17.5368 51.93 18.0891V50.2532C51.93 50.8055 51.4823 51.2532 50.93 51.2532H9.74729C9.195 51.2532 8.74729 50.8055 8.74729 50.2532V18.0891Z" fill="url(#paint1_linear_5315_48818)"/>
<defs>
<linearGradient id="paint0_linear_5315_48818" x1="11.4875" y1="34.1413" x2="49.1893" y2="34.1413" gradientUnits="userSpaceOnUse">
<stop stop-color="#C32853"/>
<stop offset="1" stop-color="#EE7E49"/>
</linearGradient>
<linearGradient id="paint1_linear_5315_48818" x1="7" y1="30.5" x2="53.6778" y2="30.5" gradientUnits="userSpaceOnUse">
<stop stop-color="#C32853"/>
<stop offset="1" stop-color="#EE7E49"/>
</linearGradient>
</defs>
</svg>
