<svg width="62" height="60" viewBox="0 0 62 60" fill="none" xmlns="http://www.w3.org/2000/svg">
<path d="M36.6623 35.0643C37.042 34.7673 37.1918 34.2621 37.0348 33.8055C36.8778 33.3496 36.4488 33.0435 35.9666 33.0435H26.0524C25.5715 33.0435 25.1425 33.3483 24.9849 33.8029C24.8272 34.2575 24.9744 34.7621 25.3521 35.0603L29.8529 38.6138V41.4079L25.8074 43.3715C25.2457 43.6435 25.0118 44.3202 25.2845 44.8812C25.4796 45.2839 25.8823 45.5178 26.3014 45.5178C26.467 45.5178 26.6352 45.4817 26.7941 45.4041L31.0059 43.3603L35.2637 45.2392C35.8352 45.4909 36.502 45.2327 36.7536 44.6618C37.0053 44.0909 36.7471 43.4234 36.1762 43.1718L32.1129 41.379V38.6184L36.6623 35.0643Z" fill="white"/>
<path d="M27.1418 30.391C27.6338 30.391 28.0871 30.0664 28.2284 29.5691C28.3992 28.9687 28.051 28.3439 27.4506 28.1731L23.0989 26.936C22.4977 26.7659 21.8736 27.1134 21.7028 27.7139C21.5327 28.3143 21.8809 28.9391 22.4807 29.1099L26.833 30.3469C26.9355 30.3765 27.0393 30.391 27.1418 30.391Z" fill="white"/>
<path d="M38.9229 26.9367L34.3222 28.2441C33.7218 28.4149 33.3736 29.0396 33.5444 29.6401C33.6857 30.1374 34.1383 30.4619 34.631 30.4619C34.7328 30.4619 34.8373 30.4475 34.9404 30.4186L39.5411 29.1112C40.1416 28.9411 40.4898 28.3157 40.319 27.7152C40.1488 27.1147 39.524 26.7666 38.9229 26.9367Z" fill="white"/>
<path d="M30.7349 16.8196C21.9711 16.8196 16.5269 21.461 16.5269 28.9339C16.5269 33.6082 18.7592 37.9513 22.5288 40.6764V44.8336C22.5288 47.585 24.7677 49.8239 27.5191 49.8239H34.4493C37.2007 49.8239 39.4396 47.585 39.4396 44.8435L39.4757 40.6889C43.2565 37.9651 45.4955 33.6154 45.4955 28.9339C45.4955 21.5746 39.7017 16.8196 30.7349 16.8196ZM37.7736 39.1194C37.4411 39.3178 37.2243 39.6785 37.2211 40.0812L37.1803 44.8336C37.1803 46.3394 35.9558 47.5639 34.45 47.5639H27.5191C26.0133 47.5639 24.7888 46.3394 24.7888 44.8336V40.2579C24.8525 39.8296 24.6646 39.3947 24.2928 39.149C20.845 36.8765 18.7861 33.057 18.7861 28.9339C18.7861 22.7631 23.2528 19.0795 30.7342 19.0795C36.7776 19.0795 43.2355 21.6679 43.2355 28.9339C43.2362 33.0392 41.195 36.843 37.7736 39.1194Z" fill="white"/>
<path d="M49.8615 13.1583L52.4591 10.56C52.71 10.3091 52.8289 9.95495 52.779 9.60348C52.7291 9.25135 52.5175 8.9439 52.2068 8.77177C51.7397 8.5149 40.8834 2.64891 31.01 8.58388C21.1386 2.65022 10.2803 8.5149 9.8139 8.77177C9.50316 8.9439 9.29162 9.252 9.24169 9.60348C9.19176 9.95495 9.31067 10.3091 9.56163 10.56L12.1592 13.1583C1.34505 19.1215 2.36202 27.792 2.41326 28.1731C2.48815 28.7341 2.96708 29.1533 3.53338 29.1533H7.73988C7.04219 32.038 6.09289 38.5964 9.54981 45.2336C13.0941 52.0391 20.2076 56.9144 30.6914 59.7229C30.7873 59.7485 30.8859 59.7616 30.9837 59.7616C31.0823 59.7616 31.1802 59.7491 31.2761 59.7229C41.7638 56.9137 48.8846 52.0364 52.44 45.2271C55.9042 38.5911 54.97 32.036 54.2782 29.1533H58.488C59.0543 29.1533 59.5332 28.7341 59.6081 28.1731C59.658 27.792 60.675 19.1215 49.8615 13.1583ZM52.7803 26.894C52.4124 26.894 52.0669 27.0733 51.856 27.3742C51.6438 27.6758 51.5925 28.0614 51.718 28.4076C51.7463 28.4864 54.5147 36.3686 50.4356 44.1812C47.2172 50.3448 40.6732 54.8121 30.9824 57.461C21.312 54.8167 14.7805 50.3625 11.568 44.218C7.49484 36.4271 10.2731 28.4871 10.3014 28.4096C10.4268 28.0634 10.3763 27.6771 10.1647 27.3749C9.95318 27.0733 9.60827 26.8933 9.23972 26.8933H4.63181C4.73167 24.567 5.88726 18.661 14.544 14.4683C14.8725 14.3086 15.1044 13.9998 15.1655 13.6398C15.2266 13.2792 15.109 12.9113 14.8501 12.6524L12.3031 10.1054C15.4631 8.79148 23.4267 6.30095 30.3918 10.8629C30.7669 11.1092 31.2551 11.1092 31.6302 10.8629C38.5959 6.29964 46.5602 8.79148 49.7189 10.1054L47.1719 12.6524C46.913 12.9113 46.7954 13.2785 46.8565 13.6398C46.917 13.9998 47.1489 14.3093 47.478 14.4683C56.1374 18.6623 57.291 24.5723 57.3902 26.8933L52.7803 26.894Z" fill="white"/>
<path d="M59.0564 30.7031C59.0564 32.2562 57.9941 33.5149 56.6841 33.5149C57.9941 33.5149 59.0564 34.7736 59.0564 36.3267C59.0564 34.7736 60.1187 33.5149 61.4286 33.5149C60.118 33.5149 59.0564 32.2562 59.0564 30.7031Z" fill="white"/>
<path d="M29.7824 0.000732422C29.7824 1.55378 28.7201 2.81253 27.4102 2.81253C28.7201 2.81253 29.7824 4.07126 29.7824 5.62431C29.7824 4.07126 30.8447 2.81253 32.1547 2.81253C30.8447 2.81253 29.7824 1.55378 29.7824 0.000732422Z" fill="white"/>
<path d="M47.8674 52.7822C47.8674 54.3353 46.8051 55.594 45.4951 55.594C46.8051 55.594 47.8674 56.8527 47.8674 58.4058C47.8674 56.8527 48.9297 55.594 50.2397 55.594C48.9297 55.594 47.8674 54.3353 47.8674 52.7822Z" fill="white"/>
<path d="M2.17913 30.2393C2.28293 31.789 1.30735 33.1154 0 33.2035C1.30735 33.1161 2.45111 34.3012 2.55491 35.8503C2.45111 34.3006 3.4267 32.9742 4.73405 32.8861C3.4267 32.9735 2.28228 31.7884 2.17913 30.2393Z" fill="white"/>
<path d="M58.2762 14.0073C58.2762 14.4974 57.8794 14.8942 57.3893 14.8942C56.8992 14.8942 56.5024 14.4974 56.5024 14.0073C56.5024 13.5172 56.8999 13.1204 57.3893 13.1204C57.8794 13.1204 58.2762 13.5178 58.2762 14.0073Z" fill="white"/>
<path d="M37.9847 2.81244C37.9847 3.30253 37.5879 3.69932 37.0978 3.69932C36.6077 3.69932 36.2109 3.30253 36.2109 2.81244C36.2109 2.32234 36.6084 1.92554 37.0978 1.92554C37.5879 1.92554 37.9847 2.32234 37.9847 2.81244Z" fill="white"/>
<path d="M8.36492 49.8248C8.85474 49.8248 9.25182 49.4277 9.25182 48.9379C9.25182 48.4481 8.85474 48.051 8.36492 48.051C7.8751 48.051 7.47803 48.4481 7.47803 48.9379C7.47803 49.4277 7.8751 49.8248 8.36492 49.8248Z" fill="white"/>
</svg>
