<svg width="51" height="60" viewBox="0 0 51 60" fill="none" xmlns="http://www.w3.org/2000/svg">
<path d="M11.0052 54.4409C11.0052 55.9762 9.9551 57.2204 8.66016 57.2204C9.9551 57.2204 11.0052 58.4647 11.0052 60C11.0052 58.4647 12.0553 57.2204 13.3503 57.2204C12.0553 57.2204 11.0052 55.9755 11.0052 54.4409Z" fill="white"/>
<path d="M39.2113 0C39.2113 1.53524 38.1612 2.77953 36.8662 2.77953C38.1612 2.77953 39.2113 4.02382 39.2113 5.55906C39.2113 4.02382 40.2614 2.77953 41.5564 2.77953C40.2608 2.77953 39.2113 1.53524 39.2113 0Z" fill="white"/>
<path d="M12.5174 28.9436C12.5174 30.4788 11.4673 31.7231 10.1724 31.7231C11.4673 31.7231 12.5174 32.9674 12.5174 34.5027C12.5174 32.9674 13.5676 31.7231 14.8625 31.7231C13.5676 31.7231 12.5174 30.4782 12.5174 28.9436Z" fill="white"/>
<path d="M43.8067 29.7424C43.8067 30.2269 43.4144 30.6192 42.9299 30.6192C42.4455 30.6192 42.0532 30.2269 42.0532 29.7424C42.0532 29.258 42.4455 28.8657 42.9299 28.8657C43.4144 28.8657 43.8067 29.258 43.8067 29.7424Z" fill="white"/>
<path d="M8.4446 4.68314C8.9288 4.68314 9.32132 4.29061 9.32132 3.80641C9.32132 3.32221 8.9288 2.92969 8.4446 2.92969C7.9604 2.92969 7.56787 3.32221 7.56787 3.80641C7.56787 4.29061 7.9604 4.68314 8.4446 4.68314Z" fill="white"/>
<path d="M2.32523 27.2649C2.32523 27.7494 1.93297 28.1416 1.4485 28.1416C0.964682 28.1416 0.571777 27.7494 0.571777 27.2649C0.571777 26.7804 0.964682 26.3882 1.4485 26.3882C1.93232 26.3882 2.32523 26.7804 2.32523 27.2649Z" fill="white"/>
<path d="M3.87334 22.6799C3.91231 22.7442 3.95646 22.8033 4.00712 22.8585C5.81186 25.3335 8.72517 26.9505 12.0158 26.9505H31.6063C34.3982 26.9505 37.755 24.7886 39.0208 23.8969L48.8491 26.9018C48.9582 26.9349 49.0693 26.9512 49.1797 26.9512C49.4901 26.9512 49.7921 26.8232 50.0096 26.5881C50.3038 26.2699 50.3902 25.8108 50.2317 25.4068C48.0458 19.851 48.0458 14.2166 50.2317 8.66083C50.3947 8.24715 50.2999 7.77631 49.9901 7.45874C49.6797 7.13988 49.2128 7.03207 48.7946 7.18469L39.2045 10.6604C37.3284 8.42703 34.5482 7.11715 31.6069 7.11715H31.2082L32.3129 4.76558C32.4772 4.4149 32.4512 4.00576 32.244 3.6791C32.0369 3.35244 31.6764 3.15503 31.29 3.15503H16.8352C16.3968 3.15503 15.9987 3.4083 15.8117 3.80445L14.255 7.1178H12.0165C6.54767 7.1178 2.09912 11.5663 2.09912 17.0351C2.09847 19.1315 2.75763 21.0758 3.87334 22.6799ZM26.6414 5.41437H29.5087L28.7092 7.11651H25.842L26.6414 5.41437ZM21.8351 5.41437H24.1431L23.343 7.11651H21.035L21.8351 5.41437ZM17.5521 5.41437H19.3367L18.5373 7.11651H16.7527L17.5521 5.41437ZM12.0158 9.37714H31.6063C34.104 9.37714 36.4523 10.6013 37.8862 12.6522C38.1791 13.0717 38.7162 13.2412 39.1974 13.0665L47.3425 10.1142C47.1632 10.7228 47.0093 11.3319 46.8775 11.9417L41.1931 13.4925C40.5911 13.6568 40.2358 14.2783 40.4001 14.8804C40.5378 15.383 40.993 15.7136 41.4899 15.7136C41.5879 15.7136 41.6886 15.7006 41.7879 15.6733L46.4748 14.3946C46.4073 15.0011 46.3612 15.6083 46.3404 16.2149H41.4905C40.8664 16.2149 40.3599 16.7208 40.3599 17.3456C40.3599 17.9696 40.8658 18.4762 41.4905 18.4762H46.3742C46.4125 19.1074 46.4761 19.7387 46.5651 20.3699L41.7639 19.1737C41.158 19.0191 40.5449 19.3912 40.3943 19.9972C40.243 20.6031 40.6118 21.2161 41.2177 21.3668L47.0405 22.817C47.145 23.2417 47.2567 23.6657 47.384 24.0892L39.1428 21.5694C38.7954 21.4642 38.4181 21.5304 38.1284 21.7506C37.0524 22.5682 33.7819 24.6899 31.6063 24.6899H18.3106C20.5206 22.8696 21.9325 20.1134 21.9325 17.0332C21.9325 16.4091 21.4266 15.9025 20.8018 15.9025C20.1777 15.9025 19.6712 16.4084 19.6712 17.0332C19.6712 21.2551 16.2364 24.6899 12.0151 24.6899C10.3637 24.6899 8.83622 24.1586 7.58414 23.2657C8.97195 23.1507 10.5494 22.7975 11.5989 21.8694C12.3749 21.1836 12.7847 20.2576 12.7847 19.1938C12.7847 18.5697 12.2788 18.0638 11.6541 18.0638C11.03 18.0638 10.5234 18.5697 10.5234 19.1938C10.5234 19.614 10.3929 19.9166 10.102 20.1751C9.18627 20.9862 6.98082 21.1258 5.49299 21.0245C4.77798 19.8608 4.35781 18.4963 4.35781 17.0332C4.35911 12.8119 7.7939 9.37714 12.0158 9.37714Z" fill="white"/>
<path d="M11.6541 15.4491C12.4893 15.4491 13.1666 14.7717 13.1666 13.9366C13.1666 13.1014 12.4893 12.4241 11.6541 12.4241C10.819 12.4241 10.1416 13.1014 10.1416 13.9366C10.1416 14.7717 10.819 15.4491 11.6541 15.4491Z" fill="white"/>
<path d="M22.6553 15.1361C22.8748 15.3478 23.1573 15.4524 23.4398 15.4524C23.736 15.4524 24.0321 15.3368 24.2542 15.1062C25.8557 13.4424 24.9887 11.4643 24.3062 10.6505C23.9094 10.1765 23.208 10.1161 22.7287 10.5077C22.2495 10.8999 22.1793 11.6104 22.5664 12.0935C22.7638 12.341 23.1658 12.9774 22.6261 13.5372C22.1923 13.9879 22.2066 14.7036 22.6553 15.1361Z" fill="white"/>
<path d="M23.4395 23.9636C23.7357 23.9636 24.0318 23.8474 24.2539 23.6175C25.8554 21.9543 24.9884 19.9755 24.3058 19.1618C23.909 18.6884 23.2077 18.6273 22.7284 19.0189C22.2491 19.4112 22.179 20.1217 22.566 20.6055C22.7635 20.8529 23.1655 21.4893 22.6258 22.0491C22.1926 22.4992 22.2063 23.2149 22.6557 23.6474C22.8752 23.8591 23.1577 23.9636 23.4395 23.9636Z" fill="white"/>
<path d="M30.2869 15.1363C30.5058 15.348 30.7883 15.4525 31.0714 15.4525C31.3676 15.4525 31.6637 15.3369 31.8858 15.1064C33.4886 13.4425 32.6203 11.4644 31.9378 10.6507C31.5403 10.1766 30.8396 10.1156 30.3597 10.5085C29.881 10.9007 29.8109 11.6105 30.198 12.0943C30.3954 12.3418 30.7974 12.9776 30.2577 13.538C29.8239 13.9881 29.8375 14.7031 30.2869 15.1363Z" fill="white"/>
<path d="M31.0723 23.9638C31.3685 23.9638 31.6646 23.8475 31.8867 23.6177C33.4895 21.9545 32.6212 19.9757 31.9387 19.1619C31.5412 18.6885 30.8405 18.6268 30.3606 19.0197C29.8819 19.412 29.8118 20.1218 30.1989 20.6056C30.3963 20.8531 30.7983 21.4888 30.2586 22.0493C29.8254 22.4993 29.8391 23.2144 30.2885 23.6475C30.5073 23.8592 30.7898 23.9638 31.0723 23.9638Z" fill="white"/>
<path d="M26.1785 19.6327C26.398 19.8444 26.6805 19.9489 26.963 19.9489C27.2592 19.9489 27.5553 19.8334 27.7774 19.6028C29.3789 17.939 28.5119 15.9609 27.8294 15.1471C27.4326 14.6737 26.7318 14.6133 26.2519 15.0043C25.7726 15.3965 25.7025 16.107 26.0896 16.5908C26.287 16.8382 26.689 17.4746 26.1493 18.0344C25.7155 18.4845 25.7291 19.2002 26.1785 19.6327Z" fill="white"/>
<path d="M33.8123 19.6319C34.0318 19.8437 34.3143 19.9482 34.5968 19.9482C34.893 19.9482 35.1891 19.8326 35.4112 19.6021C37.0127 17.9383 36.1457 15.9601 35.4632 15.1464C35.0664 14.673 34.3656 14.6126 33.8857 15.0035C33.4064 15.3958 33.3363 16.1062 33.7233 16.5901C33.9208 16.8375 34.3228 17.4739 33.7831 18.0337C33.3493 18.4838 33.3629 19.1994 33.8123 19.6319Z" fill="white"/>
<path d="M40.3931 35.9054H38.1545L36.5979 32.592C36.4115 32.1959 36.0127 31.9426 35.5744 31.9426H21.1195C20.7325 31.9426 20.3727 32.14 20.1649 32.4667C19.9577 32.7934 19.9318 33.2038 20.0961 33.5532L21.2014 35.9047H20.8026C17.8607 35.9047 15.0805 37.2153 13.205 39.448L3.61499 35.9723C3.19741 35.8203 2.73047 35.9275 2.4194 36.2463C2.10963 36.5646 2.01482 37.0347 2.17783 37.4484C4.36379 43.0042 4.36379 48.638 2.17783 54.1938C2.01872 54.5977 2.10573 55.0562 2.39992 55.3751C2.61748 55.6102 2.92012 55.7381 3.22989 55.7381C3.34029 55.7381 3.45199 55.7219 3.56045 55.6888L13.3888 52.6845C14.6545 53.5762 18.0108 55.7381 20.8033 55.7381H40.3937C43.687 55.7381 46.6016 54.1185 48.4063 51.6409C48.4518 51.5903 48.4927 51.5357 48.5284 51.4779C49.6487 49.8719 50.3111 47.9236 50.3111 45.8214C50.3104 40.354 45.8619 35.9054 40.3931 35.9054ZM34.8568 34.2033L35.6562 35.9054H33.8716L33.0722 34.2033H34.8568ZM30.5738 34.2033L31.3733 35.9054H29.0646L28.2651 34.2033H30.5738ZM25.7668 34.2033L26.5662 35.9054H23.699L22.899 34.2033H25.7668ZM46.914 49.8141C45.4261 49.916 43.2207 49.7758 42.305 48.964C42.0134 48.7055 41.8835 48.4035 41.8835 47.9834C41.8835 47.3593 41.3776 46.8527 40.7529 46.8527C40.1288 46.8527 39.6222 47.3586 39.6222 47.9834C39.6222 49.0478 40.032 49.9725 40.8081 50.6583C41.8582 51.587 43.4356 51.9403 44.8235 52.0546C43.5714 52.9476 42.0439 53.4788 40.3925 53.4788C36.1699 53.4788 32.7358 50.044 32.7358 45.8221C32.7358 45.198 32.2299 44.6914 31.6051 44.6914C30.9804 44.6914 30.4751 45.1973 30.4751 45.8221C30.4751 48.9023 31.887 51.6584 34.097 53.4788H20.802C18.6335 53.4788 15.3585 51.3571 14.2792 50.5395C13.9902 50.3206 13.6122 50.2544 13.2654 50.359L5.02425 52.8781C5.15153 52.4546 5.26323 52.0299 5.36779 51.6058L11.1905 50.155C11.7964 50.0044 12.1653 49.3907 12.014 48.7854C11.8627 48.1801 11.2477 47.8087 10.6443 47.9619L5.84253 49.1582C5.9315 48.5269 5.99512 47.8957 6.03344 47.2644H10.9171C11.5412 47.2644 12.0478 46.7585 12.0478 46.1338C12.0478 45.5097 11.5419 45.0032 10.9171 45.0032H6.06658C6.0458 44.396 5.99969 43.7894 5.93215 43.1828L10.6197 44.4622C10.719 44.4895 10.8197 44.5025 10.9177 44.5025C11.4152 44.5025 11.8705 44.1719 12.0081 43.6692C12.1724 43.0672 11.8172 42.4457 11.2152 42.2814L5.5308 40.7299C5.39896 40.1208 5.24505 39.5116 5.06581 38.9031L13.2109 41.8554C13.6927 42.0301 14.2298 41.8599 14.5221 41.4411C15.956 39.3902 18.3036 38.166 20.802 38.166H40.3925C44.6144 38.166 48.0492 41.6008 48.0492 45.8221C48.0498 47.2859 47.6296 48.6503 46.914 49.8141Z" fill="white"/>
<path d="M40.7532 44.2374C41.5886 44.2374 42.2657 43.5602 42.2657 42.7249C42.2657 41.8896 41.5886 41.2124 40.7532 41.2124C39.9179 41.2124 39.2407 41.8896 39.2407 42.7249C39.2407 43.5602 39.9179 44.2374 40.7532 44.2374Z" fill="white"/>
<path d="M29.838 40.8833C30.2322 40.4053 30.1672 39.6981 29.6918 39.2994C29.2132 38.8987 28.5014 38.9597 28.0995 39.439C27.4169 40.2527 26.5499 42.2309 28.1507 43.8947C28.3728 44.1252 28.669 44.2415 28.9651 44.2415C29.247 44.2415 29.5295 44.1369 29.749 43.9252C30.199 43.4927 30.2127 42.777 29.7802 42.3276C29.2411 41.7672 29.6399 41.132 29.838 40.8833Z" fill="white"/>
<path d="M29.8383 49.3963C30.2325 48.9183 30.1676 48.2111 29.6922 47.8124C29.2136 47.411 28.5018 47.4734 28.0998 47.952C27.4173 48.7657 26.5503 50.7445 28.1518 52.4077C28.3739 52.6376 28.6693 52.7538 28.9661 52.7538C29.248 52.7538 29.5305 52.6493 29.7506 52.4376C30.2 52.005 30.2137 51.2887 29.7805 50.8393C29.2415 50.2795 29.6402 49.645 29.8383 49.3963Z" fill="white"/>
<path d="M22.2059 40.8833C22.6001 40.4053 22.5352 39.6981 22.0598 39.2994C21.5812 38.8987 20.8687 38.9597 20.4674 39.439C19.7849 40.2527 18.9172 42.2309 20.5187 43.8947C20.7408 44.1252 21.0369 44.2415 21.3331 44.2415C21.6149 44.2415 21.8974 44.1369 22.1169 43.9252C22.567 43.4927 22.5806 42.777 22.1481 42.3276C21.6084 41.7672 22.0078 41.132 22.2059 40.8833Z" fill="white"/>
<path d="M22.2067 49.3963C22.6009 48.9183 22.536 48.2111 22.0606 47.8124C21.582 47.411 20.8696 47.4734 20.4682 47.952C19.7857 48.7657 18.9181 50.7445 20.5202 52.4077C20.7423 52.6376 21.0378 52.7538 21.3346 52.7538C21.6164 52.7538 21.8989 52.6493 22.1191 52.4376C22.5685 52.005 22.5821 51.2887 22.149 50.8393C21.6093 50.2795 22.0087 49.645 22.2067 49.3963Z" fill="white"/>
<path d="M26.3181 45.3794C26.7123 44.9014 26.6473 44.1942 26.172 43.7955C25.694 43.3948 24.9809 43.4558 24.5796 43.9351C23.897 44.7488 23.0294 46.7276 24.6315 48.3908C24.8536 48.6207 25.1491 48.7369 25.4459 48.7369C25.7278 48.7369 26.0102 48.6324 26.2304 48.4207C26.6798 47.9881 26.6934 47.2718 26.2603 46.8224C25.7206 46.2633 26.12 45.6281 26.3181 45.3794Z" fill="white"/>
<path d="M18.6818 45.3796C19.076 44.9017 19.0111 44.1945 18.5357 43.7957C18.0571 43.395 17.3453 43.4561 16.9433 43.9353C16.2608 44.7491 15.3932 46.7279 16.9953 48.391C17.2174 48.6209 17.5129 48.7372 17.809 48.7372C18.0909 48.7372 18.374 48.6326 18.5935 48.4209C19.0429 47.9884 19.0566 47.2721 18.6234 46.8227C18.0844 46.2635 18.4838 45.6284 18.6818 45.3796Z" fill="white"/>
</svg>
