<svg width="40" height="41" viewBox="0 0 40 41" fill="none" xmlns="http://www.w3.org/2000/svg">
<path d="M17.7333 26.1495C18.4637 26.4518 19.2326 26.6044 20.0001 26.6044C20.7675 26.6044 21.5364 26.4518 22.2668 26.1495C23.7291 25.5436 24.8684 24.4043 25.4729 22.942C26.0788 21.4797 26.0788 19.8693 25.4729 18.407C24.8684 16.9447 23.7291 15.8069 22.2668 15.1994C20.806 14.595 19.1941 14.595 17.7318 15.1994C16.2695 15.8054 15.1302 16.9447 14.5258 18.407C13.9198 19.8693 13.9198 21.4797 14.5258 22.942C15.1317 24.4043 16.2695 25.5436 17.7333 26.1495ZM15.8947 18.9759C16.3495 17.8796 17.2029 17.0247 18.2992 16.5699C19.3956 16.115 20.603 16.115 21.6994 16.5699C22.7957 17.0247 23.6491 17.8781 24.1039 18.9759C24.5588 20.0722 24.5588 21.2797 24.1039 22.376C23.6491 23.4724 22.7957 24.3272 21.6994 24.7821C20.603 25.2369 19.3956 25.2369 18.2992 24.7821C17.2029 24.3272 16.3495 23.4739 15.8947 22.376C15.4413 21.2797 15.4413 20.0708 15.8947 18.9759Z" fill="white"/>
<path d="M19.4332 22.0426C19.6169 22.1182 19.808 22.1552 20.0006 22.1552C20.1932 22.1552 20.3858 22.1167 20.5695 22.0412C21.3222 21.7285 21.6807 20.8604 21.3696 20.1063C21.2184 19.7403 20.934 19.4559 20.568 19.3047C20.2006 19.1536 19.7991 19.1536 19.4317 19.3047C18.6791 19.6173 18.3205 20.4855 18.6317 21.2411C18.7828 21.6056 19.0672 21.8915 19.4332 22.0426Z" fill="white"/>
<path d="M6.68319 24.4105C6.75578 25.5172 7.20765 26.6106 7.93657 27.4447C7.34247 29.1974 7.6373 31.3916 7.80472 32.2923C7.85953 32.5946 8.09658 32.8301 8.39733 32.8849C8.88921 32.9753 9.77072 33.1057 10.7574 33.1057C11.5649 33.1057 12.439 33.0079 13.2301 32.7383C14.0642 33.4672 15.1591 33.9191 16.2643 33.9917C17.0199 35.5473 18.6348 36.8466 19.5756 37.5044C19.703 37.5933 19.8511 37.6377 19.9993 37.6377C20.1475 37.6377 20.2956 37.5933 20.423 37.5044C21.3653 36.8466 22.9816 35.5458 23.7357 33.9887C24.841 33.9146 25.9329 33.4657 26.767 32.7368C27.5581 33.0064 28.4337 33.1042 29.2456 33.1042C30.2338 33.1042 31.1198 32.9753 31.6146 32.8849C31.9168 32.8301 32.1554 32.5931 32.2102 32.2894C32.3746 31.3901 32.6576 29.1989 32.0635 27.4447C32.7924 26.6091 33.2443 25.5158 33.3169 24.4105C34.8725 23.6549 36.1733 22.0401 36.8296 21.0993C37.0074 20.8444 37.0074 20.5067 36.8296 20.2518C36.1733 19.311 34.8725 17.6962 33.3169 16.9406C33.2443 15.8339 32.7924 14.7405 32.0635 13.9064C32.6576 12.1537 32.3628 9.95955 32.1954 9.06025C32.1405 8.75802 31.9035 8.52245 31.6027 8.46763C30.7079 8.30466 28.53 8.01576 26.7714 8.61431C25.9373 7.88539 24.8439 7.43352 23.7357 7.36092C22.9816 5.8053 21.3653 4.50599 20.4245 3.84818C20.1697 3.6704 19.8319 3.6704 19.5771 3.84818C18.6363 4.50599 17.0199 5.8053 16.2658 7.36092C15.1591 7.43352 14.0657 7.88539 13.2301 8.61579C11.4775 8.02021 9.28774 8.30466 8.38548 8.46912C8.08325 8.51949 7.84472 8.75802 7.7899 9.06173C7.62545 9.96103 7.34247 12.1522 7.93657 13.9064C7.20765 14.7405 6.75578 15.8353 6.68319 16.9406C5.12757 17.6962 3.82677 19.311 3.17045 20.2518C2.99266 20.5067 2.99266 20.8444 3.17045 21.0993C3.82677 22.0415 5.12757 23.6549 6.68319 24.4105ZM9.79739 14.2501C10.8256 13.653 12.036 13.9227 13.2286 14.979C12.6508 15.6679 12.1442 16.4206 11.7901 17.2754C11.4389 18.1229 11.2271 19.0029 11.1471 19.8903C9.58849 19.7807 8.54697 19.1392 8.24177 18.0043C7.88324 16.6635 8.59586 14.9435 9.79739 14.2501ZM17.3296 8.91802C18.4644 9.22174 19.1059 10.2633 19.2156 11.8218C18.3266 11.9019 17.4466 12.1137 16.5992 12.4648C15.7443 12.8189 14.9917 13.3256 14.3042 13.9034C13.2479 12.7108 12.9797 11.5033 13.5753 10.4736C14.2687 9.27063 15.9888 8.55653 17.3296 8.91802ZM22.672 8.91802C24.0143 8.55949 25.7329 9.27063 26.4262 10.4736C27.0218 11.5033 26.7537 12.7108 25.6973 13.9034C25.0084 13.3256 24.2558 12.8189 23.4024 12.4648C22.555 12.1137 21.6734 11.9019 20.786 11.8218C20.8956 10.2633 21.5371 9.22174 22.672 8.91802ZM31.7598 18.0043C31.4546 19.1392 30.4131 19.7807 28.8545 19.8903C28.7745 19.0029 28.5626 18.1214 28.2115 17.2754C27.8574 16.4206 27.3507 15.6679 26.7729 14.979C27.9656 13.9227 29.176 13.6545 30.2042 14.2501C31.4057 14.9435 32.1183 16.6635 31.7598 18.0043ZM30.2042 27.101C29.176 27.6966 27.9656 27.4284 26.7729 26.3721C27.3507 25.6832 27.8574 24.9305 28.2115 24.0757C28.5626 23.2282 28.7745 22.3482 28.8545 21.4608C30.4131 21.5704 31.4546 22.2119 31.7598 23.3468C32.1183 24.6876 31.4057 26.4076 30.2042 27.101ZM22.672 32.4331C21.5371 32.1294 20.8956 31.0878 20.786 29.5293C21.6749 29.4492 22.555 29.2374 23.4024 28.8863C24.2573 28.5322 25.0099 28.0255 25.6973 27.4477C26.7537 28.6403 27.0218 29.8478 26.4262 30.8775C25.7314 32.0805 24.0113 32.7961 22.672 32.4331ZM17.3296 32.4331C15.9917 32.799 14.2702 32.0805 13.5753 30.8775C12.9797 29.8478 13.2479 28.6403 14.3042 27.4477C14.9932 28.0255 15.7458 28.5322 16.5992 28.8863C17.4466 29.2374 18.3281 29.4492 19.2156 29.5293C19.1059 31.0878 18.4644 32.1294 17.3296 32.4331ZM17.1666 13.8338C18.9948 13.0767 21.0067 13.0752 22.835 13.8338C24.6617 14.5909 26.0855 16.0146 26.8425 17.8428C27.5996 19.6711 27.5996 21.683 26.8425 23.5112C26.0855 25.338 24.6617 26.7617 22.835 27.5188C21.0082 28.2759 18.9963 28.2773 17.1666 27.5188C15.3398 26.7617 13.9161 25.338 13.159 23.5097C12.4019 21.6815 12.4019 19.6696 13.159 17.8414C13.9161 16.0146 15.3398 14.5909 17.1666 13.8338ZM11.1471 21.4608C11.2271 22.3482 11.4389 23.2297 11.7901 24.0757C12.1442 24.9305 12.6508 25.6832 13.2286 26.3721C12.036 27.4284 10.8256 27.6966 9.79739 27.101C8.59438 26.4076 7.88324 24.6876 8.24177 23.3468C8.54697 22.2119 9.58849 21.5704 11.1471 21.4608ZM9.17811 31.5101C9.03884 30.5323 9.00625 29.3944 9.19737 28.4522C9.73369 28.7351 10.6789 29.0774 11.8893 28.7855C11.5975 29.99 11.9367 30.9352 12.2212 31.473C11.1456 31.6997 9.92629 31.6138 9.17811 31.5101ZM20.0008 35.9829C19.3548 35.4939 18.4481 34.6984 17.8688 33.8124C18.4496 33.6316 19.3548 33.2035 20.0008 32.1471C20.6467 33.2035 21.552 33.6316 22.1327 33.8124C21.5534 34.6984 20.6467 35.4925 20.0008 35.9829ZM30.8353 31.5101C30.0812 31.6138 28.856 31.6982 27.7789 31.473C28.0633 30.9352 28.4011 29.99 28.1107 28.7855C29.3167 29.0759 30.2605 28.7366 30.7983 28.4537C31.0235 29.5322 30.939 30.7575 30.8353 31.5101ZM35.3081 20.6756C34.6044 21.606 33.8428 22.3556 33.1406 22.8193C32.9628 22.2386 32.5346 21.3259 31.4709 20.6756C32.5332 20.0266 32.9613 19.1125 33.1406 18.5318C33.8428 18.9955 34.6044 19.7451 35.3081 20.6756ZM30.8235 9.84103C30.9627 10.8188 30.9953 11.9567 30.8042 12.8989C30.2664 12.6145 29.3212 12.2708 28.1122 12.5656C28.4041 11.3611 28.0648 10.4159 27.7804 9.87806C28.856 9.65287 30.0753 9.73732 30.8235 9.84103ZM20.0008 5.36825C20.6467 5.85716 21.5534 6.65274 22.1327 7.53871C21.552 7.72094 20.6467 8.1491 20.0008 9.20544C19.3548 8.1491 18.4496 7.72094 17.8688 7.54019C18.4481 6.65274 19.3548 5.85864 20.0008 5.36825ZM9.16625 9.84103C9.91888 9.73732 11.1456 9.65287 12.2212 9.87806C11.9367 10.4159 11.5989 11.3611 11.8893 12.5656C10.6848 12.2722 9.74109 12.613 9.20181 12.8974C8.9781 11.8189 9.06255 10.5936 9.16625 9.84103ZM6.86097 18.5318C7.03876 19.1125 7.46692 20.0266 8.53067 20.6756C7.46841 21.3245 7.04024 22.2386 6.86097 22.8193C6.15872 22.3556 5.39721 21.606 4.69348 20.6756C5.39721 19.7451 6.15872 18.9955 6.86097 18.5318Z" fill="white"/>
<path d="M5.19781 26.8048C4.29703 29.8138 5.12225 33.1858 5.30893 33.8718C5.50597 34.5948 6.07933 35.1681 6.8038 35.3652C7.12382 35.4526 8.81574 35.8882 10.804 35.8882C10.8069 35.8882 10.8099 35.8882 10.8099 35.8882C11.9285 35.8882 12.9537 35.7489 13.8678 35.4748C15.3597 38.2438 18.3287 40.0424 18.9436 40.3935C19.2636 40.5773 19.6295 40.675 20.0014 40.675C20.3733 40.675 20.7392 40.5773 21.0577 40.395C21.674 40.0424 24.6431 38.2438 26.135 35.4763C27.0491 35.7504 28.0743 35.8897 29.1929 35.8897C31.187 35.8897 32.8804 35.4541 33.199 35.3667C33.9235 35.1681 34.4968 34.5963 34.6939 33.8733C34.8805 33.1873 35.7072 29.8153 34.805 26.8063C37.5592 25.3203 39.3666 22.3513 39.7222 21.732C40.0926 21.0816 40.0926 20.2727 39.7222 19.6208L39.7207 19.6193C39.3666 19.0015 37.5592 16.034 34.805 14.5465C35.7057 11.5375 34.8805 8.16554 34.6939 7.47958C34.4968 6.75659 33.9235 6.18323 33.2005 5.98619C32.7812 5.86915 29.2358 4.95207 26.132 5.87507C24.6401 3.10607 21.6726 1.30747 21.0577 0.956349C20.4029 0.581518 19.594 0.583 18.9436 0.956349C18.3272 1.30747 15.3597 3.10607 13.8678 5.87507C10.7699 4.95503 7.2216 5.86915 6.80084 5.98471C6.07636 6.18323 5.50301 6.75511 5.30596 7.4781C5.11929 8.16406 4.29259 11.536 5.19485 14.5451C2.44066 16.031 0.633175 19.0001 0.277604 19.6193C-0.0927813 20.2697 -0.0927814 21.0787 0.279086 21.732C0.636138 22.3484 2.44214 25.3174 5.19781 26.8048ZM1.56655 20.3542C1.77544 19.9912 3.67775 16.7807 6.40675 15.6014C6.77417 15.4429 6.94899 15.0206 6.80232 14.6488C5.70302 11.8738 6.63046 8.26776 6.7401 7.86478C6.79936 7.64552 6.97418 7.47069 7.19641 7.41143C7.59643 7.3018 11.1936 6.36991 13.9774 7.47366C14.3508 7.62181 14.773 7.44699 14.9315 7.07808C16.1183 4.33279 19.3214 2.4453 19.6843 2.2364C19.8814 2.1238 20.1258 2.12232 20.3258 2.2364C20.6873 2.44382 23.8904 4.33279 25.0772 7.0766C25.2357 7.44551 25.6624 7.61885 26.0313 7.47218C28.8225 6.36398 32.4138 7.29883 32.8123 7.40995C33.033 7.47069 33.2093 7.64403 33.2686 7.8633C33.3782 8.2648 34.3057 11.8724 33.2064 14.6473C33.0582 15.0192 33.2345 15.4414 33.602 15.5999C36.328 16.7777 38.2273 19.9808 38.4407 20.3512C38.5533 20.5498 38.5533 20.7957 38.4422 20.9927C38.2333 21.3557 36.331 24.5662 33.602 25.7455C33.2345 25.9041 33.0597 26.3263 33.2064 26.6982C34.3057 29.4731 33.3782 33.0792 33.2686 33.4821C33.2093 33.7014 33.0345 33.8762 32.8123 33.9355C32.5249 34.014 31.0004 34.4066 29.1973 34.4066C27.9928 34.4066 26.9276 34.2259 26.0328 33.8718C25.6624 33.7281 25.2372 33.8999 25.0786 34.2674C23.8934 37.0127 20.6873 38.9016 20.3244 39.109C20.1303 39.2202 19.8799 39.2216 19.6829 39.109C19.3214 38.9016 16.1153 37.0127 14.9301 34.2674C14.8101 33.9888 14.536 33.8199 14.25 33.8199C14.1582 33.8199 14.0663 33.8362 13.976 33.8718C13.0811 34.2259 12.0159 34.4066 10.8114 34.4066C10.8114 34.4066 10.8084 34.4066 10.8055 34.4066C9.00686 34.4066 7.48383 34.014 7.19493 33.9355C6.97418 33.8748 6.79788 33.7014 6.73861 33.4821C6.62898 33.0806 5.70153 29.4731 6.80084 26.6982C6.94899 26.3263 6.77269 25.9041 6.40527 25.7455C3.67626 24.5662 1.77396 21.3557 1.56655 20.9957C1.45395 20.7972 1.45395 20.5512 1.56655 20.3542Z" fill="white"/>
</svg>
