<svg width="58" height="54" viewBox="0 0 58 54" fill="none" xmlns="http://www.w3.org/2000/svg">
<path d="M33.3343 14.8198C33.3343 16.4251 32.2363 17.7261 30.8823 17.7261C32.2363 17.7261 33.3343 19.0271 33.3343 20.6324C33.3343 19.0271 34.4323 17.7261 35.7863 17.7261C34.4323 17.7261 33.3343 16.4251 33.3343 14.8198Z" fill="white"/>
<path d="M35.7865 47.3235C35.7865 48.9287 34.6885 50.2298 33.3345 50.2298C34.6885 50.2298 35.7865 51.5308 35.7865 53.1361C35.7865 51.5308 36.8845 50.2298 38.2385 50.2298C36.8845 50.2298 35.7865 48.9287 35.7865 47.3235Z" fill="white"/>
<path d="M2.88072 14.8198C2.88072 16.4251 1.78271 17.7261 0.428711 17.7261C1.78271 17.7261 2.88072 19.0271 2.88072 20.6324C2.88072 19.0271 3.97873 17.7261 5.33273 17.7261C3.97873 17.7261 2.88072 16.4251 2.88072 14.8198Z" fill="white"/>
<path d="M22.727 39.8847C22.727 40.3913 22.3168 40.8014 21.8103 40.8014C21.3037 40.8014 20.8936 40.3913 20.8936 39.8847C20.8936 39.3782 21.3037 38.968 21.8103 38.968C22.3168 38.968 22.727 39.3788 22.727 39.8847Z" fill="white"/>
<path d="M55.0941 32.0422C55.0941 32.5488 54.6833 32.9589 54.1774 32.9589C53.6709 32.9589 53.2607 32.5488 53.2607 32.0422C53.2607 31.5356 53.6709 31.1255 54.1774 31.1255C54.6833 31.1255 55.0941 31.5356 55.0941 32.0422Z" fill="white"/>
<path d="M48.3754 1.20235C48.3754 1.70891 47.9653 2.11904 47.4587 2.11904C46.9521 2.11904 46.542 1.70891 46.542 1.20235C46.542 0.695788 46.9521 0.285645 47.4587 0.285645C47.9653 0.285645 48.3754 0.695788 48.3754 1.20235Z" fill="white"/>
<path d="M56.2656 42.7713L51.1259 44.4492L50.3885 43.7118L54.4064 42.4005C55.0161 42.2016 55.3496 41.5463 55.1499 40.9365C54.9516 40.3267 54.2984 39.994 53.6859 40.193L48.5463 41.8702L47.8088 41.1328L51.8267 39.8215C52.4365 39.6226 52.7699 38.9673 52.5709 38.3575C52.3727 37.7477 51.7187 37.4143 51.1069 37.6133L47.4666 38.8016L56.6214 14.3895C56.6316 14.3623 56.635 14.3345 56.6431 14.3073C56.6553 14.2666 56.6683 14.2258 56.6757 14.1837C56.6825 14.145 56.6839 14.1063 56.6866 14.0676C56.6893 14.0316 56.6934 13.9963 56.6927 13.9603C56.692 13.9203 56.6859 13.8816 56.6812 13.8422C56.6771 13.8069 56.6737 13.7716 56.6662 13.7369C56.6581 13.7003 56.6458 13.6649 56.6343 13.629C56.6228 13.593 56.6126 13.5577 56.5976 13.523C56.5827 13.4877 56.563 13.4551 56.544 13.4212C56.5263 13.3893 56.5107 13.3573 56.4897 13.3268C56.4632 13.2888 56.4319 13.2541 56.4014 13.2188C56.3844 13.1998 56.3722 13.1788 56.3539 13.1604L53.5195 10.3261C43.2749 0.0814393 26.7742 -0.183372 16.2009 9.52621L12.6713 5.99654L16.8154 5.76704C17.4565 5.73105 17.946 5.18375 17.9107 4.54341C17.8747 3.9024 17.3281 3.41484 16.6871 3.44812L9.949 3.8216C9.92048 3.82296 9.89467 3.83041 9.86683 3.83381C9.8322 3.83856 9.79757 3.84196 9.76362 3.84943C9.72356 3.85826 9.68621 3.87116 9.64818 3.88406C9.61695 3.89424 9.58639 3.90307 9.55583 3.91597C9.51441 3.93363 9.47639 3.95604 9.43768 3.97845C9.41324 3.99271 9.38743 4.00426 9.36366 4.02056C9.24076 4.1034 9.13551 4.20932 9.05199 4.33223C9.03569 4.35599 9.02415 4.3818 9.00989 4.40625C8.98748 4.44495 8.96507 4.48297 8.94741 4.52439C8.93451 4.55427 8.92568 4.58551 8.9155 4.61675C8.9026 4.65477 8.8897 4.69279 8.88155 4.73217C8.87408 4.76613 8.87068 4.80076 8.86593 4.83539C8.86254 4.86323 8.85506 4.88972 8.85371 4.91756L8.48024 11.6557C8.44493 12.296 8.93519 12.8433 9.57553 12.8793C9.59725 12.8807 9.61898 12.8813 9.64071 12.8813C10.2525 12.8813 10.7645 12.4026 10.7992 11.784L11.0287 7.63983L14.5576 11.1688C9.97073 16.1584 7.45557 22.5889 7.45557 29.4071C7.45557 36.6151 10.262 43.3912 15.3589 48.4874L18.1776 51.3068C18.1823 51.3116 18.1878 51.317 18.1932 51.3217C18.2387 51.3672 18.289 51.4046 18.3392 51.4413C18.3487 51.448 18.3569 51.4569 18.3664 51.4637C18.4519 51.5214 18.545 51.5635 18.64 51.5954C18.6631 51.6035 18.6862 51.6096 18.7093 51.6158C18.8057 51.6422 18.9042 51.6599 19.0033 51.6606C19.0067 51.6606 19.0101 51.6619 19.0135 51.6619C19.0848 51.6619 19.1561 51.6545 19.2274 51.6409C19.2518 51.6361 19.2749 51.6273 19.2987 51.6212C19.3394 51.611 19.3809 51.6029 19.4209 51.5879L43.8086 42.4426L42.6434 46.0789C42.4478 46.6893 42.7839 47.3432 43.3944 47.5388C43.5126 47.5768 43.6314 47.5952 43.7489 47.5952C44.2405 47.5945 44.6968 47.2808 44.8543 46.7878L46.1459 42.757L46.8785 43.4897L45.2224 48.6586C45.0268 49.269 45.3629 49.9229 45.9734 50.1185C46.0915 50.1565 46.2104 50.1749 46.3278 50.1749C46.8195 50.1742 47.2758 49.8604 47.4333 49.3675L48.7249 45.3367L49.4575 46.0694L47.8014 51.2382C47.6058 51.8487 47.9419 52.5026 48.5524 52.6981C48.6705 52.7362 48.7894 52.7545 48.9068 52.7545C49.3985 52.7538 49.8548 52.4401 50.0123 51.9471L51.3038 47.9164L51.9435 48.556C52.1703 48.7828 52.467 48.8962 52.7645 48.8962C53.0619 48.8962 53.3586 48.7828 53.5854 48.556C54.039 48.1024 54.039 47.3677 53.5854 46.9141L52.9641 46.2928L56.982 44.9816C57.5917 44.7826 57.9245 44.1273 57.7255 43.5175C57.5306 42.9057 56.8774 42.5723 56.2656 42.7713ZM34.4413 4.75663C37.4813 4.75663 40.5207 5.31344 43.3917 6.42774C35.9419 5.2985 27.9075 8.00311 21.0886 14.4126L17.8442 11.1681C22.5357 6.89493 28.4874 4.75663 34.4413 4.75663ZM9.77992 29.4051C9.77992 23.2068 12.0527 17.3582 16.2016 12.8087L19.4467 16.0538C13.0196 22.8917 10.3198 30.9499 11.4707 38.4186C10.3612 35.5857 9.77992 32.5402 9.77992 29.4051ZM19.3272 49.142C11.0552 40.3417 11.7776 27.6437 21.0852 17.6917L43.4786 40.085L19.3272 49.142ZM45.1205 38.4431L22.7265 16.0491C27.3915 11.6971 32.9168 9.06242 38.3987 8.60067C44.2649 8.10837 49.704 10.0769 54.1775 14.291L45.1205 38.4431Z" fill="white"/>
</svg>
