<svg width="46" height="63" viewBox="0 0 46 63" fill="none" xmlns="http://www.w3.org/2000/svg">
<path d="M23.939 57.0266C23.939 58.4759 22.9477 59.6502 21.7251 59.6502C22.9477 59.6502 23.939 60.8246 23.939 62.2738C23.939 60.8246 24.9303 59.6502 26.1522 59.6502C24.9303 59.6502 23.939 58.4752 23.939 57.0266Z" fill="white"/>
<path d="M34.9082 15.0398C34.9082 16.4891 33.9169 17.6634 32.6943 17.6634C33.9169 17.6634 34.9082 18.8384 34.9082 20.287C34.9082 18.8377 35.8995 17.6634 37.1214 17.6634C35.8995 17.6634 34.9082 16.4884 34.9082 15.0398Z" fill="white"/>
<path d="M2.35627 35.9177C2.35627 37.367 1.36499 38.5413 0.143066 38.5413C1.36565 38.5413 2.35627 39.7157 2.35627 41.1649C2.35627 39.7157 3.34756 38.5413 4.57015 38.5413C3.34756 38.5413 2.35627 37.367 2.35627 35.9177Z" fill="white"/>
<path d="M45.8574 38.5417C45.8574 38.9991 45.4867 39.3691 45.03 39.3691C44.5727 39.3691 44.2026 38.9984 44.2026 38.5417C44.2026 38.0851 44.5734 37.7144 45.03 37.7144C45.4873 37.7144 45.8574 38.0851 45.8574 38.5417Z" fill="white"/>
<path d="M14.4292 19.4597C14.4292 19.917 14.0584 20.2871 13.6018 20.2871C13.1445 20.2871 12.7744 19.9164 12.7744 19.4597C12.7744 19.0024 13.1451 18.6323 13.6018 18.6323C14.0584 18.6323 14.4292 19.0024 14.4292 19.4597Z" fill="white"/>
<path d="M28.4429 6.50976C28.4429 6.96708 28.0721 7.33716 27.6155 7.33716C27.1588 7.33716 26.7881 6.96642 26.7881 6.50976C26.7881 6.05245 27.1588 5.68237 27.6155 5.68237C28.0721 5.68237 28.4429 6.05311 28.4429 6.50976Z" fill="white"/>
<path d="M5.61073 57.9154C8.24623 60.2217 17.6773 61.1952 18.7433 61.299C18.777 61.3023 18.8113 61.3042 18.845 61.3042H18.8457H18.8464C18.8523 61.3042 18.8583 61.3022 18.8642 61.3022C18.9336 61.3009 19.0023 61.2943 19.0698 61.2804C19.0942 61.2752 19.1167 61.2646 19.1405 61.2573C19.1887 61.2434 19.2376 61.2309 19.2839 61.2097C19.309 61.1985 19.3308 61.182 19.3552 61.1688C19.3975 61.1456 19.4405 61.1245 19.4795 61.0954C19.5409 61.0498 19.5984 60.9983 19.65 60.9394C19.7042 60.878 19.7471 60.8112 19.7848 60.7425C19.7954 60.7227 19.8026 60.7022 19.8119 60.6817C19.8357 60.6302 19.8562 60.5779 19.8714 60.5244C19.8786 60.4993 19.8833 60.4735 19.8885 60.4478C19.8991 60.3962 19.9057 60.344 19.9084 60.2918C19.9097 60.2654 19.911 60.2396 19.911 60.2132C19.9097 60.1537 19.9024 60.0949 19.8912 60.0367C19.8885 60.0222 19.8899 60.0076 19.8866 59.9931C19.6427 58.9496 17.4282 49.7313 14.7927 47.4243C13.3917 46.1977 11.6014 45.5897 9.73845 45.714C8.4967 45.7966 7.33029 46.2057 6.32447 46.8817C6.26301 46.2843 6.32248 45.5792 6.71966 44.9328C7.39505 43.8338 9.25405 42.5372 14.221 42.3839C14.6658 46.3814 17.5399 49.6474 21.3292 50.6863C21.2136 50.9902 21.1429 51.316 21.1429 51.6604C21.1429 52.2505 21.6213 52.729 22.2115 52.729C22.8016 52.729 23.2801 52.2505 23.2801 51.6604C23.2801 51.3194 23.5576 51.0418 23.8986 51.0418C24.2396 51.0418 24.5172 51.3194 24.5172 51.6604C24.5172 52.2505 24.9956 52.729 25.5858 52.729C26.1759 52.729 26.6544 52.2505 26.6544 51.6604C26.6544 51.316 26.5837 50.9902 26.468 50.6863C30.2594 49.6467 33.1354 46.3775 33.5775 42.3767C38.8875 42.4632 40.8483 43.8008 41.5442 44.9328C41.942 45.5798 42.0015 46.2869 41.9393 46.885C39.3825 45.1734 35.8952 45.3029 33.4711 47.4236C30.835 49.7307 28.6204 58.9489 28.3766 59.9924C28.3733 60.007 28.3746 60.0215 28.372 60.0361C28.3607 60.0949 28.3535 60.153 28.3521 60.2125C28.3515 60.2389 28.3528 60.2647 28.3548 60.2911C28.3574 60.3433 28.364 60.3956 28.3746 60.4471C28.3799 60.4729 28.3845 60.4987 28.3918 60.5238C28.407 60.5773 28.4275 60.6295 28.4513 60.6804C28.4605 60.7009 28.4678 60.7214 28.4784 60.7412C28.5154 60.8106 28.559 60.8767 28.6132 60.9381C28.6647 60.9969 28.7216 61.0491 28.783 61.0941C28.822 61.1232 28.865 61.1443 28.9073 61.1674C28.931 61.1807 28.9535 61.1972 28.9786 61.2084C29.0249 61.2296 29.0738 61.2421 29.122 61.256C29.1458 61.2626 29.1683 61.2738 29.1934 61.2791C29.2608 61.2937 29.3302 61.3003 29.3989 61.3009C29.4049 61.3009 29.4108 61.3029 29.4168 61.3029H29.4174H29.4181C29.4518 61.3029 29.4862 61.3016 29.5199 61.2976C30.5865 61.1945 40.0176 60.2211 42.6531 57.914C45.3738 55.5323 45.7935 51.4866 43.7263 48.6072C44.0713 47.6139 44.4903 45.667 43.3787 43.8358C41.977 41.5261 38.6813 40.3187 33.5907 40.2375C33.5775 40.0808 33.5623 39.9196 33.5445 39.7531C40.4286 39.0565 43.3278 35.9003 43.454 35.7602C43.8466 35.3194 43.8069 34.644 43.3661 34.2514C42.924 33.8589 42.25 33.8985 41.8574 34.3393C41.8323 34.3677 39.3646 37.0475 33.2253 37.6383C33.1182 37.0653 32.9894 36.4653 32.8426 35.8487C39.6224 35.1224 42.4786 32.0071 42.6028 31.8677C42.9954 31.4269 42.9557 30.7515 42.5149 30.359C42.0728 29.9664 41.3988 30.0061 41.0062 30.4469C40.9811 30.4753 38.4883 33.1802 32.2849 33.7545C32.1111 33.165 31.9214 32.5715 31.7172 31.9801C38.6899 31.3093 41.6248 28.1174 41.751 27.9759C42.1435 27.5351 42.1039 26.8597 41.6631 26.4672C41.221 26.0746 40.5469 26.1143 40.1544 26.5551C40.1286 26.5842 37.505 29.4371 30.9282 29.905C30.6671 29.2798 30.3882 28.6718 30.0935 28.087C37.0536 27.4122 39.9839 24.2249 40.1101 24.0841C40.5026 23.6433 40.463 22.968 40.0222 22.5754C39.5801 22.1829 38.906 22.2225 38.5135 22.6633C38.4877 22.693 35.7987 25.6305 29.0203 26.037C28.9879 26.039 28.9575 26.0476 28.9257 26.0522C28.4261 25.2935 27.8915 24.6208 27.3252 24.0656C27.3311 24.0194 27.339 23.9738 27.339 23.9262V18.1959C27.339 13.9493 23.8927 12.5971 22.07 12.4755C22.0462 12.4742 22.0224 12.4729 21.9987 12.4729C19.1358 12.4729 16.5836 10.2346 16.5367 7.68234C16.5122 6.35997 17.0085 5.11294 17.9337 4.17056C18.8596 3.22818 20.0967 2.70874 21.4178 2.70874H28.8253C30.6149 2.70874 31.8031 3.07948 32.1712 3.75289C32.6563 4.64108 31.893 6.20202 31.5897 6.6752C31.3755 7.00364 31.3597 7.42263 31.5467 7.76694C31.7337 8.11124 32.0939 8.32602 32.4858 8.32602C33.5756 8.32602 34.621 7.86343 35.3546 7.05652C36.0875 6.24961 36.4483 5.16251 36.3445 4.07143C36.1575 2.10869 34.4089 0.571533 32.3649 0.571533H17.1473C15.248 0.571533 13.469 1.3183 12.1387 2.67372C10.8084 4.02847 10.0953 5.82138 10.1297 7.72134C10.1997 11.5199 13.4359 14.6101 17.3456 14.6101C19.3229 14.6101 20.9314 16.2193 20.9314 18.1959V23.6473C20.1958 24.2632 19.5105 25.0827 18.8794 26.0383C18.8754 26.0383 18.8715 26.0363 18.8675 26.0363C12.2021 25.6365 9.42257 22.7149 9.3697 22.658C8.97715 22.2225 8.30572 22.1848 7.86559 22.5747C7.42546 22.9673 7.38581 23.6427 7.7777 24.0835C7.90326 24.2242 10.8084 27.3864 17.7071 28.079C17.4123 28.6639 17.1334 29.2725 16.8717 29.897C10.4588 29.4146 7.77174 26.5961 7.72813 26.5491C7.33558 26.113 6.66349 26.0766 6.22402 26.4665C5.78322 26.8591 5.74424 27.5345 6.13612 27.9753C6.26235 28.116 9.17275 31.2828 16.082 31.9715C15.8771 32.5629 15.6875 33.1557 15.5143 33.7452C9.4761 33.1584 6.92717 30.4951 6.87695 30.4409C6.48374 30.0054 5.81297 29.9678 5.37284 30.3577C4.93271 30.7502 4.89306 31.4256 5.28495 31.8664C5.40853 32.0052 8.23831 35.0967 14.9559 35.8395C14.8085 36.456 14.6803 37.0561 14.5726 37.6291C8.59583 37.025 6.074 34.3856 6.0251 34.3327C5.63255 33.8959 4.96112 33.8595 4.52099 34.2494C4.0802 34.642 4.04121 35.3174 4.4331 35.7582C4.558 35.8983 7.43141 39.0294 14.2521 39.7438C14.2336 39.9156 14.2177 40.0828 14.2045 40.2441C9.37629 40.3901 6.24253 41.5962 4.88381 43.8352C3.77159 45.6664 4.19057 47.6133 4.5362 48.6065C2.4697 51.4879 2.88933 55.5336 5.61073 57.9154ZM41.2455 56.3068C40.0718 57.3338 36.2143 58.1995 32.7554 58.7322L39.0996 53.1803C39.5437 52.7918 39.5887 52.1164 39.2001 51.6729C38.8115 51.2301 38.1368 51.1832 37.6927 51.5725L31.3485 57.1243C32.3345 53.7672 33.7044 50.0585 34.8788 49.0302C36.8838 47.2743 39.9442 47.4778 41.7008 49.4848C43.4554 51.4905 43.2512 54.5509 41.2455 56.3068ZM12.2662 7.68169C12.2418 6.35932 12.7381 5.11161 13.6633 4.16989C14.3902 3.42973 15.3108 2.95524 16.312 2.78342C15.0478 4.12496 14.3677 5.87028 14.4014 7.72067C14.4345 9.51159 15.2573 11.1644 16.5459 12.4048C14.1662 12.0361 12.3098 10.0621 12.2662 7.68169ZM21.9531 14.6088C22.4077 14.6511 25.2025 15.041 25.2025 18.1946V22.6626C24.7796 22.512 24.3454 22.4228 23.898 22.4228C23.6158 22.4228 23.3402 22.4644 23.0679 22.5252V18.1939C23.0679 16.8326 22.5881 15.5822 21.7918 14.5989C21.846 14.6015 21.8989 14.6088 21.9531 14.6088ZM16.4832 39.077C16.505 39.0017 16.5215 38.9237 16.5261 38.8417C16.5268 38.8318 16.5248 38.8219 16.5248 38.812C16.7026 37.6971 16.9755 36.466 17.3277 35.2024C17.3357 35.1779 17.3436 35.1535 17.3489 35.1284C18.7724 30.0576 21.4171 24.56 23.898 24.56C27.5254 24.56 31.5031 36.3093 31.5031 41.2981C31.5031 45.4913 28.0918 48.9026 23.898 48.9026C19.7048 48.9026 16.2935 45.4913 16.2935 41.2981C16.2941 40.6571 16.3609 39.9031 16.4832 39.077ZM6.5637 49.4855C7.41422 48.5134 8.59186 47.9312 9.88053 47.8452C9.99023 47.838 10.0999 47.834 10.209 47.834C11.3794 47.834 12.4969 48.253 13.3857 49.0308C14.5594 50.0584 15.9287 53.7672 16.9154 57.1243L10.5718 51.5725C10.127 51.1832 9.4523 51.2288 9.06438 51.6729C8.6758 52.117 8.72073 52.7918 9.16417 53.1803L15.5084 58.7328C12.0508 58.2008 8.1927 57.3351 7.01836 56.3068C5.012 54.5516 4.80781 51.4912 6.5637 49.4855Z" fill="white"/>
</svg>
