<svg width="60" height="57" viewBox="0 0 60 57" fill="none" xmlns="http://www.w3.org/2000/svg">
<path d="M12.5792 20.6848C10.7249 22.0134 8.68516 24.1325 7.64147 27.3961C7.53248 27.7389 7.58215 28.1121 7.77943 28.4135C7.97534 28.715 8.29748 28.9116 8.65481 28.9495C8.70792 28.955 9.0556 28.9895 9.61021 28.9895C10.9767 28.9895 13.5987 28.7778 16.1531 27.4237V36.3706C16.1531 39.7776 17.7831 40.7109 19.5091 41.6987C19.9906 41.9746 20.4838 42.2616 20.9929 42.6203C20.7963 43.2025 20.6804 43.8102 20.6804 44.44C20.6804 46.862 22.2373 49.0046 24.6116 50.3131V51.501C24.6116 54.4741 27.0301 56.8926 30.0032 56.8926C32.9757 56.8926 35.3949 54.4741 35.3949 51.501V50.3131C37.7692 49.0046 39.3254 46.862 39.3254 44.44C39.3254 44.1862 39.3075 43.9351 39.2737 43.6875C39.5634 43.4515 39.8476 43.2246 40.1235 43.008C42.124 41.4373 43.8527 40.0811 43.8527 36.3706V31.566C43.8851 31.3308 43.9058 31.0921 43.901 30.85C43.8989 30.7444 43.8796 30.6444 43.8527 30.5478V27.3505C46.4512 28.7729 49.145 28.9888 50.5363 28.9888C51.0909 28.9888 51.4393 28.9544 51.4924 28.9488C51.8504 28.9109 52.1719 28.7143 52.3678 28.4129C52.5644 28.1114 52.6147 27.7382 52.5057 27.3954C51.4572 24.1146 49.4002 21.9893 47.5377 20.6621C51.6069 19.9385 54.7401 18.2374 56.8764 15.5692C61.3782 9.94715 59.7123 2.21362 59.6391 1.88665C59.5067 1.29203 58.9459 0.897455 58.3416 0.959538C57.7359 1.02645 57.2772 1.53898 57.2772 2.14809C57.2772 11.1874 42.7973 11.3116 42.6517 11.3116H17.3486C17.203 11.3116 2.72308 11.1874 2.72308 2.14809C2.72308 1.53829 2.26504 1.02645 1.65869 0.959538C1.05372 0.897455 0.494284 1.29203 0.36115 1.88665C0.287339 2.21362 -1.37787 9.94646 3.12387 15.5692C5.28161 18.2643 8.45338 19.9736 12.5792 20.6848ZM43.8534 13.6694C48.1075 13.4549 54.1565 12.0883 57.4035 8.34816C57.1068 10.2445 56.426 12.3084 55.0112 14.075C52.7355 16.9164 48.9849 18.4519 43.8534 18.6513V13.6694ZM43.8534 21.3188C45.2103 21.8989 47.9916 23.4124 49.5878 26.5607C48.0847 26.4434 45.8118 25.9881 43.8534 24.4961V21.3188ZM33.004 51.5017C33.004 53.1559 31.6581 54.5017 30.0039 54.5017C28.3491 54.5017 27.0039 53.1559 27.0039 51.5017V51.2623C27.9469 51.5114 28.9534 51.6528 30.0039 51.6528C31.0545 51.6528 32.061 51.5114 33.004 51.2623V51.5017ZM35.3949 47.4635V45.2175C35.3949 44.5573 34.8596 44.022 34.1994 44.022C33.5392 44.022 33.004 44.5573 33.004 45.2175V48.7804C32.0948 49.086 31.0794 49.2626 30.0039 49.2626C28.9285 49.2626 27.9131 49.086 27.0039 48.7811V45.2182C27.0039 44.558 26.4686 44.0227 25.8085 44.0227C25.1483 44.0227 24.613 44.558 24.613 45.2182V47.4649C23.6514 46.6371 23.0727 45.5858 23.0727 44.4414C23.0727 43.8682 23.2251 43.3205 23.49 42.81C23.4962 42.799 23.5017 42.7879 23.5072 42.7769C24.4847 40.9372 27.0239 39.6196 30.0046 39.6196C33.8262 39.6196 36.9352 41.7829 36.9352 44.4414C36.9345 45.5851 36.3558 46.6357 35.3949 47.4635ZM41.4618 31.377C41.3735 31.7992 41.1617 32.1924 40.8368 32.5131C40.3753 32.9698 39.7504 33.2278 39.0771 33.2402C38.4121 33.2574 37.7713 33.0188 37.2919 32.5807C36.8504 32.1758 36.5993 31.6405 36.5675 31.0686C38.757 30.4057 40.3464 29.4683 41.4618 28.5894V31.377ZM18.5447 13.7046H41.4618V25.2245C40.803 26.1434 37.8202 29.5717 30.0032 29.5717C22.2828 29.5717 19.2663 26.0019 18.544 24.9493V13.7046H18.5447ZM18.5447 28.4032C19.6815 29.3441 21.2998 30.3436 23.5238 31.0431C23.4693 32.2682 22.3842 33.2402 21.0619 33.2402C21.0446 33.2402 21.028 33.2402 21.0108 33.2395C20.3382 33.2271 19.7133 32.9691 19.2518 32.5124C18.8061 32.0723 18.5668 31.4977 18.5785 30.8962C18.5806 30.7962 18.5661 30.6996 18.5447 30.6065V28.4032ZM18.5447 34.9537C19.2697 35.3765 20.0975 35.6145 20.966 35.6311C20.9984 35.6318 21.0308 35.6318 21.0632 35.6318C23.4997 35.6318 25.5332 33.8893 25.8699 31.6122C27.1026 31.8323 28.4732 31.9633 30.0032 31.9633C31.5677 31.9633 32.9667 31.835 34.2194 31.6191C34.3725 32.6573 34.8754 33.6099 35.677 34.3439C36.5862 35.1772 37.772 35.6325 39.024 35.6325C39.0564 35.6325 39.0895 35.6325 39.1219 35.6318C39.9573 35.6159 40.7568 35.3959 41.4618 35.0034V36.3726C41.4618 38.9194 40.5216 39.6582 38.6473 41.1289C38.5687 41.1903 38.4797 41.2621 38.3983 41.3262C36.8918 38.907 33.7007 37.2294 30.0039 37.2294C26.7232 37.2294 23.839 38.5504 22.1773 40.5371C21.6413 40.1735 21.135 39.8762 20.6976 39.6265C19.1311 38.7291 18.5454 38.3938 18.5454 36.3726L18.5447 34.9537ZM16.1531 24.5995C14.2368 25.9978 12.0322 26.4379 10.5601 26.5552C12.1073 23.4931 14.7493 21.9913 16.1531 21.376V24.5995ZM16.1531 13.6694V18.6513C11.0271 18.4533 7.27794 16.9219 5.00085 14.0881C3.58604 12.3263 2.90381 10.259 2.60581 8.35713C5.85692 12.0918 11.9025 13.4556 16.1531 13.6694Z" fill="white"/>
<path d="M23.3656 21.0664H28.8082V26.2221C28.8082 26.8823 29.3435 27.4176 30.0037 27.4176C30.6638 27.4176 31.1991 26.8823 31.1991 26.2221V21.0664H36.5204C37.1805 21.0664 37.7158 20.5311 37.7158 19.871C37.7158 19.2108 37.1805 18.6755 36.5204 18.6755H23.3649C22.7047 18.6755 22.1694 19.2108 22.1694 19.871C22.1694 20.5311 22.7054 21.0664 23.3656 21.0664Z" fill="white"/>
<path d="M10.5598 34.5535C10.5598 36.1842 9.44434 37.5059 8.06885 37.5059C9.44434 37.5059 10.5598 38.8276 10.5598 40.4583C10.5598 38.8276 11.6752 37.5059 13.0507 37.5059C11.6745 37.5059 10.5598 36.1842 10.5598 34.5535Z" fill="white"/>
<path d="M35.4958 0.428223C35.4958 2.05895 34.3804 3.38064 33.0049 3.38064C34.3804 3.38064 35.4958 4.70232 35.4958 6.33305C35.4958 4.70232 36.6112 3.38064 37.9867 3.38064C36.6112 3.38064 35.4958 2.05826 35.4958 0.428223Z" fill="white"/>
<path d="M46.7209 40.4583C46.7209 42.089 45.6055 43.4107 44.23 43.4107C45.6055 43.4107 46.7209 44.7324 46.7209 46.3631C46.7209 44.7324 47.8363 43.4107 49.2118 43.4107C47.8357 43.4107 46.7209 42.089 46.7209 40.4583Z" fill="white"/>
<path d="M49.5875 36.416C50.1018 36.416 50.5188 35.999 50.5188 35.4847C50.5188 34.9704 50.1018 34.5535 49.5875 34.5535C49.0732 34.5535 48.6562 34.9704 48.6562 35.4847C48.6562 35.999 49.0732 36.416 49.5875 36.416Z" fill="white"/>
<path d="M25.2096 8.3774C25.7239 8.3774 26.1408 7.96046 26.1408 7.44615C26.1408 6.93183 25.7239 6.51489 25.2096 6.51489C24.6953 6.51489 24.2783 6.93183 24.2783 7.44615C24.2783 7.96046 24.6953 8.3774 25.2096 8.3774Z" fill="white"/>
<path d="M6.62179 23.0455C6.62179 23.5601 6.20514 23.9768 5.69053 23.9768C5.17593 23.9768 4.75928 23.5601 4.75928 23.0455C4.75928 22.5309 5.17593 22.1143 5.69053 22.1143C6.20514 22.1143 6.62179 22.5309 6.62179 23.0455Z" fill="white"/>
</svg>
