<svg width="60" height="60" viewBox="0 0 60 60" fill="none" xmlns="http://www.w3.org/2000/svg">
<path d="M24.5261 7.45526C24.4557 7.70178 24.4205 9.56828 24.4557 11.6109C24.5614 15.2734 24.5614 15.2734 25.4418 15.2734C26.3222 15.2734 26.3222 15.2382 26.4279 11.6109C26.5335 7.9483 26.287 6.99744 25.1953 6.99744C24.9487 6.99744 24.6318 7.20874 24.5261 7.45526Z" fill="url(#paint0_linear_5315_48791)"/>
<path d="M9.48859 13.5837C8.85469 14.1824 9.45338 15.1332 11.8834 17.5632C14.0668 19.7467 14.6303 20.134 15.1233 19.8171C16.215 19.1127 16.0037 18.6197 13.4329 15.9784C11.1086 13.5485 10.0873 12.9498 9.48859 13.5837Z" fill="url(#paint1_linear_5315_48791)"/>
<path d="M37.4509 15.9475C34.9153 18.4831 34.387 19.7157 35.6549 19.9622C36.4296 20.1031 41.7826 14.574 41.5361 13.9049C41.1135 12.8131 40.0218 13.3766 37.4509 15.9475Z" fill="url(#paint2_linear_5315_48791)"/>
<path d="M21.0049 19.7849C15.7576 22.2853 13.3628 28.5187 15.5815 33.7308C16.6732 36.2665 19.5962 38.8725 22.2023 39.6121C27.3792 41.1264 32.4152 38.9077 35.0213 34.0126C35.6904 32.8152 35.8313 31.97 35.8313 29.54C35.8313 26.9692 35.6904 26.3001 34.8804 24.7505C33.8943 22.8488 31.8517 20.8062 29.95 19.8201C29.2105 19.3975 27.7313 19.151 25.7944 19.0806C23.1883 18.9397 22.5544 19.0454 21.0049 19.7849ZM29.8796 22.3205C30.9361 22.9897 31.9926 24.0462 32.6617 25.1027C33.6126 26.6522 33.7182 27.1453 33.7182 29.54C33.7182 31.9348 33.6126 32.4278 32.6617 33.9774C29.7035 38.7669 22.7305 39.4008 19.068 35.2452C15.9336 31.6883 16.1802 26.2648 19.6314 23.2362C21.674 21.4753 22.801 21.0527 25.6535 21.1584C27.7313 21.264 28.4357 21.4401 29.8796 22.3205Z" fill="url(#paint3_linear_5315_48791)"/>
<path d="M50.0939 24.325C50.0939 24.5716 50.9039 25.5928 51.9252 26.6141L53.7564 28.4806H46.8539C41.1488 28.4806 39.8809 28.5863 39.5288 29.0089C39.1766 29.4315 39.1766 29.6428 39.5288 30.0654C40.1627 30.8402 53.3338 30.8402 53.9677 30.0654C54.1791 29.7837 54.2495 29.3611 54.1086 29.1145C53.8973 28.7272 53.9677 28.7272 54.3551 29.1145C54.7425 29.4667 54.4256 29.9598 52.4534 31.9319C50.0587 34.3619 49.6008 35.1719 50.6926 35.1719C51.4673 35.1719 56.4329 30.2767 56.4329 29.5372C56.4329 28.7976 51.4673 23.9024 50.6926 23.9024C50.3756 23.9024 50.0939 24.0785 50.0939 24.325Z" fill="url(#paint4_linear_5315_48791)"/>
<path d="M3.07924 28.8329C2.97359 29.0442 2.97359 29.502 3.07924 29.8894C3.29054 30.5233 3.60749 30.5938 7.09398 30.5938C10.0522 30.5938 11.0031 30.4881 11.3552 30.0655C11.7074 29.6429 11.7074 29.4316 11.3552 29.009C11.0031 28.5864 10.0522 28.4807 7.09398 28.4807C4.91052 28.4807 3.22011 28.6216 3.07924 28.8329Z" fill="url(#paint5_linear_5315_48791)"/>
<path d="M11.7774 41.6169C9.10094 44.3287 8.64312 45.4556 10.1574 45.6669C10.7209 45.7373 11.5661 45.0682 13.327 43.0961C15.8274 40.3491 16.2852 39.2926 15.0526 39.1165C14.5596 39.0461 13.5383 39.8561 11.7774 41.6169Z" fill="url(#paint6_linear_5315_48791)"/>
<path d="M35.197 39.2962C34.5983 39.8949 35.1265 40.8106 37.4861 43.1701C40.0569 45.7762 41.0078 46.234 41.4304 45.1422C41.6065 44.7196 40.9021 43.804 38.93 41.7966C36.3239 39.1554 35.7252 38.768 35.197 39.2962Z" fill="url(#paint7_linear_5315_48791)"/>
<path d="M24.6318 43.837C24.4909 43.9779 24.3853 45.8091 24.3853 47.9222C24.3853 51.0213 24.4909 51.796 24.9135 51.9369C25.1952 52.0778 25.6883 51.9721 25.97 51.7256C26.4278 51.3382 26.4983 50.5282 26.4278 47.5348C26.3222 44.0835 26.2518 43.8018 25.6178 43.6961C25.1952 43.6257 24.7726 43.6961 24.6318 43.837Z" fill="url(#paint8_linear_5315_48791)"/>
<defs>
<linearGradient id="paint0_linear_5315_48791" x1="24.4419" y1="11.1354" x2="26.4502" y2="11.1354" gradientUnits="userSpaceOnUse">
<stop stop-color="#C32853"/>
<stop offset="1" stop-color="#EE7E49"/>
</linearGradient>
<linearGradient id="paint1_linear_5315_48791" x1="9.25342" y1="16.6313" x2="15.7466" y2="16.6313" gradientUnits="userSpaceOnUse">
<stop stop-color="#C32853"/>
<stop offset="1" stop-color="#EE7E49"/>
</linearGradient>
<linearGradient id="paint2_linear_5315_48791" x1="34.9927" y1="16.6708" x2="41.5444" y2="16.6708" gradientUnits="userSpaceOnUse">
<stop stop-color="#C32853"/>
<stop offset="1" stop-color="#EE7E49"/>
</linearGradient>
<linearGradient id="paint3_linear_5315_48791" x1="14.7549" y1="29.5546" x2="35.8313" y2="29.5546" gradientUnits="userSpaceOnUse">
<stop stop-color="#C32853"/>
<stop offset="1" stop-color="#EE7E49"/>
</linearGradient>
<linearGradient id="paint4_linear_5315_48791" x1="39.2646" y1="29.5372" x2="56.4329" y2="29.5372" gradientUnits="userSpaceOnUse">
<stop stop-color="#C32853"/>
<stop offset="1" stop-color="#EE7E49"/>
</linearGradient>
<linearGradient id="paint5_linear_5315_48791" x1="3" y1="29.5372" x2="11.6194" y2="29.5372" gradientUnits="userSpaceOnUse">
<stop stop-color="#C32853"/>
<stop offset="1" stop-color="#EE7E49"/>
</linearGradient>
<linearGradient id="paint6_linear_5315_48791" x1="9.29883" y1="42.3921" x2="15.7105" y2="42.3921" gradientUnits="userSpaceOnUse">
<stop stop-color="#C32853"/>
<stop offset="1" stop-color="#EE7E49"/>
</linearGradient>
<linearGradient id="paint7_linear_5315_48791" x1="34.9702" y1="42.3939" x2="41.4564" y2="42.3939" gradientUnits="userSpaceOnUse">
<stop stop-color="#C32853"/>
<stop offset="1" stop-color="#EE7E49"/>
</linearGradient>
<linearGradient id="paint8_linear_5315_48791" x1="24.3853" y1="47.8342" x2="26.4513" y2="47.8342" gradientUnits="userSpaceOnUse">
<stop stop-color="#C32853"/>
<stop offset="1" stop-color="#EE7E49"/>
</linearGradient>
</defs>
</svg>
