<svg width="60" height="51" viewBox="0 0 60 51" fill="none" xmlns="http://www.w3.org/2000/svg">
<path d="M54.3802 35.296C51.5902 32.7674 48.9546 30.3788 48.6259 25.7211C48.1201 18.5565 44.5966 6.53687 26.6853 6.53687C21.2459 6.53687 17.5811 7.61564 15.4823 9.83525C13.1557 12.2965 13.3373 15.509 13.4693 17.8554C13.5208 18.7691 13.5789 19.805 13.4106 20.2203C13.0178 21.1894 11.5845 22.591 10.198 23.9458C7.71764 26.3701 4.90715 29.1185 4.90715 32.1396C4.90715 34.7639 6.61246 36.4831 7.98305 37.8642C9.30411 39.1958 9.86462 39.8613 9.68372 40.641C9.63553 40.8503 9.3939 40.9513 8.05963 41.1362C5.67101 41.4663 1.67348 42.0195 0.0421119 48.5457C-0.145386 49.2963 0.310814 50.0562 1.06081 50.2437C1.81014 50.4319 2.57069 49.975 2.75885 49.225C3.93137 44.5349 6.22492 44.2167 8.4432 43.9097C9.9082 43.707 11.9146 43.4297 12.413 41.2715C12.9583 38.9047 11.3719 37.3044 9.97092 35.8928C8.80698 34.719 7.70708 33.6112 7.70708 32.1396C7.70708 30.2963 10.07 27.9856 12.1549 25.9482C13.8199 24.3208 15.3925 22.7832 16.0052 21.2713C16.4092 20.2744 16.3419 19.0807 16.2646 17.6983C16.1498 15.6569 16.0197 13.3436 17.5177 11.7591C19.0368 10.1521 22.1213 9.3368 26.6853 9.3368C41.5425 9.3368 45.2984 18.3539 45.8325 25.9178C46.2406 31.6972 49.566 34.7111 52.4993 37.3704C55.7851 40.3492 58.3797 42.7015 56.648 48.4836C56.4262 49.2243 56.8467 50.0047 57.5875 50.2272C57.7215 50.2675 57.8568 50.2866 57.9902 50.2866C58.5923 50.2866 59.1489 49.8945 59.3311 49.2877C61.5692 41.8136 57.7499 38.3514 54.3802 35.296Z" fill="white"/>
<path d="M47.3146 47.4865C45.8179 47.439 44.3807 47.3769 43.0497 47.2634C42.6239 46.2909 42.0125 44.2053 43.3409 42.0959C46.6135 36.9001 45.3228 34.7175 43.1421 32.2008C42.8622 31.8766 42.5684 31.5393 42.2812 31.1696C42.027 30.8428 41.8699 30.5444 41.7821 30.2539C41.7742 30.2209 41.7649 30.1878 41.755 30.1555C41.5992 29.5336 41.7544 28.9394 41.9531 28.1742C42.5328 25.948 42.7321 23.7627 38.8693 21.5062C32.8093 17.9681 32.5828 13.9515 32.5762 13.8003C32.5657 13.0338 31.9418 12.4185 31.1759 12.4185C21.2867 12.4185 17.1109 19.0192 16.5405 24.6712C16.3656 26.4055 16.5042 28.2303 16.9485 30.0254C15.9166 31.0421 14.173 33.2314 14.1572 36.4585C14.1479 38.2397 15.1482 39.7998 16.1154 41.3096C17.7342 43.8369 18.5225 45.3085 16.6983 47.2369C15.2927 47.3657 13.7663 47.435 12.168 47.4859C11.3949 47.5103 10.7882 48.1573 10.8133 48.9297C10.837 49.6876 11.4589 50.2851 12.2122 50.2851C12.2274 50.2851 12.2426 50.2851 12.2571 50.2844C18.0735 50.0983 25.3127 49.8665 26.942 44.5255C26.9823 44.3928 27.0028 44.2555 27.0028 44.1168V41.4225C27.9046 41.7691 28.852 42.0649 29.87 42.2729C30.1077 42.3211 30.356 42.3072 30.5857 42.2313C30.6907 42.197 31.4281 41.9474 32.4778 41.4489V44.1168C32.4778 44.2555 32.4983 44.3928 32.5386 44.5255C34.1686 49.8665 41.4071 50.0983 47.2242 50.2844C47.2393 50.2851 47.2545 50.2851 47.2691 50.2851C48.0217 50.2851 48.6436 49.6876 48.668 48.9297C48.6944 48.1579 48.0877 47.5109 47.3146 47.4865ZM24.2035 43.8904C23.678 45.3217 22.2585 46.1582 20.2812 46.6665C21.1534 43.996 19.6052 41.5645 18.4736 39.7984C17.6913 38.5784 16.9532 37.4263 16.9578 36.4717C16.9644 35.0298 17.4813 33.887 18.0313 33.0729C19.3041 35.8049 21.364 38.2786 24.2029 40.0368V43.8904H24.2035ZM30.0496 39.4479C22.3101 37.6713 18.7463 30.7074 19.3279 24.9531C19.7788 20.4828 22.8362 15.7221 30.008 15.256C30.5203 17.2115 32.1656 20.8341 37.4578 23.9245C39.8094 25.2977 39.6325 25.979 39.2443 27.4691C39.0192 28.3347 38.7419 29.4002 38.9822 30.6084C37.7106 36.1515 31.5608 38.8596 30.0496 39.4479ZM35.2791 43.8904V39.8572C37.3006 38.5051 39.4952 36.5317 40.8149 33.7899C40.8862 33.8718 40.9562 33.953 41.0262 34.0342C42.6496 35.9079 43.3904 36.7628 40.9714 40.6032C39.5084 42.9258 39.577 45.1956 39.9758 46.8448C37.5951 46.3615 35.8713 45.5026 35.2791 43.8904Z" fill="white"/>
<path d="M27.6212 26.8706C27.4258 26.5372 26.9974 26.4256 26.6633 26.6184C25.1059 27.5294 23.4844 26.656 23.4085 26.6131C23.0718 26.4243 22.6466 26.5424 22.4565 26.8785C22.2657 27.2145 22.3838 27.6423 22.7205 27.8325C22.7833 27.8681 23.7967 28.43 25.1296 28.43C25.8195 28.43 26.5953 28.2794 27.369 27.8285C27.7024 27.6331 27.8153 27.2046 27.6212 26.8706Z" fill="white"/>
<path d="M37.548 26.8708C37.3526 26.5374 36.9241 26.4258 36.59 26.6186C35.0326 27.5297 33.4112 26.6562 33.3352 26.6133C32.9979 26.4245 32.5734 26.5427 32.3832 26.8787C32.1924 27.2148 32.3106 27.6426 32.6473 27.8327C32.71 27.8684 33.7234 28.4302 35.0564 28.4302C35.7463 28.4302 36.522 28.2797 37.2958 27.8288C37.6292 27.6333 37.7421 27.2049 37.548 26.8708Z" fill="white"/>
<path d="M32.132 33.4082H28.3253C27.9384 33.4082 27.6255 33.7211 27.6255 34.108C27.6255 34.4949 27.9384 34.8078 28.3253 34.8078H32.132C32.5189 34.8078 32.8319 34.4949 32.8319 34.108C32.8319 33.7211 32.5189 33.4082 32.132 33.4082Z" fill="white"/>
<path d="M53.677 24.1306C53.677 25.6913 52.6094 26.9563 51.293 26.9563C52.6094 26.9563 53.677 28.2212 53.677 29.782C53.677 28.2212 54.7445 26.9563 56.061 26.9563C54.7445 26.9563 53.677 25.6913 53.677 24.1306Z" fill="white"/>
<path d="M30.8908 0.285645C30.8908 1.84637 29.8233 3.11132 28.5068 3.11132C29.8233 3.11132 30.8908 4.37627 30.8908 5.93699C30.8908 4.37627 31.9584 3.11132 33.2748 3.11132C31.9577 3.11132 30.8908 1.84637 30.8908 0.285645Z" fill="white"/>
<path d="M9.23628 15.7483C9.3406 17.3057 8.36019 18.6393 7.04639 18.7271C8.36019 18.6393 9.50961 19.8303 9.61392 21.3871C9.50961 19.8303 10.49 18.4967 11.8038 18.4082C10.49 18.4967 9.3406 17.3057 9.23628 15.7483Z" fill="white"/>
<path d="M47.779 14.3607C48.2712 14.3607 48.6702 13.9616 48.6702 13.4694C48.6702 12.9772 48.2712 12.5781 47.779 12.5781C47.2867 12.5781 46.8877 12.9772 46.8877 13.4694C46.8877 13.9616 47.2867 14.3607 47.779 14.3607Z" fill="white"/>
<path d="M20.5807 5.93685C21.073 5.93685 21.472 5.53781 21.472 5.04558C21.472 4.55334 21.073 4.1543 20.5807 4.1543C20.0885 4.1543 19.6895 4.55334 19.6895 5.04558C19.6895 5.53781 20.0885 5.93685 20.5807 5.93685Z" fill="white"/>
<path d="M5.25472 38.8688C5.25472 39.3613 4.85595 39.7601 4.36344 39.7601C3.87093 39.7601 3.47217 39.3613 3.47217 38.8688C3.47217 38.3763 3.87093 37.9775 4.36344 37.9775C4.85595 37.9775 5.25472 38.3763 5.25472 38.8688Z" fill="white"/>
</svg>
