<svg width="54" height="45" viewBox="0 0 54 45" fill="none" xmlns="http://www.w3.org/2000/svg">
<path d="M32.4739 44.5408C32.5443 44.2943 32.5795 42.4278 32.5443 40.3852C32.4386 36.7227 32.4386 36.7227 31.5582 36.7227C30.6778 36.7227 30.6778 36.7579 30.5721 40.3852C30.4665 44.0478 30.713 44.9987 31.8047 44.9987C32.0513 44.9987 32.3682 44.7874 32.4739 44.5408Z" fill="url(#paint0_linear_0_4)"/>
<path d="M47.5114 38.4124C48.1453 37.8137 47.5466 36.8629 45.1166 34.4329C42.9332 32.2494 42.3697 31.8621 41.8767 32.179C40.785 32.8833 40.9963 33.3764 43.5671 36.0177C45.8914 38.4476 46.9127 39.0463 47.5114 38.4124Z" fill="url(#paint1_linear_0_4)"/>
<path d="M19.5491 36.0486C22.0847 33.513 22.613 32.2804 21.3451 32.0339C20.5704 31.893 15.2174 37.4221 15.4639 38.0912C15.8865 39.1829 16.9782 38.6195 19.5491 36.0486Z" fill="url(#paint2_linear_0_4)"/>
<path d="M35.9951 32.2112C41.2424 29.7108 43.6372 23.4774 41.4185 18.2652C40.3268 15.7296 37.4038 13.1236 34.7977 12.384C29.6208 10.8697 24.5848 13.0883 21.9787 17.9835C21.3096 19.1809 21.1687 20.0261 21.1687 22.4561C21.1687 25.0269 21.3096 25.696 22.1196 27.2456C23.1057 29.1473 25.1483 31.1899 27.05 32.176C27.7895 32.5986 29.2687 32.8451 31.2056 32.9155C33.8117 33.0564 34.4456 32.9507 35.9951 32.2112ZM27.1204 29.6756C26.0639 29.0064 25.0074 27.9499 24.3383 26.8934C23.3874 25.3439 23.2818 24.8508 23.2818 22.4561C23.2818 20.0613 23.3874 19.5683 24.3383 18.0187C27.2965 13.2292 34.2695 12.5953 37.932 16.7509C41.0664 20.3078 40.8198 25.7313 37.3686 28.7599C35.326 30.5208 34.199 30.9434 31.3465 30.8377C29.2687 30.7321 28.5643 30.556 27.1204 29.6756Z" fill="url(#paint3_linear_0_4)"/>
<path d="M6.90612 27.6711C6.90612 27.4245 6.09613 26.4032 5.07484 25.382L3.24355 23.5155H10.1461C15.8512 23.5155 17.1191 23.4098 17.4712 22.9872C17.8234 22.5646 17.8234 22.3533 17.4712 21.9307C16.8373 21.1559 3.66616 21.1559 3.03225 21.9307C2.82095 22.2124 2.75051 22.635 2.89138 22.8815C3.10268 23.2689 3.03225 23.2689 2.64486 22.8815C2.25748 22.5294 2.57443 22.0363 4.54658 20.0642C6.94134 17.6342 7.39916 16.8242 6.30743 16.8242C5.53266 16.8242 0.567059 21.7194 0.567059 22.4589C0.567059 23.1985 5.53266 28.0937 6.30743 28.0937C6.62438 28.0937 6.90612 27.9176 6.90612 27.6711Z" fill="url(#paint4_linear_0_4)"/>
<path d="M53.9208 23.1632C54.0264 22.9519 54.0264 22.4941 53.9208 22.1067C53.7095 21.4728 53.3925 21.4023 49.906 21.4023C46.9478 21.4023 45.9969 21.508 45.6448 21.9306C45.2926 22.3532 45.2926 22.5645 45.6448 22.9871C45.9969 23.4097 46.9478 23.5154 49.906 23.5154C52.0895 23.5154 53.7799 23.3745 53.9208 23.1632Z" fill="url(#paint5_linear_0_4)"/>
<path d="M45.2226 10.3791C47.8991 7.66744 48.3569 6.54049 46.8426 6.32919C46.2791 6.25876 45.4339 6.92788 43.673 8.90003C41.1726 11.647 40.7148 12.7035 41.9474 12.8796C42.4404 12.95 43.4617 12.14 45.2226 10.3791Z" fill="url(#paint6_linear_0_4)"/>
<path d="M21.803 12.6999C22.4017 12.1012 21.8735 11.1855 19.5139 8.826C16.9431 6.21994 15.9922 5.76212 15.5696 6.85385C15.3935 7.27645 16.0979 8.19209 18.07 10.1995C20.6761 12.8407 21.2748 13.2281 21.803 12.6999Z" fill="url(#paint7_linear_0_4)"/>
<path d="M32.3682 8.1591C32.5091 8.01823 32.6147 6.18695 32.6147 4.07393C32.6147 0.974831 32.5091 0.200057 32.0865 0.0591886C31.8048 -0.0816794 31.3117 0.0239716 31.03 0.270491C30.5722 0.657878 30.5017 1.46787 30.5722 4.46131C30.6778 7.91258 30.7482 8.19432 31.3822 8.29997C31.8048 8.3704 32.2274 8.29997 32.3682 8.1591Z" fill="url(#paint8_linear_0_4)"/>
<defs>
<linearGradient id="paint0_linear_0_4" x1="32.5581" y1="40.8607" x2="30.5498" y2="40.8607" gradientUnits="userSpaceOnUse">
<stop stop-color="#C32853"/>
<stop offset="1" stop-color="#EE7E49"/>
</linearGradient>
<linearGradient id="paint1_linear_0_4" x1="47.7466" y1="35.3648" x2="41.2534" y2="35.3648" gradientUnits="userSpaceOnUse">
<stop stop-color="#C32853"/>
<stop offset="1" stop-color="#EE7E49"/>
</linearGradient>
<linearGradient id="paint2_linear_0_4" x1="22.0073" y1="35.3253" x2="15.4556" y2="35.3253" gradientUnits="userSpaceOnUse">
<stop stop-color="#C32853"/>
<stop offset="1" stop-color="#EE7E49"/>
</linearGradient>
<linearGradient id="paint3_linear_0_4" x1="42.2451" y1="22.4415" x2="21.1687" y2="22.4415" gradientUnits="userSpaceOnUse">
<stop stop-color="#C32853"/>
<stop offset="1" stop-color="#EE7E49"/>
</linearGradient>
<linearGradient id="paint4_linear_0_4" x1="17.7354" y1="22.4589" x2="0.567059" y2="22.4589" gradientUnits="userSpaceOnUse">
<stop stop-color="#C32853"/>
<stop offset="1" stop-color="#EE7E49"/>
</linearGradient>
<linearGradient id="paint5_linear_0_4" x1="54" y1="22.4589" x2="45.3806" y2="22.4589" gradientUnits="userSpaceOnUse">
<stop stop-color="#C32853"/>
<stop offset="1" stop-color="#EE7E49"/>
</linearGradient>
<linearGradient id="paint6_linear_0_4" x1="47.7012" y1="9.604" x2="41.2895" y2="9.604" gradientUnits="userSpaceOnUse">
<stop stop-color="#C32853"/>
<stop offset="1" stop-color="#EE7E49"/>
</linearGradient>
<linearGradient id="paint7_linear_0_4" x1="22.0298" y1="9.60218" x2="15.5436" y2="9.60218" gradientUnits="userSpaceOnUse">
<stop stop-color="#C32853"/>
<stop offset="1" stop-color="#EE7E49"/>
</linearGradient>
<linearGradient id="paint8_linear_0_4" x1="32.6147" y1="4.16185" x2="30.5487" y2="4.16185" gradientUnits="userSpaceOnUse">
<stop stop-color="#C32853"/>
<stop offset="1" stop-color="#EE7E49"/>
</linearGradient>
</defs>
</svg>
