<svg width="512" height="512" viewBox="0 0 512 512" fill="none" xmlns="http://www.w3.org/2000/svg">
<circle cx="256" cy="256" r="254.574" stroke="url(#paint0_linear_5478_32198)" stroke-width="2.85237"/>
<path fill-rule="evenodd" clip-rule="evenodd" d="M49.2106 136.788C82.2467 79.5698 135.348 41.1569 194.495 25.3078C253.641 9.46001 318.835 16.1745 376.053 49.2106C433.272 82.2453 471.685 135.348 487.534 194.495C503.382 253.641 496.667 318.835 463.631 376.053C430.596 433.272 377.494 471.685 318.347 487.534C259.2 503.382 194.007 496.667 136.788 463.631C79.5698 430.596 41.1569 377.494 25.3078 318.347C9.46001 259.201 16.1745 194.007 49.2106 136.788ZM195.139 27.7137C136.609 43.3975 84.0594 81.4095 51.3684 138.033C18.676 194.657 12.03 259.172 27.7137 317.703C43.3975 376.233 81.4096 428.782 138.033 461.473C194.657 494.164 259.172 500.81 317.703 485.128C376.233 469.444 428.782 431.432 461.473 374.808C494.166 318.185 500.81 253.67 485.128 195.139C469.444 136.609 431.432 84.0594 374.808 51.3684C318.185 18.676 253.668 12.03 195.139 27.7137Z" fill="url(#paint1_linear_5478_32198)"/>
<path fill-rule="evenodd" clip-rule="evenodd" d="M152.047 196.158C168.687 167.336 195.435 147.987 225.228 140.005C255.019 132.022 287.859 135.404 316.68 152.044C345.502 168.684 364.851 195.433 372.833 225.225C380.817 255.016 377.434 287.856 360.794 316.677C344.154 345.499 317.406 364.848 287.613 372.83C257.822 380.814 224.982 377.431 196.161 360.791C167.339 344.15 147.99 317.402 140.007 287.61C132.025 257.819 135.407 224.979 152.047 196.158ZM225.872 142.411C196.695 150.227 170.501 169.177 154.204 197.403C137.907 225.63 134.595 257.79 142.412 286.966C150.229 316.141 169.179 342.337 197.404 358.634C225.631 374.931 257.792 378.243 286.967 370.426C316.144 362.609 342.339 343.659 358.636 315.434C374.933 287.207 378.244 255.046 370.427 225.871C362.611 196.694 343.661 170.499 315.434 154.202C287.21 137.905 255.049 134.594 225.872 142.411Z" fill="url(#paint2_linear_5478_32198)"/>
<path d="M27.4482 191.203L26.805 193.605L140.866 226.747L141.51 224.344L27.4482 191.203Z" fill="url(#paint3_linear_5478_32198)"/>
<path fill-rule="evenodd" clip-rule="evenodd" d="M25.4414 315.286L140.855 286.104L141.504 288.501L26.0903 317.684L25.4414 315.286Z" fill="url(#paint4_linear_5478_32198)"/>
<path d="M171.181 339.87L89.2219 425.737L90.9812 427.496L172.94 341.629L171.181 339.87Z" fill="url(#paint5_linear_5478_32198)"/>
<path d="M224.35 371.335L192.242 485.258L194.644 485.901L226.753 371.978L224.35 371.335Z" fill="url(#paint6_linear_5478_32198)"/>
<path fill-rule="evenodd" clip-rule="evenodd" d="M329.016 483.505L286.103 371.789L288.5 371.336L331.414 483.051L329.016 483.505Z" fill="url(#paint7_linear_5478_32198)"/>
<path d="M341.653 339.866L339.895 341.625L424.791 426.473L426.549 424.714L341.653 339.866Z" fill="url(#paint8_linear_5478_32198)"/>
<path d="M371.99 286.093L371.347 288.497L487.292 319.536L487.935 317.132L371.99 286.093Z" fill="url(#paint9_linear_5478_32198)"/>
<path fill-rule="evenodd" clip-rule="evenodd" d="M483.501 183.826L371.786 226.74L371.332 224.343L483.048 181.429L483.501 183.826Z" fill="url(#paint10_linear_5478_32198)"/>
<path d="M423.727 87.2716L339.887 171.159L341.646 172.917L425.486 89.0298L423.727 87.2716Z" fill="url(#paint11_linear_5478_32198)"/>
<path d="M316.769 26.2921L286.099 140.859L288.503 141.503L319.173 26.9357L316.769 26.2921Z" fill="url(#paint12_linear_5478_32198)"/>
<path fill-rule="evenodd" clip-rule="evenodd" d="M222.99 141.508L188.559 28.3653L190.881 27.9123L225.312 141.054L222.99 141.508Z" fill="url(#paint13_linear_5478_32198)"/>
<path d="M88.4599 87.732L86.7017 89.4912L170.168 171.916L171.926 170.157L88.4599 87.732Z" fill="url(#paint14_linear_5478_32198)"/>
<path fill-rule="evenodd" clip-rule="evenodd" d="M158.96 200.151C174.498 173.239 199.473 155.172 227.292 147.717C255.111 140.264 285.774 143.422 312.686 158.96C339.599 174.498 357.665 199.473 365.12 227.293C372.573 255.112 369.416 285.775 353.877 312.687C338.339 339.599 313.364 357.666 285.545 365.12C257.726 372.574 227.063 369.416 200.151 353.878C173.238 338.34 155.172 313.364 147.717 285.545C140.264 257.727 143.423 227.063 158.96 200.151ZM227.894 149.965C200.651 157.264 176.191 174.959 160.973 201.315C145.756 227.671 142.663 257.702 149.963 284.945C157.264 312.188 174.957 336.648 201.313 351.864C227.669 367.081 257.699 370.175 284.943 362.874C312.186 355.575 336.646 337.88 351.862 311.524C367.08 285.169 370.173 255.139 362.872 227.894C355.573 200.651 337.879 176.191 311.523 160.974C285.168 145.758 255.137 142.664 227.894 149.965Z" fill="url(#paint15_linear_5478_32198)"/>
<path fill-rule="evenodd" clip-rule="evenodd" d="M288.69 140.261L286.291 149.301L283.888 148.668L286.285 139.629L288.69 140.261Z" fill="url(#paint16_linear_5478_32198)"/>
<path fill-rule="evenodd" clip-rule="evenodd" d="M273.256 137.057L272.058 146.331L269.592 146.018L270.79 136.743L273.256 137.057Z" fill="url(#paint17_linear_5478_32198)"/>
<path fill-rule="evenodd" clip-rule="evenodd" d="M257.528 135.893L257.551 145.245L255.065 145.255L255.042 135.904L257.528 135.893Z" fill="url(#paint18_linear_5478_32198)"/>
<path fill-rule="evenodd" clip-rule="evenodd" d="M241.788 136.787L243.032 146.056L240.569 146.391L239.325 137.122L241.788 136.787Z" fill="url(#paint19_linear_5478_32198)"/>
<path fill-rule="evenodd" clip-rule="evenodd" d="M226.3 139.733L228.743 148.763L226.346 149.416L223.903 140.388L226.3 139.733Z" fill="url(#paint20_linear_5478_32198)"/>
<path fill-rule="evenodd" clip-rule="evenodd" d="M211.328 144.678L214.928 153.309L212.636 154.27L209.036 145.639L211.328 144.678Z" fill="url(#paint21_linear_5478_32198)"/>
<path fill-rule="evenodd" clip-rule="evenodd" d="M197.129 151.531L201.825 159.618L199.679 160.87L194.982 152.782L197.129 151.531Z" fill="url(#paint22_linear_5478_32198)"/>
<path fill-rule="evenodd" clip-rule="evenodd" d="M183.945 160.182L189.657 167.588L187.692 169.108L181.98 161.703L183.945 160.182Z" fill="url(#paint23_linear_5478_32198)"/>
<path fill-rule="evenodd" clip-rule="evenodd" d="M172.007 170.48L178.636 177.077L176.886 178.842L170.257 172.246L172.007 170.48Z" fill="url(#paint24_linear_5478_32198)"/>
<path fill-rule="evenodd" clip-rule="evenodd" d="M161.511 182.241L168.946 187.916L167.441 189.896L160.006 184.221L161.511 182.241Z" fill="url(#paint25_linear_5478_32198)"/>
<path fill-rule="evenodd" clip-rule="evenodd" d="M152.641 195.285L160.752 199.94L159.518 202.098L151.408 197.443L152.641 195.285Z" fill="url(#paint26_linear_5478_32198)"/>
<path fill-rule="evenodd" clip-rule="evenodd" d="M145.55 209.364L154.2 212.921L153.258 215.222L144.61 211.665L145.55 209.364Z" fill="url(#paint27_linear_5478_32198)"/>
<path fill-rule="evenodd" clip-rule="evenodd" d="M140.357 224.25L149.397 226.649L148.764 229.052L139.725 226.655L140.357 224.25Z" fill="url(#paint28_linear_5478_32198)"/>
<path fill-rule="evenodd" clip-rule="evenodd" d="M137.153 239.688L146.428 240.884L146.114 243.35L136.839 242.152L137.153 239.688Z" fill="url(#paint29_linear_5478_32198)"/>
<path fill-rule="evenodd" clip-rule="evenodd" d="M135.989 255.409L145.342 255.386L145.352 257.872L136.001 257.894L135.989 255.409Z" fill="url(#paint30_linear_5478_32198)"/>
<path fill-rule="evenodd" clip-rule="evenodd" d="M136.892 271.149L146.16 269.905L146.496 272.368L137.227 273.612L136.892 271.149Z" fill="url(#paint31_linear_5478_32198)"/>
<path fill-rule="evenodd" clip-rule="evenodd" d="M139.837 286.636L148.865 284.194L149.518 286.592L140.49 289.035L139.837 286.636Z" fill="url(#paint32_linear_5478_32198)"/>
<path fill-rule="evenodd" clip-rule="evenodd" d="M144.778 301.612L153.409 298.013L154.37 300.305L145.739 303.906L144.778 301.612Z" fill="url(#paint33_linear_5478_32198)"/>
<path fill-rule="evenodd" clip-rule="evenodd" d="M151.631 315.813L159.719 311.116L160.971 313.263L152.884 317.959L151.631 315.813Z" fill="url(#paint34_linear_5478_32198)"/>
<path fill-rule="evenodd" clip-rule="evenodd" d="M160.282 328.991L167.687 323.279L169.209 325.245L161.804 330.956L160.282 328.991Z" fill="url(#paint35_linear_5478_32198)"/>
<path fill-rule="evenodd" clip-rule="evenodd" d="M170.577 340.931L177.175 334.302L178.939 336.052L172.343 342.681L170.577 340.931Z" fill="url(#paint36_linear_5478_32198)"/>
<path fill-rule="evenodd" clip-rule="evenodd" d="M182.345 351.424L188.019 343.989L189.998 345.494L184.323 352.929L182.345 351.424Z" fill="url(#paint37_linear_5478_32198)"/>
<path fill-rule="evenodd" clip-rule="evenodd" d="M195.381 360.295L200.036 352.185L202.194 353.418L197.539 361.529L195.381 360.295Z" fill="url(#paint38_linear_5478_32198)"/>
<path fill-rule="evenodd" clip-rule="evenodd" d="M209.461 367.39L213.018 358.74L215.318 359.682L211.761 368.331L209.461 367.39Z" fill="url(#paint39_linear_5478_32198)"/>
<path fill-rule="evenodd" clip-rule="evenodd" d="M224.347 372.582L226.746 363.543L229.149 364.175L226.751 373.215L224.347 372.582Z" fill="url(#paint40_linear_5478_32198)"/>
<path fill-rule="evenodd" clip-rule="evenodd" d="M239.784 375.785L240.982 366.511L243.448 366.825L242.25 376.099L239.784 375.785Z" fill="url(#paint41_linear_5478_32198)"/>
<path fill-rule="evenodd" clip-rule="evenodd" d="M255.509 376.948L255.486 367.595L257.972 367.585L257.995 376.936L255.509 376.948Z" fill="url(#paint42_linear_5478_32198)"/>
<path fill-rule="evenodd" clip-rule="evenodd" d="M271.249 376.047L270.005 366.779L272.468 366.443L273.712 375.712L271.249 376.047Z" fill="url(#paint43_linear_5478_32198)"/>
<path fill-rule="evenodd" clip-rule="evenodd" d="M286.738 373.106L284.294 364.078L286.692 363.424L289.135 372.452L286.738 373.106Z" fill="url(#paint44_linear_5478_32198)"/>
<path fill-rule="evenodd" clip-rule="evenodd" d="M301.713 368.161L298.113 359.53L300.405 358.568L304.005 367.2L301.713 368.161Z" fill="url(#paint45_linear_5478_32198)"/>
<path fill-rule="evenodd" clip-rule="evenodd" d="M315.909 361.309L311.212 353.221L313.359 351.969L318.055 360.057L315.909 361.309Z" fill="url(#paint46_linear_5478_32198)"/>
<path fill-rule="evenodd" clip-rule="evenodd" d="M329.091 352.654L323.379 345.249L325.345 343.728L331.057 351.132L329.091 352.654Z" fill="url(#paint47_linear_5478_32198)"/>
<path fill-rule="evenodd" clip-rule="evenodd" d="M341.031 342.358L334.402 335.762L336.152 333.996L342.781 340.592L341.031 342.358Z" fill="url(#paint48_linear_5478_32198)"/>
<path fill-rule="evenodd" clip-rule="evenodd" d="M351.527 330.596L344.093 324.921L345.597 322.943L353.032 328.617L351.527 330.596Z" fill="url(#paint49_linear_5478_32198)"/>
<path fill-rule="evenodd" clip-rule="evenodd" d="M360.392 317.556L352.281 312.901L353.515 310.743L361.626 315.398L360.392 317.556Z" fill="url(#paint50_linear_5478_32198)"/>
<path fill-rule="evenodd" clip-rule="evenodd" d="M367.486 303.475L358.836 299.919L359.778 297.618L368.426 301.175L367.486 303.475Z" fill="url(#paint51_linear_5478_32198)"/>
<path fill-rule="evenodd" clip-rule="evenodd" d="M372.682 288.593L363.643 286.194L364.275 283.791L373.314 286.188L372.682 288.593Z" fill="url(#paint52_linear_5478_32198)"/>
<path fill-rule="evenodd" clip-rule="evenodd" d="M375.886 273.151L366.611 271.953L366.925 269.487L376.2 270.685L375.886 273.151Z" fill="url(#paint53_linear_5478_32198)"/>
<path fill-rule="evenodd" clip-rule="evenodd" d="M377.048 257.431L367.695 257.454L367.685 254.968L377.037 254.945L377.048 257.431Z" fill="url(#paint54_linear_5478_32198)"/>
<path fill-rule="evenodd" clip-rule="evenodd" d="M376.148 241.688L366.879 242.931L366.544 240.468L375.813 239.225L376.148 241.688Z" fill="url(#paint55_linear_5478_32198)"/>
<path fill-rule="evenodd" clip-rule="evenodd" d="M373.202 226.202L364.175 228.645L363.52 226.246L372.548 223.803L373.202 226.202Z" fill="url(#paint56_linear_5478_32198)"/>
<path fill-rule="evenodd" clip-rule="evenodd" d="M368.261 211.231L359.63 214.831L358.669 212.539L367.3 208.939L368.261 211.231Z" fill="url(#paint57_linear_5478_32198)"/>
<path fill-rule="evenodd" clip-rule="evenodd" d="M361.405 197.028L353.317 201.725L352.065 199.578L360.153 194.882L361.405 197.028Z" fill="url(#paint58_linear_5478_32198)"/>
<path fill-rule="evenodd" clip-rule="evenodd" d="M352.755 183.849L345.35 189.561L343.828 187.596L351.233 181.884L352.755 183.849Z" fill="url(#paint59_linear_5478_32198)"/>
<path fill-rule="evenodd" clip-rule="evenodd" d="M342.461 171.91L335.865 178.539L334.1 176.79L340.696 170.16L342.461 171.91Z" fill="url(#paint60_linear_5478_32198)"/>
<path fill-rule="evenodd" clip-rule="evenodd" d="M330.694 161.411L325.02 168.846L323.04 167.341L328.715 159.906L330.694 161.411Z" fill="url(#paint61_linear_5478_32198)"/>
<path fill-rule="evenodd" clip-rule="evenodd" d="M317.658 152.541L313.001 160.652L310.843 159.418L315.5 151.308L317.658 152.541Z" fill="url(#paint62_linear_5478_32198)"/>
<path fill-rule="evenodd" clip-rule="evenodd" d="M303.579 145.454L300.022 154.103L297.722 153.162L301.279 144.514L303.579 145.454Z" fill="url(#paint63_linear_5478_32198)"/>
<path fill-rule="evenodd" clip-rule="evenodd" d="M102.757 156.048L106.921 149.004C104.944 136.368 85.8577 131.006 84.8223 145.874C84.4957 150.515 87.0044 155.225 90.8137 159.615C85.1304 158.388 79.7936 158.463 75.8816 160.981C63.3483 169.048 77.2407 183.193 89.2663 178.843L93.4322 171.799C93.4322 171.799 88.3963 171.633 87.7089 171.562C86.6692 171.449 79.4085 170.129 83.3476 168.255C88.6816 165.709 99.3779 170.738 104.106 172.917C108.863 175.106 114.946 178.342 114.946 178.342L115.187 177.936L118.604 172.161L118.847 171.753C118.847 171.753 113.081 167.982 108.872 164.863C104.688 161.767 95.1322 154.812 94.7885 148.917C94.5389 144.554 99.1911 150.283 99.7901 151.146C100.185 151.711 102.757 156.048 102.757 156.048Z" fill="url(#paint64_linear_5478_32198)"/>
<path fill-rule="evenodd" clip-rule="evenodd" d="M69.6897 256.047C61.9099 256.494 55.0585 259.535 50.6402 264.09L50.3906 272.66C54.8104 268.106 61.6461 265.611 69.4231 265.283L69.2234 272.187L76.9832 272.414L77.1786 265.669C84.2996 266.696 90.3837 269.58 94.2173 274.131L94.464 265.559C90.6318 261.014 84.5663 257.658 77.4453 256.463L77.6093 250.81C84.7831 250.031 91.0369 247.035 95.1272 242.718L95.3782 234.145C91.285 238.465 85.0469 240.993 77.876 241.602L78.0885 234.3L70.3287 234.073L70.1105 241.54C62.3634 240.764 55.6875 237.874 51.5401 233.072L51.2891 241.641C55.4393 246.441 62.0996 249.878 69.8438 250.776L69.6897 256.047Z" fill="url(#paint65_linear_5478_32198)"/>
<path fill-rule="evenodd" clip-rule="evenodd" d="M87.8363 325.338L79.0667 329.95L76.2686 347.799L84.9169 347.324L82.0617 359.127L90.7472 358.745L88.2029 370.412L97.7583 370.936L109.226 364.752L97.948 362.808L100.451 350.665L91.7084 351.25L93.919 339.303L85.1836 339.326L87.8363 325.338Z" fill="url(#paint66_linear_5478_32198)"/>
<path fill-rule="evenodd" clip-rule="evenodd" d="M107.682 314.896L98.9182 319.51L96.1172 337.357L104.761 336.885L101.909 348.686L110.596 348.301L108.049 359.972L117.608 360.492L129.076 354.312L117.797 352.368L120.298 340.227L111.556 340.809L113.766 328.863L105.032 328.882L107.682 314.896Z" fill="url(#paint67_linear_5478_32198)"/>
<path fill-rule="evenodd" clip-rule="evenodd" d="M163.678 420.224C162.186 419.866 164.601 412.583 165.811 409.126L159.983 406.666C155.984 415.49 155.496 416.319 153.145 418.127C152.067 418.954 150.173 418.347 150.173 418.347C149.69 419.503 147.686 424.24 147.686 424.24C150.896 425.589 154.1 424.204 156.577 422.243L156.588 422.802C156.654 424.546 157.087 428.08 160.296 429.43C170.418 433.682 175.679 403.142 183.562 409.158C184.071 409.544 184.195 411.778 182.381 411.016C179.293 409.206 185.516 390.984 174.306 387.959C173.23 387.668 172.499 387.691 172.499 387.691L170.583 394.298C172.631 394.875 174.692 397.557 174.628 398.697C174.343 403.504 172.402 414.798 180.072 418.02C182.998 419.251 187.528 417.819 189.622 412.839C193.039 404.704 180.597 393.427 169.902 409.556C167.624 412.996 164.672 420.965 163.678 420.224Z" fill="url(#paint68_linear_5478_32198)"/>
<path fill-rule="evenodd" clip-rule="evenodd" d="M271.921 448.641L271.227 437.467L285.186 436.144L284.684 428.114L270.723 429.422C270.191 420.978 270.04 418.642 270.01 418.262L262.004 419.014L262.694 430.174L244.865 431.847C251.32 419.144 249.86 421.989 250.084 421.541L242.958 418.05L233.407 436.821L245.203 453.525L251.835 448.727L245.625 439.879L263.195 438.225L263.889 449.396L271.921 448.641Z" fill="url(#paint69_linear_5478_32198)"/>
<path fill-rule="evenodd" clip-rule="evenodd" d="M348.998 426.064C349.3 426.729 349.533 427.457 349.521 428.213C349.47 428.711 349.171 428.871 348.855 428.844C348.459 428.804 347.831 428.429 347.349 427.377C344.145 420.222 340.438 412.619 337.091 405.571L330.084 408.77L339.89 430.226C340.769 432.147 340.726 434.162 338.257 435.301L337.5 435.652C339.883 436.72 341.793 436.772 344.312 435.625C345.932 434.884 347.155 433.544 347.706 431.973L347.946 432.048L348.225 432.13C350.263 432.604 352.106 432.06 353.416 431.462C355.038 430.719 356.257 429.391 356.808 427.817L357.04 427.891L357.317 427.974C359.358 428.446 361.2 427.905 362.514 427.306C365.482 425.948 367.096 422.61 365.737 419.482C364.981 417.745 363.932 415.459 362.771 412.97C364.342 414.597 366.803 416.444 369.191 415.35C371.158 414.449 375.057 412.551 369.562 400.528C365.58 391.807 358.769 388.899 354.523 387.895C354.854 387.553 355.249 387.295 355.681 387.096C357.852 386.108 360.433 387.068 360.433 387.068L359.308 384.605C359.308 384.605 357.465 382.53 352.046 385.003C350.431 385.741 349.231 386.609 348.369 387.558C344.543 388.018 340.237 389.273 340.237 389.273L341.455 391.934C341.455 391.934 343.573 391.093 346.602 391.01C345.976 394.012 347.104 397.388 348.308 400.444L348.614 401.17L358.094 421.907C358.397 422.577 358.628 423.3 358.622 424.053C358.569 424.534 358.285 424.698 358.003 424.688C357.641 424.676 357.059 424.378 356.572 423.47C353.67 416.895 349.195 407.709 346.201 401.408L339.193 404.608L348.998 426.064ZM359.543 406.149L359.459 405.973L359.114 405.25C357.611 402.106 356.219 399.208 355.289 397.252C354.405 395.31 353.883 393.72 353.645 392.416C356.936 393.931 360.292 396.924 362.852 402.523C370.124 418.435 361.444 409.984 359.543 406.149Z" fill="url(#paint70_linear_5478_32198)"/>
<path fill-rule="evenodd" clip-rule="evenodd" d="M395.124 359.253L417.468 320.221L410.123 316.016L387.776 355.047L395.124 359.253ZM414.073 339.884L411.278 338.283L420.594 322.008L427.94 326.214L424.601 332.047C426.918 332.203 429.218 332.872 431.346 334.088C439.231 338.604 441.764 349.003 437.006 357.317C432.246 365.631 421.994 368.712 414.109 364.195C411.984 362.978 410.244 361.334 408.933 359.413L405.595 365.246L398.25 361.042L407.456 344.96L410.268 346.532L414.861 349.162C414.843 351.904 416.248 354.567 418.777 356.012C422.525 358.158 427.32 356.826 429.49 353.038C431.658 349.246 430.382 344.437 426.635 342.287C424.074 340.823 421.026 340.978 418.596 342.471L414.073 339.884Z" fill="url(#paint71_linear_5478_32198)"/>
<path fill-rule="evenodd" clip-rule="evenodd" d="M416.694 237.438C416.611 238.769 416.678 239.947 416.874 240.992C417.284 242.437 417.801 243.726 419.796 245.376C419.984 245.535 420.181 245.684 420.385 245.823L420.522 245.918C422.865 247.483 426.051 248.008 429.036 248.36L429.829 248.431L452.876 249.879C453.618 249.926 454.375 250.067 455.048 250.432C455.452 250.709 455.46 251.043 455.315 251.286C455.134 251.61 454.588 251.987 453.546 251.985C446.286 251.436 435.946 251.043 428.889 250.703L428.4 258.49L452.24 259.988C452.983 260.035 453.74 260.173 454.412 260.54C454.83 260.826 454.831 261.173 454.652 261.438C454.429 261.779 453.793 262.155 452.625 262.083C444.704 261.525 436.147 261.2 428.252 260.822L427.764 268.609L451.604 270.105C453.739 270.238 455.52 271.234 455.356 273.991L455.306 274.828C457.399 273.214 458.36 271.537 458.535 268.737C458.649 266.935 458.039 265.202 456.895 263.962L457.079 263.783L457.285 263.573C458.681 261.98 459.077 260.076 459.171 258.618C459.284 256.82 458.677 255.091 457.54 253.852L457.714 253.681L457.918 253.474C459.314 251.873 459.712 249.974 459.803 248.515C460.011 245.215 457.802 242.177 454.359 241.898C453.478 241.827 452.46 241.754 451.347 241.681C445.086 241.29 427.577 240.47 426.339 240.184L425.792 240.051C425.535 239.98 425.295 239.91 425.063 239.837C421.355 238.622 420.58 237.156 420.796 234.596C420.971 233.456 421.462 232.465 421.959 231.698L424.83 233.535L425.048 226.241L417.115 228.656C417.199 228.681 418.27 229.352 419.585 230.185C418.659 230.801 416.999 232.576 416.694 237.438Z" fill="url(#paint72_linear_5478_32198)"/>
<path fill-rule="evenodd" clip-rule="evenodd" d="M413.063 173.886C412.756 172.754 413.425 171.59 414.552 171.281C415.683 170.974 416.849 171.639 417.157 172.771C417.465 173.899 416.798 175.067 415.67 175.375C414.539 175.683 413.374 175.016 413.063 173.886ZM417.791 183.212C423.174 181.746 426.363 176.219 424.957 170.834C425.787 170.722 426.63 170.543 427.497 170.281C444.45 165.141 433.675 139.555 418.375 148.034C412.708 151.176 407.645 155.34 403.028 159.168C398.711 162.749 398.126 159.171 399.627 158.415L397.396 150.878C384.839 154.599 393.771 177.062 408.047 165.221C412.728 161.336 417.41 157.897 422.186 154.907C427.647 151.491 433.603 164.539 419.562 163.073C417.55 162.868 415.146 162.86 412.943 163.471L412.445 163.593C407.029 165.07 403.834 170.66 405.31 176.08C406.785 181.495 412.375 184.688 417.791 183.212Z" fill="url(#paint73_linear_5478_32198)"/>
<path fill-rule="evenodd" clip-rule="evenodd" d="M372.293 93.6181C371.535 85.8925 364.736 77.4124 354.947 72.7117C348.436 69.5855 341.864 68.3119 334.722 69.5812L330.547 78.1754C340.381 76.1417 350.601 77.8773 357.653 85.312C355.24 86.2776 353.158 88.1173 351.942 90.6531C349.365 96.017 351.625 102.453 356.989 105.029C362.354 107.605 368.789 105.344 371.368 99.9818C372.353 97.9252 372.63 95.7118 372.293 93.6181ZM360.773 97.2164C359.669 96.6859 359.205 95.3623 359.733 94.2585C360.265 93.1532 361.588 92.6868 362.692 93.2188C363.793 93.7451 364.261 95.0728 363.729 96.1767C363.2 97.2806 361.876 97.7441 360.773 97.2164ZM335.516 90.3237C336.62 90.8513 337.084 92.1748 336.555 93.2787C336.027 94.3811 334.7 94.8475 333.599 94.3184C332.496 93.7879 332.029 92.4615 332.558 91.3605C333.089 90.2566 334.414 89.7917 335.516 90.3237ZM323.997 93.9176C323.66 91.8254 323.937 89.6106 324.923 87.5583C327.497 82.1915 333.938 79.9325 339.3 82.5067C344.664 85.0824 346.924 91.5202 344.35 96.8855C343.132 99.4184 341.054 101.26 338.634 102.225C345.689 109.658 355.906 111.396 365.741 109.362L361.566 117.955C354.423 119.225 347.857 117.95 341.345 114.824C331.556 110.125 324.756 101.643 323.997 93.9176Z" fill="url(#paint74_linear_5478_32198)"/>
<path fill-rule="evenodd" clip-rule="evenodd" d="M274.722 83.5879C272.529 82.7864 270.321 82.0804 268.048 81.5314L269.541 58.8565C271.867 58.6083 274.148 58.2004 276.429 57.6927L276.988 49.1712C270.191 50.6801 264.173 51.1109 257.182 50.6516C249.75 50.161 243.5 48.8489 236.625 46.1035L236.061 54.6521C238.463 55.6119 240.85 56.4163 243.362 57.0452L241.857 79.897C239.284 80.1922 236.813 80.6785 234.308 81.3146L233.747 89.8631C240.923 88.0447 247.287 87.5598 254.721 88.049C261.714 88.5111 267.626 89.7248 274.163 92.1136L274.722 83.5879ZM255.275 79.6345C254.355 79.5761 252.495 79.4691 251.598 79.4391L252.959 58.7723C253.853 58.8593 255.71 58.9962 256.628 59.0575C257.377 59.1046 259.067 59.2087 259.802 59.2358L258.444 79.8727C257.711 79.8085 256.022 79.6859 255.275 79.6345Z" fill="url(#paint75_linear_5478_32198)"/>
<path fill-rule="evenodd" clip-rule="evenodd" d="M169.267 70.6836C169.267 70.6836 166.015 71.6548 163.017 77.2683C159.897 83.1171 162.574 91.2221 158.876 93.8862C155.056 96.3791 148.459 90.9596 141.881 91.764C135.563 92.5342 133.487 95.2239 133.487 95.2239L138.149 102.02C138.149 102.02 141.038 99.7492 143.571 99.8804C145.408 99.9745 150.128 101.733 153.612 102.355C152.04 106.688 152.445 111.559 155.151 115.503C159.739 122.197 169.211 123.675 176.309 118.809C183.405 113.941 185.437 104.571 180.849 97.8809C178.065 93.8206 173.49 91.6799 168.729 91.707C169.348 88.2499 169.425 83.465 169.98 81.7693C170.77 79.3619 173.931 77.4822 173.931 77.4822L169.267 70.6836ZM173.834 102.667C176.016 105.85 175.161 110.227 171.925 112.444C168.688 114.666 164.297 113.884 162.116 110.702C159.935 107.519 160.79 103.144 164.026 100.924C167.26 98.7053 171.652 99.4868 173.834 102.667Z" fill="url(#paint76_linear_5478_32198)"/>
<path fill-rule="evenodd" clip-rule="evenodd" d="M201.897 319.984C201.606 319.984 201.332 319.919 201.086 319.804C198.992 319.628 197.107 318.702 195.705 317.299C194.137 315.732 193.173 313.573 193.173 311.184C193.173 308.794 194.143 306.635 195.705 305.068C197.272 303.501 199.431 302.536 201.82 302.536C216.983 302.766 232.343 302.536 247.527 302.536V265.628H201.897C201.607 265.628 201.333 265.563 201.092 265.448C198.998 265.272 197.113 264.346 195.711 262.943C194.176 261.409 193.217 259.299 193.179 256.965C192.867 238.854 193.453 220.589 193.179 202.467C193.179 200.077 194.149 197.918 195.711 196.351C197.278 194.784 199.437 193.819 201.826 193.819C204.215 193.819 206.374 194.789 207.942 196.351C209.344 197.754 210.271 199.639 210.446 201.732C210.561 201.979 210.627 202.253 210.627 202.543V248.174H247.534C247.534 232.989 247.764 217.63 247.534 202.466C247.534 200.077 248.504 197.918 250.066 196.35C251.633 194.783 253.792 193.819 256.181 193.819C274.303 194.093 292.562 193.512 310.678 193.819C312.953 193.857 315.013 194.772 316.536 196.241L316.657 196.351C318.224 197.918 319.189 200.077 319.189 202.466C319.189 204.855 318.219 207.014 316.657 208.582L316.651 208.576L316.646 208.582C315.281 209.941 313.473 210.85 311.457 211.07C311.199 211.196 310.914 211.267 310.613 211.267H264.983V248.175C280.15 248.175 295.538 247.917 310.679 248.175C313.013 248.213 315.117 249.172 316.657 250.706C318.06 252.109 318.986 253.994 319.161 256.087C319.277 256.334 319.342 256.608 319.342 256.893V311.248C319.342 311.549 319.271 311.84 319.145 312.092C318.931 314.114 318.022 315.928 316.657 317.292C315.09 318.86 312.931 319.824 310.542 319.824C308.152 319.824 305.993 318.854 304.426 317.292C302.892 315.758 301.933 313.648 301.895 311.314C301.631 296.178 301.895 280.779 301.895 265.617H264.987V311.248C264.987 311.549 264.916 311.84 264.79 312.092C264.576 314.114 263.667 315.928 262.302 317.287C260.938 318.651 259.124 319.555 257.107 319.774C256.85 319.901 256.565 319.972 256.264 319.972L201.897 319.984ZM235.192 273.816C233.624 272.249 231.465 271.285 229.076 271.285C226.687 271.285 224.522 272.255 222.961 273.816C221.393 275.384 220.429 277.543 220.429 279.932C220.429 282.321 221.399 284.48 222.961 286.048L223.081 286.157C224.637 287.659 226.753 288.585 229.081 288.585C231.471 288.585 233.63 287.615 235.197 286.053C236.764 284.486 237.729 282.327 237.729 279.938C237.729 277.548 236.759 275.389 235.197 273.822L235.192 273.816ZM289.546 227.605C287.978 226.038 285.82 225.073 283.43 225.073C281.041 225.073 278.882 226.043 277.315 227.605C275.747 229.172 274.783 231.331 274.783 233.721C274.783 236.11 275.753 238.274 277.315 239.836C278.882 241.403 281.041 242.368 283.43 242.368C285.82 242.368 287.978 241.398 289.546 239.836L289.655 239.716C291.157 238.159 292.083 236.044 292.083 233.715C292.083 231.326 291.113 229.167 289.551 227.6L289.546 227.605ZM235.192 227.605C233.624 226.038 231.465 225.073 229.076 225.073C226.687 225.073 224.522 226.043 222.961 227.605C221.393 229.172 220.429 231.331 220.429 233.721C220.429 236.11 221.399 238.263 222.961 239.831L222.966 239.836C224.533 241.403 226.692 242.368 229.076 242.368C231.46 242.368 233.624 241.398 235.192 239.836L235.301 239.716C236.803 238.159 237.729 236.044 237.729 233.715C237.729 231.326 236.759 229.167 235.197 227.6L235.192 227.605ZM289.546 273.816C287.978 272.249 285.82 271.285 283.43 271.285C281.041 271.285 278.882 272.255 277.315 273.816C275.747 275.384 274.783 277.543 274.783 279.932C274.783 282.321 275.753 284.48 277.315 286.048C278.882 287.615 281.041 288.579 283.43 288.579C285.82 288.579 287.978 287.609 289.546 286.048C291.113 284.48 292.077 282.321 292.077 279.932C292.077 277.543 291.108 275.384 289.546 273.816Z" fill="url(#paint77_linear_5478_32198)"/>
<defs>
<linearGradient id="paint0_linear_5478_32198" x1="0" y1="256" x2="512" y2="256" gradientUnits="userSpaceOnUse">
<stop stop-color="#C32853"/>
<stop offset="1" stop-color="#EE7E49"/>
</linearGradient>
<linearGradient id="paint1_linear_5478_32198" x1="17.1152" y1="256.421" x2="495.726" y2="256.421" gradientUnits="userSpaceOnUse">
<stop stop-color="#C32853"/>
<stop offset="1" stop-color="#EE7E49"/>
</linearGradient>
<linearGradient id="paint2_linear_5478_32198" x1="135.881" y1="256.418" x2="376.961" y2="256.418" gradientUnits="userSpaceOnUse">
<stop stop-color="#C32853"/>
<stop offset="1" stop-color="#EE7E49"/>
</linearGradient>
<linearGradient id="paint3_linear_5478_32198" x1="83.5101" y1="211.392" x2="84.8046" y2="206.557" gradientUnits="userSpaceOnUse">
<stop stop-color="#C32853"/>
<stop offset="1" stop-color="#EE7E49"/>
</linearGradient>
<linearGradient id="paint4_linear_5478_32198" x1="25.4414" y1="301.894" x2="141.504" y2="301.894" gradientUnits="userSpaceOnUse">
<stop stop-color="#C32853"/>
<stop offset="1" stop-color="#EE7E49"/>
</linearGradient>
<linearGradient id="paint5_linear_5478_32198" x1="89.1361" y1="425.652" x2="173.026" y2="341.714" gradientUnits="userSpaceOnUse">
<stop stop-color="#C32853"/>
<stop offset="1" stop-color="#EE7E49"/>
</linearGradient>
<linearGradient id="paint6_linear_5478_32198" x1="194.195" y1="485.781" x2="224.8" y2="371.455" gradientUnits="userSpaceOnUse">
<stop stop-color="#C32853"/>
<stop offset="1" stop-color="#EE7E49"/>
</linearGradient>
<linearGradient id="paint7_linear_5478_32198" x1="286.103" y1="427.421" x2="331.414" y2="427.421" gradientUnits="userSpaceOnUse">
<stop stop-color="#C32853"/>
<stop offset="1" stop-color="#EE7E49"/>
</linearGradient>
<linearGradient id="paint8_linear_5478_32198" x1="382.343" y1="384.049" x2="384.101" y2="382.29" gradientUnits="userSpaceOnUse">
<stop stop-color="#C32853"/>
<stop offset="1" stop-color="#EE7E49"/>
</linearGradient>
<linearGradient id="paint9_linear_5478_32198" x1="429.319" y1="304.016" x2="429.963" y2="301.612" gradientUnits="userSpaceOnUse">
<stop stop-color="#C32853"/>
<stop offset="1" stop-color="#EE7E49"/>
</linearGradient>
<linearGradient id="paint10_linear_5478_32198" x1="371.332" y1="204.084" x2="483.501" y2="204.084" gradientUnits="userSpaceOnUse">
<stop stop-color="#C32853"/>
<stop offset="1" stop-color="#EE7E49"/>
</linearGradient>
<linearGradient id="paint11_linear_5478_32198" x1="340.766" y1="172.038" x2="424.607" y2="88.1507" gradientUnits="userSpaceOnUse">
<stop stop-color="#C32853"/>
<stop offset="1" stop-color="#EE7E49"/>
</linearGradient>
<linearGradient id="paint12_linear_5478_32198" x1="287.301" y1="141.181" x2="317.971" y2="26.6139" gradientUnits="userSpaceOnUse">
<stop stop-color="#C32853"/>
<stop offset="1" stop-color="#EE7E49"/>
</linearGradient>
<linearGradient id="paint13_linear_5478_32198" x1="225.312" y1="84.71" x2="188.559" y2="84.71" gradientUnits="userSpaceOnUse">
<stop stop-color="#C32853"/>
<stop offset="1" stop-color="#EE7E49"/>
</linearGradient>
<linearGradient id="paint14_linear_5478_32198" x1="128.186" y1="130.952" x2="130.442" y2="128.695" gradientUnits="userSpaceOnUse">
<stop stop-color="#C32853"/>
<stop offset="1" stop-color="#EE7E49"/>
</linearGradient>
<linearGradient id="paint15_linear_5478_32198" x1="143.864" y1="256.419" x2="368.973" y2="256.419" gradientUnits="userSpaceOnUse">
<stop stop-color="#C32853"/>
<stop offset="1" stop-color="#EE7E49"/>
</linearGradient>
<linearGradient id="paint16_linear_5478_32198" x1="283.888" y1="144.465" x2="288.69" y2="144.465" gradientUnits="userSpaceOnUse">
<stop stop-color="#C32853"/>
<stop offset="1" stop-color="#EE7E49"/>
</linearGradient>
<linearGradient id="paint17_linear_5478_32198" x1="269.592" y1="141.537" x2="273.256" y2="141.537" gradientUnits="userSpaceOnUse">
<stop stop-color="#C32853"/>
<stop offset="1" stop-color="#EE7E49"/>
</linearGradient>
<linearGradient id="paint18_linear_5478_32198" x1="255.042" y1="140.574" x2="257.551" y2="140.574" gradientUnits="userSpaceOnUse">
<stop stop-color="#C32853"/>
<stop offset="1" stop-color="#EE7E49"/>
</linearGradient>
<linearGradient id="paint19_linear_5478_32198" x1="239.325" y1="141.589" x2="243.032" y2="141.589" gradientUnits="userSpaceOnUse">
<stop stop-color="#C32853"/>
<stop offset="1" stop-color="#EE7E49"/>
</linearGradient>
<linearGradient id="paint20_linear_5478_32198" x1="223.903" y1="144.575" x2="228.743" y2="144.575" gradientUnits="userSpaceOnUse">
<stop stop-color="#C32853"/>
<stop offset="1" stop-color="#EE7E49"/>
</linearGradient>
<linearGradient id="paint21_linear_5478_32198" x1="209.036" y1="149.474" x2="214.928" y2="149.474" gradientUnits="userSpaceOnUse">
<stop stop-color="#C32853"/>
<stop offset="1" stop-color="#EE7E49"/>
</linearGradient>
<linearGradient id="paint22_linear_5478_32198" x1="194.982" y1="156.201" x2="201.825" y2="156.201" gradientUnits="userSpaceOnUse">
<stop stop-color="#C32853"/>
<stop offset="1" stop-color="#EE7E49"/>
</linearGradient>
<linearGradient id="paint23_linear_5478_32198" x1="181.98" y1="164.645" x2="189.657" y2="164.645" gradientUnits="userSpaceOnUse">
<stop stop-color="#C32853"/>
<stop offset="1" stop-color="#EE7E49"/>
</linearGradient>
<linearGradient id="paint24_linear_5478_32198" x1="170.257" y1="174.661" x2="178.636" y2="174.661" gradientUnits="userSpaceOnUse">
<stop stop-color="#C32853"/>
<stop offset="1" stop-color="#EE7E49"/>
</linearGradient>
<linearGradient id="paint25_linear_5478_32198" x1="160.006" y1="186.068" x2="168.946" y2="186.068" gradientUnits="userSpaceOnUse">
<stop stop-color="#C32853"/>
<stop offset="1" stop-color="#EE7E49"/>
</linearGradient>
<linearGradient id="paint26_linear_5478_32198" x1="151.408" y1="198.692" x2="160.752" y2="198.692" gradientUnits="userSpaceOnUse">
<stop stop-color="#C32853"/>
<stop offset="1" stop-color="#EE7E49"/>
</linearGradient>
<linearGradient id="paint27_linear_5478_32198" x1="144.61" y1="212.293" x2="154.2" y2="212.293" gradientUnits="userSpaceOnUse">
<stop stop-color="#C32853"/>
<stop offset="1" stop-color="#EE7E49"/>
</linearGradient>
<linearGradient id="paint28_linear_5478_32198" x1="139.725" y1="226.651" x2="149.397" y2="226.651" gradientUnits="userSpaceOnUse">
<stop stop-color="#C32853"/>
<stop offset="1" stop-color="#EE7E49"/>
</linearGradient>
<linearGradient id="paint29_linear_5478_32198" x1="136.839" y1="241.519" x2="146.428" y2="241.519" gradientUnits="userSpaceOnUse">
<stop stop-color="#C32853"/>
<stop offset="1" stop-color="#EE7E49"/>
</linearGradient>
<linearGradient id="paint30_linear_5478_32198" x1="135.989" y1="256.64" x2="145.352" y2="256.64" gradientUnits="userSpaceOnUse">
<stop stop-color="#C32853"/>
<stop offset="1" stop-color="#EE7E49"/>
</linearGradient>
<linearGradient id="paint31_linear_5478_32198" x1="136.892" y1="271.759" x2="146.496" y2="271.759" gradientUnits="userSpaceOnUse">
<stop stop-color="#C32853"/>
<stop offset="1" stop-color="#EE7E49"/>
</linearGradient>
<linearGradient id="paint32_linear_5478_32198" x1="139.837" y1="286.615" x2="149.518" y2="286.615" gradientUnits="userSpaceOnUse">
<stop stop-color="#C32853"/>
<stop offset="1" stop-color="#EE7E49"/>
</linearGradient>
<linearGradient id="paint33_linear_5478_32198" x1="144.778" y1="300.959" x2="154.37" y2="300.959" gradientUnits="userSpaceOnUse">
<stop stop-color="#C32853"/>
<stop offset="1" stop-color="#EE7E49"/>
</linearGradient>
<linearGradient id="paint34_linear_5478_32198" x1="151.631" y1="314.538" x2="160.971" y2="314.538" gradientUnits="userSpaceOnUse">
<stop stop-color="#C32853"/>
<stop offset="1" stop-color="#EE7E49"/>
</linearGradient>
<linearGradient id="paint35_linear_5478_32198" x1="160.282" y1="327.118" x2="169.209" y2="327.118" gradientUnits="userSpaceOnUse">
<stop stop-color="#C32853"/>
<stop offset="1" stop-color="#EE7E49"/>
</linearGradient>
<linearGradient id="paint36_linear_5478_32198" x1="170.577" y1="338.491" x2="178.939" y2="338.491" gradientUnits="userSpaceOnUse">
<stop stop-color="#C32853"/>
<stop offset="1" stop-color="#EE7E49"/>
</linearGradient>
<linearGradient id="paint37_linear_5478_32198" x1="182.345" y1="348.459" x2="189.998" y2="348.459" gradientUnits="userSpaceOnUse">
<stop stop-color="#C32853"/>
<stop offset="1" stop-color="#EE7E49"/>
</linearGradient>
<linearGradient id="paint38_linear_5478_32198" x1="195.381" y1="356.857" x2="202.194" y2="356.857" gradientUnits="userSpaceOnUse">
<stop stop-color="#C32853"/>
<stop offset="1" stop-color="#EE7E49"/>
</linearGradient>
<linearGradient id="paint39_linear_5478_32198" x1="209.461" y1="363.536" x2="215.318" y2="363.536" gradientUnits="userSpaceOnUse">
<stop stop-color="#C32853"/>
<stop offset="1" stop-color="#EE7E49"/>
</linearGradient>
<linearGradient id="paint40_linear_5478_32198" x1="224.347" y1="368.379" x2="229.149" y2="368.379" gradientUnits="userSpaceOnUse">
<stop stop-color="#C32853"/>
<stop offset="1" stop-color="#EE7E49"/>
</linearGradient>
<linearGradient id="paint41_linear_5478_32198" x1="239.784" y1="371.305" x2="243.448" y2="371.305" gradientUnits="userSpaceOnUse">
<stop stop-color="#C32853"/>
<stop offset="1" stop-color="#EE7E49"/>
</linearGradient>
<linearGradient id="paint42_linear_5478_32198" x1="255.486" y1="372.266" x2="257.995" y2="372.266" gradientUnits="userSpaceOnUse">
<stop stop-color="#C32853"/>
<stop offset="1" stop-color="#EE7E49"/>
</linearGradient>
<linearGradient id="paint43_linear_5478_32198" x1="270.005" y1="371.245" x2="273.712" y2="371.245" gradientUnits="userSpaceOnUse">
<stop stop-color="#C32853"/>
<stop offset="1" stop-color="#EE7E49"/>
</linearGradient>
<linearGradient id="paint44_linear_5478_32198" x1="284.294" y1="368.265" x2="289.135" y2="368.265" gradientUnits="userSpaceOnUse">
<stop stop-color="#C32853"/>
<stop offset="1" stop-color="#EE7E49"/>
</linearGradient>
<linearGradient id="paint45_linear_5478_32198" x1="298.113" y1="363.365" x2="304.005" y2="363.365" gradientUnits="userSpaceOnUse">
<stop stop-color="#C32853"/>
<stop offset="1" stop-color="#EE7E49"/>
</linearGradient>
<linearGradient id="paint46_linear_5478_32198" x1="311.212" y1="356.639" x2="318.055" y2="356.639" gradientUnits="userSpaceOnUse">
<stop stop-color="#C32853"/>
<stop offset="1" stop-color="#EE7E49"/>
</linearGradient>
<linearGradient id="paint47_linear_5478_32198" x1="323.379" y1="348.191" x2="331.057" y2="348.191" gradientUnits="userSpaceOnUse">
<stop stop-color="#C32853"/>
<stop offset="1" stop-color="#EE7E49"/>
</linearGradient>
<linearGradient id="paint48_linear_5478_32198" x1="334.402" y1="338.177" x2="342.781" y2="338.177" gradientUnits="userSpaceOnUse">
<stop stop-color="#C32853"/>
<stop offset="1" stop-color="#EE7E49"/>
</linearGradient>
<linearGradient id="paint49_linear_5478_32198" x1="344.093" y1="326.77" x2="353.032" y2="326.77" gradientUnits="userSpaceOnUse">
<stop stop-color="#C32853"/>
<stop offset="1" stop-color="#EE7E49"/>
</linearGradient>
<linearGradient id="paint50_linear_5478_32198" x1="352.281" y1="314.15" x2="361.626" y2="314.15" gradientUnits="userSpaceOnUse">
<stop stop-color="#C32853"/>
<stop offset="1" stop-color="#EE7E49"/>
</linearGradient>
<linearGradient id="paint51_linear_5478_32198" x1="358.836" y1="300.547" x2="368.426" y2="300.547" gradientUnits="userSpaceOnUse">
<stop stop-color="#C32853"/>
<stop offset="1" stop-color="#EE7E49"/>
</linearGradient>
<linearGradient id="paint52_linear_5478_32198" x1="363.643" y1="286.192" x2="373.314" y2="286.192" gradientUnits="userSpaceOnUse">
<stop stop-color="#C32853"/>
<stop offset="1" stop-color="#EE7E49"/>
</linearGradient>
<linearGradient id="paint53_linear_5478_32198" x1="366.611" y1="271.319" x2="376.2" y2="271.319" gradientUnits="userSpaceOnUse">
<stop stop-color="#C32853"/>
<stop offset="1" stop-color="#EE7E49"/>
</linearGradient>
<linearGradient id="paint54_linear_5478_32198" x1="367.685" y1="256.2" x2="377.048" y2="256.2" gradientUnits="userSpaceOnUse">
<stop stop-color="#C32853"/>
<stop offset="1" stop-color="#EE7E49"/>
</linearGradient>
<linearGradient id="paint55_linear_5478_32198" x1="366.544" y1="241.078" x2="376.148" y2="241.078" gradientUnits="userSpaceOnUse">
<stop stop-color="#C32853"/>
<stop offset="1" stop-color="#EE7E49"/>
</linearGradient>
<linearGradient id="paint56_linear_5478_32198" x1="363.52" y1="226.224" x2="373.202" y2="226.224" gradientUnits="userSpaceOnUse">
<stop stop-color="#C32853"/>
<stop offset="1" stop-color="#EE7E49"/>
</linearGradient>
<linearGradient id="paint57_linear_5478_32198" x1="358.669" y1="211.885" x2="368.261" y2="211.885" gradientUnits="userSpaceOnUse">
<stop stop-color="#C32853"/>
<stop offset="1" stop-color="#EE7E49"/>
</linearGradient>
<linearGradient id="paint58_linear_5478_32198" x1="352.065" y1="198.303" x2="361.405" y2="198.303" gradientUnits="userSpaceOnUse">
<stop stop-color="#C32853"/>
<stop offset="1" stop-color="#EE7E49"/>
</linearGradient>
<linearGradient id="paint59_linear_5478_32198" x1="343.828" y1="185.722" x2="352.755" y2="185.722" gradientUnits="userSpaceOnUse">
<stop stop-color="#C32853"/>
<stop offset="1" stop-color="#EE7E49"/>
</linearGradient>
<linearGradient id="paint60_linear_5478_32198" x1="334.1" y1="174.35" x2="342.461" y2="174.35" gradientUnits="userSpaceOnUse">
<stop stop-color="#C32853"/>
<stop offset="1" stop-color="#EE7E49"/>
</linearGradient>
<linearGradient id="paint61_linear_5478_32198" x1="323.04" y1="164.376" x2="330.694" y2="164.376" gradientUnits="userSpaceOnUse">
<stop stop-color="#C32853"/>
<stop offset="1" stop-color="#EE7E49"/>
</linearGradient>
<linearGradient id="paint62_linear_5478_32198" x1="310.843" y1="155.98" x2="317.658" y2="155.98" gradientUnits="userSpaceOnUse">
<stop stop-color="#C32853"/>
<stop offset="1" stop-color="#EE7E49"/>
</linearGradient>
<linearGradient id="paint63_linear_5478_32198" x1="297.722" y1="149.309" x2="303.579" y2="149.309" gradientUnits="userSpaceOnUse">
<stop stop-color="#C32853"/>
<stop offset="1" stop-color="#EE7E49"/>
</linearGradient>
<linearGradient id="paint64_linear_5478_32198" x1="70.9478" y1="158.27" x2="118.847" y2="158.27" gradientUnits="userSpaceOnUse">
<stop stop-color="#C32853"/>
<stop offset="1" stop-color="#EE7E49"/>
</linearGradient>
<linearGradient id="paint65_linear_5478_32198" x1="50.3906" y1="253.601" x2="95.3782" y2="253.601" gradientUnits="userSpaceOnUse">
<stop stop-color="#C32853"/>
<stop offset="1" stop-color="#EE7E49"/>
</linearGradient>
<linearGradient id="paint66_linear_5478_32198" x1="76.2686" y1="348.137" x2="109.226" y2="348.137" gradientUnits="userSpaceOnUse">
<stop stop-color="#C32853"/>
<stop offset="1" stop-color="#EE7E49"/>
</linearGradient>
<linearGradient id="paint67_linear_5478_32198" x1="96.1172" y1="337.694" x2="129.076" y2="337.694" gradientUnits="userSpaceOnUse">
<stop stop-color="#C32853"/>
<stop offset="1" stop-color="#EE7E49"/>
</linearGradient>
<linearGradient id="paint68_linear_5478_32198" x1="147.686" y1="408.764" x2="190.198" y2="408.764" gradientUnits="userSpaceOnUse">
<stop stop-color="#C32853"/>
<stop offset="1" stop-color="#EE7E49"/>
</linearGradient>
<linearGradient id="paint69_linear_5478_32198" x1="233.407" y1="435.787" x2="285.186" y2="435.787" gradientUnits="userSpaceOnUse">
<stop stop-color="#C32853"/>
<stop offset="1" stop-color="#EE7E49"/>
</linearGradient>
<linearGradient id="paint70_linear_5478_32198" x1="330.084" y1="410.13" x2="372.379" y2="410.13" gradientUnits="userSpaceOnUse">
<stop stop-color="#C32853"/>
<stop offset="1" stop-color="#EE7E49"/>
</linearGradient>
<linearGradient id="paint71_linear_5478_32198" x1="387.776" y1="341.146" x2="439.407" y2="341.146" gradientUnits="userSpaceOnUse">
<stop stop-color="#C32853"/>
<stop offset="1" stop-color="#EE7E49"/>
</linearGradient>
<linearGradient id="paint72_linear_5478_32198" x1="416.659" y1="250.535" x2="459.817" y2="250.535" gradientUnits="userSpaceOnUse">
<stop stop-color="#C32853"/>
<stop offset="1" stop-color="#EE7E49"/>
</linearGradient>
<linearGradient id="paint73_linear_5478_32198" x1="391.404" y1="164.949" x2="436.108" y2="164.949" gradientUnits="userSpaceOnUse">
<stop stop-color="#C32853"/>
<stop offset="1" stop-color="#EE7E49"/>
</linearGradient>
<linearGradient id="paint74_linear_5478_32198" x1="323.86" y1="93.7682" x2="372.43" y2="93.7682" gradientUnits="userSpaceOnUse">
<stop stop-color="#C32853"/>
<stop offset="1" stop-color="#EE7E49"/>
</linearGradient>
<linearGradient id="paint75_linear_5478_32198" x1="233.747" y1="69.1086" x2="276.988" y2="69.1086" gradientUnits="userSpaceOnUse">
<stop stop-color="#C32853"/>
<stop offset="1" stop-color="#EE7E49"/>
</linearGradient>
<linearGradient id="paint76_linear_5478_32198" x1="133.487" y1="96.1795" x2="183.303" y2="96.1795" gradientUnits="userSpaceOnUse">
<stop stop-color="#C32853"/>
<stop offset="1" stop-color="#EE7E49"/>
</linearGradient>
<linearGradient id="paint77_linear_5478_32198" x1="193.084" y1="256.855" x2="319.342" y2="256.855" gradientUnits="userSpaceOnUse">
<stop stop-color="#C32853"/>
<stop offset="1" stop-color="#EE7E49"/>
</linearGradient>
</defs>
</svg>
