<svg width="20" height="20" viewBox="0 0 20 20" fill="none" xmlns="http://www.w3.org/2000/svg">
<circle cx="10" cy="10" r="10" fill="url(#paint0_linear_5356_28490)"/>
<path d="M8.13184 5.73486C9.60686 5.73512 10.8115 6.93841 10.8115 8.41357C10.8114 9.29226 10.3816 10.072 9.72461 10.561C11.2411 11.1892 12.3125 12.6825 12.3125 14.4233L12.3047 14.5063C12.2939 14.5608 12.272 14.6124 12.2412 14.6587L12.1885 14.7241C12.1289 14.7839 12.0532 14.8238 11.9717 14.8403L11.8887 14.8491H4.37598C4.34807 14.8491 4.32021 14.8467 4.29297 14.8413L4.21289 14.8169C4.16124 14.7955 4.11475 14.7636 4.0752 14.7241C4.03564 14.6846 4.00384 14.6381 3.98242 14.5864C3.96101 14.5348 3.9502 14.4793 3.9502 14.4233L3.96289 14.0942C4.08807 12.496 5.11751 11.1494 6.53711 10.561C5.88113 10.0719 5.45324 9.29174 5.45312 8.41357C5.45312 6.93829 6.65656 5.73486 8.13184 5.73486ZM8.13184 11.0933C6.44001 11.0933 5.09997 12.3633 4.88477 13.9976H11.3779C11.1626 12.3636 9.82336 11.0935 8.13184 11.0933ZM8.13184 6.58643C7.11778 6.58643 6.30469 7.39952 6.30469 8.41357C6.30488 9.42753 7.11796 10.2417 8.13184 10.2417C9.14555 10.2414 9.95977 9.42731 9.95996 8.41357C9.95996 7.39974 9.14574 6.58668 8.13184 6.58643Z" fill="url(#paint1_linear_5356_28490)" stroke="url(#paint2_linear_5356_28490)" stroke-width="0.1"/>
<path d="M11.7585 6.91357C11.8271 6.92211 11.8928 6.94774 11.95 6.98779C12.0258 7.04101 12.0827 7.11739 12.1111 7.20557L12.197 7.49756C12.2721 7.79273 12.3141 8.09979 12.3142 8.41357L12.3083 8.6167C12.2855 9.02191 12.1954 9.41463 12.0535 9.78467L11.9783 9.96729C11.956 10.0186 11.9238 10.0652 11.8835 10.104C11.8634 10.1234 11.8415 10.1407 11.8181 10.1558L11.7439 10.1938C11.718 10.204 11.6911 10.2114 11.6638 10.2163L11.5798 10.2231C11.524 10.222 11.4689 10.2103 11.4177 10.188C11.3921 10.1768 11.3673 10.1629 11.3445 10.147L11.281 10.0923C11.2617 10.0721 11.2442 10.0503 11.2292 10.0269L11.1912 9.95166C11.171 9.89954 11.1616 9.84348 11.1628 9.7876L11.1726 9.70459C11.1787 9.67749 11.1877 9.65101 11.199 9.62549L11.3123 9.33154C11.4105 9.03349 11.4637 8.725 11.4636 8.41357L11.4529 8.17627C11.4321 7.94008 11.3811 7.70617 11.3044 7.47705L11.283 7.38037C11.2795 7.34735 11.2796 7.31391 11.2839 7.28076C11.2926 7.21473 11.3168 7.15124 11.3542 7.09619L11.4187 7.02197C11.4432 6.99952 11.4705 6.97961 11.4998 6.96338L11.5916 6.92627C11.6233 6.9174 11.656 6.91195 11.6892 6.91064L11.7585 6.91357Z" fill="url(#paint3_linear_5356_28490)" stroke="url(#paint4_linear_5356_28490)" stroke-width="0.1"/>
<path d="M13.1938 6.48291C13.2624 6.49163 13.3282 6.51697 13.3853 6.55713L13.438 6.60205C13.4871 6.65028 13.5243 6.70967 13.5454 6.77588L13.6069 6.97314C13.742 7.43589 13.8167 7.91951 13.8169 8.4126L13.8091 8.68701C13.7788 9.23437 13.6591 9.76724 13.4673 10.271L13.3657 10.521C13.3546 10.5465 13.3405 10.5705 13.3247 10.5933L13.271 10.6577C13.2509 10.6771 13.2289 10.6944 13.2056 10.7095L13.1313 10.7476C13.0793 10.7681 13.0232 10.7778 12.9673 10.7769C12.9393 10.7764 12.9115 10.773 12.8843 10.7671L12.8052 10.7417C12.7795 10.7305 12.7548 10.7166 12.7319 10.7007L12.6685 10.647C12.6491 10.6269 12.6317 10.6048 12.6167 10.5815L12.5786 10.5063C12.5583 10.4544 12.5483 10.399 12.5493 10.3433C12.5504 10.2873 12.562 10.2314 12.5845 10.1802C12.829 9.61931 12.9654 9.02076 12.9653 8.4126L12.9507 8.06396C12.921 7.71805 12.8481 7.37692 12.7378 7.04541L12.7163 6.94873C12.7129 6.91573 12.7139 6.88223 12.7183 6.84912L12.7427 6.75342C12.7545 6.72253 12.7698 6.69303 12.7886 6.66553L12.854 6.59033C12.8784 6.56824 12.9051 6.54872 12.9341 6.53271L13.0259 6.49561C13.0579 6.4867 13.0911 6.4812 13.1245 6.47998L13.1938 6.48291Z" fill="url(#paint5_linear_5356_28490)" stroke="url(#paint6_linear_5356_28490)" stroke-width="0.1"/>
<path d="M14.625 6.05371C14.6936 6.06235 14.7593 6.08782 14.8164 6.12793L14.8701 6.17285C14.9191 6.22107 14.9564 6.28052 14.9775 6.34668L15.0547 6.5957C15.2254 7.18055 15.3201 7.79039 15.3203 8.41211L15.3105 8.75879C15.2724 9.44924 15.1204 10.122 14.8779 10.7588L14.749 11.0742C14.7379 11.0998 14.7248 11.1246 14.709 11.1475L14.6543 11.2109C14.6342 11.2303 14.6123 11.2477 14.5889 11.2627L14.5146 11.3008C14.4887 11.311 14.4619 11.3183 14.4346 11.3232L14.3516 11.3301C14.3236 11.3296 14.2957 11.3262 14.2686 11.3203L14.1895 11.2949C14.1638 11.2837 14.1391 11.2698 14.1162 11.2539L14.0527 11.2002C14.0334 11.1801 14.016 11.1581 14.001 11.1348L13.9629 11.0605C13.9424 11.0085 13.9326 10.9524 13.9336 10.8965L13.9434 10.8145C13.9493 10.7871 13.9575 10.7601 13.9688 10.7344L14.082 10.4561C14.3311 9.8021 14.469 9.11246 14.4688 8.41211L14.4639 8.18262C14.4408 7.64896 14.3379 7.12282 14.1689 6.61523V6.61426C14.1476 6.55189 14.1407 6.48529 14.1494 6.41992L14.1738 6.32422C14.1856 6.29336 14.201 6.26381 14.2197 6.23633L14.2852 6.16113C14.3097 6.13885 14.337 6.11961 14.3662 6.10352L14.458 6.06641C14.4898 6.0576 14.5225 6.05202 14.5557 6.05078L14.625 6.05371Z" fill="url(#paint7_linear_5356_28490)" stroke="url(#paint8_linear_5356_28490)" stroke-width="0.1"/>
<defs>
<linearGradient id="paint0_linear_5356_28490" x1="20" y1="10" x2="0" y2="10" gradientUnits="userSpaceOnUse">
<stop stop-color="#FDF3EC"/>
<stop offset="1" stop-color="#F9E9EC"/>
</linearGradient>
<linearGradient id="paint1_linear_5356_28490" x1="4" y1="10.2918" x2="12.2627" y2="10.2918" gradientUnits="userSpaceOnUse">
<stop stop-color="#C32853"/>
<stop offset="1" stop-color="#EE7E49"/>
</linearGradient>
<linearGradient id="paint2_linear_5356_28490" x1="4" y1="10.2918" x2="12.2627" y2="10.2918" gradientUnits="userSpaceOnUse">
<stop stop-color="#C32853"/>
<stop offset="1" stop-color="#EE7E49"/>
</linearGradient>
<linearGradient id="paint3_linear_5356_28490" x1="11.2126" y1="8.56692" x2="12.2645" y2="8.56692" gradientUnits="userSpaceOnUse">
<stop stop-color="#C32853"/>
<stop offset="1" stop-color="#EE7E49"/>
</linearGradient>
<linearGradient id="paint4_linear_5356_28490" x1="11.2126" y1="8.56692" x2="12.2645" y2="8.56692" gradientUnits="userSpaceOnUse">
<stop stop-color="#C32853"/>
<stop offset="1" stop-color="#EE7E49"/>
</linearGradient>
<linearGradient id="paint5_linear_5356_28490" x1="12.5991" y1="8.6284" x2="13.767" y2="8.6284" gradientUnits="userSpaceOnUse">
<stop stop-color="#C32853"/>
<stop offset="1" stop-color="#EE7E49"/>
</linearGradient>
<linearGradient id="paint6_linear_5356_28490" x1="12.5991" y1="8.6284" x2="13.767" y2="8.6284" gradientUnits="userSpaceOnUse">
<stop stop-color="#C32853"/>
<stop offset="1" stop-color="#EE7E49"/>
</linearGradient>
<linearGradient id="paint7_linear_5356_28490" x1="13.9834" y1="8.69044" x2="15.2699" y2="8.69044" gradientUnits="userSpaceOnUse">
<stop stop-color="#C32853"/>
<stop offset="1" stop-color="#EE7E49"/>
</linearGradient>
<linearGradient id="paint8_linear_5356_28490" x1="13.9834" y1="8.69044" x2="15.2699" y2="8.69044" gradientUnits="userSpaceOnUse">
<stop stop-color="#C32853"/>
<stop offset="1" stop-color="#EE7E49"/>
</linearGradient>
</defs>
</svg>
