<svg width="23" height="22" viewBox="0 0 23 22" fill="none" xmlns="http://www.w3.org/2000/svg">
<path d="M6.24772 12.7493C9.16439 15.666 13.8311 15.666 16.7477 12.7493M18.2667 17.1732C18.2667 17.1732 18.3565 17.109 18.5 16.9993C20.6502 15.3368 22 12.9277 22 10.2455C22 5.24517 17.2983 1.1875 11.5 1.1875C5.70167 1.1875 1 5.24517 1 10.2455C1 15.2482 5.70167 19.1658 11.5 19.1658C11.9947 19.1658 12.8067 19.1332 13.936 19.0678C15.4083 20.0245 17.5573 20.8097 19.438 20.8097C20.0202 20.8097 20.2943 20.3313 19.921 19.8437C19.354 19.1483 18.5723 18.0342 18.269 17.172L18.2667 17.1732Z" stroke="white" stroke-width="2" stroke-linecap="round" stroke-linejoin="round"/>
</svg>
