<svg width="40" height="40" viewBox="0 0 40 40" fill="none" xmlns="http://www.w3.org/2000/svg">
<circle cx="20" cy="20" r="20" fill="#74419D"/>
<path d="M17.0191 12.5785C16.4353 12.581 15.9149 12.9534 15.7272 13.5058L13.0874 21.2064C12.4954 22.9316 15.0824 23.8254 15.6764 22.0997L16.9055 18.5063V33.1533C16.9055 35.2914 20.1129 35.2914 20.1129 33.1533V24.6436H20.8875V33.1533C20.8875 35.2914 24.0949 35.2914 24.0949 33.1533V18.5068L25.3229 22.1002C25.9174 23.8254 28.5065 22.9321 27.912 21.2069L25.2727 13.5063C25.0855 12.9539 24.5646 12.5815 23.9807 12.579H22.6116C21.5708 13.1679 20.2818 13.2846 19.0979 12.7743C18.9635 12.716 18.8336 12.65 18.7098 12.579L17.0191 12.5785Z" fill="white"/>
<path fill-rule="evenodd" clip-rule="evenodd" d="M23.5607 10.3989C22.8708 11.9972 21.0163 12.7317 19.4154 12.0424C17.819 11.355 17.0856 9.49797 17.7744 7.90468C18.4643 6.30378 20.3188 5.56927 21.9141 6.25914C23.5155 6.94799 24.25 8.80049 23.5607 10.3989Z" fill="white"/>
</svg>
