<svg width="23" height="23" viewBox="0 0 23 23" fill="none" xmlns="http://www.w3.org/2000/svg">
<path d="M6.24772 13.0738C9.16439 15.9905 13.8311 15.9905 16.7477 13.0738M18.2667 17.4976C18.2667 17.4976 18.3565 17.4335 18.5 17.3238C20.6502 15.6613 22 13.2521 22 10.57C22 5.56963 17.2983 1.51196 11.5 1.51196C5.70167 1.51196 1 5.56963 1 10.57C1 15.5726 5.70167 19.4903 11.5 19.4903C11.9947 19.4903 12.8067 19.4576 13.936 19.3923C15.4083 20.349 17.5573 21.1341 19.438 21.1341C20.0202 21.1341 20.2943 20.6558 19.921 20.1681C19.354 19.4728 18.5723 18.3586 18.269 17.4965L18.2667 17.4976Z" stroke="white" stroke-width="2" stroke-linecap="round" stroke-linejoin="round"/>
</svg>
