<svg width="48" height="41" viewBox="0 0 48 41" fill="none" xmlns="http://www.w3.org/2000/svg">
<path d="M21.8081 11.7963C21.9772 11.9226 22.1773 11.9845 22.3774 11.9845C22.5775 11.9845 22.7776 11.9202 22.9468 11.7939C23.4804 11.3961 28.1639 7.7989 28.2616 4.38968C28.2925 3.26285 27.8256 2.25994 26.906 1.48811C26.2628 0.949723 25.5767 0.675781 24.8597 0.675781C23.7948 0.675781 22.9467 1.27611 22.375 1.86213C21.8009 1.27848 20.9528 0.675781 19.8856 0.675781C19.1709 0.675781 18.4824 0.949741 17.8392 1.48811C16.922 2.25994 16.4527 3.26291 16.486 4.38968C16.5837 7.79865 21.2744 11.3957 21.8081 11.7963ZM19.0637 2.9461C19.3567 2.70073 19.6259 2.57923 19.8856 2.57923C20.6217 2.57923 21.3555 3.5464 21.5532 3.88231C21.7224 4.17771 22.0392 4.35876 22.3775 4.35876C22.7182 4.35876 23.0326 4.17533 23.2018 3.87993C23.359 3.60597 24.1047 2.57923 24.8599 2.57923C25.1195 2.57923 25.3863 2.69834 25.6794 2.94371C26.1558 3.34393 26.3702 3.78464 26.356 4.33016C26.3059 6.174 23.8355 8.59915 22.3776 9.81173C20.9149 8.59915 18.4422 6.17162 18.3897 4.32778C18.3754 3.78701 18.5896 3.34629 19.0637 2.9461Z" fill="white"/>
<path d="M9.25594 11.5588C12.1385 11.5588 14.485 9.2146 14.485 6.33212C14.485 3.44957 12.1408 1.10547 9.25594 1.10547C6.3734 1.10547 4.0293 3.44963 4.0293 6.33212C4.0293 9.21228 6.37346 11.5588 9.25594 11.5588ZM9.25594 3.00858C11.0879 3.00858 12.5792 4.49987 12.5792 6.32943C12.5792 8.16138 11.0903 9.65028 9.25594 9.65028C7.424 9.65028 5.9351 8.16138 5.9351 6.32943C5.9351 4.49987 7.424 3.00858 9.25594 3.00858Z" fill="white"/>
<path d="M35.2579 11.5588C38.1404 11.5588 40.4869 9.2146 40.4869 6.33212C40.4869 3.44957 38.1428 1.10547 35.2579 1.10547C32.3754 1.10547 30.0312 3.44963 30.0312 6.33212C30.0312 9.21228 32.3754 11.5588 35.2579 11.5588ZM35.2579 3.00858C37.0898 3.00858 38.5811 4.49987 38.5811 6.32943C38.5811 8.16138 37.0922 9.65028 35.2579 9.65028C33.426 9.65028 31.937 8.16138 31.937 6.32943C31.937 4.49987 33.426 3.00858 35.2579 3.00858Z" fill="white"/>
<path d="M47.55 22.7755L43.2715 14.5327C42.4829 13.0175 40.9321 12.0742 39.224 12.0742H30.7812C29.4281 12.0742 28.1536 12.6674 27.2888 13.6989L22.105 19.8475L19.0867 14.9019C18.0933 13.2725 16.2924 12.2624 14.3842 12.2624H5.51017C2.47278 12.2624 0 14.7352 0 17.7726V28.3615C0 29.9958 1.33168 31.3274 2.96591 31.3274C3.33992 31.3274 3.69487 31.2512 4.02602 31.1226V37.795C4.02602 39.384 5.31959 40.6775 6.90857 40.6775H7.32308C8.06875 40.6775 8.74051 40.3869 9.25273 39.92C9.76491 40.3845 10.4391 40.6775 11.1824 40.6775H11.5969C13.1859 40.6775 14.4794 39.384 14.4794 37.795L14.4818 18.3461C14.4818 18.1317 14.8129 18.0435 14.9249 18.2246L19.1844 25.4239C19.5798 26.091 20.2445 26.5579 21.0068 26.7008C21.7715 26.8438 22.5601 26.6508 23.1699 26.1744C23.2342 26.1243 23.2867 26.0624 23.3462 26.0076C23.4153 25.9671 23.4891 25.9338 23.5511 25.8742L29.4638 20.0401L27.7629 31.2078C27.72 31.4817 27.801 31.7604 27.982 31.9725C28.1631 32.1845 28.4275 32.3036 28.7062 32.3036H30.4501V37.7875C30.4501 39.3765 31.7436 40.6701 33.3326 40.6701C34.0759 40.6701 34.7477 40.3794 35.2599 39.9149C35.7697 40.3794 36.4415 40.6725 37.1847 40.6748H37.1942C37.9637 40.6748 38.6855 40.3771 39.2286 39.8339C39.7742 39.2884 40.0743 38.5642 40.0743 37.7923V32.3036H41.8086C42.085 32.3036 42.3494 32.1821 42.5305 31.9725C42.7115 31.7604 42.7925 31.4817 42.7496 31.2078L41.3965 22.2959L43.0497 25.2094C43.4976 26.017 44.3528 26.5196 45.2843 26.5196C45.8894 26.5196 46.4826 26.2981 46.9709 25.8812C47.8595 25.1022 48.0978 23.8229 47.5498 22.7747L47.55 22.7755ZM21.3597 24.829C21.131 24.7861 20.9428 24.6527 20.8237 24.4526L16.5619 17.2532C16.1783 16.6053 15.4708 16.2026 14.718 16.2026C13.5364 16.2026 12.574 17.1651 12.574 18.3467V37.7931C12.574 38.3315 12.1357 38.7699 11.5973 38.7699H11.1827C10.6444 38.7699 10.206 38.3315 10.206 37.7931L10.2084 25.2149C10.2084 24.6884 9.78196 24.262 9.25548 24.262C8.72901 24.262 8.30258 24.6884 8.30258 25.2149V37.7931C8.30258 38.3315 7.86425 38.7699 7.32584 38.7699H6.91132C6.37294 38.7699 5.93458 38.3315 5.93458 37.7931V18.6424C5.93458 18.116 5.50816 17.6895 4.98168 17.6895C4.4552 17.6895 4.02878 18.116 4.02878 18.6424V28.3623C4.02878 28.946 3.55233 29.4224 2.96867 29.4224C2.385 29.4224 1.90855 28.946 1.90855 28.3623V17.7734C1.90855 15.7866 3.52608 14.169 5.51293 14.169H14.3869C15.6353 14.169 16.8121 14.8313 17.4624 15.8961L22.1841 23.6358C22.3937 23.9789 22.3127 24.4267 21.9959 24.6745C21.8148 24.8174 21.5908 24.8719 21.3597 24.829ZM33.3306 38.7654C32.7922 38.7654 32.3538 38.3271 32.3538 37.7887V32.3047H34.3073V37.7887C34.3073 38.3271 33.869 38.7654 33.3306 38.7654ZM38.1666 37.7934C38.1666 38.0555 38.0641 38.3008 37.8807 38.4867C37.6973 38.6701 37.4519 38.7725 37.1922 38.7725H37.1898C36.6538 38.7701 36.2155 38.3318 36.2155 37.7958V32.3071H38.1689L38.1666 37.7934ZM45.7257 24.4406C45.3827 24.7313 44.9086 24.6312 44.7132 24.2786L40.511 16.8744C40.2823 16.4742 39.801 16.2931 39.3699 16.4456C38.9363 16.5957 38.6719 17.034 38.741 17.489L40.6992 30.4009L29.8145 30.3985L31.7798 17.4866C31.8418 17.0816 31.6369 16.6814 31.27 16.4956C30.9055 16.3098 30.4601 16.3765 30.1694 16.6647L23.9086 22.842C23.8753 22.7752 23.8515 22.7062 23.811 22.6418L23.1511 21.5627L28.747 14.9256C29.2497 14.3253 29.993 13.9799 30.7814 13.9799H39.2243C40.2201 13.9799 41.1206 14.5278 41.5803 15.4093L45.8588 23.6545C45.9994 23.9189 45.9377 24.2548 45.7257 24.4406Z" fill="white"/>
</svg>
