<svg width="40" height="40" viewBox="0 0 40 40" fill="none" xmlns="http://www.w3.org/2000/svg">
<circle cx="20" cy="20" r="20" fill="#74419D"/>
<path d="M20.5842 26.64C19.7415 26.64 18.9815 26.4934 18.3042 26.2C17.6322 25.9067 17.0775 25.488 16.6402 24.944C16.2082 24.3947 15.9335 23.744 15.8162 22.992L17.8162 22.688C17.9869 23.3707 18.3362 23.8987 18.8642 24.272C19.3975 24.6454 20.0109 24.832 20.7042 24.832C21.1149 24.832 21.5015 24.768 21.8642 24.64C22.2269 24.512 22.5202 24.3254 22.7442 24.08C22.9735 23.8347 23.0882 23.5334 23.0882 23.176C23.0882 23.016 23.0615 22.8694 23.0082 22.736C22.9549 22.5974 22.8749 22.4747 22.7682 22.368C22.6669 22.2614 22.5335 22.1654 22.3682 22.08C22.2082 21.9894 22.0215 21.912 21.8082 21.848L18.8322 20.968C18.5762 20.8934 18.2989 20.7947 18.0002 20.672C17.7069 20.544 17.4269 20.3707 17.1602 20.152C16.8989 19.928 16.6829 19.6454 16.5122 19.304C16.3469 18.9574 16.2642 18.5307 16.2642 18.024C16.2642 17.2827 16.4509 16.6614 16.8242 16.16C17.2029 15.6534 17.7095 15.2747 18.3442 15.024C18.9842 14.7734 19.6935 14.6507 20.4722 14.656C21.2615 14.6614 21.9655 14.7974 22.5842 15.064C23.2029 15.3254 23.7202 15.7067 24.1362 16.208C24.5522 16.7094 24.8455 17.3147 25.0162 18.024L22.9442 18.384C22.8589 17.9787 22.6935 17.6347 22.4482 17.352C22.2082 17.064 21.9122 16.8454 21.5602 16.696C21.2135 16.5467 20.8429 16.4667 20.4482 16.456C20.0642 16.4507 19.7069 16.5094 19.3762 16.632C19.0509 16.7494 18.7869 16.92 18.5842 17.144C18.3869 17.368 18.2882 17.6294 18.2882 17.928C18.2882 18.2107 18.3735 18.4427 18.5442 18.624C18.7149 18.8 18.9255 18.9414 19.1762 19.048C19.4322 19.1494 19.6909 19.2347 19.9522 19.304L22.0162 19.88C22.2989 19.9547 22.6162 20.056 22.9682 20.184C23.3202 20.312 23.6589 20.4907 23.9842 20.72C24.3095 20.9494 24.5762 21.2507 24.7842 21.624C24.9975 21.9974 25.1042 22.472 25.1042 23.048C25.1042 23.6454 24.9789 24.1707 24.7282 24.624C24.4829 25.072 24.1495 25.4454 23.7282 25.744C23.3069 26.0427 22.8242 26.2667 22.2802 26.416C21.7415 26.5654 21.1762 26.64 20.5842 26.64Z" fill="white"/>
</svg>
