<svg width="40" height="45" viewBox="0 0 40 45" fill="none" xmlns="http://www.w3.org/2000/svg">
<path d="M28.5544 37.3758C27.9767 36.519 27.4472 35.7642 26.9661 35.1118L21.1807 27.299C20.6105 26.5186 20.2774 26.1955 20.1813 26.3307C20.104 26.4167 20.0633 26.6313 20.0584 26.9739C20.2523 30.3014 20.2349 35.4811 20.0052 42.5145C20.0011 43.3589 20.039 44.0492 20.1196 44.5848L28.5544 37.3758Z" fill="white"/>
<path d="M10.8843 37.0693C11.3741 36.164 11.7953 35.3492 12.1468 34.6262L16.3495 25.9423C16.7735 25.081 16.9002 24.6447 16.7292 24.6324C16.6129 24.6114 16.3976 24.6846 16.0837 24.8526C13.159 26.6766 8.44578 29.2514 1.94364 32.5784C1.17423 32.9983 0.566395 33.3741 0.120117 33.7085L10.8843 37.0693Z" fill="white"/>
<path d="M2.32945 22.3238C3.39689 22.2756 4.34731 22.2157 5.18021 22.144L15.1683 21.273C16.1625 21.1921 16.6224 21.0789 16.5476 20.9319C16.5087 20.8249 16.3341 20.6836 16.0245 20.5084C12.9065 19.0055 8.21095 16.4005 1.93797 12.6941C1.17266 12.2685 0.526931 11.9552 0 11.7539L2.32945 22.3238Z" fill="white"/>
<path d="M11.4443 7.88434C12.022 8.74207 12.5515 9.49637 13.0328 10.1488L18.818 17.9611C19.3882 18.7425 19.7213 19.0651 19.8176 18.9304C19.8947 18.8444 19.9354 18.6298 19.9405 18.2862C19.7464 14.9603 19.7641 9.77955 19.9938 2.74663C19.9979 1.90221 19.9597 1.21142 19.8791 0.675781L11.4443 7.88434Z" fill="white"/>
<path d="M37.6715 22.9414C36.6038 22.989 35.6534 23.0495 34.8208 23.1206L24.8324 23.9917C23.8382 24.0721 23.3786 24.1858 23.4531 24.3327C23.492 24.4398 23.6666 24.5806 23.9762 24.7562C27.0945 26.2597 31.7903 28.8646 38.063 32.5701C38.8281 32.9961 39.4738 33.31 40.0007 33.5113L37.6715 22.9414Z" fill="white"/>
<path d="M29.1161 8.19141C28.626 9.09728 28.2049 9.912 27.8538 10.6366L23.6507 19.3194C23.2267 20.1807 23.0999 20.6176 23.271 20.6293C23.3872 20.6498 23.6028 20.5766 23.9167 20.4091C26.8412 18.5856 31.5544 16.0104 38.0568 12.6834C38.8262 12.2645 39.434 11.8876 39.8805 11.5532L29.1161 8.19141Z" fill="white"/>
<path d="M18.0085 28.8902C18.5485 27.1686 18.9743 25.8484 19.2856 24.9292C19.3345 24.7807 19.344 24.6906 19.3143 24.6594C19.2831 24.6184 19.1753 24.6926 18.9902 24.8821C18.5459 25.4316 17.7271 26.3456 16.5332 27.6238L18.0085 28.8902Z" fill="white"/>
<path d="M13.3203 24.1139C15.1538 23.6991 16.5659 23.3898 17.5562 23.1881C17.7155 23.1543 17.8026 23.1174 17.8161 23.0764C17.8374 23.0304 17.7158 22.9786 17.4515 22.9203C16.73 22.8286 15.4905 22.6089 13.733 22.2617L13.3203 24.1139Z" fill="white"/>
<path d="M15.3115 17.8582C16.605 19.1651 17.5913 20.1769 18.2703 20.8938C18.3804 21.0086 18.4577 21.0613 18.5013 21.0521C18.5538 21.0464 18.5404 20.9205 18.4608 20.6731C18.1833 20.0315 17.7631 18.8978 17.1996 17.2734L15.3115 17.8582Z" fill="white"/>
<path d="M21.9916 16.3711C21.4519 18.0932 21.0263 19.4134 20.7147 20.3325C20.6656 20.4811 20.6561 20.5707 20.6858 20.6029C20.717 20.6429 20.8253 20.5691 21.01 20.3791C21.4542 19.8297 22.2735 18.9161 23.4672 17.6385L21.9916 16.3711Z" fill="white"/>
<path d="M24.6879 27.4053C23.3944 26.099 22.4079 25.0876 21.7289 24.3707C21.6188 24.256 21.5417 24.2027 21.4982 24.212C21.4457 24.2176 21.459 24.3431 21.5386 24.5909C21.8162 25.2325 22.2363 26.3663 22.7999 27.9906L24.6879 27.4053Z" fill="white"/>
<path d="M26.6799 21.1484C24.8461 21.5637 23.4341 21.872 22.4437 22.0743C22.2844 22.1076 22.1976 22.1455 22.1841 22.1854C22.1626 22.2315 22.2842 22.2837 22.5484 22.3416C23.2699 22.4338 24.5097 22.6529 26.2669 23.0001L26.6799 21.1484Z" fill="white"/>
</svg>
