<svg width="30" height="30" viewBox="0 0 30 30" fill="none" xmlns="http://www.w3.org/2000/svg">
<path d="M7.80249 20.9979C8.43879 20.9979 9.04902 21.2507 9.49895 21.7006C9.94888 22.1505 10.2017 22.7608 10.2017 23.3971C10.2017 24.0334 9.94888 24.6436 9.49895 25.0935C9.04902 25.5435 8.43879 25.7962 7.80249 25.7962C7.16619 25.7962 6.55595 25.5435 6.10602 25.0935C5.65609 24.6436 5.40332 24.0334 5.40332 23.3971C5.40332 22.7608 5.65609 22.1505 6.10602 21.7006C6.55595 21.2507 7.16619 20.9979 7.80249 20.9979ZM7.80249 20.9979H20.9979M7.80249 20.9979V4.20374H5.40332M20.9979 20.9979C21.6342 20.9979 22.2444 21.2507 22.6944 21.7006C23.1443 22.1505 23.3971 22.7608 23.3971 23.3971C23.3971 24.0334 23.1443 24.6436 22.6944 25.0935C22.2444 25.5435 21.6342 25.7962 20.9979 25.7962C20.3616 25.7962 19.7514 25.5435 19.3014 25.0935C18.8515 24.6436 18.5987 24.0334 18.5987 23.3971C18.5987 22.7608 18.8515 22.1505 19.3014 21.7006C19.7514 21.2507 20.3616 20.9979 20.9979 20.9979ZM7.80249 6.6029L24.5967 7.80249L23.3971 16.1996H7.80249" stroke="white" stroke-width="1.51" stroke-linecap="round" stroke-linejoin="round"/>
</svg>
