<svg width="29" height="29" viewBox="0 0 29 29" fill="none" xmlns="http://www.w3.org/2000/svg">
<path d="M5 17.9477C5 20.8559 9.06168 25.6994 9.52488 26.2418C9.68897 26.4341 9.92935 26.5449 10.1818 26.5449H18.8182C19.0707 26.5449 19.311 26.4341 19.4751 26.2418C19.9383 25.6994 24 20.8559 24 17.9477C24 14.3017 21.0038 13.1781 20.004 11.8631H21.4091C21.8861 11.8631 22.2727 11.4765 22.2727 10.9995C22.2727 10.5224 21.8861 10.1358 21.4091 10.1358H21.1206C22.134 8.94141 22.8948 7.41565 23.126 5.95208C23.1651 5.70278 23.0935 5.44858 22.9294 5.25656C22.7653 5.06455 22.5252 4.954 22.2727 4.954C20.8569 4.954 19.5252 5.41864 18.363 6.14668C17.3529 3.71728 15.0009 2.51221 14.8863 2.45464C14.6434 2.33315 14.3566 2.33315 14.1137 2.45464C13.9991 2.51193 11.6465 3.71699 10.6367 6.14668C9.4745 5.41864 8.14306 4.954 6.72727 4.954C6.4748 4.954 6.23471 5.06455 6.07062 5.25685C5.90653 5.44887 5.83485 5.70306 5.874 5.95237C6.10545 7.41565 6.86603 8.94141 7.87936 10.1358H7.59091C7.11389 10.1358 6.72727 10.5224 6.72727 10.9995C6.72727 11.4765 7.11389 11.8631 7.59091 11.8631H8.99605C7.99855 13.175 5 14.3037 5 17.9477ZM18.4152 24.8176H10.5846C9.80901 23.8774 8.87341 22.607 8.11715 21.3631H20.8817C20.1257 22.6067 19.1904 23.8771 18.4152 24.8176ZM21.8524 16.1813C22.1121 16.6646 22.2727 17.2323 22.2727 17.9477C22.2727 18.4002 22.0925 18.9869 21.8041 19.6358H7.19536C6.9072 18.9872 6.72727 18.4008 6.72727 17.9477C6.72727 17.2323 6.88791 16.6643 7.14758 16.1813H21.8524ZM21.1123 6.82176C20.5719 8.2482 19.5218 9.51285 18.5631 10.1358H16.7731C17.7263 8.61496 19.3194 7.25099 21.1123 6.82176ZM14.502 4.22941C15.161 4.65634 16.4593 5.68176 16.9167 7.26222C16.0065 8.11635 15.2753 9.12306 14.7959 10.1358H14.2041C13.7245 9.12335 12.9935 8.11664 12.0833 7.2625C12.5407 5.69212 13.8445 4.6595 14.502 4.22941ZM7.88771 6.82176C9.68062 7.25099 11.2737 8.61496 12.2269 10.1358H10.4369C9.47853 9.51285 8.42806 8.2482 7.88771 6.82176ZM10.909 11.8631C11.0927 11.8631 18.3446 11.8631 18.0913 11.8631C18.4333 12.9878 19.3778 13.7182 20.272 14.454H8.72832C9.62592 13.7153 10.567 12.9878 10.909 11.8631Z" fill="white"/>
<path d="M13.6367 17.9086C13.6367 17.4315 14.0233 17.0449 14.5004 17.0449C14.9774 17.0449 15.364 17.4315 15.364 17.9086C15.364 18.3856 14.9774 18.7722 14.5004 18.7722C14.0233 18.7722 13.6367 18.3856 13.6367 17.9086Z" fill="white"/>
<path d="M9.31836 17.9086C9.31836 17.4315 9.70498 17.0449 10.182 17.0449C10.659 17.0449 11.0456 17.4315 11.0456 17.9086C11.0456 18.3856 10.659 18.7722 10.182 18.7722C9.70498 18.7722 9.31836 18.3856 9.31836 17.9086Z" fill="white"/>
<path d="M17.9541 17.9086C17.9541 17.4315 18.3407 17.0449 18.8177 17.0449C19.2948 17.0449 19.6814 17.4315 19.6814 17.9086C19.6814 18.3856 19.2948 18.7722 18.8177 18.7722C18.3407 18.7722 17.9541 18.3856 17.9541 17.9086Z" fill="white"/>
</svg>
