<svg width="60" height="60" viewBox="0 0 60 60" fill="none" xmlns="http://www.w3.org/2000/svg">
<path d="M45.5353 36.4439C45.3733 36.4439 45.1933 36.4259 45.0133 36.3719C44.0593 36.0839 43.5194 35.0939 43.8073 34.14C44.2033 32.808 44.4013 31.4221 44.4013 30.0182C44.4013 22.9445 39.1275 16.8067 32.1439 15.7808C31.1539 15.6368 30.4879 14.7188 30.6319 13.7289C30.7759 12.7389 31.6939 12.0729 32.6838 12.2169C41.4314 13.5129 48.0192 21.1626 48.0192 30.0182C48.0192 31.7641 47.7672 33.51 47.2632 35.1659C47.0292 35.9399 46.3092 36.4439 45.5353 36.4439Z" fill="white"/>
<path d="M30.1813 47.9996C28.8674 47.9996 27.5534 47.8556 26.2575 47.5496C21.5777 46.4697 17.5999 43.5898 15.062 39.414C9.8782 30.9364 12.3801 19.7588 20.6237 14.4851C22.5496 13.2431 24.6735 12.4152 26.9414 12.0192C27.6614 11.8752 28.3814 12.2172 28.7774 12.8292C29.1733 13.4411 29.1553 14.2331 28.7234 14.8271C25.3215 19.6329 25.1235 26.0226 28.2194 31.0804C31.2973 36.1201 36.949 38.712 42.6368 37.7221C43.3387 37.5781 44.0767 37.9201 44.4727 38.532C44.8687 39.144 44.8507 39.936 44.4187 40.5299C43.0867 42.4199 41.4128 44.0218 39.4869 45.2457C36.661 47.0637 33.4392 47.9816 30.1813 47.9816V47.9996ZM23.5936 16.933C23.2336 17.113 22.8916 17.311 22.5676 17.5269C15.9619 21.7388 13.982 30.7204 18.1398 37.5421C20.1737 40.8719 23.3416 43.1758 27.0674 44.0398C30.6853 44.8857 34.4111 44.2378 37.561 42.2219C37.939 41.9879 38.281 41.7359 38.6229 41.4659C33.1692 40.9619 28.1654 37.9021 25.1595 32.9703C22.1537 28.0565 21.6497 22.1347 23.5936 16.933Z" fill="white"/>
<path d="M30.0019 56.9992C29.012 56.9992 28.202 56.1892 28.202 55.1993V51.5994C28.202 50.6095 29.012 49.7995 30.0019 49.7995C30.9919 49.7995 31.8018 50.6095 31.8018 51.5994V55.1993C31.8018 56.1892 30.9919 56.9992 30.0019 56.9992Z" fill="white"/>
<path d="M12.1808 49.6194C11.7128 49.6194 11.2628 49.4394 10.9029 49.0974C10.2009 48.3955 10.2009 47.2615 10.9029 46.5595L13.4407 44.0217C14.1427 43.3197 15.2767 43.3197 15.9786 44.0217C16.6806 44.7236 16.6806 45.8576 15.9786 46.5595L13.4407 49.0974C13.0808 49.4574 12.6308 49.6194 12.1628 49.6194H12.1808Z" fill="white"/>
<path d="M8.40062 31.8004H4.80078C3.81082 31.8004 3.00085 30.9904 3.00085 30.0005C3.00085 29.0105 3.81082 28.2006 4.80078 28.2006H8.40062C9.39058 28.2006 10.2005 29.0105 10.2005 30.0005C10.2005 30.9904 9.39058 31.8004 8.40062 31.8004Z" fill="white"/>
<path d="M14.7187 16.5184C14.2507 16.5184 13.8007 16.3384 13.4407 15.9964L10.9029 13.4585C10.2009 12.7566 10.2009 11.6226 10.9029 10.9206C11.6048 10.2187 12.7388 10.2187 13.4407 10.9206L15.9786 13.4585C16.6806 14.1605 16.6806 15.2945 15.9786 15.9964C15.6186 16.3564 15.1687 16.5184 14.7007 16.5184H14.7187Z" fill="white"/>
<path d="M30.0019 10.201C29.012 10.201 28.202 9.39106 28.202 8.40111V4.80126C28.202 3.81131 29.012 3.00134 30.0019 3.00134C30.9919 3.00134 31.8018 3.81131 31.8018 4.80126V8.40111C31.8018 9.39106 30.9919 10.201 30.0019 10.201Z" fill="white"/>
<path d="M45.2833 16.5188C44.8153 16.5188 44.3653 16.3388 44.0053 15.9968C43.3034 15.2949 43.3034 14.1609 44.0053 13.459L46.5432 10.9211C47.2452 10.2191 48.3791 10.2191 49.0811 10.9211C49.7831 11.623 49.7831 12.757 49.0811 13.459L46.5432 15.9968C46.1832 16.3568 45.7333 16.5188 45.2653 16.5188H45.2833Z" fill="white"/>
<path d="M55.2 31.8004H51.6001C50.6102 31.8004 49.8002 30.9904 49.8002 30.0005C49.8002 29.0105 50.6102 28.2006 51.6001 28.2006H55.2C56.1899 28.2006 56.9999 29.0105 56.9999 30.0005C56.9999 30.9904 56.1899 31.8004 55.2 31.8004Z" fill="white"/>
<path d="M47.8212 49.6199C47.3532 49.6199 46.9032 49.4399 46.5432 49.0979L44.0053 46.56C43.3034 45.8581 43.3034 44.7241 44.0053 44.0221C44.7073 43.3202 45.8412 43.3202 46.5432 44.0221L49.0811 46.56C49.7831 47.262 49.7831 48.396 49.0811 49.0979C48.7211 49.4579 48.2711 49.6199 47.8032 49.6199H47.8212Z" fill="white"/>
</svg>
