<svg width="52" height="52" viewBox="0 0 52 52" fill="none" xmlns="http://www.w3.org/2000/svg">
<path d="M51.25 0.75V51.25H0.75V0.75H51.25ZM26.6836 49.6865H48.5801L37.6328 38.7383L26.6836 49.6865ZM3.41895 49.6865H25.3154L14.3662 38.7383L3.41895 49.6865ZM2.31348 48.5811L13.2607 37.6328L2.31348 26.6836V48.5811ZM38.7373 37.6328L49.6865 48.5811V26.6836L38.7373 37.6328ZM15.4219 37.6816L25.999 48.2598L36.5762 37.6816L25.999 27.1045L15.4219 37.6816ZM3.73926 26L14.3164 36.5771L24.8945 26L14.3164 15.4219L3.73926 26ZM27.1045 26L37.6816 36.5771L48.2598 26L37.6816 15.4219L27.1045 26ZM2.31348 25.3154L13.2607 14.3662L2.31348 3.41895V25.3154ZM38.7373 14.3662L49.6865 25.3154V3.41797L38.7373 14.3662ZM15.4219 14.3174L25.999 24.8945L36.5762 14.3174L25.999 3.73926L15.4219 14.3174ZM14.3662 13.2617L25.3154 2.31348H3.41895L14.3662 13.2617ZM37.6328 13.2617L48.5801 2.31348H26.6836L37.6328 13.2617Z" fill="white" stroke="white" stroke-width="0.5"/>
</svg>
