<svg width="287" height="101" viewBox="0 0 287 101" fill="none" xmlns="http://www.w3.org/2000/svg">
<path d="M116.697 36.1404C116.697 34.3421 117.111 32.7289 117.94 31.3008C118.786 29.8727 119.923 28.762 121.351 27.9686C122.797 27.1576 124.375 26.7521 126.085 26.7521C128.042 26.7521 129.779 27.2369 131.295 28.2066C132.829 29.1587 133.94 30.5162 134.627 32.2793H131.004C130.528 31.3096 129.867 30.5868 129.021 30.1107C128.174 29.6347 127.196 29.3967 126.085 29.3967C124.869 29.3967 123.784 29.67 122.832 30.2165C121.88 30.7631 121.131 31.5476 120.584 32.5702C120.055 33.5928 119.791 34.7829 119.791 36.1404C119.791 37.498 120.055 38.6881 120.584 39.7107C121.131 40.7332 121.88 41.5266 122.832 42.0908C123.784 42.6374 124.869 42.9106 126.085 42.9106C127.196 42.9106 128.174 42.6726 129.021 42.1966C129.867 41.7206 130.528 40.9977 131.004 40.028H134.627C133.94 41.7911 132.829 43.1486 131.295 44.1007C129.779 45.0528 128.042 45.5288 126.085 45.5288C124.357 45.5288 122.779 45.1321 121.351 44.3387C119.923 43.5277 118.786 42.4082 117.94 40.9801C117.111 39.552 116.697 37.9388 116.697 36.1404ZM152.834 26.9901V45.3701H149.819V37.3305H141.171V45.3701H138.156V26.9901H141.171V34.871H149.819V26.9901H152.834ZM167.884 41.6148H160.188L158.865 45.3701H155.718L162.303 26.9637H165.794L172.379 45.3701H169.206L167.884 41.6148ZM167.037 39.1553L164.049 30.6132L161.034 39.1553H167.037ZM187.117 26.9901V29.4496H182.224V45.3701H179.209V29.4496H174.291V26.9901H187.117ZM216.398 26.9901V45.3701H213.384V32.7818L207.777 45.3701H205.688L200.055 32.7818V45.3701H197.04V26.9901H200.293L206.746 41.4032L213.172 26.9901H216.398ZM233.981 26.9901L227.898 38.7057V45.3701H224.883V38.7057L218.774 26.9901H222.133L226.391 36.0082L230.649 26.9901H233.981Z" fill="url(#paint0_linear_5486_32281)"/>
<path d="M128.783 70.8316H121.087L119.765 74.5869H116.617L123.202 56.1804H126.693L133.278 74.5869H130.105L128.783 70.8316ZM127.936 68.3721L124.948 59.83L121.933 68.3721H127.936ZM142.198 74.772C140.964 74.772 139.853 74.5605 138.866 74.1373C137.878 73.6966 137.103 73.0795 136.538 72.2861C135.974 71.4927 135.692 70.5671 135.692 69.5093H138.918C138.989 70.3027 139.298 70.955 139.844 71.4663C140.408 71.9776 141.193 72.2332 142.198 72.2332C143.238 72.2332 144.049 71.9864 144.631 71.4927C145.213 70.9814 145.504 70.3291 145.504 69.5357C145.504 68.9186 145.318 68.4162 144.948 68.0283C144.596 67.6404 144.146 67.3407 143.599 67.1291C143.071 66.9176 142.33 66.6884 141.378 66.4415C140.179 66.1242 139.201 65.8068 138.442 65.4895C137.702 65.1545 137.067 64.6432 136.538 63.9556C136.009 63.268 135.745 62.3512 135.745 61.2052C135.745 60.1474 136.009 59.2217 136.538 58.4284C137.067 57.635 137.808 57.0267 138.76 56.6036C139.712 56.1804 140.814 55.9689 142.066 55.9689C143.846 55.9689 145.301 56.4185 146.429 57.3176C147.575 58.1992 148.21 59.4157 148.333 60.9672H145.001C144.948 60.2972 144.631 59.7242 144.049 59.2482C143.467 58.7722 142.7 58.5341 141.748 58.5341C140.884 58.5341 140.179 58.7545 139.633 59.1953C139.086 59.6361 138.813 60.2708 138.813 61.0994C138.813 61.6636 138.98 62.1308 139.315 62.5011C139.668 62.8537 140.109 63.1358 140.637 63.3473C141.166 63.5589 141.889 63.7881 142.806 64.0349C144.023 64.3699 145.01 64.7049 145.768 65.0399C146.544 65.3749 147.196 65.895 147.725 66.6002C148.272 67.2878 148.545 68.2134 148.545 69.377C148.545 70.3115 148.289 71.193 147.778 72.0216C147.284 72.8503 146.553 73.5203 145.583 74.0315C144.631 74.5252 143.502 74.772 142.198 74.772ZM163.977 56.2069V58.6664H159.084V74.5869H156.069V58.6664H151.15V56.2069H163.977ZM176.577 74.5869L172.345 67.2349H170.045V74.5869H167.03V56.2069H173.377C174.787 56.2069 175.977 56.4537 176.947 56.9474C177.934 57.441 178.666 58.1022 179.142 58.9308C179.636 59.7595 179.883 60.6851 179.883 61.7077C179.883 62.9066 179.53 63.9997 178.825 64.987C178.137 65.9567 177.071 66.6178 175.625 66.9704L180.174 74.5869H176.577ZM170.045 64.8283H173.377C174.505 64.8283 175.352 64.5462 175.916 63.982C176.498 63.4179 176.788 62.6597 176.788 61.7077C176.788 60.7556 176.506 60.0151 175.942 59.4862C175.378 58.9397 174.523 58.6664 173.377 58.6664H170.045V64.8283ZM192.123 74.772C190.413 74.772 188.835 74.3753 187.389 73.582C185.961 72.771 184.824 71.6514 183.977 70.2233C183.149 68.7776 182.734 67.1556 182.734 65.3572C182.734 63.5589 183.149 61.9457 183.977 60.5176C184.824 59.0895 185.961 57.9788 187.389 57.1854C188.835 56.3744 190.413 55.9689 192.123 55.9689C193.851 55.9689 195.429 56.3744 196.857 57.1854C198.302 57.9788 199.44 59.0895 200.268 60.5176C201.097 61.9457 201.511 63.5589 201.511 65.3572C201.511 67.1556 201.097 68.7776 200.268 70.2233C199.44 71.6514 198.302 72.771 196.857 73.582C195.429 74.3753 193.851 74.772 192.123 74.772ZM192.123 72.1539C193.339 72.1539 194.424 71.8806 195.376 71.334C196.328 70.7699 197.068 69.9765 197.597 68.9539C198.144 67.9137 198.417 66.7148 198.417 65.3572C198.417 63.9997 198.144 62.8096 197.597 61.787C197.068 60.7644 196.328 59.9799 195.376 59.4333C194.424 58.8868 193.339 58.6135 192.123 58.6135C190.906 58.6135 189.822 58.8868 188.87 59.4333C187.918 59.9799 187.169 60.7644 186.622 61.787C186.093 62.8096 185.829 63.9997 185.829 65.3572C185.829 66.7148 186.093 67.9137 186.622 68.9539C187.169 69.9765 187.918 70.7699 188.87 71.334C189.822 71.8806 190.906 72.1539 192.123 72.1539ZM207.493 72.1539H213.708V74.5869H204.478V56.2069H207.493V72.1539ZM224.612 74.772C222.902 74.772 221.324 74.3753 219.878 73.582C218.45 72.771 217.313 71.6514 216.467 70.2233C215.638 68.7776 215.224 67.1556 215.224 65.3572C215.224 63.5589 215.638 61.9457 216.467 60.5176C217.313 59.0895 218.45 57.9788 219.878 57.1854C221.324 56.3744 222.902 55.9689 224.612 55.9689C226.34 55.9689 227.918 56.3744 229.346 57.1854C230.792 57.9788 231.929 59.0895 232.758 60.5176C233.586 61.9457 234.001 63.5589 234.001 65.3572C234.001 67.1556 233.586 68.7776 232.758 70.2233C231.929 71.6514 230.792 72.771 229.346 73.582C227.918 74.3753 226.34 74.772 224.612 74.772ZM224.612 72.1539C225.829 72.1539 226.913 71.8806 227.865 71.334C228.817 70.7699 229.558 69.9765 230.087 68.9539C230.633 67.9137 230.906 66.7148 230.906 65.3572C230.906 63.9997 230.633 62.8096 230.087 61.787C229.558 60.7644 228.817 59.9799 227.865 59.4333C226.913 58.8868 225.829 58.6135 224.612 58.6135C223.396 58.6135 222.311 58.8868 221.359 59.4333C220.407 59.9799 219.658 60.7644 219.111 61.787C218.583 62.8096 218.318 63.9997 218.318 65.3572C218.318 66.7148 218.583 67.9137 219.111 68.9539C219.658 69.9765 220.407 70.7699 221.359 71.334C222.311 71.8806 223.396 72.1539 224.612 72.1539ZM250.27 61.4961C249.794 60.5793 249.132 59.8917 248.286 59.4333C247.44 58.9573 246.461 58.7193 245.351 58.7193C244.134 58.7193 243.05 58.9925 242.098 59.5391C241.146 60.0857 240.396 60.8614 239.85 61.8664C239.321 62.8713 239.057 64.0349 239.057 65.3572C239.057 66.6795 239.321 67.852 239.85 68.8746C240.396 69.8795 241.146 70.6553 242.098 71.2018C243.05 71.7484 244.134 72.0216 245.351 72.0216C246.99 72.0216 248.321 71.5632 249.344 70.6464C250.367 69.7297 250.993 68.4867 251.222 66.9176H244.319V64.511H254.448V66.8647C254.254 68.2927 253.743 69.6062 252.914 70.8051C252.103 72.004 251.037 72.9649 249.714 73.6877C248.41 74.393 246.955 74.7456 245.351 74.7456C243.623 74.7456 242.045 74.3489 240.617 73.5555C239.189 72.7445 238.052 71.625 237.205 70.1969C236.377 68.7688 235.962 67.1556 235.962 65.3572C235.962 63.5589 236.377 61.9457 237.205 60.5176C238.052 59.0895 239.189 57.9788 240.617 57.1854C242.063 56.3744 243.641 55.9689 245.351 55.9689C247.308 55.9689 249.044 56.4537 250.561 57.4234C252.094 58.3755 253.205 59.733 253.893 61.4961H250.27ZM260.437 58.6399V64.0349H266.784V66.4944H260.437V72.1274H267.577V74.5869H257.422V56.1804H267.577V58.6399H260.437ZM280.837 74.5869L276.606 67.2349H274.305V74.5869H271.29V56.2069H277.637C279.048 56.2069 280.238 56.4537 281.208 56.9474C282.195 57.441 282.927 58.1022 283.403 58.9308C283.896 59.7595 284.143 60.6851 284.143 61.7077C284.143 62.9066 283.791 63.9997 283.085 64.987C282.398 65.9567 281.331 66.6178 279.885 66.9704L284.434 74.5869H280.837ZM274.305 64.8283H277.637C278.766 64.8283 279.612 64.5462 280.176 63.982C280.758 63.4179 281.049 62.6597 281.049 61.7077C281.049 60.7556 280.767 60.0151 280.203 59.4862C279.638 58.9397 278.783 58.6664 277.637 58.6664H274.305V64.8283Z" fill="black"/>
<circle cx="50.8032" cy="50.5225" r="49.7214" stroke="url(#paint1_linear_5486_32281)" stroke-width="0.557103"/>
<path fill-rule="evenodd" clip-rule="evenodd" d="M10.4146 27.2408C16.867 16.0653 27.2383 8.56283 38.7904 5.46729C50.3425 2.37203 63.0756 3.68345 74.2511 10.1358C85.4266 16.5879 92.9291 26.9595 96.0246 38.5116C99.1199 50.0637 97.8085 62.7968 91.3561 73.9723C84.904 85.1478 74.5324 92.6503 62.9804 95.7458C51.4283 98.8411 38.6951 97.5297 27.5196 91.0773C16.3442 84.6252 8.84164 74.2536 5.7461 62.7016C2.65083 51.1495 3.96226 38.4163 10.4146 27.2408ZM38.9163 5.93721C27.4845 9.00044 17.221 16.4247 10.8361 27.484C4.45084 38.5433 3.15279 51.1439 6.21602 62.5756C9.27925 74.0074 16.7035 84.2709 27.7628 90.6559C38.8221 97.0408 51.4227 98.3389 62.8545 95.2759C74.2862 92.2127 84.5497 84.7885 90.9347 73.7291C97.3199 62.6698 98.6177 50.0692 95.5547 38.6375C92.4915 27.2057 85.0673 16.9422 74.0079 10.5573C62.9486 4.17202 50.3478 2.87398 38.9163 5.93721Z" fill="url(#paint2_linear_5486_32281)"/>
<path fill-rule="evenodd" clip-rule="evenodd" d="M30.4998 38.8359C33.7497 33.2066 38.9739 29.4275 44.7928 27.8685C50.6115 26.3094 57.0254 26.9699 62.6547 30.22C68.2839 33.4699 72.063 38.6944 73.6221 44.513C75.1814 50.3317 74.5207 56.7456 71.2706 62.3749C68.0207 68.0041 62.7965 71.7832 56.9775 73.3423C51.1588 74.9016 44.7449 74.2409 39.1157 70.9908C33.4864 67.7406 29.7073 62.5164 28.1483 56.6977C26.5892 50.8791 27.2497 44.4651 30.4998 38.8359ZM44.9187 28.3384C39.2201 29.8651 34.104 33.5662 30.921 39.0791C27.738 44.5922 27.0912 50.8735 28.6179 56.5718C30.1446 62.2701 33.8458 67.3866 39.3586 70.5696C44.8717 73.7526 51.153 74.3994 56.8513 72.8727C62.5499 71.3459 67.6661 67.6448 70.8491 62.132C74.0321 56.6189 74.6789 50.3376 73.1522 44.6392C71.6254 38.9406 67.9243 33.8245 62.4112 30.6415C56.8987 27.4584 50.6173 26.8117 44.9187 28.3384Z" fill="url(#paint3_linear_5486_32281)"/>
<path d="M6.16395 37.8681L6.03832 38.3373L28.3159 44.8103L28.4416 44.341L6.16395 37.8681Z" fill="url(#paint4_linear_5486_32281)"/>
<path fill-rule="evenodd" clip-rule="evenodd" d="M5.77197 62.1031L28.3137 56.4033L28.4404 56.8716L5.89871 62.5713L5.77197 62.1031Z" fill="url(#paint5_linear_5486_32281)"/>
<path d="M34.2368 66.9048L18.2292 83.6757L18.5728 84.0192L34.5804 67.2482L34.2368 66.9048Z" fill="url(#paint6_linear_5486_32281)"/>
<path d="M44.6213 73.0502L38.3501 95.3008L38.8194 95.4264L45.0906 73.1759L44.6213 73.0502Z" fill="url(#paint7_linear_5486_32281)"/>
<path fill-rule="evenodd" clip-rule="evenodd" d="M65.0642 94.9589L56.6826 73.1393L57.1509 73.0508L65.5325 94.8702L65.0642 94.9589Z" fill="url(#paint8_linear_5486_32281)"/>
<path d="M67.5319 66.9035L67.1885 67.2471L83.7698 83.819L84.1132 83.4754L67.5319 66.9035Z" fill="url(#paint9_linear_5486_32281)"/>
<path d="M73.4572 56.4015L73.3315 56.8711L95.977 62.9333L96.1027 62.4638L73.4572 56.4015Z" fill="url(#paint10_linear_5486_32281)"/>
<path fill-rule="evenodd" clip-rule="evenodd" d="M95.2367 36.4272L73.4173 44.8088L73.3286 44.3406L95.1482 35.959L95.2367 36.4272Z" fill="url(#paint11_linear_5486_32281)"/>
<path d="M83.562 17.5688L67.187 33.9531L67.5306 34.2965L83.9056 17.9122L83.562 17.5688Z" fill="url(#paint12_linear_5486_32281)"/>
<path d="M62.6719 5.65873L56.6816 28.0352L57.1512 28.1609L63.1414 5.78443L62.6719 5.65873Z" fill="url(#paint13_linear_5486_32281)"/>
<path fill-rule="evenodd" clip-rule="evenodd" d="M44.3561 28.1621L37.6313 6.06396L38.0848 5.97548L44.8096 28.0734L44.3561 28.1621Z" fill="url(#paint14_linear_5486_32281)"/>
<path d="M18.0802 17.6593L17.7368 18.0029L34.0388 34.1015L34.3822 33.7579L18.0802 17.6593Z" fill="url(#paint15_linear_5486_32281)"/>
<path fill-rule="evenodd" clip-rule="evenodd" d="M31.8497 39.6156C34.8845 34.3593 39.7625 30.8306 45.1959 29.3746C50.6293 27.9189 56.6182 28.5356 61.8745 31.5704C67.1307 34.6052 70.6594 39.4832 72.1154 44.9167C73.5711 50.3501 72.9544 56.3389 69.9196 61.5952C66.8848 66.8515 62.0068 70.3802 56.5733 71.8362C51.1399 73.2919 45.1511 72.6752 39.8948 69.6403C34.6385 66.6055 31.1098 61.7275 29.6538 56.2941C28.1981 50.861 28.8151 44.8718 31.8497 39.6156ZM45.3134 29.8136C39.9926 31.2392 35.2151 34.6952 32.243 39.8429C29.2708 44.9905 28.6667 50.8559 30.0926 56.1768C31.5185 61.4977 34.9742 66.2752 40.1218 69.247C45.2694 72.2192 51.1346 72.8233 56.4558 71.3974C61.7767 69.9718 66.5541 66.5158 69.526 61.3682C72.4981 56.2206 73.1023 50.3554 71.6764 45.0342C70.2508 39.7133 66.7948 34.9359 61.6472 31.9637C56.4998 28.9919 50.6343 28.3877 45.3134 29.8136Z" fill="url(#paint16_linear_5486_32281)"/>
<path fill-rule="evenodd" clip-rule="evenodd" d="M57.1879 27.9183L56.7194 29.6841L56.25 29.5604L56.7182 27.7949L57.1879 27.9183Z" fill="url(#paint17_linear_5486_32281)"/>
<path fill-rule="evenodd" clip-rule="evenodd" d="M54.1731 27.2927L53.9391 29.1041L53.4575 29.0429L53.6915 27.2314L54.1731 27.2927Z" fill="url(#paint18_linear_5486_32281)"/>
<path fill-rule="evenodd" clip-rule="evenodd" d="M51.1017 27.0654L51.1062 28.8922L50.6207 28.8941L50.6162 27.0677L51.1017 27.0654Z" fill="url(#paint19_linear_5486_32281)"/>
<path fill-rule="evenodd" clip-rule="evenodd" d="M48.0274 27.2402L48.2703 29.0505L47.7893 29.116L47.5464 27.3057L48.0274 27.2402Z" fill="url(#paint20_linear_5486_32281)"/>
<path fill-rule="evenodd" clip-rule="evenodd" d="M45.0024 27.8154L45.4796 29.5789L45.0113 29.7065L44.5342 27.9433L45.0024 27.8154Z" fill="url(#paint21_linear_5486_32281)"/>
<path fill-rule="evenodd" clip-rule="evenodd" d="M42.078 28.7812L42.7811 30.467L42.3334 30.6548L41.6304 28.969L42.078 28.7812Z" fill="url(#paint22_linear_5486_32281)"/>
<path fill-rule="evenodd" clip-rule="evenodd" d="M39.305 30.1201L40.2222 31.6995L39.803 31.9441L38.8857 30.3644L39.305 30.1201Z" fill="url(#paint23_linear_5486_32281)"/>
<path fill-rule="evenodd" clip-rule="evenodd" d="M36.73 31.8096L37.8456 33.2561L37.4618 33.553L36.3462 32.1068L36.73 31.8096Z" fill="url(#paint24_linear_5486_32281)"/>
<path fill-rule="evenodd" clip-rule="evenodd" d="M34.3979 33.8213L35.6926 35.1096L35.3509 35.4544L34.0562 34.1661L34.3979 33.8213Z" fill="url(#paint25_linear_5486_32281)"/>
<path fill-rule="evenodd" clip-rule="evenodd" d="M32.3481 36.1182L33.8002 37.2265L33.5063 37.6132L32.0542 36.5048L32.3481 36.1182Z" fill="url(#paint26_linear_5486_32281)"/>
<path fill-rule="evenodd" clip-rule="evenodd" d="M30.6159 38.665L32.2001 39.5742L31.9591 39.9957L30.375 39.0865L30.6159 38.665Z" fill="url(#paint27_linear_5486_32281)"/>
<path fill-rule="evenodd" clip-rule="evenodd" d="M29.2309 41.415L30.9203 42.1097L30.7365 42.559L29.0474 41.8643L29.2309 41.415Z" fill="url(#paint28_linear_5486_32281)"/>
<path fill-rule="evenodd" clip-rule="evenodd" d="M28.2167 44.3223L29.9824 44.7908L29.8587 45.2601L28.0933 44.7919L28.2167 44.3223Z" fill="url(#paint29_linear_5486_32281)"/>
<path fill-rule="evenodd" clip-rule="evenodd" d="M27.5906 47.3379L29.402 47.5716L29.3407 48.0532L27.5293 47.8192L27.5906 47.3379Z" fill="url(#paint30_linear_5486_32281)"/>
<path fill-rule="evenodd" clip-rule="evenodd" d="M27.3633 50.4078L29.19 50.4033L29.192 50.8888L27.3655 50.8933L27.3633 50.4078Z" fill="url(#paint31_linear_5486_32281)"/>
<path fill-rule="evenodd" clip-rule="evenodd" d="M27.5396 53.4821L29.3499 53.2393L29.4153 53.7203L27.605 53.9632L27.5396 53.4821Z" fill="url(#paint32_linear_5486_32281)"/>
<path fill-rule="evenodd" clip-rule="evenodd" d="M28.1152 56.5072L29.8785 56.0303L30.006 56.4985L28.2428 56.9757L28.1152 56.5072Z" fill="url(#paint33_linear_5486_32281)"/>
<path fill-rule="evenodd" clip-rule="evenodd" d="M29.0801 59.4326L30.7659 58.7295L30.9536 59.1771L29.2678 59.8805L29.0801 59.4326Z" fill="url(#paint34_linear_5486_32281)"/>
<path fill-rule="evenodd" clip-rule="evenodd" d="M30.4185 62.2063L31.9981 61.2891L32.2427 61.7083L30.663 62.6256L30.4185 62.2063Z" fill="url(#paint35_linear_5486_32281)"/>
<path fill-rule="evenodd" clip-rule="evenodd" d="M32.1084 64.7797L33.5546 63.6641L33.8519 64.0479L32.4056 65.1635L32.1084 64.7797Z" fill="url(#paint36_linear_5486_32281)"/>
<path fill-rule="evenodd" clip-rule="evenodd" d="M34.1191 67.1121L35.4077 65.8174L35.7523 66.1592L34.464 67.4539L34.1191 67.1121Z" fill="url(#paint37_linear_5486_32281)"/>
<path fill-rule="evenodd" clip-rule="evenodd" d="M36.4175 69.1611L37.5256 67.709L37.9122 68.0029L36.8038 69.4549L36.4175 69.1611Z" fill="url(#paint38_linear_5486_32281)"/>
<path fill-rule="evenodd" clip-rule="evenodd" d="M38.9634 70.8937L39.8726 69.3096L40.294 69.5505L39.3848 71.1346L38.9634 70.8937Z" fill="url(#paint39_linear_5486_32281)"/>
<path fill-rule="evenodd" clip-rule="evenodd" d="M41.7134 72.2793L42.4081 70.5898L42.8574 70.7737L42.1627 72.4631L41.7134 72.2793Z" fill="url(#paint40_linear_5486_32281)"/>
<path fill-rule="evenodd" clip-rule="evenodd" d="M44.6206 73.2938L45.0891 71.5283L45.5585 71.6517L45.0902 73.4175L44.6206 73.2938Z" fill="url(#paint41_linear_5486_32281)"/>
<path fill-rule="evenodd" clip-rule="evenodd" d="M47.6357 73.9198L47.8697 72.1084L48.3513 72.1697L48.1174 73.9811L47.6357 73.9198Z" fill="url(#paint42_linear_5486_32281)"/>
<path fill-rule="evenodd" clip-rule="evenodd" d="M50.7071 74.1461L50.7026 72.3193L51.1882 72.3174L51.1926 74.1438L50.7071 74.1461Z" fill="url(#paint43_linear_5486_32281)"/>
<path fill-rule="evenodd" clip-rule="evenodd" d="M53.7815 73.9705L53.5386 72.1602L54.0196 72.0947L54.2625 73.905L53.7815 73.9705Z" fill="url(#paint44_linear_5486_32281)"/>
<path fill-rule="evenodd" clip-rule="evenodd" d="M56.8063 73.396L56.3291 71.6327L56.7973 71.5049L57.2745 73.2681L56.8063 73.396Z" fill="url(#paint45_linear_5486_32281)"/>
<path fill-rule="evenodd" clip-rule="evenodd" d="M59.7314 72.4302L59.0283 70.7444L59.476 70.5566L60.179 72.2424L59.7314 72.4302Z" fill="url(#paint46_linear_5486_32281)"/>
<path fill-rule="evenodd" clip-rule="evenodd" d="M62.5042 71.0918L61.5869 69.5121L62.0061 69.2676L62.9234 70.8472L62.5042 71.0918Z" fill="url(#paint47_linear_5486_32281)"/>
<path fill-rule="evenodd" clip-rule="evenodd" d="M65.079 69.4016L63.9634 67.9554L64.3472 67.6582L65.4628 69.1044L65.079 69.4016Z" fill="url(#paint48_linear_5486_32281)"/>
<path fill-rule="evenodd" clip-rule="evenodd" d="M67.4104 67.391L66.1157 66.1027L66.4575 65.7578L67.7522 67.0461L67.4104 67.391Z" fill="url(#paint49_linear_5486_32281)"/>
<path fill-rule="evenodd" clip-rule="evenodd" d="M69.4609 65.0933L68.0088 63.985L68.3027 63.5986L69.7548 64.7067L69.4609 65.0933Z" fill="url(#paint50_linear_5486_32281)"/>
<path fill-rule="evenodd" clip-rule="evenodd" d="M71.192 62.5465L69.6079 61.6373L69.8489 61.2158L71.433 62.125L71.192 62.5465Z" fill="url(#paint51_linear_5486_32281)"/>
<path fill-rule="evenodd" clip-rule="evenodd" d="M72.5776 59.7964L70.8882 59.1016L71.072 58.6523L72.7612 59.3471L72.5776 59.7964Z" fill="url(#paint52_linear_5486_32281)"/>
<path fill-rule="evenodd" clip-rule="evenodd" d="M73.5926 56.89L71.8271 56.4215L71.9505 55.9521L73.716 56.4204L73.5926 56.89Z" fill="url(#paint53_linear_5486_32281)"/>
<path fill-rule="evenodd" clip-rule="evenodd" d="M74.2182 53.8738L72.4067 53.6398L72.468 53.1582L74.2794 53.3922L74.2182 53.8738Z" fill="url(#paint54_linear_5486_32281)"/>
<path fill-rule="evenodd" clip-rule="evenodd" d="M74.4454 50.8029L72.6187 50.8074L72.6167 50.3218L74.4432 50.3174L74.4454 50.8029Z" fill="url(#paint55_linear_5486_32281)"/>
<path fill-rule="evenodd" clip-rule="evenodd" d="M74.2693 47.7281L72.459 47.971L72.3936 47.49L74.2039 47.2471L74.2693 47.7281Z" fill="url(#paint56_linear_5486_32281)"/>
<path fill-rule="evenodd" clip-rule="evenodd" d="M73.6943 44.7039L71.9311 45.181L71.8032 44.7125L73.5665 44.2354L73.6943 44.7039Z" fill="url(#paint57_linear_5486_32281)"/>
<path fill-rule="evenodd" clip-rule="evenodd" d="M72.729 41.7797L71.0432 42.4827L70.8555 42.0351L72.5413 41.332L72.729 41.7797Z" fill="url(#paint58_linear_5486_32281)"/>
<path fill-rule="evenodd" clip-rule="evenodd" d="M71.3902 39.0061L69.8105 39.9234L69.5659 39.5042L71.1456 38.5869L71.3902 39.0061Z" fill="url(#paint59_linear_5486_32281)"/>
<path fill-rule="evenodd" clip-rule="evenodd" d="M69.7005 36.4317L68.2542 37.5473L67.957 37.1635L69.4033 36.0479L69.7005 36.4317Z" fill="url(#paint60_linear_5486_32281)"/>
<path fill-rule="evenodd" clip-rule="evenodd" d="M67.6903 34.0996L66.402 35.3943L66.0571 35.0528L67.3454 33.7578L67.6903 34.0996Z" fill="url(#paint61_linear_5486_32281)"/>
<path fill-rule="evenodd" clip-rule="evenodd" d="M65.392 32.0497L64.2836 33.5018L63.897 33.208L65.0053 31.7559L65.392 32.0497Z" fill="url(#paint62_linear_5486_32281)"/>
<path fill-rule="evenodd" clip-rule="evenodd" d="M62.8456 30.3171L61.9361 31.9012L61.5146 31.6603L62.4241 30.0762L62.8456 30.3171Z" fill="url(#paint63_linear_5486_32281)"/>
<path fill-rule="evenodd" clip-rule="evenodd" d="M60.0957 28.9326L59.401 30.622L58.9517 30.4382L59.6464 28.749L60.0957 28.9326Z" fill="url(#paint64_linear_5486_32281)"/>
<path fill-rule="evenodd" clip-rule="evenodd" d="M20.8728 31.0016L21.6862 29.6259C21.3001 27.1579 17.5723 26.1105 17.37 29.0144C17.3062 29.9209 17.7962 30.8409 18.5402 31.6983C17.4302 31.4587 16.3879 31.4732 15.6238 31.9651C13.1759 33.5406 15.8893 36.3033 18.238 35.4537L19.0516 34.078C19.0516 34.078 18.0681 34.0456 17.9338 34.0317C17.7308 34.0097 16.3126 33.7518 17.082 33.3858C18.1238 32.8885 20.2129 33.8707 21.1363 34.2963C22.0656 34.7239 23.2536 35.3559 23.2536 35.3559L23.3007 35.2766L23.9681 34.1487L24.0154 34.069C24.0154 34.069 22.8892 33.3325 22.0672 32.7234C21.25 32.1186 19.3837 30.7601 19.3165 29.6089C19.2678 28.7568 20.1764 29.8757 20.2934 30.0442C20.3706 30.1546 20.8728 31.0016 20.8728 31.0016Z" fill="url(#paint65_linear_5486_32281)"/>
<path fill-rule="evenodd" clip-rule="evenodd" d="M14.4144 50.5331C12.8949 50.6206 11.5567 51.2144 10.6938 52.1041L10.645 53.7779C11.5083 52.8885 12.8433 52.4011 14.3623 52.337L14.3233 53.6855L15.8389 53.7297L15.8771 52.4125C17.2679 52.613 18.4562 53.1763 19.2049 54.0651L19.2531 52.391C18.5046 51.5033 17.32 50.8478 15.9291 50.6144L15.9612 49.5102C17.3623 49.3582 18.5837 48.7729 19.3826 47.9297L19.4316 46.2554C18.6322 47.0991 17.4138 47.593 16.0133 47.7119L16.0548 46.2857L14.5392 46.2414L14.4966 47.6997C12.9835 47.5481 11.6796 46.9838 10.8695 46.0459L10.8205 47.7194C11.6311 48.657 12.9319 49.3284 14.4445 49.5036L14.4144 50.5331Z" fill="url(#paint66_linear_5486_32281)"/>
<path fill-rule="evenodd" clip-rule="evenodd" d="M17.9586 64.0664L16.2457 64.9672L15.6992 68.4533L17.3884 68.3606L16.8307 70.6659L18.5271 70.5912L18.0301 72.87L19.8964 72.9723L22.1363 71.7645L19.9335 71.3848L20.4223 69.0132L18.7148 69.1274L19.1466 66.794L17.4404 66.7984L17.9586 64.0664Z" fill="url(#paint67_linear_5486_32281)"/>
<path fill-rule="evenodd" clip-rule="evenodd" d="M21.8349 62.0273L20.1232 62.9285L19.5762 66.4143L21.2645 66.3221L20.7074 68.6268L22.404 68.5516L21.9065 70.8312L23.7737 70.9326L26.0135 69.7257L23.8104 69.346L24.299 66.9747L22.5915 67.0883L23.0232 64.7552L21.3174 64.7588L21.8349 62.0273Z" fill="url(#paint68_linear_5486_32281)"/>
<path fill-rule="evenodd" clip-rule="evenodd" d="M32.7713 82.5983C32.48 82.5283 32.9516 81.1061 33.1881 80.4309L32.0496 79.9504C31.2686 81.6738 31.1733 81.8356 30.7142 82.1888C30.5037 82.3504 30.1337 82.2317 30.1337 82.2317C30.0393 82.4576 29.6479 83.3827 29.6479 83.3827C30.275 83.6462 30.9006 83.3757 31.3844 82.9927L31.3867 83.1019C31.3995 83.4426 31.4842 84.1328 32.1109 84.3963C34.0878 85.227 35.1154 79.262 36.6549 80.437C36.7544 80.5125 36.7786 80.9487 36.4243 80.7999C35.8212 80.4465 37.0365 76.8874 34.8471 76.2966C34.6371 76.2398 34.4942 76.2442 34.4942 76.2442L34.1201 77.5348C34.5201 77.6473 34.9226 78.1712 34.9101 78.3938C34.8544 79.3328 34.4752 81.5387 35.9733 82.1679C36.5449 82.4083 37.4296 82.1286 37.8385 81.1559C38.5059 79.5671 36.0758 77.3646 33.9869 80.5147C33.5421 81.1866 32.9655 82.7431 32.7713 82.5983Z" fill="url(#paint69_linear_5486_32281)"/>
<path fill-rule="evenodd" clip-rule="evenodd" d="M53.9129 88.1488L53.7773 85.9663L56.5037 85.7078L56.4057 84.1396L53.6789 84.395C53.575 82.7457 53.5455 82.2894 53.5396 82.2153L51.9759 82.3621L52.1107 84.5418L48.6285 84.8685C49.8892 82.3875 49.604 82.9432 49.6477 82.8557L48.2561 82.1738L46.3906 85.8401L48.6945 89.1025L49.9898 88.1655L48.777 86.4373L52.2085 86.1142L52.3441 88.2961L53.9129 88.1488Z" fill="url(#paint70_linear_5486_32281)"/>
<path fill-rule="evenodd" clip-rule="evenodd" d="M68.9666 83.739C69.0257 83.8689 69.0711 84.0112 69.0688 84.1588C69.0588 84.256 69.0003 84.2872 68.9388 84.2819C68.8613 84.2741 68.7388 84.2009 68.6446 83.9956C68.0187 82.5981 67.2948 81.1131 66.641 79.7365L65.2725 80.3613L67.1878 84.5519C67.3594 84.9271 67.351 85.3207 66.8688 85.5432L66.7209 85.6117C67.1864 85.8204 67.5594 85.8304 68.0513 85.6065C68.3677 85.4616 68.6067 85.2001 68.7142 84.8931L68.761 84.9079L68.8156 84.9237C69.2137 85.0165 69.5736 84.9101 69.8296 84.7934C70.1463 84.6482 70.3844 84.3889 70.492 84.0814L70.5374 84.0959L70.5914 84.112C70.99 84.2042 71.3499 84.0987 71.6064 83.9817C72.1861 83.7165 72.5014 83.0644 72.236 82.4535C72.0883 82.1143 71.8833 81.6677 71.6566 81.1817C71.9635 81.4995 72.4441 81.8602 72.9106 81.6466C73.2948 81.4705 74.0563 81.0998 72.983 78.7516C72.2053 77.0482 70.875 76.4803 70.0457 76.2842C70.1103 76.2173 70.1875 76.1669 70.2719 76.1282C70.6959 75.9352 71.2 76.1226 71.2 76.1226L70.9803 75.6416C70.9803 75.6416 70.6204 75.2363 69.5619 75.7193C69.2466 75.8636 69.012 76.0329 68.8438 76.2184C68.0964 76.3081 67.2555 76.5533 67.2555 76.5533L67.4934 77.073C67.4934 77.073 67.907 76.9087 68.4986 76.8925C68.3764 77.4789 68.5967 78.1382 68.8318 78.7352L68.8917 78.8769L70.7432 82.9271C70.8023 83.058 70.8474 83.1992 70.8463 83.3463C70.836 83.4402 70.7805 83.4722 70.7254 83.4702C70.6546 83.468 70.541 83.4098 70.446 83.2324C69.8791 81.9482 69.0051 80.1541 68.4204 78.9235L67.0516 79.5485L68.9666 83.739ZM71.0262 79.8494L71.0098 79.8151L70.9424 79.6739C70.6488 79.0597 70.3769 78.4936 70.1953 78.1118C70.0226 77.7324 69.9207 77.4218 69.8741 77.1672C70.517 77.463 71.1725 78.0477 71.6725 79.1413C73.0928 82.2491 71.3975 80.5984 71.0262 79.8494Z" fill="url(#paint71_linear_5486_32281)"/>
<path fill-rule="evenodd" clip-rule="evenodd" d="M77.9756 70.69L82.3397 63.0666L80.9052 62.2451L76.5405 69.8685L77.9756 70.69ZM81.6767 66.907L81.1308 66.5941L82.9503 63.4156L84.3851 64.237L83.733 65.3763C84.1854 65.4067 84.6347 65.5373 85.0503 65.7749C86.5904 66.6568 87.0851 68.688 86.1559 70.3117C85.226 71.9357 83.2238 72.5373 81.6837 71.6551C81.2687 71.4175 80.9288 71.0964 80.6728 70.7212L80.0207 71.8604L78.5862 71.0393L80.3843 67.8983L80.9336 68.2053L81.8305 68.7189C81.8272 69.2546 82.1015 69.7746 82.5954 70.0568C83.3274 70.476 84.2639 70.2159 84.6879 69.476C85.1113 68.7354 84.862 67.7961 84.1302 67.3763C83.6299 67.0902 83.0347 67.1206 82.56 67.4123L81.6767 66.907Z" fill="url(#paint72_linear_5486_32281)"/>
<path fill-rule="evenodd" clip-rule="evenodd" d="M82.1884 46.8988C82.1723 47.1587 82.1854 47.3888 82.2235 47.593C82.3037 47.8751 82.4046 48.127 82.7943 48.4492C82.831 48.4802 82.8695 48.5094 82.9093 48.5364L82.9361 48.5551C83.3937 48.8607 84.016 48.9632 84.599 49.032L84.7539 49.0459L89.2553 49.3286C89.4001 49.3378 89.548 49.3654 89.6795 49.4367C89.7583 49.4907 89.76 49.5559 89.7316 49.6036C89.6962 49.6668 89.5895 49.7403 89.3862 49.74C87.9681 49.6328 85.9486 49.5559 84.5703 49.4896L84.4748 51.0105L89.131 51.303C89.2762 51.3122 89.4241 51.3392 89.5553 51.4108C89.6369 51.4668 89.6372 51.5345 89.6021 51.5863C89.5586 51.6529 89.4344 51.7264 89.2063 51.7122C87.6592 51.6033 85.9879 51.5398 84.4458 51.466L84.3505 52.9868L89.0068 53.279C89.4238 53.3049 89.7717 53.4997 89.7397 54.0381L89.7299 54.2016C90.1386 53.8863 90.3263 53.5587 90.3606 53.0119C90.3829 52.6598 90.2636 52.3214 90.0402 52.0793L90.0762 52.0442L90.1163 52.0033C90.389 51.6921 90.4664 51.3203 90.4848 51.0356C90.5068 50.6843 90.3882 50.3467 90.1661 50.1047L90.2001 50.0712L90.24 50.0309C90.5127 49.718 90.5904 49.3473 90.6082 49.0623C90.6489 48.4178 90.2174 47.8244 89.545 47.7699C89.3728 47.7559 89.1739 47.7417 88.9567 47.7275C87.7338 47.6512 84.3141 47.491 84.0723 47.435L83.9653 47.4091C83.9152 47.3952 83.8684 47.3816 83.823 47.3673C83.0987 47.13 82.9475 46.8437 82.9895 46.3437C83.0238 46.1211 83.1196 45.9275 83.2168 45.7777L83.7776 46.1364L83.8202 44.7119L82.2706 45.1835C82.287 45.1885 82.4962 45.3194 82.7531 45.4821C82.5723 45.6024 82.248 45.9492 82.1884 46.8988Z" fill="url(#paint73_linear_5486_32281)"/>
<path fill-rule="evenodd" clip-rule="evenodd" d="M81.4793 34.4863C81.4194 34.2652 81.55 34.0379 81.7701 33.9774C81.991 33.9175 82.2188 34.0473 82.279 34.2685C82.3392 34.4888 82.2088 34.717 81.9885 34.7771C81.7676 34.8373 81.54 34.707 81.4793 34.4863ZM82.4027 36.3078C83.4542 36.0214 84.0771 34.9421 83.8024 33.8902C83.9645 33.8682 84.1292 33.8334 84.2985 33.7822C87.6097 32.7783 85.5052 27.781 82.5169 29.437C81.4099 30.0507 80.4211 30.8641 79.5194 31.6117C78.6762 32.3111 78.562 31.6122 78.8551 31.4646L78.4194 29.9925C75.9668 30.7192 77.7113 35.1067 80.4996 32.7939C81.4138 32.0351 82.3283 31.3635 83.2612 30.7794C84.3278 30.1122 85.491 32.6607 82.7487 32.3744C82.3556 32.3343 81.8863 32.3329 81.4559 32.4521L81.3587 32.476C80.3007 32.7643 79.6768 33.8563 79.9651 34.9148C80.2531 35.9724 81.345 36.5961 82.4027 36.3078Z" fill="url(#paint74_linear_5486_32281)"/>
<path fill-rule="evenodd" clip-rule="evenodd" d="M73.5167 18.8083C73.3685 17.2994 72.0406 15.6431 70.1287 14.725C68.8571 14.1144 67.5735 13.8657 66.1785 14.1136L65.3632 15.7921C67.2838 15.3949 69.2799 15.7339 70.6574 17.186C70.186 17.3746 69.7794 17.7339 69.5418 18.2292C69.0384 19.2768 69.4799 20.5339 70.5275 21.037C71.5755 21.54 72.8323 21.0985 73.3359 20.0512C73.5284 19.6495 73.5824 19.2172 73.5167 18.8083ZM71.2665 19.5111C71.0509 19.4074 70.9604 19.1489 71.0635 18.9334C71.1674 18.7175 71.4259 18.6264 71.6415 18.7303C71.8565 18.8331 71.9479 19.0924 71.844 19.308C71.7406 19.5236 71.4821 19.6141 71.2665 19.5111ZM66.3337 18.1648C66.5493 18.2679 66.6398 18.5264 66.5365 18.742C66.4334 18.9573 66.1743 19.0484 65.9593 18.9451C65.7437 18.8414 65.6526 18.5824 65.756 18.3673C65.8596 18.1517 66.1184 18.0609 66.3337 18.1648ZM64.0838 18.8668C64.0181 18.4581 64.0721 18.0256 64.2646 17.6247C64.7674 16.5765 66.0253 16.1353 67.0727 16.6381C68.1203 17.1412 68.5618 18.3985 68.059 19.4464C67.8211 19.9412 67.4153 20.3008 66.9426 20.4893C68.3206 21.9411 70.3161 22.2804 72.237 21.8832L71.4214 23.5615C70.0264 23.8097 68.744 23.5607 67.4721 22.9501C65.5601 22.0322 64.232 20.3757 64.0838 18.8668Z" fill="url(#paint75_linear_5486_32281)"/>
<path fill-rule="evenodd" clip-rule="evenodd" d="M54.4596 16.8495C54.0312 16.6929 53.6 16.5551 53.156 16.4478L53.4476 12.0191C53.9019 11.9707 54.3473 11.891 54.793 11.7918L54.9022 10.1275C53.5746 10.4222 52.3992 10.5063 51.0337 10.4166C49.5822 10.3208 48.3616 10.0645 47.0187 9.52832L46.9086 11.198C47.3777 11.3854 47.844 11.5425 48.3345 11.6654L48.0407 16.1286C47.5382 16.1863 47.0554 16.2812 46.5663 16.4055L46.4565 18.0751C47.8582 17.72 49.1011 17.6253 50.5532 17.7208C51.9189 17.8111 53.0735 18.0481 54.3504 18.5147L54.4596 16.8495ZM50.6613 16.0773C50.4816 16.0659 50.1184 16.045 49.9432 16.0392L50.2089 12.0027C50.3836 12.0197 50.7462 12.0464 50.9256 12.0584C51.0719 12.0676 51.4019 12.0879 51.5454 12.0932L51.2802 16.1239C51.137 16.1113 50.8072 16.0874 50.6613 16.0773Z" fill="url(#paint76_linear_5486_32281)"/>
<path fill-rule="evenodd" clip-rule="evenodd" d="M33.8633 14.3291C33.8633 14.3291 33.2282 14.5188 32.6427 15.6152C32.0332 16.7575 32.5561 18.3405 31.8338 18.8609C31.0878 19.3478 29.7992 18.2893 28.5146 18.4464C27.2806 18.5968 26.875 19.1221 26.875 19.1221L27.7856 20.4494C27.7856 20.4494 28.3499 20.006 28.8446 20.0316C29.2034 20.05 30.1251 20.3934 30.8056 20.5149C30.4987 21.3611 30.5778 22.3127 31.1062 23.0829C32.0023 24.3904 33.8524 24.679 35.2388 23.7285C36.6246 22.7778 37.0215 20.9478 36.1254 19.6411C35.5817 18.848 34.6881 18.4299 33.7583 18.4352C33.8792 17.76 33.8942 16.8255 34.0026 16.4943C34.1569 16.0241 34.7742 15.657 34.7742 15.657L33.8633 14.3291ZM34.7552 20.5759C35.1814 21.1976 35.0146 22.0525 34.3825 22.4854C33.7502 22.9194 32.8925 22.7667 32.4666 22.1453C32.0407 21.5235 32.2076 20.6689 32.8396 20.2355C33.4714 19.8021 34.329 19.9547 34.7552 20.5759Z" fill="url(#paint77_linear_5486_32281)"/>
<path fill-rule="evenodd" clip-rule="evenodd" d="M40.2358 63.0211C40.1791 63.0211 40.1255 63.0082 40.0774 62.9857C39.6685 62.9515 39.3004 62.7706 39.0264 62.4966C38.7203 62.1905 38.5319 61.7688 38.5319 61.3021C38.5319 60.8355 38.7214 60.4138 39.0264 60.1077C39.3325 59.8016 39.7542 59.6132 40.2208 59.6132C43.1824 59.6582 46.1823 59.6132 49.148 59.6132V52.4047H40.2359C40.1792 52.4047 40.1257 52.3918 40.0786 52.3694C39.6697 52.3351 39.3015 52.1542 39.0276 51.8802C38.7279 51.5805 38.5406 51.1685 38.5331 50.7125C38.4721 47.1753 38.5866 43.6078 38.5331 40.0684C38.5331 39.6017 38.7225 39.18 39.0276 38.8739C39.3337 38.5678 39.7553 38.3794 40.222 38.3794C40.6887 38.3794 41.1103 38.5689 41.4164 38.8739C41.6904 39.1479 41.8713 39.5161 41.9056 39.9249C41.928 39.9731 41.9409 40.0266 41.9409 40.0833V48.9956H49.1493C49.1493 46.0299 49.1943 43.0299 49.1493 40.0683C49.1493 39.6016 49.3387 39.1799 49.6438 38.8738C49.9499 38.5677 50.3716 38.3793 50.8382 38.3793C54.3776 38.4328 57.9439 38.3194 61.4822 38.3793C61.9264 38.3868 62.3288 38.5656 62.6263 38.8524L62.6499 38.8738C62.956 39.1799 63.1444 39.6016 63.1444 40.0683C63.1444 40.5349 62.9549 40.9566 62.6499 41.2627L62.6488 41.2617L62.6478 41.2627C62.3813 41.5282 62.0281 41.7058 61.6342 41.7486C61.5839 41.7732 61.5282 41.7872 61.4694 41.7872H52.5573V48.9957C55.5197 48.9957 58.5251 48.9454 61.4823 48.9957C61.9382 49.0032 62.3492 49.1905 62.6499 49.4902C62.9239 49.7642 63.1048 50.1324 63.1391 50.5412C63.1615 50.5894 63.1744 50.6429 63.1744 50.6985V61.3147C63.1744 61.3736 63.1605 61.4303 63.1358 61.4796C63.0941 61.8745 62.9164 62.2288 62.65 62.4953C62.3438 62.8014 61.9222 62.9897 61.4555 62.9897C60.9889 62.9897 60.5672 62.8003 60.2611 62.4953C59.9614 62.1956 59.7741 61.7835 59.7666 61.3276C59.7152 58.3714 59.7666 55.3638 59.7666 52.4025H52.5582V61.3147C52.5582 61.3736 52.5443 61.4303 52.5197 61.4795C52.4779 61.8745 52.3002 62.2287 52.0338 62.4942C51.7673 62.7607 51.413 62.9373 51.0191 62.9801C50.9688 63.0047 50.9132 63.0186 50.8543 63.0186L40.2358 63.0211ZM46.7387 54.0039C46.4326 53.6978 46.0109 53.5094 45.5443 53.5094C45.0776 53.5094 44.6548 53.6988 44.3498 54.0039C44.0437 54.31 43.8553 54.7317 43.8553 55.1983C43.8553 55.665 44.0448 56.0867 44.3498 56.3928L44.3734 56.4142C44.6773 56.7074 45.0905 56.8883 45.5453 56.8883C46.0119 56.8883 46.4336 56.6989 46.7397 56.3939C47.0458 56.0878 47.2342 55.6661 47.2342 55.1994C47.2342 54.7327 47.0448 54.3111 46.7397 54.005L46.7387 54.0039ZM57.3547 44.9782C57.0486 44.6721 56.627 44.4837 56.1603 44.4837C55.6936 44.4837 55.272 44.6732 54.9659 44.9782C54.6598 45.2843 54.4714 45.706 54.4714 46.1727C54.4714 46.6393 54.6608 47.0621 54.9659 47.3671C55.272 47.6732 55.6936 47.8616 56.1603 47.8616C56.627 47.8616 57.0486 47.6721 57.3547 47.3671L57.3761 47.3436C57.6694 47.0396 57.8503 46.6265 57.8503 46.1716C57.8503 45.705 57.6608 45.2833 57.3558 44.9772L57.3547 44.9782ZM46.7387 44.9782C46.4326 44.6721 46.0109 44.4837 45.5443 44.4837C45.0776 44.4837 44.6548 44.6732 44.3498 44.9782C44.0437 45.2843 43.8553 45.706 43.8553 46.1727C43.8553 46.6393 44.0448 47.0599 44.3498 47.366L44.3509 47.3671C44.657 47.6732 45.0787 47.8616 45.5443 47.8616C46.0098 47.8616 46.4326 47.6721 46.7387 47.3671L46.7601 47.3436C47.0533 47.0396 47.2342 46.6265 47.2342 46.1716C47.2342 45.705 47.0448 45.2833 46.7398 44.9772L46.7387 44.9782ZM57.3547 54.0039C57.0486 53.6978 56.627 53.5094 56.1603 53.5094C55.6936 53.5094 55.272 53.6988 54.9659 54.0039C54.6598 54.31 54.4714 54.7317 54.4714 55.1983C54.4714 55.665 54.6608 56.0867 54.9659 56.3928C55.272 56.6989 55.6936 56.8873 56.1603 56.8873C56.627 56.8873 57.0486 56.6978 57.3547 56.3928C57.6608 56.0867 57.8492 55.665 57.8492 55.1983C57.8492 54.7317 57.6598 54.31 57.3547 54.0039Z" fill="url(#paint78_linear_5486_32281)"/>
<defs>
<linearGradient id="paint0_linear_5486_32281" x1="115.718" y1="36.3701" x2="234.718" y2="36.3701" gradientUnits="userSpaceOnUse">
<stop stop-color="#C32853"/>
<stop offset="1" stop-color="#EE7E49"/>
</linearGradient>
<linearGradient id="paint1_linear_5486_32281" x1="0.803223" y1="50.5225" x2="100.803" y2="50.5225" gradientUnits="userSpaceOnUse">
<stop stop-color="#C32853"/>
<stop offset="1" stop-color="#EE7E49"/>
</linearGradient>
<linearGradient id="paint2_linear_5486_32281" x1="4.146" y1="50.6066" x2="97.6247" y2="50.6066" gradientUnits="userSpaceOnUse">
<stop stop-color="#C32853"/>
<stop offset="1" stop-color="#EE7E49"/>
</linearGradient>
<linearGradient id="paint3_linear_5486_32281" x1="27.3423" y1="50.6054" x2="74.4282" y2="50.6054" gradientUnits="userSpaceOnUse">
<stop stop-color="#C32853"/>
<stop offset="1" stop-color="#EE7E49"/>
</linearGradient>
<linearGradient id="paint4_linear_5486_32281" x1="17.1135" y1="41.8114" x2="17.3664" y2="40.867" gradientUnits="userSpaceOnUse">
<stop stop-color="#C32853"/>
<stop offset="1" stop-color="#EE7E49"/>
</linearGradient>
<linearGradient id="paint5_linear_5486_32281" x1="5.77197" y1="59.4873" x2="28.4404" y2="59.4873" gradientUnits="userSpaceOnUse">
<stop stop-color="#C32853"/>
<stop offset="1" stop-color="#EE7E49"/>
</linearGradient>
<linearGradient id="paint6_linear_5486_32281" x1="18.2124" y1="83.659" x2="34.5971" y2="67.265" gradientUnits="userSpaceOnUse">
<stop stop-color="#C32853"/>
<stop offset="1" stop-color="#EE7E49"/>
</linearGradient>
<linearGradient id="paint7_linear_5486_32281" x1="38.7316" y1="95.4029" x2="44.7091" y2="73.0738" gradientUnits="userSpaceOnUse">
<stop stop-color="#C32853"/>
<stop offset="1" stop-color="#EE7E49"/>
</linearGradient>
<linearGradient id="paint8_linear_5486_32281" x1="56.6826" y1="84.0048" x2="65.5325" y2="84.0048" gradientUnits="userSpaceOnUse">
<stop stop-color="#C32853"/>
<stop offset="1" stop-color="#EE7E49"/>
</linearGradient>
<linearGradient id="paint9_linear_5486_32281" x1="75.4791" y1="75.533" x2="75.8225" y2="75.1894" gradientUnits="userSpaceOnUse">
<stop stop-color="#C32853"/>
<stop offset="1" stop-color="#EE7E49"/>
</linearGradient>
<linearGradient id="paint10_linear_5486_32281" x1="84.6543" y1="59.9022" x2="84.78" y2="59.4327" gradientUnits="userSpaceOnUse">
<stop stop-color="#C32853"/>
<stop offset="1" stop-color="#EE7E49"/>
</linearGradient>
<linearGradient id="paint11_linear_5486_32281" x1="73.3286" y1="40.3839" x2="95.2367" y2="40.3839" gradientUnits="userSpaceOnUse">
<stop stop-color="#C32853"/>
<stop offset="1" stop-color="#EE7E49"/>
</linearGradient>
<linearGradient id="paint12_linear_5486_32281" x1="67.3588" y1="34.1248" x2="83.7338" y2="17.7405" gradientUnits="userSpaceOnUse">
<stop stop-color="#C32853"/>
<stop offset="1" stop-color="#EE7E49"/>
</linearGradient>
<linearGradient id="paint13_linear_5486_32281" x1="56.9164" y1="28.098" x2="62.9066" y2="5.72158" gradientUnits="userSpaceOnUse">
<stop stop-color="#C32853"/>
<stop offset="1" stop-color="#EE7E49"/>
</linearGradient>
<linearGradient id="paint14_linear_5486_32281" x1="44.8096" y1="17.0688" x2="37.6313" y2="17.0688" gradientUnits="userSpaceOnUse">
<stop stop-color="#C32853"/>
<stop offset="1" stop-color="#EE7E49"/>
</linearGradient>
<linearGradient id="paint15_linear_5486_32281" x1="25.8393" y1="26.1008" x2="26.2798" y2="25.66" gradientUnits="userSpaceOnUse">
<stop stop-color="#C32853"/>
<stop offset="1" stop-color="#EE7E49"/>
</linearGradient>
<linearGradient id="paint16_linear_5486_32281" x1="28.9014" y1="50.6054" x2="72.8679" y2="50.6054" gradientUnits="userSpaceOnUse">
<stop stop-color="#C32853"/>
<stop offset="1" stop-color="#EE7E49"/>
</linearGradient>
<linearGradient id="paint17_linear_5486_32281" x1="56.25" y1="28.7395" x2="57.1879" y2="28.7395" gradientUnits="userSpaceOnUse">
<stop stop-color="#C32853"/>
<stop offset="1" stop-color="#EE7E49"/>
</linearGradient>
<linearGradient id="paint18_linear_5486_32281" x1="53.4575" y1="28.1678" x2="54.1731" y2="28.1678" gradientUnits="userSpaceOnUse">
<stop stop-color="#C32853"/>
<stop offset="1" stop-color="#EE7E49"/>
</linearGradient>
<linearGradient id="paint19_linear_5486_32281" x1="50.6162" y1="27.9798" x2="51.1062" y2="27.9798" gradientUnits="userSpaceOnUse">
<stop stop-color="#C32853"/>
<stop offset="1" stop-color="#EE7E49"/>
</linearGradient>
<linearGradient id="paint20_linear_5486_32281" x1="47.5464" y1="28.1781" x2="48.2703" y2="28.1781" gradientUnits="userSpaceOnUse">
<stop stop-color="#C32853"/>
<stop offset="1" stop-color="#EE7E49"/>
</linearGradient>
<linearGradient id="paint21_linear_5486_32281" x1="44.5342" y1="28.761" x2="45.4796" y2="28.761" gradientUnits="userSpaceOnUse">
<stop stop-color="#C32853"/>
<stop offset="1" stop-color="#EE7E49"/>
</linearGradient>
<linearGradient id="paint22_linear_5486_32281" x1="41.6304" y1="29.718" x2="42.7811" y2="29.718" gradientUnits="userSpaceOnUse">
<stop stop-color="#C32853"/>
<stop offset="1" stop-color="#EE7E49"/>
</linearGradient>
<linearGradient id="paint23_linear_5486_32281" x1="38.8857" y1="31.0321" x2="40.2222" y2="31.0321" gradientUnits="userSpaceOnUse">
<stop stop-color="#C32853"/>
<stop offset="1" stop-color="#EE7E49"/>
</linearGradient>
<linearGradient id="paint24_linear_5486_32281" x1="36.3462" y1="32.6813" x2="37.8456" y2="32.6813" gradientUnits="userSpaceOnUse">
<stop stop-color="#C32853"/>
<stop offset="1" stop-color="#EE7E49"/>
</linearGradient>
<linearGradient id="paint25_linear_5486_32281" x1="34.0562" y1="34.6379" x2="35.6926" y2="34.6379" gradientUnits="userSpaceOnUse">
<stop stop-color="#C32853"/>
<stop offset="1" stop-color="#EE7E49"/>
</linearGradient>
<linearGradient id="paint26_linear_5486_32281" x1="32.0542" y1="36.8657" x2="33.8002" y2="36.8657" gradientUnits="userSpaceOnUse">
<stop stop-color="#C32853"/>
<stop offset="1" stop-color="#EE7E49"/>
</linearGradient>
<linearGradient id="paint27_linear_5486_32281" x1="30.375" y1="39.3304" x2="32.2001" y2="39.3304" gradientUnits="userSpaceOnUse">
<stop stop-color="#C32853"/>
<stop offset="1" stop-color="#EE7E49"/>
</linearGradient>
<linearGradient id="paint28_linear_5486_32281" x1="29.0474" y1="41.987" x2="30.9203" y2="41.987" gradientUnits="userSpaceOnUse">
<stop stop-color="#C32853"/>
<stop offset="1" stop-color="#EE7E49"/>
</linearGradient>
<linearGradient id="paint29_linear_5486_32281" x1="28.0933" y1="44.7912" x2="29.9824" y2="44.7912" gradientUnits="userSpaceOnUse">
<stop stop-color="#C32853"/>
<stop offset="1" stop-color="#EE7E49"/>
</linearGradient>
<linearGradient id="paint30_linear_5486_32281" x1="27.5293" y1="47.6955" x2="29.402" y2="47.6955" gradientUnits="userSpaceOnUse">
<stop stop-color="#C32853"/>
<stop offset="1" stop-color="#EE7E49"/>
</linearGradient>
<linearGradient id="paint31_linear_5486_32281" x1="27.3633" y1="50.6483" x2="29.192" y2="50.6483" gradientUnits="userSpaceOnUse">
<stop stop-color="#C32853"/>
<stop offset="1" stop-color="#EE7E49"/>
</linearGradient>
<linearGradient id="paint32_linear_5486_32281" x1="27.5396" y1="53.6012" x2="29.4153" y2="53.6012" gradientUnits="userSpaceOnUse">
<stop stop-color="#C32853"/>
<stop offset="1" stop-color="#EE7E49"/>
</linearGradient>
<linearGradient id="paint33_linear_5486_32281" x1="28.1152" y1="56.503" x2="30.006" y2="56.503" gradientUnits="userSpaceOnUse">
<stop stop-color="#C32853"/>
<stop offset="1" stop-color="#EE7E49"/>
</linearGradient>
<linearGradient id="paint34_linear_5486_32281" x1="29.0801" y1="59.305" x2="30.9536" y2="59.305" gradientUnits="userSpaceOnUse">
<stop stop-color="#C32853"/>
<stop offset="1" stop-color="#EE7E49"/>
</linearGradient>
<linearGradient id="paint35_linear_5486_32281" x1="30.4185" y1="61.9573" x2="32.2427" y2="61.9573" gradientUnits="userSpaceOnUse">
<stop stop-color="#C32853"/>
<stop offset="1" stop-color="#EE7E49"/>
</linearGradient>
<linearGradient id="paint36_linear_5486_32281" x1="32.1084" y1="64.4138" x2="33.8519" y2="64.4138" gradientUnits="userSpaceOnUse">
<stop stop-color="#C32853"/>
<stop offset="1" stop-color="#EE7E49"/>
</linearGradient>
<linearGradient id="paint37_linear_5486_32281" x1="34.1191" y1="66.6356" x2="35.7523" y2="66.6356" gradientUnits="userSpaceOnUse">
<stop stop-color="#C32853"/>
<stop offset="1" stop-color="#EE7E49"/>
</linearGradient>
<linearGradient id="paint38_linear_5486_32281" x1="36.4175" y1="68.582" x2="37.9122" y2="68.582" gradientUnits="userSpaceOnUse">
<stop stop-color="#C32853"/>
<stop offset="1" stop-color="#EE7E49"/>
</linearGradient>
<linearGradient id="paint39_linear_5486_32281" x1="38.9634" y1="70.2221" x2="40.294" y2="70.2221" gradientUnits="userSpaceOnUse">
<stop stop-color="#C32853"/>
<stop offset="1" stop-color="#EE7E49"/>
</linearGradient>
<linearGradient id="paint40_linear_5486_32281" x1="41.7134" y1="71.5265" x2="42.8574" y2="71.5265" gradientUnits="userSpaceOnUse">
<stop stop-color="#C32853"/>
<stop offset="1" stop-color="#EE7E49"/>
</linearGradient>
<linearGradient id="paint41_linear_5486_32281" x1="44.6206" y1="72.4729" x2="45.5585" y2="72.4729" gradientUnits="userSpaceOnUse">
<stop stop-color="#C32853"/>
<stop offset="1" stop-color="#EE7E49"/>
</linearGradient>
<linearGradient id="paint42_linear_5486_32281" x1="47.6357" y1="73.0447" x2="48.3513" y2="73.0447" gradientUnits="userSpaceOnUse">
<stop stop-color="#C32853"/>
<stop offset="1" stop-color="#EE7E49"/>
</linearGradient>
<linearGradient id="paint43_linear_5486_32281" x1="50.7026" y1="73.2317" x2="51.1926" y2="73.2317" gradientUnits="userSpaceOnUse">
<stop stop-color="#C32853"/>
<stop offset="1" stop-color="#EE7E49"/>
</linearGradient>
<linearGradient id="paint44_linear_5486_32281" x1="53.5386" y1="73.0326" x2="54.2625" y2="73.0326" gradientUnits="userSpaceOnUse">
<stop stop-color="#C32853"/>
<stop offset="1" stop-color="#EE7E49"/>
</linearGradient>
<linearGradient id="paint45_linear_5486_32281" x1="56.3291" y1="72.4504" x2="57.2745" y2="72.4504" gradientUnits="userSpaceOnUse">
<stop stop-color="#C32853"/>
<stop offset="1" stop-color="#EE7E49"/>
</linearGradient>
<linearGradient id="paint46_linear_5486_32281" x1="59.0283" y1="71.4934" x2="60.179" y2="71.4934" gradientUnits="userSpaceOnUse">
<stop stop-color="#C32853"/>
<stop offset="1" stop-color="#EE7E49"/>
</linearGradient>
<linearGradient id="paint47_linear_5486_32281" x1="61.5869" y1="70.1797" x2="62.9234" y2="70.1797" gradientUnits="userSpaceOnUse">
<stop stop-color="#C32853"/>
<stop offset="1" stop-color="#EE7E49"/>
</linearGradient>
<linearGradient id="paint48_linear_5486_32281" x1="63.9634" y1="68.5299" x2="65.4628" y2="68.5299" gradientUnits="userSpaceOnUse">
<stop stop-color="#C32853"/>
<stop offset="1" stop-color="#EE7E49"/>
</linearGradient>
<linearGradient id="paint49_linear_5486_32281" x1="66.1157" y1="66.5744" x2="67.7522" y2="66.5744" gradientUnits="userSpaceOnUse">
<stop stop-color="#C32853"/>
<stop offset="1" stop-color="#EE7E49"/>
</linearGradient>
<linearGradient id="paint50_linear_5486_32281" x1="68.0088" y1="64.346" x2="69.7548" y2="64.346" gradientUnits="userSpaceOnUse">
<stop stop-color="#C32853"/>
<stop offset="1" stop-color="#EE7E49"/>
</linearGradient>
<linearGradient id="paint51_linear_5486_32281" x1="69.6079" y1="61.8811" x2="71.433" y2="61.8811" gradientUnits="userSpaceOnUse">
<stop stop-color="#C32853"/>
<stop offset="1" stop-color="#EE7E49"/>
</linearGradient>
<linearGradient id="paint52_linear_5486_32281" x1="70.8882" y1="59.2243" x2="72.7612" y2="59.2243" gradientUnits="userSpaceOnUse">
<stop stop-color="#C32853"/>
<stop offset="1" stop-color="#EE7E49"/>
</linearGradient>
<linearGradient id="paint53_linear_5486_32281" x1="71.8271" y1="56.4211" x2="73.716" y2="56.4211" gradientUnits="userSpaceOnUse">
<stop stop-color="#C32853"/>
<stop offset="1" stop-color="#EE7E49"/>
</linearGradient>
<linearGradient id="paint54_linear_5486_32281" x1="72.4067" y1="53.516" x2="74.2794" y2="53.516" gradientUnits="userSpaceOnUse">
<stop stop-color="#C32853"/>
<stop offset="1" stop-color="#EE7E49"/>
</linearGradient>
<linearGradient id="paint55_linear_5486_32281" x1="72.6167" y1="50.5624" x2="74.4454" y2="50.5624" gradientUnits="userSpaceOnUse">
<stop stop-color="#C32853"/>
<stop offset="1" stop-color="#EE7E49"/>
</linearGradient>
<linearGradient id="paint56_linear_5486_32281" x1="72.3936" y1="47.609" x2="74.2693" y2="47.609" gradientUnits="userSpaceOnUse">
<stop stop-color="#C32853"/>
<stop offset="1" stop-color="#EE7E49"/>
</linearGradient>
<linearGradient id="paint57_linear_5486_32281" x1="71.8032" y1="44.7082" x2="73.6943" y2="44.7082" gradientUnits="userSpaceOnUse">
<stop stop-color="#C32853"/>
<stop offset="1" stop-color="#EE7E49"/>
</linearGradient>
<linearGradient id="paint58_linear_5486_32281" x1="70.8555" y1="41.9074" x2="72.729" y2="41.9074" gradientUnits="userSpaceOnUse">
<stop stop-color="#C32853"/>
<stop offset="1" stop-color="#EE7E49"/>
</linearGradient>
<linearGradient id="paint59_linear_5486_32281" x1="69.5659" y1="39.2552" x2="71.3902" y2="39.2552" gradientUnits="userSpaceOnUse">
<stop stop-color="#C32853"/>
<stop offset="1" stop-color="#EE7E49"/>
</linearGradient>
<linearGradient id="paint60_linear_5486_32281" x1="67.957" y1="36.7976" x2="69.7005" y2="36.7976" gradientUnits="userSpaceOnUse">
<stop stop-color="#C32853"/>
<stop offset="1" stop-color="#EE7E49"/>
</linearGradient>
<linearGradient id="paint61_linear_5486_32281" x1="66.0571" y1="34.5761" x2="67.6903" y2="34.5761" gradientUnits="userSpaceOnUse">
<stop stop-color="#C32853"/>
<stop offset="1" stop-color="#EE7E49"/>
</linearGradient>
<linearGradient id="paint62_linear_5486_32281" x1="63.897" y1="32.6288" x2="65.392" y2="32.6288" gradientUnits="userSpaceOnUse">
<stop stop-color="#C32853"/>
<stop offset="1" stop-color="#EE7E49"/>
</linearGradient>
<linearGradient id="paint63_linear_5486_32281" x1="61.5146" y1="30.9887" x2="62.8456" y2="30.9887" gradientUnits="userSpaceOnUse">
<stop stop-color="#C32853"/>
<stop offset="1" stop-color="#EE7E49"/>
</linearGradient>
<linearGradient id="paint64_linear_5486_32281" x1="58.9517" y1="29.6855" x2="60.0957" y2="29.6855" gradientUnits="userSpaceOnUse">
<stop stop-color="#C32853"/>
<stop offset="1" stop-color="#EE7E49"/>
</linearGradient>
<linearGradient id="paint65_linear_5486_32281" x1="14.6602" y1="31.4356" x2="24.0154" y2="31.4356" gradientUnits="userSpaceOnUse">
<stop stop-color="#C32853"/>
<stop offset="1" stop-color="#EE7E49"/>
</linearGradient>
<linearGradient id="paint66_linear_5486_32281" x1="10.645" y1="50.0555" x2="19.4316" y2="50.0555" gradientUnits="userSpaceOnUse">
<stop stop-color="#C32853"/>
<stop offset="1" stop-color="#EE7E49"/>
</linearGradient>
<linearGradient id="paint67_linear_5486_32281" x1="15.6992" y1="68.5193" x2="22.1363" y2="68.5193" gradientUnits="userSpaceOnUse">
<stop stop-color="#C32853"/>
<stop offset="1" stop-color="#EE7E49"/>
</linearGradient>
<linearGradient id="paint68_linear_5486_32281" x1="19.5762" y1="66.48" x2="26.0135" y2="66.48" gradientUnits="userSpaceOnUse">
<stop stop-color="#C32853"/>
<stop offset="1" stop-color="#EE7E49"/>
</linearGradient>
<linearGradient id="paint69_linear_5486_32281" x1="29.6479" y1="80.3601" x2="37.9511" y2="80.3601" gradientUnits="userSpaceOnUse">
<stop stop-color="#C32853"/>
<stop offset="1" stop-color="#EE7E49"/>
</linearGradient>
<linearGradient id="paint70_linear_5486_32281" x1="46.3906" y1="85.6382" x2="56.5037" y2="85.6382" gradientUnits="userSpaceOnUse">
<stop stop-color="#C32853"/>
<stop offset="1" stop-color="#EE7E49"/>
</linearGradient>
<linearGradient id="paint71_linear_5486_32281" x1="65.2725" y1="80.6269" x2="73.5331" y2="80.6269" gradientUnits="userSpaceOnUse">
<stop stop-color="#C32853"/>
<stop offset="1" stop-color="#EE7E49"/>
</linearGradient>
<linearGradient id="paint72_linear_5486_32281" x1="76.5405" y1="67.1533" x2="86.6247" y2="67.1533" gradientUnits="userSpaceOnUse">
<stop stop-color="#C32853"/>
<stop offset="1" stop-color="#EE7E49"/>
</linearGradient>
<linearGradient id="paint73_linear_5486_32281" x1="82.1816" y1="49.4568" x2="90.6108" y2="49.4568" gradientUnits="userSpaceOnUse">
<stop stop-color="#C32853"/>
<stop offset="1" stop-color="#EE7E49"/>
</linearGradient>
<linearGradient id="paint74_linear_5486_32281" x1="77.249" y1="32.7408" x2="85.9804" y2="32.7408" gradientUnits="userSpaceOnUse">
<stop stop-color="#C32853"/>
<stop offset="1" stop-color="#EE7E49"/>
</linearGradient>
<linearGradient id="paint75_linear_5486_32281" x1="64.0571" y1="18.8376" x2="73.5434" y2="18.8376" gradientUnits="userSpaceOnUse">
<stop stop-color="#C32853"/>
<stop offset="1" stop-color="#EE7E49"/>
</linearGradient>
<linearGradient id="paint76_linear_5486_32281" x1="46.4565" y1="14.0215" x2="54.9022" y2="14.0215" gradientUnits="userSpaceOnUse">
<stop stop-color="#C32853"/>
<stop offset="1" stop-color="#EE7E49"/>
</linearGradient>
<linearGradient id="paint77_linear_5486_32281" x1="26.875" y1="19.3088" x2="36.6047" y2="19.3088" gradientUnits="userSpaceOnUse">
<stop stop-color="#C32853"/>
<stop offset="1" stop-color="#EE7E49"/>
</linearGradient>
<linearGradient id="paint78_linear_5486_32281" x1="38.5146" y1="50.6912" x2="63.1744" y2="50.6912" gradientUnits="userSpaceOnUse">
<stop stop-color="#C32853"/>
<stop offset="1" stop-color="#EE7E49"/>
</linearGradient>
</defs>
</svg>
