<svg width="60" height="60" viewBox="0 0 60 60" fill="none" xmlns="http://www.w3.org/2000/svg">
<path d="M27.3256 7.00284C26.435 6.98 25.5215 7.09419 24.5395 7.36824C20.6115 8.44158 18.9216 11.182 16.9804 12.8948C14.1258 12.1184 10.3348 11.2962 7.48018 12.027C4.71689 12.7806 2.73006 14.4934 1.7709 16.6858C0.811739 19.1979 0.788902 21.7556 1.47402 24.1078C2.47885 27.7846 6.36116 30.6621 10.7002 33.4482C15.0393 36.2572 19.9721 38.8606 23.3063 41.0986L24.5623 41.9436L25.2018 40.6191C25.6357 39.7513 26.1153 38.8149 26.6405 37.8558C26.1609 36.8509 25.7042 35.8918 25.2931 34.9326C24.6765 36.0745 24.0828 37.1935 23.5347 38.244C20.1091 36.0745 15.8842 33.7679 12.1161 31.3244C7.91408 28.6296 4.57986 25.7064 3.96326 23.4912C3.43801 21.5501 3.46084 19.312 4.14596 17.6906C4.80823 16.1834 6.0186 15.0643 8.16529 14.4706C11.3853 13.6713 14.24 14.973 17.2773 15.5439C17.734 15.6581 17.8711 15.5439 18.1908 15.2699C20.9084 13.1689 22.0959 10.6796 25.2246 9.81181C27.0287 9.35506 28.8557 9.51492 30.2488 10.5198C31.5505 11.4789 32.7609 13.0547 33.1719 15.3612C33.3089 16.2747 33.2176 17.074 33.0121 17.8276C33.9027 17.8276 34.9761 17.9647 35.684 18.2387C35.8667 17.0512 35.8895 15.818 35.684 14.7903C35.2273 12.0955 33.6972 9.90315 31.7789 8.48725C30.2716 7.5281 28.8329 7.04852 27.3256 7.00284ZM33.5602 18.5127C31.619 18.4214 29.5865 18.9695 28.2163 19.9743C26.2294 21.5958 24.7222 23.8795 24.2883 26.323C23.6032 29.7486 25.4987 34.0877 27.8052 38.7921C30.2945 43.8848 33.0577 48.5435 35.4328 53.4079C40.0459 50.2335 45.2071 47.5615 49.2949 44.9124C53.634 42.1263 57.4935 39.2488 58.4983 35.5721C59.3204 33.0371 59.0692 30.2053 58.2014 28.15C57.2422 25.9576 55.2783 24.2449 52.515 23.4912C49.1579 22.6006 46.0521 23.9251 43.0147 24.359C41.0736 22.6463 39.3608 19.9058 35.4556 18.8325C34.839 18.6498 34.1996 18.5356 33.5602 18.5127ZM32.8979 21.0477C33.5373 21.0248 34.1539 21.1162 34.7705 21.276C37.8992 22.1438 39.0867 24.6331 41.8044 26.7341C42.0327 26.9625 42.2154 27.0767 42.6037 27.0081C45.5725 26.4829 49.2264 25.2725 51.8298 25.9348C53.9537 26.5286 55.1641 27.6476 55.8492 29.1548C56.4429 31.233 56.6942 33.2198 56.0319 34.9555C55.3924 37.1707 52.0811 40.0938 47.879 42.7886C44.0881 45.255 39.886 47.5615 36.4605 49.7311C34.6107 46.1 32.1671 41.8294 30.1346 37.6959C27.8966 33.1285 26.4578 28.7666 26.8232 26.8483C27.1201 25.0442 28.3533 22.9431 29.7464 21.984C30.7055 21.3217 31.8245 21.0477 32.8979 21.0477Z" fill="white"/>
</svg>
