<svg width="29" height="29" viewBox="0 0 29 29" fill="none" xmlns="http://www.w3.org/2000/svg">
<g clip-path="url(#clip0_5315_49232)">
<path d="M7.89122 16.5352C11.5023 20.1026 17.2801 20.1026 20.8912 16.5352M22.7718 21.9462C22.7718 21.9462 22.883 21.8677 23.0607 21.7336C25.7228 19.7002 27.394 16.7535 27.394 13.4729C27.394 7.357 21.5729 2.39404 14.394 2.39404C7.21515 2.39404 1.39404 7.357 1.39404 13.4729C1.39404 19.5917 7.21515 24.3835 14.394 24.3835C15.0065 24.3835 16.0118 24.3435 17.41 24.2636C19.2329 25.4337 21.8936 26.394 24.222 26.394C24.9428 26.394 25.2823 25.809 24.82 25.2125C24.118 24.3621 23.1503 22.9993 22.7747 21.9448L22.7718 21.9462Z" stroke="white" stroke-width="1.50917" stroke-linecap="round" stroke-linejoin="round"/>
</g>
<defs>
<clipPath id="clip0_5315_49232">
<rect width="28.7879" height="28.7879" fill="white"/>
</clipPath>
</defs>
</svg>
