<svg width="18" height="18" viewBox="0 0 18 18" fill="none" xmlns="http://www.w3.org/2000/svg">
<path d="M4.83555 10.4505C6.96733 12.5823 10.3782 12.5823 12.51 10.4505M13.6202 13.6839C13.6202 13.6839 13.6858 13.637 13.7907 13.5568C15.3623 12.3417 16.3488 10.5809 16.3488 8.62047C16.3488 4.96574 12.9124 2 8.67442 2C4.43644 2 1 4.96574 1 8.62047C1 12.2769 4.43644 15.1403 8.67442 15.1403C9.03597 15.1403 9.62946 15.1164 10.4549 15.0687C11.531 15.7679 13.1017 16.3418 14.4763 16.3418C14.9018 16.3418 15.1022 15.9922 14.8293 15.6357C14.4149 15.1275 13.8436 14.3132 13.6219 13.683L13.6202 13.6839Z" stroke="url(#paint0_linear_5315_48725)" stroke-width="1.5" stroke-linecap="round" stroke-linejoin="round"/>
<defs>
<linearGradient id="paint0_linear_5315_48725" x1="1" y1="9.17089" x2="16.3488" y2="9.17089" gradientUnits="userSpaceOnUse">
<stop stop-color="#C32853"/>
<stop offset="1" stop-color="#EE7E49"/>
</linearGradient>
</defs>
</svg>
