<svg width="18" height="18" viewBox="0 0 18 18" fill="none" xmlns="http://www.w3.org/2000/svg">
<path d="M2.76471 2H6.29412L8.05882 6.41176L5.85294 7.73529C6.7979 9.65135 8.34865 11.2021 10.2647 12.1471L11.5882 9.94118L16 11.7059V15.2353C16 15.7033 15.8141 16.1522 15.4831 16.4831C15.1522 16.8141 14.7033 17 14.2353 17C10.7935 16.7908 7.54719 15.3293 5.10897 12.891C2.67074 10.4528 1.20916 7.20653 1 3.76471C1 3.29668 1.18592 2.84782 1.51687 2.51687C1.84782 2.18592 2.29668 2 2.76471 2Z" stroke="url(#paint0_linear_5315_48724)" stroke-width="1.08333" stroke-linecap="round" stroke-linejoin="round"/>
<defs>
<linearGradient id="paint0_linear_5315_48724" x1="1" y1="9.5" x2="16" y2="9.5" gradientUnits="userSpaceOnUse">
<stop stop-color="#C32853"/>
<stop offset="1" stop-color="#EE7E49"/>
</linearGradient>
</defs>
</svg>
