<svg width="60" height="60" viewBox="0 0 60 60" fill="none" xmlns="http://www.w3.org/2000/svg">
<path d="M48.9317 12.0904H43.8173V9.0221C43.8173 8.46024 43.357 8 42.7952 8C42.2333 8 41.7731 8.46024 41.7731 9.0221V12.0904H17.2269V9.0221C17.2269 8.46024 16.7667 8 16.2048 8C15.643 8 15.1827 8.46024 15.1827 9.0221V12.0904H10.0683C8.38072 12.0904 7 13.4711 7 15.1586V49.9317C7 51.6193 8.38072 53 10.0683 53H48.9337C50.6212 53 52.002 51.6193 52.002 49.9317L52 15.1586C52 13.4711 50.6193 12.0904 48.9317 12.0904ZM10.0683 14.1365H15.1827V17.2048C15.1827 17.7667 15.643 18.2269 16.2048 18.2269C16.7667 18.2269 17.2269 17.7667 17.2269 17.2048V14.1365H41.7731V17.2048C41.7731 17.7667 42.2333 18.2269 42.7952 18.2269C43.357 18.2269 43.8173 17.7667 43.8173 17.2048V14.1365H48.9317C49.4936 14.1365 49.9538 14.5968 49.9538 15.1586V21.2549H9.0442V15.1586C9.0442 14.5968 9.50445 14.1365 10.0663 14.1365H10.0683ZM48.9317 50.9558H10.0683C9.50641 50.9558 9.04617 50.4956 9.04617 49.9337V23.3011H49.9558V49.9337C49.9558 50.4956 49.4956 50.9558 48.9337 50.9558H48.9317ZM25.4096 36.6365C26.6465 37.5666 27.4558 39.0605 27.4558 40.7269V41.749C27.4558 44.5718 25.1642 46.8635 22.3414 46.8635H19.2731C16.4503 46.8635 14.1586 44.5718 14.1586 41.749V41.237C14.1586 40.6751 14.6189 40.2149 15.1807 40.2149C15.7426 40.2149 16.2028 40.6751 16.2028 41.237V41.749C16.2028 43.4366 17.5836 44.8173 19.2711 44.8173H22.3394C24.0269 44.8173 25.4077 43.4366 25.4077 41.749V40.7269C25.4077 39.0394 24.0269 37.6586 22.3394 37.6586H21.3173C20.7554 37.6586 20.2952 37.1984 20.2952 36.6365C20.2952 36.0747 20.7554 35.6144 21.3173 35.6144H22.3394C24.0269 35.6144 25.4077 34.2337 25.4077 32.5462C25.4077 30.8586 24.0269 29.4779 22.3394 29.4779H19.2711C17.5836 29.4779 16.2028 30.8586 16.2028 32.5462C16.2028 33.108 15.7426 33.5683 15.1807 33.5683C14.6189 33.5683 14.1586 33.108 14.1586 32.5462C14.1586 29.7234 16.4503 27.4317 19.2731 27.4317H22.3414C25.1642 27.4317 27.4558 29.7234 27.4558 32.5462C27.4558 34.2126 26.6485 35.7065 25.4096 36.6365ZM44.8414 45.8414C44.8414 46.4032 44.3811 46.8635 43.8193 46.8635H32.5683C32.0064 46.8635 31.5462 46.4032 31.5462 45.8414C31.5462 45.2795 32.0064 44.8193 32.5683 44.8193H37.1707V30.2143L35.1245 31.3802C34.6336 31.6564 34.0104 31.4934 33.7342 31.0024C33.4581 30.5115 33.6211 29.8883 34.112 29.6122L37.6923 27.566C38.0087 27.3819 38.398 27.3819 38.7144 27.566C39.0308 27.7501 39.2264 28.0876 39.2264 28.4558V44.8192H43.8288C44.3907 44.8192 44.8509 45.2795 44.8509 45.8413L44.8414 45.8414Z" fill="white"/>
</svg>
