<svg width="60" height="60" viewBox="0 0 60 60" fill="none" xmlns="http://www.w3.org/2000/svg">
<path d="M18.5993 9.97723C18.0379 10.5386 18.225 11.8019 19.3011 14.3283C20.0964 16.2932 20.4707 16.7143 21.2661 16.6207C22.6696 16.4336 22.7164 14.8897 21.4532 12.2229C20.4239 10.0708 19.3479 9.22866 18.5993 9.97723Z" fill="url(#paint0_linear_5315_48790)"/>
<path d="M38.5297 10.258C37.6408 11.4744 36.4244 14.7494 36.6115 15.5915C36.7051 16.1062 37.2198 16.5272 37.7344 16.6208C38.5297 16.7144 38.904 16.2933 39.7929 14.188C40.3544 12.7844 40.7287 11.2405 40.6351 10.7727C40.4479 9.74338 39.1847 9.41588 38.5297 10.258Z" fill="url(#paint1_linear_5315_48790)"/>
<path d="M25.2893 20.41C21.0786 21.7667 17.1019 25.3224 15.3708 29.2524C14.8094 30.4688 14.2948 32.8548 14.1544 34.5859L13.9205 37.7673H8.11912C3.39381 37.7673 2.27096 37.9077 2.08382 38.4691C1.89668 38.8434 2.03704 39.4984 2.36453 39.8726C3.25345 40.9487 55.7465 40.9487 56.6355 39.8726C56.963 39.4984 57.1033 38.8434 56.9162 38.4691C56.729 37.9077 55.6062 37.7673 50.8809 37.7673H45.0795L44.8456 34.5859C44.5649 30.6559 43.1613 27.381 40.5881 24.761C37.5471 21.5796 34.6464 20.3164 30.2018 20.176C28.1432 20.0825 25.9443 20.176 25.2893 20.41ZM33.3364 23.2639C38.0149 24.5739 41.8045 29.6735 41.8513 34.6795L41.8981 37.5334H29.5H17.1019L16.9615 36.1298C16.4937 32.387 18.7862 27.4278 22.0144 25.1353C25.1022 22.9364 29.5 22.2346 33.3364 23.2639Z" fill="url(#paint2_linear_5315_48790)"/>
<path d="M4.32975 24.2907C3.25369 25.3667 3.76833 26.0685 6.3883 27.2382C9.42935 28.5949 9.99077 28.6417 10.7393 27.7996C11.4879 26.8171 10.4586 25.7878 7.60472 24.7118C4.70403 23.5421 5.03153 23.5889 4.32975 24.2907Z" fill="url(#paint3_linear_5315_48790)"/>
<path d="M51.0212 24.8544C49.2434 25.6497 48.4012 26.2579 48.3077 26.9597C48.0737 28.4568 49.3369 28.644 52.1441 27.4744C54.8108 26.3983 55.6062 25.4626 54.7172 24.3865C54.0623 23.5444 54.109 23.5444 51.0212 24.8544Z" fill="url(#paint4_linear_5315_48790)"/>
<path d="M9.56966 47.8245C9.38252 48.1988 9.52288 48.8538 9.85037 49.228C10.7393 50.2573 48.2611 50.2573 49.15 49.228C49.4775 48.8538 49.6179 48.1988 49.4307 47.8245C49.1968 47.2163 46.6236 47.1227 29.5002 47.1227C12.3768 47.1227 9.80359 47.2163 9.56966 47.8245Z" fill="url(#paint5_linear_5315_48790)"/>
<defs>
<linearGradient id="paint0_linear_5315_48790" x1="18.2905" y1="13.171" x2="22.3616" y2="13.171" gradientUnits="userSpaceOnUse">
<stop stop-color="#C32853"/>
<stop offset="1" stop-color="#EE7E49"/>
</linearGradient>
<linearGradient id="paint1_linear_5315_48790" x1="36.5923" y1="13.2057" x2="40.6494" y2="13.2057" gradientUnits="userSpaceOnUse">
<stop stop-color="#C32853"/>
<stop offset="1" stop-color="#EE7E49"/>
</linearGradient>
<linearGradient id="paint2_linear_5315_48790" x1="2" y1="30.4099" x2="57" y2="30.4099" gradientUnits="userSpaceOnUse">
<stop stop-color="#C32853"/>
<stop offset="1" stop-color="#EE7E49"/>
</linearGradient>
<linearGradient id="paint3_linear_5315_48790" x1="3.80225" y1="26.0759" x2="10.9753" y2="26.0759" gradientUnits="userSpaceOnUse">
<stop stop-color="#C32853"/>
<stop offset="1" stop-color="#EE7E49"/>
</linearGradient>
<linearGradient id="paint4_linear_5315_48790" x1="48.2803" y1="26.0191" x2="55.0657" y2="26.0191" gradientUnits="userSpaceOnUse">
<stop stop-color="#C32853"/>
<stop offset="1" stop-color="#EE7E49"/>
</linearGradient>
<linearGradient id="paint5_linear_5315_48790" x1="9.48584" y1="48.5614" x2="49.5145" y2="48.5614" gradientUnits="userSpaceOnUse">
<stop stop-color="#C32853"/>
<stop offset="1" stop-color="#EE7E49"/>
</linearGradient>
</defs>
</svg>
