<svg width="60" height="60" viewBox="0 0 60 60" fill="none" xmlns="http://www.w3.org/2000/svg">
<path d="M48.9317 11.0904L43.8173 11.0904L43.8173 8.0221C43.8173 7.46024 43.357 7 42.7952 7C42.2333 7 41.7731 7.46024 41.7731 8.0221L41.7731 11.0904L17.2269 11.0904L17.2269 8.0221C17.2269 7.46024 16.7667 7 16.2048 7C15.643 7 15.1827 7.46024 15.1827 8.0221L15.1827 11.0904L10.0683 11.0904C8.38072 11.0904 7 12.4711 7 14.1586L7 48.9317C7 50.6193 8.38073 52 10.0683 52L48.9337 52C50.6212 52 52.002 50.6193 52.002 48.9317L52 14.1586C52 12.4711 50.6193 11.0904 48.9317 11.0904ZM10.0683 13.1365L15.1827 13.1365L15.1827 16.2048C15.1827 16.7667 15.643 17.2269 16.2048 17.2269C16.7667 17.2269 17.2269 16.7667 17.2269 16.2048L17.2269 13.1365L41.7731 13.1365L41.7731 16.2048C41.7731 16.7667 42.2333 17.2269 42.7952 17.2269C43.357 17.2269 43.8173 16.7667 43.8173 16.2048L43.8173 13.1365L48.9317 13.1365C49.4936 13.1365 49.9538 13.5968 49.9538 14.1586L49.9538 20.2549L9.04421 20.2549L9.04421 14.1586C9.04421 13.5968 9.50445 13.1365 10.0663 13.1365L10.0683 13.1365ZM48.9317 49.9558L10.0683 49.9558C9.50641 49.9558 9.04617 49.4956 9.04617 48.9337L9.04617 22.3011L49.9558 22.3011L49.9558 48.9337C49.9558 49.4956 49.4956 49.9558 48.9337 49.9558L48.9317 49.9558ZM36.5055 25.8794C36.6896 26.1767 36.7203 26.5449 36.5668 26.8613L27.362 46.293C27.1875 46.6612 26.8193 46.876 26.4416 46.876C26.2977 46.876 26.1443 46.8453 26.0024 46.7744C25.4904 46.5289 25.2756 45.9248 25.5115 45.4147L34.0202 27.4445L24.3858 27.4445L24.3858 29.4907C24.3858 30.0525 23.9256 30.5128 23.3637 30.5128C22.8018 30.5128 22.3416 30.0525 22.3416 29.4907L22.3416 26.4224C22.3416 25.8605 22.8018 25.4003 23.3637 25.4003L35.6368 25.4003C35.9839 25.4003 36.3118 25.5844 36.5055 25.8701L36.5055 25.8794Z" fill="white"/>
</svg>
