<svg width="60" height="59" viewBox="0 0 60 59" fill="none" xmlns="http://www.w3.org/2000/svg">
<path d="M35.4739 51.5422C35.5443 51.2957 35.5795 49.4292 35.5443 47.3866C35.4386 43.724 35.4386 43.724 34.5582 43.724C33.6778 43.724 33.6778 43.7592 33.5721 47.3866C33.4665 51.0491 33.713 52 34.8047 52C35.0513 52 35.3682 51.7887 35.4739 51.5422Z" fill="white"/>
<path d="M50.5114 45.4138C51.1453 44.8151 50.5466 43.8642 48.1166 41.4342C45.9332 39.2508 45.3697 38.8634 44.8767 39.1804C43.785 39.8847 43.9963 40.3777 46.5671 43.019C48.8914 45.449 49.9127 46.0477 50.5114 45.4138Z" fill="white"/>
<path d="M22.5491 43.05C25.0847 40.5144 25.613 39.2818 24.3451 39.0352C23.5704 38.8944 18.2174 44.4234 18.4639 45.0926C18.8865 46.1843 19.9782 45.6208 22.5491 43.05Z" fill="white"/>
<path d="M38.9951 39.2125C44.2424 36.7121 46.6372 30.4787 44.4185 25.2666C43.3268 22.731 40.4038 20.1249 37.7977 19.3854C32.6208 17.871 27.5848 20.0897 24.9787 24.9849C24.3096 26.1822 24.1687 27.0274 24.1687 29.4574C24.1687 32.0283 24.3096 32.6974 25.1196 34.2469C26.1057 36.1487 28.1483 38.1912 30.05 39.1773C30.7895 39.5999 32.2687 39.8464 34.2056 39.9169C36.8117 40.0577 37.4456 39.9521 38.9951 39.2125ZM30.1204 36.6769C29.0639 36.0078 28.0074 34.9513 27.3383 33.8948C26.3874 32.3452 26.2818 31.8522 26.2818 29.4574C26.2818 27.0627 26.3874 26.5696 27.3383 25.0201C30.2965 20.2306 37.2695 19.5967 40.932 23.7523C44.0664 27.3092 43.8198 32.7326 40.3686 35.7613C38.326 37.5221 37.199 37.9447 34.3465 37.8391C32.2687 37.7334 31.5643 37.5573 30.1204 36.6769Z" fill="white"/>
<path d="M9.90612 34.6724C9.90612 34.4259 9.09613 33.4046 8.07484 32.3833L6.24355 30.5168H13.1461C18.8512 30.5168 20.1191 30.4111 20.4712 29.9885C20.8234 29.5659 20.8234 29.3546 20.4712 28.932C19.8373 28.1573 6.66616 28.1573 6.03225 28.932C5.82095 29.2138 5.75051 29.6364 5.89138 29.8829C6.10268 30.2703 6.03225 30.2703 5.64486 29.8829C5.25748 29.5307 5.57443 29.0377 7.54658 27.0655C9.94134 24.6356 10.3992 23.8256 9.30743 23.8256C8.53266 23.8256 3.56706 28.7207 3.56706 29.4603C3.56706 30.1998 8.53266 35.095 9.30743 35.095C9.62438 35.095 9.90612 34.9189 9.90612 34.6724Z" fill="white"/>
<path d="M56.9208 30.1645C57.0264 29.9532 57.0264 29.4954 56.9208 29.108C56.7095 28.4741 56.3925 28.4037 52.906 28.4037C49.9478 28.4037 48.9969 28.5093 48.6448 28.9319C48.2926 29.3545 48.2926 29.5659 48.6448 29.9885C48.9969 30.4111 49.9478 30.5167 52.906 30.5167C55.0895 30.5167 56.7799 30.3758 56.9208 30.1645Z" fill="white"/>
<path d="M48.2226 17.3805C50.8991 14.6688 51.3569 13.5418 49.8426 13.3305C49.2791 13.2601 48.4339 13.9292 46.673 15.9014C44.1726 18.6483 43.7148 19.7048 44.9474 19.8809C45.4404 19.9513 46.4617 19.1413 48.2226 17.3805Z" fill="white"/>
<path d="M24.803 19.7012C25.4017 19.1025 24.8735 18.1869 22.5139 15.8273C19.9431 13.2213 18.9922 12.7635 18.5696 13.8552C18.3935 14.2778 19.0979 15.1934 21.07 17.2008C23.6761 19.8421 24.2748 20.2295 24.803 19.7012Z" fill="white"/>
<path d="M35.3682 15.1604C35.5091 15.0196 35.6147 13.1883 35.6147 11.0753C35.6147 7.97618 35.5091 7.2014 35.0865 7.06054C34.8048 6.91967 34.3117 7.02532 34.03 7.27184C33.5722 7.65922 33.5017 8.46922 33.5722 11.4627C33.6778 14.9139 33.7482 15.1957 34.3822 15.3013C34.8048 15.3717 35.2274 15.3013 35.3682 15.1604Z" fill="white"/>
</svg>
