<svg width="222" height="68" viewBox="0 0 222 68" fill="none" xmlns="http://www.w3.org/2000/svg">
<path d="M76.8728 21.8293C76.8728 20.3078 77.2233 18.943 77.9244 17.7348C78.6403 16.5266 79.6024 15.5869 80.8107 14.9156C82.0338 14.2295 83.3688 13.8864 84.8157 13.8864C86.4714 13.8864 87.9406 14.2966 89.2234 15.117C90.5211 15.9225 91.4608 17.071 92.0426 18.5626H88.9773C88.5745 17.7423 88.0152 17.1307 87.2992 16.728C86.5832 16.3252 85.7554 16.1238 84.8157 16.1238C83.7864 16.1238 82.8691 16.355 82.0636 16.8175C81.2581 17.2799 80.6242 17.9436 80.1618 18.8088C79.7143 19.6739 79.4906 20.6808 79.4906 21.8293C79.4906 22.9778 79.7143 23.9847 80.1618 24.8498C80.6242 25.715 81.2581 26.3862 82.0636 26.8635C82.8691 27.3259 83.7864 27.5571 84.8157 27.5571C85.7554 27.5571 86.5832 27.3558 87.2992 26.953C88.0152 26.5503 88.5745 25.9387 88.9773 25.1183H92.0426C91.4608 26.6099 90.5211 27.7585 89.2234 28.564C87.9406 29.3694 86.4714 29.7722 84.8157 29.7722C83.3539 29.7722 82.0189 29.4366 80.8107 28.7653C79.6024 28.0792 78.6403 27.132 77.9244 25.9238C77.2233 24.7156 76.8728 23.3508 76.8728 21.8293ZM107.446 14.0878V29.6379H104.895V22.8361H97.5788V29.6379H95.0281V14.0878H97.5788V20.7553H104.895V14.0878H107.446ZM120.179 26.4608H113.668L112.549 29.6379H109.886L115.458 14.0654H118.411L123.982 29.6379H121.297L120.179 26.4608ZM119.463 24.38L116.934 17.1531L114.384 24.38H119.463ZM136.451 14.0878V16.1686H132.311V29.6379H129.761V16.1686H125.599V14.0878H136.451ZM161.224 14.0878V29.6379H158.673V18.9878L153.93 29.6379H152.162L147.397 18.9878V29.6379H144.846V14.0878H147.598L153.057 26.2818L158.494 14.0878H161.224ZM176.099 14.0878L170.953 23.9996V29.6379H168.402V23.9996L163.234 14.0878H166.076L169.678 21.7174L173.28 14.0878H176.099Z" fill="url(#paint0_linear_5736_32664)"/>
<path d="M87.0978 51.1793H80.5869L79.4682 54.3564H76.8056L82.3769 38.7839H85.3303L90.9015 54.3564H88.2166L87.0978 51.1793ZM86.3819 49.0985L83.8536 41.8716L81.3029 49.0985H86.3819ZM98.4476 54.5131C97.4034 54.5131 96.4637 54.3341 95.6284 53.9761C94.7931 53.6032 94.1368 53.0811 93.6595 52.4099C93.1821 51.7386 92.9435 50.9555 92.9435 50.0606H95.6731C95.7328 50.7318 95.9938 51.2837 96.4562 51.7163C96.9336 52.1488 97.5973 52.3651 98.4476 52.3651C99.3276 52.3651 100.014 52.1563 100.506 51.7386C100.998 51.3061 101.244 50.7542 101.244 50.0829C101.244 49.5609 101.088 49.1358 100.774 48.8076C100.476 48.4795 100.096 48.2259 99.6334 48.0469C99.1859 47.8679 98.5594 47.674 97.754 47.4652C96.7397 47.1967 95.9118 46.9282 95.2704 46.6597C94.6439 46.3763 94.1069 45.9437 93.6595 45.362C93.212 44.7802 92.9882 44.0046 92.9882 43.035C92.9882 42.1401 93.212 41.357 93.6595 40.6857C94.1069 40.0145 94.7334 39.4999 95.5389 39.1419C96.3444 38.7839 97.2766 38.6049 98.3357 38.6049C99.8422 38.6049 101.073 38.9853 102.027 39.746C102.997 40.4918 103.534 41.521 103.638 42.8337H100.819C100.774 42.2669 100.506 41.7821 100.014 41.3793C99.5215 40.9766 98.8727 40.7752 98.0672 40.7752C97.3363 40.7752 96.7397 40.9617 96.2773 41.3346C95.8149 41.7075 95.5836 42.2445 95.5836 42.9455C95.5836 43.4229 95.7254 43.8181 96.0088 44.1314C96.3071 44.4297 96.68 44.6684 97.1275 44.8474C97.575 45.0264 98.1865 45.2203 98.9622 45.4291C99.9914 45.7125 100.827 45.9959 101.468 46.2793C102.124 46.5627 102.676 47.0028 103.124 47.5994C103.586 48.1811 103.817 48.9642 103.817 49.9487C103.817 50.7393 103.601 51.4851 103.169 52.1861C102.751 52.8872 102.132 53.454 101.311 53.8866C100.506 54.3042 99.5514 54.5131 98.4476 54.5131ZM116.873 38.8063V40.8871H112.734V54.3564H110.183V40.8871H106.022V38.8063H116.873ZM127.533 54.3564L123.954 48.1364H122.007V54.3564H119.456V38.8063H124.826C126.019 38.8063 127.026 39.0151 127.847 39.4328C128.682 39.8504 129.301 40.4098 129.704 41.1108C130.121 41.8119 130.33 42.595 130.33 43.4601C130.33 44.4745 130.032 45.3993 129.435 46.2346C128.854 47.055 127.951 47.6143 126.728 47.9126L130.576 54.3564H127.533ZM122.007 46.1003H124.826C125.781 46.1003 126.497 45.8617 126.974 45.3843C127.466 44.907 127.712 44.2656 127.712 43.4601C127.712 42.6547 127.474 42.0282 126.997 41.5807C126.519 41.1183 125.796 40.8871 124.826 40.8871H122.007V46.1003ZM140.686 54.5131C139.239 54.5131 137.904 54.1775 136.681 53.5062C135.473 52.8201 134.511 51.8729 133.795 50.6647C133.094 49.4416 132.743 48.0693 132.743 46.5478C132.743 45.0264 133.094 43.6615 133.795 42.4533C134.511 41.2451 135.473 40.3054 136.681 39.6341C137.904 38.948 139.239 38.6049 140.686 38.6049C142.148 38.6049 143.483 38.948 144.691 39.6341C145.914 40.3054 146.876 41.2451 147.577 42.4533C148.278 43.6615 148.629 45.0264 148.629 46.5478C148.629 48.0693 148.278 49.4416 147.577 50.6647C146.876 51.8729 145.914 52.8201 144.691 53.5062C143.483 54.1775 142.148 54.5131 140.686 54.5131ZM140.686 52.298C141.715 52.298 142.632 52.0668 143.438 51.6044C144.243 51.1271 144.87 50.4559 145.317 49.5907C145.78 48.7107 146.011 47.6964 146.011 46.5478C146.011 45.3993 145.78 44.3924 145.317 43.5273C144.87 42.6621 144.243 41.9984 143.438 41.536C142.632 41.0736 141.715 40.8424 140.686 40.8424C139.657 40.8424 138.739 41.0736 137.934 41.536C137.128 41.9984 136.494 42.6621 136.032 43.5273C135.585 44.3924 135.361 45.3993 135.361 46.5478C135.361 47.6964 135.585 48.7107 136.032 49.5907C136.494 50.4559 137.128 51.1271 137.934 51.6044C138.739 52.0668 139.657 52.298 140.686 52.298ZM153.689 52.298H158.947V54.3564H151.139V38.8063H153.689V52.298ZM168.173 54.5131C166.726 54.5131 165.391 54.1775 164.168 53.5062C162.96 52.8201 161.998 51.8729 161.282 50.6647C160.581 49.4416 160.23 48.0693 160.23 46.5478C160.23 45.0264 160.581 43.6615 161.282 42.4533C161.998 41.2451 162.96 40.3054 164.168 39.6341C165.391 38.948 166.726 38.6049 168.173 38.6049C169.635 38.6049 170.97 38.948 172.178 39.6341C173.401 40.3054 174.363 41.2451 175.064 42.4533C175.765 43.6615 176.116 45.0264 176.116 46.5478C176.116 48.0693 175.765 49.4416 175.064 50.6647C174.363 51.8729 173.401 52.8201 172.178 53.5062C170.97 54.1775 169.635 54.5131 168.173 54.5131ZM168.173 52.298C169.202 52.298 170.12 52.0668 170.925 51.6044C171.731 51.1271 172.357 50.4559 172.805 49.5907C173.267 48.7107 173.498 47.6964 173.498 46.5478C173.498 45.3993 173.267 44.3924 172.805 43.5273C172.357 42.6621 171.731 41.9984 170.925 41.536C170.12 41.0736 169.202 40.8424 168.173 40.8424C167.144 40.8424 166.227 41.0736 165.421 41.536C164.616 41.9984 163.982 42.6621 163.519 43.5273C163.072 44.3924 162.848 45.3993 162.848 46.5478C162.848 47.6964 163.072 48.7107 163.519 49.5907C163.982 50.4559 164.616 51.1271 165.421 51.6044C166.227 52.0668 167.144 52.298 168.173 52.298ZM189.88 43.2812C189.477 42.5055 188.918 41.9238 188.202 41.536C187.486 41.1332 186.658 40.9319 185.719 40.9319C184.689 40.9319 183.772 41.1631 182.967 41.6255C182.161 42.0879 181.527 42.7442 181.065 43.5944C180.617 44.4446 180.394 45.4291 180.394 46.5478C180.394 47.6665 180.617 48.6585 181.065 49.5236C181.527 50.3738 182.161 51.0301 182.967 51.4925C183.772 51.9549 184.689 52.1861 185.719 52.1861C187.106 52.1861 188.232 51.7983 189.097 51.0227C189.962 50.247 190.492 49.1954 190.686 47.8679H184.846V45.8318H193.415V47.8231C193.251 49.0314 192.819 50.1426 192.118 51.1569C191.432 52.1712 190.529 52.9842 189.41 53.5957C188.307 54.1924 187.076 54.4907 185.719 54.4907C184.257 54.4907 182.922 54.1551 181.714 53.4838C180.505 52.7977 179.543 51.8505 178.827 50.6423C178.126 49.4341 177.776 48.0693 177.776 46.5478C177.776 45.0264 178.126 43.6615 178.827 42.4533C179.543 41.2451 180.505 40.3054 181.714 39.6341C182.937 38.948 184.272 38.6049 185.719 38.6049C187.374 38.6049 188.844 39.0151 190.126 39.8355C191.424 40.641 192.364 41.7895 192.946 43.2812H189.88ZM198.482 40.8647V45.4291H203.852V47.5099H198.482V52.2756H204.523V54.3564H195.931V38.7839H204.523V40.8647H198.482ZM215.742 54.3564L212.162 48.1364H210.215V54.3564H207.664V38.8063H213.034C214.228 38.8063 215.234 39.0151 216.055 39.4328C216.89 39.8504 217.509 40.4098 217.912 41.1108C218.33 41.8119 218.538 42.595 218.538 43.4601C218.538 44.4745 218.24 45.3993 217.643 46.2346C217.062 47.055 216.159 47.6143 214.936 47.9126L218.785 54.3564H215.742ZM210.215 46.1003H213.034C213.989 46.1003 214.705 45.8617 215.182 45.3843C215.675 44.907 215.921 44.2656 215.921 43.4601C215.921 42.6547 215.682 42.0282 215.205 41.5807C214.727 41.1183 214.004 40.8871 213.034 40.8871H210.215V46.1003Z" fill="black"/>
<circle cx="33.5229" cy="33.5232" r="33.3362" stroke="url(#paint1_linear_5736_32664)" stroke-width="0.373514"/>
<path fill-rule="evenodd" clip-rule="evenodd" d="M6.44504 17.9125C10.7711 10.4198 17.7246 5.38969 25.4698 3.31426C33.215 1.23901 41.7521 2.11826 49.2448 6.44431C56.7374 10.7702 61.7676 17.7239 63.843 25.4691C65.9182 33.2143 65.039 41.7513 60.713 49.244C56.3871 56.7367 49.4334 61.7668 41.6882 63.8423C33.943 65.9175 25.4059 65.0383 17.9132 60.7122C10.4205 56.3864 5.39042 49.4326 3.31499 41.6875C1.23974 33.9423 2.119 25.4052 6.44504 17.9125ZM25.5542 3.62932C17.8897 5.68309 11.0085 10.6607 6.7276 18.0755C2.44657 25.4904 1.57628 33.9385 3.63005 41.603C5.68382 49.2676 10.6615 56.1488 18.0763 60.4297C25.4911 64.7105 33.9392 65.5808 41.6038 63.5272C49.2683 61.4734 56.1495 56.4958 60.4304 49.081C64.7114 41.6662 65.5815 33.218 63.5279 25.5535C61.4742 17.889 56.4965 11.0077 49.0817 6.72687C41.6669 2.44584 33.2186 1.57555 25.5542 3.62932Z" fill="url(#paint2_linear_5736_32664)"/>
<path fill-rule="evenodd" clip-rule="evenodd" d="M19.9119 25.687C22.0908 21.9128 25.5934 19.3791 29.4948 18.3338C33.396 17.2886 37.6962 17.7314 41.4704 19.9104C45.2446 22.0893 47.7783 25.5922 48.8236 29.4933C49.8691 33.3945 49.4261 37.6948 47.247 41.4689C45.0681 45.2431 41.5655 47.7769 37.6641 48.8221C33.7629 49.8676 29.4627 49.4246 25.6885 47.2455C21.9143 45.0664 19.3806 41.5638 18.3353 37.6626C17.29 33.7615 17.7328 29.4612 19.9119 25.687ZM29.5792 18.6489C25.7585 19.6725 22.3284 22.154 20.1943 25.8501C18.0602 29.5464 17.6266 33.7577 18.6502 37.5782C19.6738 41.3987 22.1552 44.8291 25.8513 46.9632C29.5476 49.0972 33.759 49.5309 37.5795 48.5073C41.4002 47.4836 44.8304 45.0022 46.9644 41.3061C49.0985 37.6098 49.5322 33.3984 48.5085 29.5779C47.4849 25.7572 45.0035 22.3271 41.3072 20.193C37.6113 18.0589 33.3999 17.6253 29.5792 18.6489Z" fill="url(#paint3_linear_5736_32664)"/>
<path d="M3.59528 25.0377L3.51106 25.3523L18.4473 29.6922L18.5315 29.3776L3.59528 25.0377Z" fill="url(#paint4_linear_5736_32664)"/>
<path fill-rule="evenodd" clip-rule="evenodd" d="M3.33203 41.2863L18.4453 37.4648L18.5303 37.7788L3.41701 41.6002L3.33203 41.2863Z" fill="url(#paint5_linear_5736_32664)"/>
<path d="M22.4169 44.5061L11.6845 55.7503L11.9149 55.9805L22.6473 44.7363L22.4169 44.5061Z" fill="url(#paint6_linear_5736_32664)"/>
<path d="M29.3804 48.6259L25.1758 63.5439L25.4904 63.6282L29.695 48.7101L29.3804 48.6259Z" fill="url(#paint7_linear_5736_32664)"/>
<path fill-rule="evenodd" clip-rule="evenodd" d="M43.0863 63.3147L37.4668 48.6855L37.7807 48.6262L43.4003 63.2552L43.0863 63.3147Z" fill="url(#paint8_linear_5736_32664)"/>
<path d="M44.74 44.5052L44.5098 44.7356L55.6268 55.8464L55.8571 55.616L44.74 44.5052Z" fill="url(#paint9_linear_5736_32664)"/>
<path d="M48.7132 37.4633L48.6289 37.7781L63.8118 41.8426L63.896 41.5277L48.7132 37.4633Z" fill="url(#paint10_linear_5736_32664)"/>
<path fill-rule="evenodd" clip-rule="evenodd" d="M63.3154 24.0718L48.6864 29.6913L48.627 29.3773L63.2561 23.7578L63.3154 24.0718Z" fill="url(#paint11_linear_5736_32664)"/>
<path d="M55.4885 11.4281L44.5098 22.4131L44.7401 22.6433L55.7189 11.6583L55.4885 11.4281Z" fill="url(#paint12_linear_5736_32664)"/>
<path d="M41.481 3.44285L37.4648 18.4453L37.7797 18.5296L41.7958 3.52713L41.481 3.44285Z" fill="url(#paint13_linear_5736_32664)"/>
<path fill-rule="evenodd" clip-rule="evenodd" d="M29.2018 18.53L24.6931 3.71414L24.9972 3.65482L29.5059 18.4706L29.2018 18.53Z" fill="url(#paint14_linear_5736_32664)"/>
<path d="M11.5857 11.4886L11.3555 11.719L22.2853 22.5124L22.5155 22.282L11.5857 11.4886Z" fill="url(#paint15_linear_5736_32664)"/>
<path fill-rule="evenodd" clip-rule="evenodd" d="M20.8166 26.2098C22.8513 22.6857 26.1218 20.3198 29.7646 19.3437C33.4075 18.3677 37.4228 18.7811 40.9469 20.8159C44.471 22.8506 46.8369 26.1211 47.8131 29.764C48.789 33.4068 48.3756 37.4221 46.3408 40.9462C44.3061 44.4703 41.0356 46.8362 37.3927 47.8124C33.7499 48.7884 29.7346 48.3749 26.2105 46.3402C22.6864 44.3054 20.3205 41.0349 19.3443 37.3921C18.3684 33.7494 18.782 29.7339 20.8166 26.2098ZM29.8435 19.638C26.276 20.5938 23.073 22.9109 21.0803 26.3622C19.0876 29.8135 18.6825 33.746 19.6385 37.3134C20.5945 40.8809 22.9114 44.0839 26.3627 46.0765C29.814 48.0692 33.7463 48.4742 37.3139 47.5182C40.8814 46.5624 44.0844 44.2453 46.077 40.794C48.0697 37.3428 48.4747 33.4104 47.5187 29.8428C46.5629 26.2753 44.2458 23.0723 40.7945 21.0796C37.3434 19.0871 33.4109 18.682 29.8435 19.638Z" fill="url(#paint16_linear_5736_32664)"/>
<path fill-rule="evenodd" clip-rule="evenodd" d="M37.8046 18.3669L37.4905 19.5508L37.1758 19.4678L37.4897 18.2842L37.8046 18.3669Z" fill="url(#paint17_linear_5736_32664)"/>
<path fill-rule="evenodd" clip-rule="evenodd" d="M35.7845 17.9473L35.6276 19.1618L35.3047 19.1207L35.4616 17.9062L35.7845 17.9473Z" fill="url(#paint18_linear_5736_32664)"/>
<path fill-rule="evenodd" clip-rule="evenodd" d="M33.724 17.7949L33.7269 19.0197L33.4014 19.021L33.3984 17.7964L33.724 17.7949Z" fill="url(#paint19_linear_5736_32664)"/>
<path fill-rule="evenodd" clip-rule="evenodd" d="M31.6624 17.9126L31.8252 19.1263L31.5027 19.1702L31.3398 17.9565L31.6624 17.9126Z" fill="url(#paint20_linear_5736_32664)"/>
<path fill-rule="evenodd" clip-rule="evenodd" d="M29.6343 18.2986L29.9542 19.4809L29.6402 19.5665L29.3203 18.3843L29.6343 18.2986Z" fill="url(#paint21_linear_5736_32664)"/>
<path fill-rule="evenodd" clip-rule="evenodd" d="M27.6751 18.9458L28.1465 20.0761L27.8464 20.2019L27.375 19.0717L27.6751 18.9458Z" fill="url(#paint22_linear_5736_32664)"/>
<path fill-rule="evenodd" clip-rule="evenodd" d="M25.8143 19.8433L26.4293 20.9022L26.1482 21.0661L25.5332 20.007L25.8143 19.8433Z" fill="url(#paint23_linear_5736_32664)"/>
<path fill-rule="evenodd" clip-rule="evenodd" d="M24.0894 20.9758L24.8373 21.9457L24.58 22.1447L23.832 21.1751L24.0894 20.9758Z" fill="url(#paint24_linear_5736_32664)"/>
<path fill-rule="evenodd" clip-rule="evenodd" d="M22.526 22.3242L23.3941 23.188L23.1649 23.4192L22.2969 22.5554L22.526 22.3242Z" fill="url(#paint25_linear_5736_32664)"/>
<path fill-rule="evenodd" clip-rule="evenodd" d="M21.1502 23.865L22.1237 24.6081L21.9267 24.8673L20.9531 24.1242L21.1502 23.865Z" fill="url(#paint26_linear_5736_32664)"/>
<path fill-rule="evenodd" clip-rule="evenodd" d="M19.9897 25.5723L21.0518 26.1818L20.8902 26.4644L19.8281 25.8548L19.9897 25.5723Z" fill="url(#paint27_linear_5736_32664)"/>
<path fill-rule="evenodd" clip-rule="evenodd" d="M19.0606 27.416L20.1933 27.8818L20.07 28.183L18.9375 27.7173L19.0606 27.416Z" fill="url(#paint28_linear_5736_32664)"/>
<path fill-rule="evenodd" clip-rule="evenodd" d="M18.3816 29.3652L19.5654 29.6794L19.4825 29.994L18.2988 29.6801L18.3816 29.3652Z" fill="url(#paint29_linear_5736_32664)"/>
<path fill-rule="evenodd" clip-rule="evenodd" d="M17.961 31.3867L19.1755 31.5434L19.1344 31.8663L17.9199 31.7094L17.961 31.3867Z" fill="url(#paint30_linear_5736_32664)"/>
<path fill-rule="evenodd" clip-rule="evenodd" d="M17.8086 33.4459L19.0333 33.4429L19.0347 33.7684L17.8101 33.7714L17.8086 33.4459Z" fill="url(#paint31_linear_5736_32664)"/>
<path fill-rule="evenodd" clip-rule="evenodd" d="M17.9277 35.5068L19.1415 35.344L19.1854 35.6665L17.9716 35.8294L17.9277 35.5068Z" fill="url(#paint32_linear_5736_32664)"/>
<path fill-rule="evenodd" clip-rule="evenodd" d="M18.3125 37.5351L19.4947 37.2153L19.5802 37.5293L18.398 37.8492L18.3125 37.5351Z" fill="url(#paint33_linear_5736_32664)"/>
<path fill-rule="evenodd" clip-rule="evenodd" d="M18.959 39.4958L20.0892 39.0244L20.2151 39.3245L19.0849 39.7961L18.959 39.4958Z" fill="url(#paint34_linear_5736_32664)"/>
<path fill-rule="evenodd" clip-rule="evenodd" d="M19.8574 41.3552L20.9165 40.7402L21.0805 41.0213L20.0214 41.6363L19.8574 41.3552Z" fill="url(#paint35_linear_5736_32664)"/>
<path fill-rule="evenodd" clip-rule="evenodd" d="M20.9902 43.0815L21.9599 42.3335L22.1591 42.5908L21.1895 43.3388L20.9902 43.0815Z" fill="url(#paint36_linear_5736_32664)"/>
<path fill-rule="evenodd" clip-rule="evenodd" d="M22.3379 44.6447L23.2018 43.7766L23.4328 44.0058L22.5691 44.8738L22.3379 44.6447Z" fill="url(#paint37_linear_5736_32664)"/>
<path fill-rule="evenodd" clip-rule="evenodd" d="M23.8789 46.019L24.6218 45.0454L24.881 45.2424L24.1379 46.216L23.8789 46.019Z" fill="url(#paint38_linear_5736_32664)"/>
<path fill-rule="evenodd" clip-rule="evenodd" d="M25.5859 47.1803L26.1955 46.1182L26.4781 46.2797L25.8685 47.3418L25.5859 47.1803Z" fill="url(#paint39_linear_5736_32664)"/>
<path fill-rule="evenodd" clip-rule="evenodd" d="M27.4297 48.1092L27.8955 46.9766L28.1967 47.0998L27.7309 48.2325L27.4297 48.1092Z" fill="url(#paint40_linear_5736_32664)"/>
<path fill-rule="evenodd" clip-rule="evenodd" d="M29.3789 48.7894L29.693 47.6057L30.0077 47.6884L29.6938 48.8723L29.3789 48.7894Z" fill="url(#paint41_linear_5736_32664)"/>
<path fill-rule="evenodd" clip-rule="evenodd" d="M31.4004 49.2091L31.5573 47.9946L31.8802 48.0357L31.7233 49.2502L31.4004 49.2091Z" fill="url(#paint42_linear_5736_32664)"/>
<path fill-rule="evenodd" clip-rule="evenodd" d="M33.46 49.3613L33.457 48.1366L33.7825 48.1353L33.7855 49.3598L33.46 49.3613Z" fill="url(#paint43_linear_5736_32664)"/>
<path fill-rule="evenodd" clip-rule="evenodd" d="M35.5203 49.2432L35.3574 48.0295L35.6799 47.9856L35.8428 49.1993L35.5203 49.2432Z" fill="url(#paint44_linear_5736_32664)"/>
<path fill-rule="evenodd" clip-rule="evenodd" d="M37.5484 48.8575L37.2285 47.6753L37.5425 47.5896L37.8624 48.7718L37.5484 48.8575Z" fill="url(#paint45_linear_5736_32664)"/>
<path fill-rule="evenodd" clip-rule="evenodd" d="M39.5104 48.2102L39.0391 47.08L39.3392 46.9541L39.8106 48.0844L39.5104 48.2102Z" fill="url(#paint46_linear_5736_32664)"/>
<path fill-rule="evenodd" clip-rule="evenodd" d="M41.3689 47.3129L40.7539 46.2538L41.035 46.0898L41.65 47.1489L41.3689 47.3129Z" fill="url(#paint47_linear_5736_32664)"/>
<path fill-rule="evenodd" clip-rule="evenodd" d="M43.0956 46.1801L42.3477 45.2105L42.605 45.0112L43.353 45.9809L43.0956 46.1801Z" fill="url(#paint48_linear_5736_32664)"/>
<path fill-rule="evenodd" clip-rule="evenodd" d="M44.6591 44.8318L43.791 43.968L44.0202 43.7368L44.8882 44.6006L44.6591 44.8318Z" fill="url(#paint49_linear_5736_32664)"/>
<path fill-rule="evenodd" clip-rule="evenodd" d="M46.0341 43.2914L45.0605 42.5483L45.2576 42.2893L46.2311 43.0322L46.0341 43.2914Z" fill="url(#paint50_linear_5736_32664)"/>
<path fill-rule="evenodd" clip-rule="evenodd" d="M47.1949 41.584L46.1328 40.9745L46.2944 40.6919L47.3564 41.3015L47.1949 41.584Z" fill="url(#paint51_linear_5736_32664)"/>
<path fill-rule="evenodd" clip-rule="evenodd" d="M48.1229 39.7402L46.9902 39.2744L47.1135 38.9731L48.246 39.4389L48.1229 39.7402Z" fill="url(#paint52_linear_5736_32664)"/>
<path fill-rule="evenodd" clip-rule="evenodd" d="M48.8028 37.7909L47.6191 37.4768L47.7019 37.1621L48.8855 37.476L48.8028 37.7909Z" fill="url(#paint53_linear_5736_32664)"/>
<path fill-rule="evenodd" clip-rule="evenodd" d="M49.2223 35.7693L48.0078 35.6125L48.0489 35.2896L49.2634 35.4464L49.2223 35.7693Z" fill="url(#paint54_linear_5736_32664)"/>
<path fill-rule="evenodd" clip-rule="evenodd" d="M49.3745 33.7103L48.1497 33.7133L48.1484 33.3878L49.373 33.3848L49.3745 33.7103Z" fill="url(#paint55_linear_5736_32664)"/>
<path fill-rule="evenodd" clip-rule="evenodd" d="M49.2576 31.6492L48.0439 31.812L48 31.4895L49.2137 31.3267L49.2576 31.6492Z" fill="url(#paint56_linear_5736_32664)"/>
<path fill-rule="evenodd" clip-rule="evenodd" d="M48.8714 29.621L47.6892 29.9409L47.6035 29.6268L48.7857 29.3069L48.8714 29.621Z" fill="url(#paint57_linear_5736_32664)"/>
<path fill-rule="evenodd" clip-rule="evenodd" d="M48.2249 27.6602L47.0946 28.1316L46.9688 27.8315L48.099 27.3601L48.2249 27.6602Z" fill="url(#paint58_linear_5736_32664)"/>
<path fill-rule="evenodd" clip-rule="evenodd" d="M47.3266 25.8011L46.2675 26.4161L46.1035 26.135L47.1626 25.52L47.3266 25.8011Z" fill="url(#paint59_linear_5736_32664)"/>
<path fill-rule="evenodd" clip-rule="evenodd" d="M46.1943 24.0747L45.2247 24.8227L45.0254 24.5653L45.995 23.8174L46.1943 24.0747Z" fill="url(#paint60_linear_5736_32664)"/>
<path fill-rule="evenodd" clip-rule="evenodd" d="M44.8469 22.5111L43.9832 23.3792L43.752 23.1502L44.6157 22.282L44.8469 22.5111Z" fill="url(#paint61_linear_5736_32664)"/>
<path fill-rule="evenodd" clip-rule="evenodd" d="M43.3051 21.137L42.562 22.1105L42.3027 21.9135L43.0458 20.9399L43.3051 21.137Z" fill="url(#paint62_linear_5736_32664)"/>
<path fill-rule="evenodd" clip-rule="evenodd" d="M41.5974 19.9758L40.9876 21.0378L40.7051 20.8763L41.3148 19.8142L41.5974 19.9758Z" fill="url(#paint63_linear_5736_32664)"/>
<path fill-rule="evenodd" clip-rule="evenodd" d="M39.7553 19.0469L39.2895 20.1796L38.9883 20.0563L39.4541 18.9238L39.7553 19.0469Z" fill="url(#paint64_linear_5736_32664)"/>
<path fill-rule="evenodd" clip-rule="evenodd" d="M13.4563 20.434L14.0017 19.5116C13.7428 17.8569 11.2435 17.1547 11.1079 19.1017C11.0651 19.7094 11.3936 20.3262 11.8924 20.9011C11.1482 20.7404 10.4494 20.7502 9.93709 21.08C8.29587 22.1363 10.1151 23.9885 11.6898 23.4189L12.2353 22.4965C12.2353 22.4965 11.5759 22.4749 11.4859 22.4655C11.3497 22.4508 10.3989 22.2778 10.9148 22.0324C11.6132 21.6991 13.0139 22.3576 13.633 22.6429C14.256 22.9296 15.0526 23.3534 15.0526 23.3534L15.0841 23.3001L15.5316 22.544L15.5633 22.4906C15.5633 22.4906 14.8083 21.9968 14.2572 21.5883C13.7092 21.1829 12.4579 20.2721 12.4129 19.5002C12.3802 18.9289 12.9895 19.6791 13.0679 19.7921C13.1196 19.866 13.4563 20.434 13.4563 20.434Z" fill="url(#paint65_linear_5736_32664)"/>
<path fill-rule="evenodd" clip-rule="evenodd" d="M9.12681 33.5292C8.10805 33.5879 7.21086 33.986 6.63229 34.5825L6.59961 35.7048C7.17837 35.1084 8.0735 34.7816 9.09188 34.7387L9.06574 35.6428L10.0819 35.6724L10.1075 34.7893C11.0399 34.9237 11.8367 35.3014 12.3387 35.8973L12.371 34.7749C11.8692 34.1797 11.0749 33.7403 10.1424 33.5838L10.1639 32.8435C11.1033 32.7415 11.9222 32.3491 12.4578 31.7838L12.4907 30.6612C11.9547 31.2269 11.1378 31.558 10.1988 31.6377L10.2266 30.6816L9.21047 30.6519L9.1819 31.6295C8.16744 31.5279 7.29323 31.1496 6.75014 30.5208L6.71727 31.6428C7.26073 32.2714 8.13289 32.7215 9.14698 32.839L9.12681 33.5292Z" fill="url(#paint66_linear_5736_32664)"/>
<path fill-rule="evenodd" clip-rule="evenodd" d="M11.5031 42.6033L10.3547 43.2072L9.98828 45.5445L11.1208 45.4823L10.7469 47.0279L11.8842 46.9779L11.5511 48.5057L12.8023 48.5743L14.3041 47.7645L12.8272 47.5099L13.1549 45.9199L12.0101 45.9965L12.2996 44.432L11.1557 44.435L11.5031 42.6033Z" fill="url(#paint67_linear_5736_32664)"/>
<path fill-rule="evenodd" clip-rule="evenodd" d="M14.1023 41.2354L12.9547 41.8395L12.5879 44.1766L13.7198 44.1148L13.3463 45.66L14.4839 45.6096L14.1503 47.138L15.4021 47.206L16.9038 46.3968L15.4268 46.1422L15.7544 44.5523L14.6095 44.6285L14.899 43.0643L13.7553 43.0667L14.1023 41.2354Z" fill="url(#paint68_linear_5736_32664)"/>
<path fill-rule="evenodd" clip-rule="evenodd" d="M21.434 55.028C21.2386 54.9811 21.5548 54.0275 21.7133 53.5748L20.9501 53.2527C20.4264 54.4082 20.3625 54.5167 20.0548 54.7535C19.9136 54.8618 19.6655 54.7822 19.6655 54.7822C19.6022 54.9337 19.3398 55.5539 19.3398 55.5539C19.7602 55.7306 20.1797 55.5492 20.5041 55.2924L20.5056 55.3657C20.5142 55.5941 20.5709 56.0568 20.9912 56.2335C22.3166 56.7904 23.0055 52.7912 24.0377 53.5789C24.1044 53.6296 24.1206 53.922 23.8831 53.8223C23.4788 53.5853 24.2936 51.1991 22.8257 50.803C22.6849 50.7649 22.589 50.7679 22.589 50.7679L22.3382 51.6331C22.6064 51.7086 22.8763 52.0599 22.8679 52.2091C22.8305 52.8386 22.5763 54.3176 23.5807 54.7395C23.964 54.9006 24.5571 54.7131 24.8313 54.061C25.2787 52.9957 23.6495 51.519 22.249 53.6311C21.9507 54.0815 21.5641 55.1251 21.434 55.028Z" fill="url(#paint69_linear_5736_32664)"/>
<path fill-rule="evenodd" clip-rule="evenodd" d="M35.6098 58.7496L35.5188 57.2864L37.3468 57.113L37.2811 56.0616L35.4529 56.2329C35.3832 55.1271 35.3635 54.8212 35.3595 54.7715L34.3111 54.8699L34.4015 56.3313L32.0668 56.5503C32.9121 54.8869 32.7208 55.2595 32.7502 55.2008L31.8171 54.7437L30.5664 57.2018L32.1111 59.3891L32.9795 58.7608L32.1664 57.6022L34.467 57.3855L34.558 58.8484L35.6098 58.7496Z" fill="url(#paint70_linear_5736_32664)"/>
<path fill-rule="evenodd" clip-rule="evenodd" d="M45.7014 55.7928C45.741 55.8798 45.7714 55.9753 45.7699 56.0743C45.7632 56.1394 45.724 56.1603 45.6827 56.1568C45.6308 56.1516 45.5486 56.1024 45.4855 55.9648C45.0659 55.0278 44.5805 54.0322 44.1422 53.1093L43.2246 53.5282L44.5088 56.3378C44.6238 56.5893 44.6182 56.8532 44.2949 57.0024L44.1957 57.0484C44.5078 57.1883 44.7579 57.195 45.0877 57.0448C45.2999 56.9477 45.4601 56.7723 45.5322 56.5665L45.5636 56.5764L45.6002 56.5871C45.867 56.6493 46.1083 56.5779 46.28 56.4997C46.4923 56.4024 46.652 56.2285 46.7241 56.0223L46.7545 56.032L46.7907 56.0429C47.058 56.1047 47.2993 56.0339 47.4713 55.9555C47.8599 55.7777 48.0713 55.3405 47.8934 54.9309C47.7944 54.7035 47.6569 54.4041 47.5049 54.0782C47.7107 54.2913 48.0329 54.5331 48.3457 54.3899C48.6032 54.2719 49.1138 54.0233 48.3942 52.4489C47.8728 51.3069 46.9809 50.9261 46.4249 50.7946C46.4682 50.7498 46.5199 50.716 46.5765 50.69C46.8608 50.5606 47.1988 50.6863 47.1988 50.6863L47.0515 50.3638C47.0515 50.3638 46.8102 50.092 46.1005 50.4159C45.8891 50.5126 45.7318 50.6262 45.619 50.7505C45.118 50.8107 44.5541 50.975 44.5541 50.975L44.7136 51.3235C44.7136 51.3235 44.991 51.2133 45.3876 51.2025C45.3056 51.5956 45.4534 52.0377 45.611 52.4379L45.6511 52.533L46.8925 55.2484C46.9321 55.3362 46.9624 55.4309 46.9616 55.5295C46.9547 55.5924 46.9176 55.6139 46.8806 55.6126C46.8331 55.6111 46.7569 55.5721 46.6933 55.4531C46.3132 54.5921 45.7272 53.3892 45.3352 52.5641L44.4174 52.9832L45.7014 55.7928ZM47.0823 53.1849L47.0713 53.162L47.0261 53.0673C46.8292 52.6555 46.6469 52.276 46.5252 52.0199C46.4094 51.7656 46.341 51.5573 46.3098 51.3866C46.7409 51.585 47.1803 51.977 47.5155 52.7102C48.4678 54.7938 47.3312 53.6871 47.0823 53.1849Z" fill="url(#paint71_linear_5736_32664)"/>
<path fill-rule="evenodd" clip-rule="evenodd" d="M51.7415 47.0438L54.6674 41.9326L53.7056 41.3818L50.7793 46.493L51.7415 47.0438ZM54.2229 44.5074L53.8569 44.2977L55.0768 42.1666L56.0388 42.7173L55.6016 43.4812C55.9049 43.5015 56.2061 43.5891 56.4847 43.7484C57.5173 44.3397 57.849 45.7015 57.226 46.7901C56.6026 47.8789 55.2602 48.2823 54.2276 47.6909C53.9493 47.5316 53.7215 47.3162 53.5498 47.0647L53.1126 47.8285L52.1508 47.278L53.3564 45.1721L53.7246 45.3779L54.326 45.7223C54.3238 46.0814 54.5077 46.4301 54.8388 46.6193C55.3296 46.9003 55.9575 46.7259 56.2418 46.2299C56.5256 45.7333 56.3585 45.1035 55.8679 44.8221C55.5325 44.6303 55.1334 44.6507 54.8151 44.8462L54.2229 44.5074Z" fill="url(#paint72_linear_5736_32664)"/>
<path fill-rule="evenodd" clip-rule="evenodd" d="M54.567 31.0925C54.5562 31.2667 54.565 31.421 54.5906 31.5579C54.6444 31.747 54.712 31.9159 54.9732 32.1319C54.9979 32.1527 55.0237 32.1723 55.0504 32.1904L55.0683 32.2029C55.3751 32.4078 55.7924 32.4765 56.1832 32.5226L56.2871 32.532L59.3051 32.7215C59.4022 32.7277 59.5014 32.7462 59.5895 32.794C59.6424 32.8302 59.6435 32.8739 59.6244 32.9059C59.6007 32.9483 59.5292 32.9976 59.3929 32.9974C58.4421 32.9255 57.0881 32.8739 56.164 32.8295L56.1 33.8492L59.2218 34.0453C59.3191 34.0514 59.4183 34.0695 59.5062 34.1175C59.5609 34.1551 59.5611 34.2005 59.5376 34.2352C59.5085 34.2798 59.4252 34.3291 59.2722 34.3196C58.235 34.2466 57.1144 34.204 56.0805 34.1545L56.0167 35.1742L59.1385 35.3701C59.4181 35.3875 59.6513 35.518 59.6299 35.879L59.6233 35.9887C59.8973 35.7773 60.0232 35.5576 60.0461 35.191C60.0611 34.955 59.9811 34.7281 59.8314 34.5658L59.8555 34.5422L59.8823 34.5148C60.0652 34.3062 60.1171 34.0568 60.1294 33.866C60.1442 33.6305 60.0646 33.4041 59.9158 33.2418L59.9386 33.2194L59.9653 33.1923C60.1481 32.9826 60.2002 32.734 60.2122 32.543C60.2394 32.1108 59.9501 31.713 59.4993 31.6764C59.3839 31.6671 59.2505 31.6576 59.1049 31.6481C58.285 31.5969 55.9922 31.4895 55.8301 31.452L55.7584 31.4346C55.7248 31.4253 55.6934 31.4161 55.6629 31.4066C55.1774 31.2475 55.076 31.0555 55.1042 30.7202C55.1271 30.571 55.1914 30.4412 55.2566 30.3408L55.6325 30.5813L55.6611 29.6262L54.6221 29.9424C54.6332 29.9458 54.7734 30.0335 54.9456 30.1426C54.8244 30.2233 54.607 30.4558 54.567 31.0925Z" fill="url(#paint73_linear_5736_32664)"/>
<path fill-rule="evenodd" clip-rule="evenodd" d="M54.0921 22.7703C54.0519 22.6221 54.1395 22.4697 54.2871 22.4291C54.4352 22.389 54.5879 22.476 54.6283 22.6243C54.6686 22.772 54.5812 22.925 54.4335 22.9653C54.2854 23.0056 54.1328 22.9182 54.0921 22.7703ZM54.7112 23.9915C55.4162 23.7996 55.8338 23.0759 55.6496 22.3707C55.7583 22.3559 55.8687 22.3326 55.9822 22.2982C58.2022 21.6251 56.7913 18.2747 54.7877 19.385C54.0456 19.7964 53.3826 20.3417 52.7781 20.843C52.2127 21.3119 52.1362 20.8434 52.3326 20.7444L52.0405 19.7574C50.3961 20.2446 51.5658 23.1862 53.4353 21.6356C54.0482 21.1269 54.6613 20.6766 55.2868 20.285C56.0019 19.8377 56.7818 21.5463 54.9431 21.3543C54.6796 21.3275 54.3649 21.3265 54.0764 21.4064L54.0112 21.4225C53.3019 21.6158 52.8836 22.3479 53.0769 23.0576C53.27 23.7667 54.0021 24.1848 54.7112 23.9915Z" fill="url(#paint74_linear_5736_32664)"/>
<path fill-rule="evenodd" clip-rule="evenodd" d="M48.7524 12.2597C48.653 11.248 47.7628 10.1375 46.4809 9.52198C45.6283 9.11261 44.7677 8.94583 43.8325 9.11205L43.2858 10.2374C44.5735 9.97113 45.9118 10.1984 46.8353 11.172C46.5193 11.2984 46.2467 11.5393 46.0874 11.8714C45.7499 12.5738 46.0459 13.4166 46.7483 13.7539C47.4509 14.0912 48.2935 13.7952 48.6312 13.093C48.7602 12.8237 48.7965 12.5338 48.7524 12.2597ZM47.2438 12.7308C47.0992 12.6614 47.0385 12.4881 47.1076 12.3435C47.1773 12.1988 47.3506 12.1377 47.4951 12.2074C47.6393 12.2763 47.7006 12.4501 47.6309 12.5947C47.5616 12.7392 47.3883 12.7999 47.2438 12.7308ZM43.9365 11.8282C44.081 11.8973 44.1417 12.0707 44.0724 12.2152C44.0033 12.3596 43.8297 12.4206 43.6855 12.3514C43.5409 12.2819 43.4799 12.1082 43.5492 11.964C43.6186 11.8195 43.7921 11.7586 43.9365 11.8282ZM42.428 12.2989C42.384 12.0249 42.4202 11.7349 42.5493 11.4661C42.8863 10.7634 43.7297 10.4675 44.432 10.8046C45.1343 11.1419 45.4304 11.9849 45.0933 12.6875C44.9338 13.0192 44.6617 13.2603 44.3447 13.3867C45.2686 14.3601 46.6066 14.5876 47.8944 14.3213L47.3476 15.4465C46.4123 15.6129 45.5525 15.4459 44.6998 15.0365C43.4179 14.4212 42.5274 13.3105 42.428 12.2989Z" fill="url(#paint75_linear_5736_32664)"/>
<path fill-rule="evenodd" clip-rule="evenodd" d="M35.9751 10.9456C35.6879 10.8407 35.3988 10.7482 35.1011 10.6763L35.2966 7.70709C35.6012 7.6746 35.8998 7.62119 36.1986 7.5547L36.2719 6.43882C35.3818 6.63641 34.5937 6.69281 33.6782 6.63268C32.705 6.56843 31.8866 6.39662 30.9862 6.03711L30.9125 7.15653C31.227 7.28222 31.5396 7.38755 31.8685 7.46991L31.6715 10.4623C31.3346 10.501 31.0109 10.5647 30.683 10.648L30.6094 11.7674C31.5491 11.5293 32.3824 11.4658 33.356 11.5298C34.2717 11.5903 35.0458 11.7493 35.9019 12.0621L35.9751 10.9456ZM33.4285 10.428C33.308 10.4203 33.0645 10.4063 32.947 10.4024L33.1252 7.69607C33.2423 7.70747 33.4854 7.72539 33.6057 7.73343C33.7038 7.73959 33.9251 7.75322 34.0212 7.75677L33.8434 10.4591C33.7475 10.4507 33.5263 10.4347 33.4285 10.428Z" fill="url(#paint76_linear_5736_32664)"/>
<path fill-rule="evenodd" clip-rule="evenodd" d="M22.1658 9.25635C22.1658 9.25635 21.74 9.38353 21.3475 10.1186C20.9388 10.8845 21.2894 11.9458 20.8051 12.2947C20.305 12.6212 19.441 11.9115 18.5797 12.0168C17.7524 12.1177 17.4805 12.4699 17.4805 12.4699L18.091 13.3598C18.091 13.3598 18.4693 13.0625 18.801 13.0796C19.0416 13.092 19.6596 13.3222 20.1158 13.4037C19.91 13.971 19.963 14.609 20.3173 15.1254C20.9181 16.002 22.1585 16.1955 23.088 15.5583C24.0172 14.9209 24.2833 13.6939 23.6825 12.8178C23.3179 12.2861 22.7188 12.0058 22.0954 12.0093C22.1765 11.5566 22.1866 10.9301 22.2592 10.708C22.3627 10.3928 22.7765 10.1466 22.7765 10.1466L22.1658 9.25635ZM22.7638 13.4446C23.0496 13.8614 22.9377 14.4346 22.514 14.7248C22.09 15.0158 21.515 14.9134 21.2294 14.4968C20.9439 14.0799 21.0558 13.5069 21.4795 13.2163C21.9031 12.9258 22.4781 13.0281 22.7638 13.4446Z" fill="url(#paint77_linear_5736_32664)"/>
<path fill-rule="evenodd" clip-rule="evenodd" d="M26.4391 41.9022C26.4011 41.9022 26.3652 41.8936 26.3329 41.8785C26.0588 41.8556 25.812 41.7343 25.6283 41.5506C25.423 41.3454 25.2967 41.0626 25.2967 40.7498C25.2967 40.4369 25.4237 40.1542 25.6283 39.9489C25.8335 39.7437 26.1162 39.6174 26.4291 39.6174C28.4147 39.6475 30.426 39.6174 32.4144 39.6174V34.7844H26.4392C26.4011 34.7844 26.3653 34.7758 26.3337 34.7607C26.0596 34.7377 25.8127 34.6165 25.629 34.4327C25.4281 34.2318 25.3026 33.9555 25.2975 33.6499C25.2566 31.2783 25.3334 28.8865 25.2975 26.5134C25.2975 26.2005 25.4245 25.9178 25.629 25.7126C25.8343 25.5073 26.117 25.381 26.4299 25.381C26.7427 25.381 27.0255 25.5081 27.2307 25.7126C27.4144 25.8963 27.5357 26.1431 27.5586 26.4172C27.5737 26.4495 27.5823 26.4854 27.5823 26.5234V32.4987H32.4153C32.4153 30.5103 32.4454 28.499 32.4153 26.5133C32.4153 26.2005 32.5423 25.9177 32.7468 25.7125C32.952 25.5073 33.2347 25.381 33.5476 25.381C35.9206 25.4168 38.3117 25.3408 40.684 25.381C40.9817 25.386 41.2515 25.5058 41.451 25.6981L41.4668 25.7125C41.6721 25.9177 41.7984 26.2005 41.7984 26.5133C41.7984 26.8262 41.6713 27.1089 41.4668 27.3142L41.4661 27.3134L41.4654 27.3142C41.2867 27.4921 41.0499 27.6112 40.7859 27.6399C40.7521 27.6564 40.7148 27.6658 40.6753 27.6658H34.7002V32.4988C36.6863 32.4988 38.7013 32.4651 40.684 32.4988C40.9897 32.5038 41.2652 32.6294 41.4669 32.8303C41.6506 33.014 41.7718 33.2609 41.7948 33.535C41.8099 33.5673 41.8185 33.6032 41.8185 33.6405V40.7582C41.8185 40.7977 41.8091 40.8357 41.7926 40.8687C41.7647 41.1335 41.6455 41.371 41.4669 41.5497C41.2616 41.7549 40.9789 41.8812 40.6661 41.8812C40.3532 41.8812 40.0705 41.7542 39.8652 41.5497C39.6643 41.3488 39.5387 41.0725 39.5337 40.7668C39.4993 38.7848 39.5337 36.7683 39.5337 34.7829H34.7008V40.7582C34.7008 40.7976 34.6914 40.8357 34.6749 40.8687C34.6469 41.1335 34.5278 41.371 34.3492 41.549C34.1705 41.7276 33.933 41.846 33.6689 41.8747C33.6352 41.8912 33.5979 41.9006 33.5584 41.9006L26.4391 41.9022ZM30.799 35.8566C30.5938 35.6513 30.3111 35.525 29.9982 35.525C29.6853 35.525 29.4019 35.6521 29.1974 35.8566C28.9922 36.0618 28.8659 36.3445 28.8659 36.6574C28.8659 36.9703 28.9929 37.253 29.1974 37.4582L29.2132 37.4726C29.417 37.6692 29.694 37.7905 29.9989 37.7905C30.3118 37.7905 30.5945 37.6635 30.7997 37.459C31.005 37.2537 31.1313 36.971 31.1313 36.6581C31.1313 36.3452 31.0042 36.0625 30.7997 35.8573L30.799 35.8566ZM37.9167 29.8052C37.7114 29.6 37.4287 29.4737 37.1158 29.4737C36.803 29.4737 36.5202 29.6007 36.315 29.8052C36.1098 30.0105 35.9835 30.2932 35.9835 30.6061C35.9835 30.9189 36.1105 31.2024 36.315 31.4069C36.5202 31.6121 36.803 31.7384 37.1158 31.7384C37.4287 31.7384 37.7114 31.6114 37.9167 31.4069L37.931 31.3911C38.1276 31.1873 38.2489 30.9103 38.2489 30.6054C38.2489 30.2925 38.1219 30.0098 37.9174 29.8045L37.9167 29.8052ZM30.799 29.8052C30.5938 29.6 30.3111 29.4737 29.9982 29.4737C29.6853 29.4737 29.4019 29.6007 29.1974 29.8052C28.9922 30.0105 28.8659 30.2932 28.8659 30.6061C28.8659 30.9189 28.9929 31.201 29.1974 31.4062L29.1981 31.4069C29.4033 31.6121 29.6861 31.7384 29.9982 31.7384C30.3104 31.7384 30.5938 31.6114 30.799 31.4069L30.8134 31.3911C31.01 31.1873 31.1313 30.9103 31.1313 30.6054C31.1313 30.2925 31.0043 30.0098 30.7998 29.8045L30.799 29.8052ZM37.9167 35.8566C37.7114 35.6513 37.4287 35.525 37.1158 35.525C36.803 35.525 36.5202 35.6521 36.315 35.8566C36.1098 36.0618 35.9835 36.3445 35.9835 36.6574C35.9835 36.9703 36.1105 37.253 36.315 37.4582C36.5202 37.6635 36.803 37.7898 37.1158 37.7898C37.4287 37.7898 37.7114 37.6628 37.9167 37.4582C38.1219 37.253 38.2482 36.9703 38.2482 36.6574C38.2482 36.3445 38.1212 36.0618 37.9167 35.8566Z" fill="url(#paint78_linear_5736_32664)"/>
<defs>
<linearGradient id="paint0_linear_5736_32664" x1="76.0449" y1="21.6379" x2="177.045" y2="21.6379" gradientUnits="userSpaceOnUse">
<stop stop-color="#C32853"/>
<stop offset="1" stop-color="#EE7E49"/>
</linearGradient>
<linearGradient id="paint1_linear_5736_32664" x1="0" y1="33.5232" x2="67.0458" y2="33.5232" gradientUnits="userSpaceOnUse">
<stop stop-color="#C32853"/>
<stop offset="1" stop-color="#EE7E49"/>
</linearGradient>
<linearGradient id="paint2_linear_5736_32664" x1="2.24219" y1="33.5783" x2="64.9158" y2="33.5783" gradientUnits="userSpaceOnUse">
<stop stop-color="#C32853"/>
<stop offset="1" stop-color="#EE7E49"/>
</linearGradient>
<linearGradient id="paint3_linear_5736_32664" x1="17.7949" y1="33.578" x2="49.3641" y2="33.578" gradientUnits="userSpaceOnUse">
<stop stop-color="#C32853"/>
<stop offset="1" stop-color="#EE7E49"/>
</linearGradient>
<linearGradient id="paint4_linear_5736_32664" x1="10.9365" y1="27.6815" x2="11.106" y2="27.0484" gradientUnits="userSpaceOnUse">
<stop stop-color="#C32853"/>
<stop offset="1" stop-color="#EE7E49"/>
</linearGradient>
<linearGradient id="paint5_linear_5736_32664" x1="3.33203" y1="39.5325" x2="18.5303" y2="39.5325" gradientUnits="userSpaceOnUse">
<stop stop-color="#C32853"/>
<stop offset="1" stop-color="#EE7E49"/>
</linearGradient>
<linearGradient id="paint6_linear_5736_32664" x1="11.6733" y1="55.739" x2="22.6585" y2="44.7475" gradientUnits="userSpaceOnUse">
<stop stop-color="#C32853"/>
<stop offset="1" stop-color="#EE7E49"/>
</linearGradient>
<linearGradient id="paint7_linear_5736_32664" x1="25.4315" y1="63.6124" x2="29.4392" y2="48.6416" gradientUnits="userSpaceOnUse">
<stop stop-color="#C32853"/>
<stop offset="1" stop-color="#EE7E49"/>
</linearGradient>
<linearGradient id="paint8_linear_5736_32664" x1="37.4668" y1="55.9704" x2="43.4003" y2="55.9704" gradientUnits="userSpaceOnUse">
<stop stop-color="#C32853"/>
<stop offset="1" stop-color="#EE7E49"/>
</linearGradient>
<linearGradient id="paint9_linear_5736_32664" x1="50.0683" y1="50.291" x2="50.2985" y2="50.0606" gradientUnits="userSpaceOnUse">
<stop stop-color="#C32853"/>
<stop offset="1" stop-color="#EE7E49"/>
</linearGradient>
<linearGradient id="paint10_linear_5736_32664" x1="56.2203" y1="39.8103" x2="56.3046" y2="39.4955" gradientUnits="userSpaceOnUse">
<stop stop-color="#C32853"/>
<stop offset="1" stop-color="#EE7E49"/>
</linearGradient>
<linearGradient id="paint11_linear_5736_32664" x1="48.627" y1="26.7245" x2="63.3154" y2="26.7245" gradientUnits="userSpaceOnUse">
<stop stop-color="#C32853"/>
<stop offset="1" stop-color="#EE7E49"/>
</linearGradient>
<linearGradient id="paint12_linear_5736_32664" x1="44.625" y1="22.5282" x2="55.6037" y2="11.5432" gradientUnits="userSpaceOnUse">
<stop stop-color="#C32853"/>
<stop offset="1" stop-color="#EE7E49"/>
</linearGradient>
<linearGradient id="paint13_linear_5736_32664" x1="37.6222" y1="18.4875" x2="41.6384" y2="3.48499" gradientUnits="userSpaceOnUse">
<stop stop-color="#C32853"/>
<stop offset="1" stop-color="#EE7E49"/>
</linearGradient>
<linearGradient id="paint14_linear_5736_32664" x1="29.5059" y1="11.0924" x2="24.6931" y2="11.0924" gradientUnits="userSpaceOnUse">
<stop stop-color="#C32853"/>
<stop offset="1" stop-color="#EE7E49"/>
</linearGradient>
<linearGradient id="paint15_linear_5736_32664" x1="16.7878" y1="17.1483" x2="17.0832" y2="16.8527" gradientUnits="userSpaceOnUse">
<stop stop-color="#C32853"/>
<stop offset="1" stop-color="#EE7E49"/>
</linearGradient>
<linearGradient id="paint16_linear_5736_32664" x1="18.8398" y1="33.578" x2="48.3176" y2="33.578" gradientUnits="userSpaceOnUse">
<stop stop-color="#C32853"/>
<stop offset="1" stop-color="#EE7E49"/>
</linearGradient>
<linearGradient id="paint17_linear_5736_32664" x1="37.1758" y1="18.9175" x2="37.8046" y2="18.9175" gradientUnits="userSpaceOnUse">
<stop stop-color="#C32853"/>
<stop offset="1" stop-color="#EE7E49"/>
</linearGradient>
<linearGradient id="paint18_linear_5736_32664" x1="35.3047" y1="18.534" x2="35.7845" y2="18.534" gradientUnits="userSpaceOnUse">
<stop stop-color="#C32853"/>
<stop offset="1" stop-color="#EE7E49"/>
</linearGradient>
<linearGradient id="paint19_linear_5736_32664" x1="33.3984" y1="18.408" x2="33.7269" y2="18.408" gradientUnits="userSpaceOnUse">
<stop stop-color="#C32853"/>
<stop offset="1" stop-color="#EE7E49"/>
</linearGradient>
<linearGradient id="paint20_linear_5736_32664" x1="31.3398" y1="18.5414" x2="31.8252" y2="18.5414" gradientUnits="userSpaceOnUse">
<stop stop-color="#C32853"/>
<stop offset="1" stop-color="#EE7E49"/>
</linearGradient>
<linearGradient id="paint21_linear_5736_32664" x1="29.3203" y1="18.9325" x2="29.9542" y2="18.9325" gradientUnits="userSpaceOnUse">
<stop stop-color="#C32853"/>
<stop offset="1" stop-color="#EE7E49"/>
</linearGradient>
<linearGradient id="paint22_linear_5736_32664" x1="27.375" y1="19.5739" x2="28.1465" y2="19.5739" gradientUnits="userSpaceOnUse">
<stop stop-color="#C32853"/>
<stop offset="1" stop-color="#EE7E49"/>
</linearGradient>
<linearGradient id="paint23_linear_5736_32664" x1="25.5332" y1="20.4547" x2="26.4293" y2="20.4547" gradientUnits="userSpaceOnUse">
<stop stop-color="#C32853"/>
<stop offset="1" stop-color="#EE7E49"/>
</linearGradient>
<linearGradient id="paint24_linear_5736_32664" x1="23.832" y1="21.5603" x2="24.8373" y2="21.5603" gradientUnits="userSpaceOnUse">
<stop stop-color="#C32853"/>
<stop offset="1" stop-color="#EE7E49"/>
</linearGradient>
<linearGradient id="paint25_linear_5736_32664" x1="22.2969" y1="22.8717" x2="23.3941" y2="22.8717" gradientUnits="userSpaceOnUse">
<stop stop-color="#C32853"/>
<stop offset="1" stop-color="#EE7E49"/>
</linearGradient>
<linearGradient id="paint26_linear_5736_32664" x1="20.9531" y1="24.3662" x2="22.1237" y2="24.3662" gradientUnits="userSpaceOnUse">
<stop stop-color="#C32853"/>
<stop offset="1" stop-color="#EE7E49"/>
</linearGradient>
<linearGradient id="paint27_linear_5736_32664" x1="19.8281" y1="26.0183" x2="21.0518" y2="26.0183" gradientUnits="userSpaceOnUse">
<stop stop-color="#C32853"/>
<stop offset="1" stop-color="#EE7E49"/>
</linearGradient>
<linearGradient id="paint28_linear_5736_32664" x1="18.9375" y1="27.7995" x2="20.1933" y2="27.7995" gradientUnits="userSpaceOnUse">
<stop stop-color="#C32853"/>
<stop offset="1" stop-color="#EE7E49"/>
</linearGradient>
<linearGradient id="paint29_linear_5736_32664" x1="18.2988" y1="29.6796" x2="19.5654" y2="29.6796" gradientUnits="userSpaceOnUse">
<stop stop-color="#C32853"/>
<stop offset="1" stop-color="#EE7E49"/>
</linearGradient>
<linearGradient id="paint30_linear_5736_32664" x1="17.9199" y1="31.6265" x2="19.1755" y2="31.6265" gradientUnits="userSpaceOnUse">
<stop stop-color="#C32853"/>
<stop offset="1" stop-color="#EE7E49"/>
</linearGradient>
<linearGradient id="paint31_linear_5736_32664" x1="17.8086" y1="33.6071" x2="19.0347" y2="33.6071" gradientUnits="userSpaceOnUse">
<stop stop-color="#C32853"/>
<stop offset="1" stop-color="#EE7E49"/>
</linearGradient>
<linearGradient id="paint32_linear_5736_32664" x1="17.9277" y1="35.5867" x2="19.1854" y2="35.5867" gradientUnits="userSpaceOnUse">
<stop stop-color="#C32853"/>
<stop offset="1" stop-color="#EE7E49"/>
</linearGradient>
<linearGradient id="paint33_linear_5736_32664" x1="18.3125" y1="37.5323" x2="19.5802" y2="37.5323" gradientUnits="userSpaceOnUse">
<stop stop-color="#C32853"/>
<stop offset="1" stop-color="#EE7E49"/>
</linearGradient>
<linearGradient id="paint34_linear_5736_32664" x1="18.959" y1="39.4103" x2="20.2151" y2="39.4103" gradientUnits="userSpaceOnUse">
<stop stop-color="#C32853"/>
<stop offset="1" stop-color="#EE7E49"/>
</linearGradient>
<linearGradient id="paint35_linear_5736_32664" x1="19.8574" y1="41.1883" x2="21.0805" y2="41.1883" gradientUnits="userSpaceOnUse">
<stop stop-color="#C32853"/>
<stop offset="1" stop-color="#EE7E49"/>
</linearGradient>
<linearGradient id="paint36_linear_5736_32664" x1="20.9902" y1="42.8362" x2="22.1591" y2="42.8362" gradientUnits="userSpaceOnUse">
<stop stop-color="#C32853"/>
<stop offset="1" stop-color="#EE7E49"/>
</linearGradient>
<linearGradient id="paint37_linear_5736_32664" x1="22.3379" y1="44.3252" x2="23.4328" y2="44.3252" gradientUnits="userSpaceOnUse">
<stop stop-color="#C32853"/>
<stop offset="1" stop-color="#EE7E49"/>
</linearGradient>
<linearGradient id="paint38_linear_5736_32664" x1="23.8789" y1="45.6307" x2="24.881" y2="45.6307" gradientUnits="userSpaceOnUse">
<stop stop-color="#C32853"/>
<stop offset="1" stop-color="#EE7E49"/>
</linearGradient>
<linearGradient id="paint39_linear_5736_32664" x1="25.5859" y1="46.73" x2="26.4781" y2="46.73" gradientUnits="userSpaceOnUse">
<stop stop-color="#C32853"/>
<stop offset="1" stop-color="#EE7E49"/>
</linearGradient>
<linearGradient id="paint40_linear_5736_32664" x1="27.4297" y1="47.6045" x2="28.1967" y2="47.6045" gradientUnits="userSpaceOnUse">
<stop stop-color="#C32853"/>
<stop offset="1" stop-color="#EE7E49"/>
</linearGradient>
<linearGradient id="paint41_linear_5736_32664" x1="29.3789" y1="48.239" x2="30.0077" y2="48.239" gradientUnits="userSpaceOnUse">
<stop stop-color="#C32853"/>
<stop offset="1" stop-color="#EE7E49"/>
</linearGradient>
<linearGradient id="paint42_linear_5736_32664" x1="31.4004" y1="48.6224" x2="31.8802" y2="48.6224" gradientUnits="userSpaceOnUse">
<stop stop-color="#C32853"/>
<stop offset="1" stop-color="#EE7E49"/>
</linearGradient>
<linearGradient id="paint43_linear_5736_32664" x1="33.457" y1="48.7483" x2="33.7855" y2="48.7483" gradientUnits="userSpaceOnUse">
<stop stop-color="#C32853"/>
<stop offset="1" stop-color="#EE7E49"/>
</linearGradient>
<linearGradient id="paint44_linear_5736_32664" x1="35.3574" y1="48.6144" x2="35.8428" y2="48.6144" gradientUnits="userSpaceOnUse">
<stop stop-color="#C32853"/>
<stop offset="1" stop-color="#EE7E49"/>
</linearGradient>
<linearGradient id="paint45_linear_5736_32664" x1="37.2285" y1="48.2235" x2="37.8624" y2="48.2235" gradientUnits="userSpaceOnUse">
<stop stop-color="#C32853"/>
<stop offset="1" stop-color="#EE7E49"/>
</linearGradient>
<linearGradient id="paint46_linear_5736_32664" x1="39.0391" y1="47.5822" x2="39.8106" y2="47.5822" gradientUnits="userSpaceOnUse">
<stop stop-color="#C32853"/>
<stop offset="1" stop-color="#EE7E49"/>
</linearGradient>
<linearGradient id="paint47_linear_5736_32664" x1="40.7539" y1="46.7014" x2="41.65" y2="46.7014" gradientUnits="userSpaceOnUse">
<stop stop-color="#C32853"/>
<stop offset="1" stop-color="#EE7E49"/>
</linearGradient>
<linearGradient id="paint48_linear_5736_32664" x1="42.3477" y1="45.5957" x2="43.353" y2="45.5957" gradientUnits="userSpaceOnUse">
<stop stop-color="#C32853"/>
<stop offset="1" stop-color="#EE7E49"/>
</linearGradient>
<linearGradient id="paint49_linear_5736_32664" x1="43.791" y1="44.2843" x2="44.8882" y2="44.2843" gradientUnits="userSpaceOnUse">
<stop stop-color="#C32853"/>
<stop offset="1" stop-color="#EE7E49"/>
</linearGradient>
<linearGradient id="paint50_linear_5736_32664" x1="45.0605" y1="42.7904" x2="46.2311" y2="42.7904" gradientUnits="userSpaceOnUse">
<stop stop-color="#C32853"/>
<stop offset="1" stop-color="#EE7E49"/>
</linearGradient>
<linearGradient id="paint51_linear_5736_32664" x1="46.1328" y1="41.138" x2="47.3564" y2="41.138" gradientUnits="userSpaceOnUse">
<stop stop-color="#C32853"/>
<stop offset="1" stop-color="#EE7E49"/>
</linearGradient>
<linearGradient id="paint52_linear_5736_32664" x1="46.9902" y1="39.3566" x2="48.246" y2="39.3566" gradientUnits="userSpaceOnUse">
<stop stop-color="#C32853"/>
<stop offset="1" stop-color="#EE7E49"/>
</linearGradient>
<linearGradient id="paint53_linear_5736_32664" x1="47.6191" y1="37.4765" x2="48.8855" y2="37.4765" gradientUnits="userSpaceOnUse">
<stop stop-color="#C32853"/>
<stop offset="1" stop-color="#EE7E49"/>
</linearGradient>
<linearGradient id="paint54_linear_5736_32664" x1="48.0078" y1="35.5294" x2="49.2634" y2="35.5294" gradientUnits="userSpaceOnUse">
<stop stop-color="#C32853"/>
<stop offset="1" stop-color="#EE7E49"/>
</linearGradient>
<linearGradient id="paint55_linear_5736_32664" x1="48.1484" y1="33.549" x2="49.3745" y2="33.549" gradientUnits="userSpaceOnUse">
<stop stop-color="#C32853"/>
<stop offset="1" stop-color="#EE7E49"/>
</linearGradient>
<linearGradient id="paint56_linear_5736_32664" x1="48" y1="31.5694" x2="49.2576" y2="31.5694" gradientUnits="userSpaceOnUse">
<stop stop-color="#C32853"/>
<stop offset="1" stop-color="#EE7E49"/>
</linearGradient>
<linearGradient id="paint57_linear_5736_32664" x1="47.6035" y1="29.6239" x2="48.8714" y2="29.6239" gradientUnits="userSpaceOnUse">
<stop stop-color="#C32853"/>
<stop offset="1" stop-color="#EE7E49"/>
</linearGradient>
<linearGradient id="paint58_linear_5736_32664" x1="46.9688" y1="27.7459" x2="48.2249" y2="27.7459" gradientUnits="userSpaceOnUse">
<stop stop-color="#C32853"/>
<stop offset="1" stop-color="#EE7E49"/>
</linearGradient>
<linearGradient id="paint59_linear_5736_32664" x1="46.1035" y1="25.9681" x2="47.3266" y2="25.9681" gradientUnits="userSpaceOnUse">
<stop stop-color="#C32853"/>
<stop offset="1" stop-color="#EE7E49"/>
</linearGradient>
<linearGradient id="paint60_linear_5736_32664" x1="45.0254" y1="24.32" x2="46.1943" y2="24.32" gradientUnits="userSpaceOnUse">
<stop stop-color="#C32853"/>
<stop offset="1" stop-color="#EE7E49"/>
</linearGradient>
<linearGradient id="paint61_linear_5736_32664" x1="43.752" y1="22.8306" x2="44.8469" y2="22.8306" gradientUnits="userSpaceOnUse">
<stop stop-color="#C32853"/>
<stop offset="1" stop-color="#EE7E49"/>
</linearGradient>
<linearGradient id="paint62_linear_5736_32664" x1="42.3027" y1="21.5252" x2="43.3051" y2="21.5252" gradientUnits="userSpaceOnUse">
<stop stop-color="#C32853"/>
<stop offset="1" stop-color="#EE7E49"/>
</linearGradient>
<linearGradient id="paint63_linear_5736_32664" x1="40.7051" y1="20.426" x2="41.5974" y2="20.426" gradientUnits="userSpaceOnUse">
<stop stop-color="#C32853"/>
<stop offset="1" stop-color="#EE7E49"/>
</linearGradient>
<linearGradient id="paint64_linear_5736_32664" x1="38.9883" y1="19.5517" x2="39.7553" y2="19.5517" gradientUnits="userSpaceOnUse">
<stop stop-color="#C32853"/>
<stop offset="1" stop-color="#EE7E49"/>
</linearGradient>
<linearGradient id="paint65_linear_5736_32664" x1="9.29102" y1="20.725" x2="15.5633" y2="20.725" gradientUnits="userSpaceOnUse">
<stop stop-color="#C32853"/>
<stop offset="1" stop-color="#EE7E49"/>
</linearGradient>
<linearGradient id="paint66_linear_5736_32664" x1="6.59961" y1="33.209" x2="12.4907" y2="33.209" gradientUnits="userSpaceOnUse">
<stop stop-color="#C32853"/>
<stop offset="1" stop-color="#EE7E49"/>
</linearGradient>
<linearGradient id="paint67_linear_5736_32664" x1="9.98828" y1="45.5888" x2="14.3041" y2="45.5888" gradientUnits="userSpaceOnUse">
<stop stop-color="#C32853"/>
<stop offset="1" stop-color="#EE7E49"/>
</linearGradient>
<linearGradient id="paint68_linear_5736_32664" x1="12.5879" y1="44.2207" x2="16.9038" y2="44.2207" gradientUnits="userSpaceOnUse">
<stop stop-color="#C32853"/>
<stop offset="1" stop-color="#EE7E49"/>
</linearGradient>
<linearGradient id="paint69_linear_5736_32664" x1="19.3398" y1="53.5274" x2="24.9067" y2="53.5274" gradientUnits="userSpaceOnUse">
<stop stop-color="#C32853"/>
<stop offset="1" stop-color="#EE7E49"/>
</linearGradient>
<linearGradient id="paint70_linear_5736_32664" x1="30.5664" y1="57.0664" x2="37.3468" y2="57.0664" gradientUnits="userSpaceOnUse">
<stop stop-color="#C32853"/>
<stop offset="1" stop-color="#EE7E49"/>
</linearGradient>
<linearGradient id="paint71_linear_5736_32664" x1="43.2246" y1="53.7062" x2="48.763" y2="53.7062" gradientUnits="userSpaceOnUse">
<stop stop-color="#C32853"/>
<stop offset="1" stop-color="#EE7E49"/>
</linearGradient>
<linearGradient id="paint72_linear_5736_32664" x1="50.7793" y1="44.6726" x2="57.5403" y2="44.6726" gradientUnits="userSpaceOnUse">
<stop stop-color="#C32853"/>
<stop offset="1" stop-color="#EE7E49"/>
</linearGradient>
<linearGradient id="paint73_linear_5736_32664" x1="54.5625" y1="32.8074" x2="60.2139" y2="32.8074" gradientUnits="userSpaceOnUse">
<stop stop-color="#C32853"/>
<stop offset="1" stop-color="#EE7E49"/>
</linearGradient>
<linearGradient id="paint74_linear_5736_32664" x1="51.2559" y1="21.6" x2="57.1099" y2="21.6" gradientUnits="userSpaceOnUse">
<stop stop-color="#C32853"/>
<stop offset="1" stop-color="#EE7E49"/>
</linearGradient>
<linearGradient id="paint75_linear_5736_32664" x1="42.4102" y1="12.2793" x2="48.7703" y2="12.2793" gradientUnits="userSpaceOnUse">
<stop stop-color="#C32853"/>
<stop offset="1" stop-color="#EE7E49"/>
</linearGradient>
<linearGradient id="paint76_linear_5736_32664" x1="30.6094" y1="9.0496" x2="36.2719" y2="9.0496" gradientUnits="userSpaceOnUse">
<stop stop-color="#C32853"/>
<stop offset="1" stop-color="#EE7E49"/>
</linearGradient>
<linearGradient id="paint77_linear_5736_32664" x1="17.4805" y1="12.595" x2="24.0038" y2="12.595" gradientUnits="userSpaceOnUse">
<stop stop-color="#C32853"/>
<stop offset="1" stop-color="#EE7E49"/>
</linearGradient>
<linearGradient id="paint78_linear_5736_32664" x1="25.2852" y1="33.6356" x2="41.8185" y2="33.6356" gradientUnits="userSpaceOnUse">
<stop stop-color="#C32853"/>
<stop offset="1" stop-color="#EE7E49"/>
</linearGradient>
</defs>
</svg>
