<svg width="1920" height="480" viewBox="0 0 1920 480" fill="none" xmlns="http://www.w3.org/2000/svg">
<g clip-path="url(#clip0_5742_33841)">
<rect width="1920" height="480" fill="url(#paint0_linear_5742_33841)"/>
<g opacity="0.2">
<path d="M11.7037 337.692C-23.7739 335.107 -40.1455 367.869 -37.1828 395.85C-34.2202 423.832 -15.949 434.806 1.3335 436.452C18.6168 438.098 47.7509 426.027 52.1949 395.85C55.6328 372.511 41.8255 339.887 11.7037 337.692Z" stroke="url(#paint1_linear_5742_33841)" stroke-width="0.793432" stroke-miterlimit="10" stroke-linecap="round" stroke-linejoin="round"/>
<path d="M26.0757 381.9C19.6187 381.326 12.3866 385.631 12.9031 389.362C13.4196 393.093 19.6187 392.805 25.3005 389.362C30.983 385.918 26.0757 381.9 26.0757 381.9Z" stroke="url(#paint2_linear_5742_33841)" stroke-width="0.793432" stroke-miterlimit="10" stroke-linecap="round" stroke-linejoin="round"/>
<path d="M-26.3173 354.681C-23.1737 360.324 -16.5676 356.127 -12.0331 357.047C-9.11963 357.638 -6.63936 359.624 -4.11229 361.213C-1.79546 362.671 0.559441 363.723 3.23569 363.98C9.7085 364.6 16.6431 363.14 22.7327 360.771C28.6541 358.467 34.9841 353.269 41.5219 355.179C42.0163 355.323 42.2273 354.474 41.733 354.329C36.3932 352.769 31.2764 355.828 26.5189 358.159C20.3095 361.203 13.6019 362.943 6.81248 363.163C3.43008 363.273 0.37219 362.856 -2.65475 361.099C-4.81289 359.846 -6.81154 358.264 -9.05219 357.185C-11.3151 356.096 -13.5081 355.823 -15.9471 356.203C-19.155 356.703 -23.5339 358.003 -25.6325 354.235C-25.8999 353.754 -26.587 354.197 -26.3173 354.681Z" fill="url(#paint3_linear_5742_33841)"/>
<path d="M-28.9525 358.999C-26.016 360.188 -23.3636 362.135 -21.3427 364.802C-19.6836 366.993 -18.7418 369.891 -16.7559 371.764C-13.0704 375.238 -7.88846 373.096 -4.11966 370.992C-1.32916 369.435 1.55893 367.617 4.78106 367.722C7.72231 367.817 10.3986 369.411 13.0605 370.626C15.3527 371.671 17.7711 372.532 20.2768 372.147C22.7578 371.766 24.9636 370.298 26.9027 368.608C29.5615 366.29 31.795 363.351 34.7442 361.456C37.5617 359.646 41.7312 358.882 44.6867 360.684C45.1342 360.957 45.5357 360.196 45.0874 359.923C41.0552 357.465 35.8733 359.236 32.4433 362.12C27.4526 366.316 23.2283 373.014 16.1343 370.904C11.0111 369.381 6.76384 365.596 1.22648 367.397C-3.91416 369.069 -10.0577 375.436 -15.5784 371.647C-18.2856 369.79 -19.4035 365.675 -21.6117 363.17C-23.6182 360.893 -26.0541 359.238 -28.7406 358.15C-29.2223 357.955 -29.4293 358.806 -28.9525 358.999Z" fill="url(#paint4_linear_5742_33841)"/>
<path d="M-30.7543 361.804C-24.4854 362.403 -22.4272 370.248 -18.4276 374.421C-14.8682 378.135 -9.89896 378.552 -5.2796 377.773C-2.35422 377.279 0.487059 376.324 3.38308 375.671C6.9686 374.863 10.3288 374.912 13.9302 375.503C19.4905 376.415 24.5185 377.109 29.5727 373.804C35.0132 370.246 41.225 363.028 48.1041 366.877C48.5587 367.132 48.961 366.371 48.5048 366.116C44.0076 363.6 38.8907 365.72 34.9918 368.639C32.6155 370.418 30.3725 372.478 27.7867 373.884C24.4352 375.707 20.937 375.725 17.3165 375.181C14.3158 374.731 11.3245 374.018 8.28173 374.104C5.22306 374.19 2.24292 375.029 -0.717371 375.813C-6.76015 377.415 -13.7598 378.693 -18.499 373.086C-22.2535 368.643 -24.4957 361.521 -30.7535 360.922C-31.2629 360.874 -31.2605 361.755 -30.7543 361.804Z" fill="url(#paint5_linear_5742_33841)"/>
<path d="M50.44 372.516C45.3255 368.768 39.5248 372.741 35.0697 375.806C31.5801 378.206 28.3501 379.676 24.1798 379.328C21.1322 379.073 18.1823 378.66 15.3862 380.337C12.7346 381.928 10.8184 384.621 8.34846 386.492C5.53733 388.622 2.15652 389.514 -1.22112 389.377C-4.65668 389.239 -8.06843 388.083 -11.0382 386.169C-13.4971 384.584 -15.6862 381.948 -18.6092 381.478C-20.388 381.192 -22.1169 382.285 -23.8569 381.915C-25.8667 381.489 -26.8482 379.423 -27.8423 377.64C-29.5538 374.572 -31.7381 372.427 -35.0332 371.826C-35.5331 371.736 -35.7473 372.584 -35.2443 372.676C-31.2168 373.409 -29.649 376.429 -27.5345 379.831C-26.319 381.787 -24.8479 383.055 -22.6247 382.834C-20.6126 382.634 -18.9583 381.939 -16.9858 382.939C-15.5219 383.681 -14.2739 384.853 -12.9568 385.857C-10.5233 387.712 -7.77566 389.053 -4.88836 389.742C0.615677 391.056 6.09671 389.847 10.436 385.804C13.1678 383.259 15.6211 380.236 19.4097 379.944C22.6128 379.697 25.7802 380.778 28.9642 379.954C35.6576 378.222 42.7945 367.968 50.0378 373.276C50.467 373.59 50.8653 372.827 50.44 372.516Z" fill="url(#paint6_linear_5742_33841)"/>
<path d="M-36.4572 377.886C-33.7873 380.719 -34.9742 386.055 -31.4768 388.234C-29.9494 389.187 -28.0769 389.09 -26.3941 388.957C-23.6115 388.738 -21.0511 388.591 -18.3923 389.78C-14.1744 391.666 -11.7925 396.296 -7.11288 397.209C-3.53847 397.906 0.0764046 396.819 2.84786 394.233C2.6265 394.09 2.40592 393.947 2.18456 393.803C2.16472 393.887 2.14488 393.971 2.12504 394.055C2.04491 394.391 2.41861 394.8 2.70742 394.553C7.28632 390.635 12.5912 396.1 17.3367 396.577C19.6869 396.813 21.9942 396.079 24.1166 395.006C26.2049 393.951 28.5908 392.656 29.9896 390.554C31.2154 388.711 31.6121 386.355 32.7999 384.463C34.1218 382.357 35.9498 380.675 37.9715 379.454C41.976 377.036 46.7873 376.392 51.1393 377.952C51.6265 378.127 51.8351 377.276 51.3503 377.103C43.7802 374.388 34.2511 378.166 30.8869 386.452C30.3292 387.826 29.9475 389.299 29.0454 390.465C28.0496 391.75 26.5873 392.608 25.2599 393.393C22.2108 395.195 18.9791 396.334 15.5404 395.301C11.3035 394.03 6.49606 390.208 2.30833 393.791C2.50272 393.957 2.69711 394.123 2.89071 394.289C2.91054 394.205 2.93038 394.122 2.95021 394.038C3.05733 393.588 2.57968 393.336 2.2869 393.609C-0.996315 396.673 -5.79341 397.457 -9.69789 395.391C-11.7521 394.305 -13.2239 392.362 -15.0186 390.872C-16.4262 389.703 -18.0273 388.846 -19.7269 388.35C-21.5446 387.818 -23.3616 387.801 -25.2238 387.966C-27.2645 388.149 -29.7114 388.602 -31.4744 387.156C-34.3085 384.832 -33.3588 379.954 -35.8954 377.264C-36.2652 376.872 -36.8269 377.494 -36.4572 377.886Z" fill="url(#paint7_linear_5742_33841)"/>
<path d="M-37.2553 388.132C-30.8832 390.715 -27.166 397.714 -20.1608 398.865C-18.2161 399.184 -16.5189 399.73 -14.8559 400.936C-13.1976 402.139 -11.6608 403.511 -9.91996 404.577C-7.17628 406.259 -3.61377 408.165 -0.3964 407.502C2.40044 406.926 3.66359 404.27 5.03385 401.806C5.96613 400.131 7.03726 398.517 8.84867 397.992C11.0647 397.349 13.4141 398.336 15.5548 398.895C18.7793 399.738 22.291 400.205 25.4933 399.005C28.0973 398.029 30.0063 395.972 31.6567 393.603C33.691 390.684 35.4128 387.032 38.4238 385.196C42.2974 382.834 48.168 384.264 52.0018 386.231C52.462 386.468 52.8659 385.709 52.4025 385.471C47.2143 382.807 40.0766 381.614 35.673 386.454C33.5165 388.825 32.0684 391.849 30.0753 394.373C27.4586 397.686 24.0619 399.078 20.1106 398.806C16.5323 398.56 12.8349 396.394 9.243 397.011C6.5128 397.479 5.15762 399.89 3.83735 402.311C2.82969 404.158 1.73555 406.049 -0.289288 406.59C-2.73544 407.244 -5.51007 405.961 -7.69439 404.842C-10.907 403.197 -13.5015 400.213 -16.7768 398.795C-18.7509 397.94 -20.9257 398.084 -22.9195 397.298C-24.9587 396.493 -26.7471 395.037 -28.4371 393.572C-31.1593 391.212 -33.7499 388.617 -37.0426 387.282C-37.525 387.087 -37.7321 387.939 -37.2553 388.132Z" fill="url(#paint8_linear_5742_33841)"/>
<path d="M-29.2579 418.384C-26.6245 411.69 -19.9716 409.12 -13.8431 410.268C-7.1886 411.514 -1.31562 415.67 5.30161 417.084C7.87153 417.633 10.6835 417.883 13.2288 417.046C15.8074 416.199 17.3578 414.01 19.1724 411.965C23.6092 406.963 29.8694 404.148 36.1923 404.369C38.9614 404.466 42.0621 405.23 44.6384 403.691C47.171 402.177 48.4818 398.944 51.5103 398.359C52.0125 398.262 51.7999 397.412 51.2992 397.509C48.9903 397.955 47.5883 399.807 45.938 401.479C43.1428 404.312 39.9817 403.657 36.5065 403.499C30.9564 403.246 25.3961 405.213 20.9981 408.986C18.4908 411.137 16.6334 414.683 13.6112 415.976C10.2106 417.43 6.10535 416.565 2.73088 415.48C-3.6007 413.445 -9.51495 409.523 -16.2107 409.066C-21.806 408.684 -27.6528 412.114 -29.9434 417.937C-30.1458 418.455 -29.4626 418.904 -29.2579 418.384Z" fill="url(#paint9_linear_5742_33841)"/>
<path d="M-24.8657 424.221C-23.3915 420.145 -19.8187 417.883 -16.0745 417.106C-12.65 416.394 -8.15523 416.302 -4.77759 417.368C-1.38329 418.439 0.131369 422.047 3.10039 423.813C5.59573 425.298 8.84404 425.283 11.5957 425.146C14.2751 425.014 16.4245 423.962 18.2454 421.783C20.5226 419.059 22.0793 415.873 24.965 413.803C31.606 409.04 39.9148 410.197 47.3239 411.323C47.823 411.398 48.0396 410.549 47.535 410.473C41.7334 409.59 35.72 408.681 29.9723 410.427C27.6658 411.128 25.4395 412.237 23.5289 413.848C21.4398 415.61 20.0719 417.978 18.4287 420.199C16.2071 423.204 13.7348 424.307 10.2516 424.273C6.70257 424.239 3.75814 423.823 1.10888 420.962C-0.527975 419.194 -2.01566 417.399 -4.25631 416.623C-6.89447 415.708 -10.0063 415.739 -12.7365 415.846C-17.9866 416.051 -23.5272 418.173 -25.6298 423.987C-25.821 424.513 -25.0545 424.742 -24.8657 424.221Z" fill="url(#paint10_linear_5742_33841)"/>
<path d="M-22.5589 425.875C-21.0522 422.568 -17.1191 423.267 -14.7095 424.788C-12.5886 426.126 -10.8217 428.086 -8.55958 429.16C-6.12771 430.316 -3.56651 430.059 -1.02594 429.567C2.50562 428.882 5.46512 428.585 9.00383 429.411C11.331 429.954 13.8311 430.622 16.1534 429.686C18.6591 428.675 20.2809 425.967 22.2415 424.102C27.2956 419.293 34.323 416.548 40.6499 419.976C41.1069 420.224 41.5099 419.464 41.0505 419.215C35.7528 416.345 29.7235 417.472 24.8471 420.869C22.201 422.712 20.3063 425.257 17.949 427.458C14.5087 430.669 10.4844 428.598 6.59815 428.009C3.56486 427.55 0.750555 428.423 -2.22958 428.901C-4.09017 429.199 -6.00472 429.286 -7.79788 428.557C-9.4617 427.881 -10.8708 426.64 -12.2998 425.513C-15.2918 423.153 -20.98 420.46 -23.2444 425.429C-23.4745 425.934 -22.7898 426.381 -22.5589 425.875Z" fill="url(#paint11_linear_5742_33841)"/>
<path d="M-17.5273 351.581C-14.2743 350.796 -10.9561 350.848 -7.74354 351.854C-4.67375 352.816 -2.2514 354.92 0.57798 356.422C5.54724 359.06 11.1647 358.07 16.115 355.915C16.5847 355.71 16.3808 354.857 15.9039 355.065C12.9515 356.35 9.8405 357.249 6.64614 357.144C3.13679 357.028 0.432781 355.342 -2.5172 353.438C-7.18178 350.428 -12.4581 349.456 -17.7384 350.731C-18.2375 350.852 -18.0264 351.702 -17.5273 351.581Z" fill="url(#paint12_linear_5742_33841)"/>
<path d="M20.5838 353.275C22.7157 351.709 24.7517 350.003 26.694 348.159C27.0828 347.789 26.5194 347.169 26.133 347.536C24.2415 349.331 22.2587 350.989 20.1831 352.513C19.7594 352.824 20.1561 353.589 20.5838 353.275Z" fill="url(#paint13_linear_5742_33841)"/>
<path d="M20.3548 339.683C17.9522 342.722 14.9658 344.931 11.5072 346.195C11.024 346.371 11.2311 347.223 11.7182 347.045C15.3054 345.734 18.4235 343.459 20.9157 340.306C21.2521 339.882 20.6928 339.256 20.3548 339.683Z" fill="url(#paint14_linear_5742_33841)"/>
<path d="M23.7164 340.816C22.5913 342.055 21.3313 343.09 19.9373 343.926C19.4874 344.196 19.8881 344.956 20.338 344.687C21.7891 343.816 23.1062 342.729 24.2773 341.44C24.6407 341.039 24.0798 340.416 23.7164 340.816Z" fill="url(#paint15_linear_5742_33841)"/>
<path d="M-11.9268 342.888C-7.01543 345.236 -1.71054 345.717 3.47374 344.249C3.96805 344.108 3.75859 343.258 3.26269 343.399C-1.69864 344.805 -6.81945 344.377 -11.5261 342.127C-11.9902 341.905 -12.3949 342.664 -11.9268 342.888Z" fill="url(#paint16_linear_5742_33841)"/>
<path d="M52.0002 389.601C49.1557 391.728 46.0137 393.037 42.6028 393.468C42.1013 393.531 42.0958 394.414 42.6028 394.349C46.1566 393.901 49.431 392.584 52.4001 390.363C52.8222 390.046 52.4255 389.283 52.0002 389.601Z" fill="url(#paint17_linear_5742_33841)"/>
</g>
<g opacity="0.2">
<path d="M620.691 133.64C628.71 121.444 634.538 102.062 623.638 84.61C609.633 62.1875 584.511 65.226 569.589 78.9059C565.75 82.4247 558.996 91.0882 556.914 102.413" stroke="url(#paint18_linear_5742_33841)" stroke-width="0.963694" stroke-miterlimit="10"/>
<path d="M556.717 115.449C556.891 120.287 560.007 126.342 562.869 130.924C577.333 154.081 599.428 151.91 612.358 143.296" stroke="url(#paint19_linear_5742_33841)" stroke-width="0.963694" stroke-miterlimit="10"/>
<path d="M563.41 86.1837C544.413 80.0562 540.985 81.4689 539.973 84.735C537.722 92.0052 577.814 122.828 636.21 138.524C641.2 140.148 656.322 142.108 637.559 126.244L627.793 119.207" stroke="url(#paint20_linear_5742_33841)" stroke-width="0.963694" stroke-miterlimit="10"/>
<path d="M566.66 82.0531C548.278 74.1853 536.426 79.2846 535.106 82.1583C527.43 98.8731 570.223 132.469 628.619 148.165C645.064 152.848 660.22 142.113 641.615 124.346L628.869 114.155" stroke="url(#paint21_linear_5742_33841)" stroke-width="0.963694" stroke-miterlimit="10"/>
<path d="M581.703 86.3717C579.687 87.927 577.232 87.8759 576.221 86.2573C575.21 84.6386 576.025 82.0659 578.043 80.5107C579.071 79.7172 580.214 79.3421 581.221 79.3795" stroke="url(#paint22_linear_5742_33841)" stroke-width="0.963694" stroke-miterlimit="10" stroke-linecap="round" stroke-linejoin="round"/>
<path d="M624.324 102.335C625.032 105.6 624.128 108.696 622.044 109.623C619.661 110.682 616.637 108.507 615.291 104.766C613.944 101.025 614.784 97.1336 617.167 96.0744" stroke="url(#paint23_linear_5742_33841)" stroke-width="0.963694" stroke-miterlimit="10" stroke-linecap="round" stroke-linejoin="round"/>
<path d="M603.093 78.5147C602.991 80.0145 601.411 81.1053 599.564 80.9505C597.717 80.7957 596.302 79.4543 596.404 77.9545C596.505 76.4547 598.086 75.3638 599.933 75.5186C601.78 75.6727 603.195 77.0141 603.093 78.5147Z" stroke="url(#paint24_linear_5742_33841)" stroke-width="0.963694" stroke-miterlimit="10"/>
<path d="M609.598 84.6985C609.342 85.3702 608.241 85.4948 607.138 84.9757C606.035 84.4565 605.348 83.491 605.605 82.8192C605.861 82.1474 606.962 82.0228 608.066 82.542C609.168 83.0604 609.854 84.0259 609.598 84.6985Z" stroke="url(#paint25_linear_5742_33841)" stroke-width="0.963694" stroke-miterlimit="10" stroke-linecap="round" stroke-linejoin="round"/>
<path d="M611.246 121.469C609.66 124.464 606.26 125.281 603.528 123.495C600.797 121.709 599.577 117.07 602.26 115.283C604.206 113.986 605.977 112.344 608.562 113.896C611.35 115.569 612.832 118.474 611.246 121.469Z" stroke="url(#paint26_linear_5742_33841)" stroke-width="0.963694" stroke-miterlimit="10" stroke-linecap="round" stroke-linejoin="round"/>
<path d="M564.732 125.702C569.502 134.234 576.809 140.68 585.366 143.916C585.761 144.066 585.931 143.37 585.538 143.222C577.145 140.047 569.97 133.707 565.292 125.339C565.072 124.946 564.511 125.307 564.732 125.702Z" fill="url(#paint27_linear_5742_33841)"/>
<path d="M589.542 144.613C590.601 144.846 591.667 144.975 592.746 144.995C593.164 145.003 593.164 144.283 592.746 144.275C591.724 144.255 590.717 144.139 589.714 143.918C589.307 143.83 589.133 144.523 589.542 144.613Z" fill="url(#paint28_linear_5742_33841)"/>
<path d="M593.234 114.856C592.702 115.056 592.041 115.419 591.923 116.098C591.798 116.817 592.414 117.37 592.998 117.454C593.6 117.542 594.22 117.213 594.467 116.581C594.715 115.947 594.556 115.164 594.077 114.72C593.759 114.426 593.298 114.932 593.619 115.23C594.163 115.734 593.953 116.77 593.177 116.751C592.911 116.744 592.46 116.537 592.58 116.163C592.684 115.835 593.139 115.651 593.405 115.551C593.799 115.402 593.631 114.707 593.234 114.856Z" fill="url(#paint29_linear_5742_33841)"/>
<path d="M602.129 133.233C602.129 133.233 618.822 140.632 628.103 140.702" stroke="url(#paint30_linear_5742_33841)" stroke-width="0.963694" stroke-miterlimit="10" stroke-linecap="round" stroke-linejoin="round"/>
<path d="M590.666 128.702C590.666 128.702 584.253 126.538 578.801 123.103" stroke="url(#paint31_linear_5742_33841)" stroke-width="0.963694" stroke-miterlimit="10" stroke-linecap="round" stroke-linejoin="round"/>
<path d="M568.355 76.9056C572.246 73.9225 576.436 71.5334 580.89 69.7736C581.28 69.6195 581.113 68.9233 580.718 69.0795C576.212 70.8594 571.964 73.2658 568.027 76.2842C567.687 76.5448 568.011 77.1691 568.355 76.9056Z" fill="url(#paint32_linear_5742_33841)"/>
<path d="M583.496 67.6907C584.748 67.4538 585.998 67.2169 587.25 66.98C587.66 66.9023 587.486 66.2081 587.077 66.2859C585.826 66.5228 584.575 66.7597 583.324 66.9966C582.914 67.0743 583.088 67.7685 583.496 67.6907Z" fill="url(#paint33_linear_5742_33841)"/>
<path d="M633.254 113.827C633.87 109.79 634.005 105.731 633.641 101.655C633.6 101.199 632.952 101.194 632.993 101.655C633.351 105.665 633.236 109.661 632.628 113.635C632.56 114.088 633.184 114.283 633.254 113.827Z" fill="url(#paint34_linear_5742_33841)"/>
<path d="M637.796 117.307C638.888 114 639.09 110.565 638.42 107.124C638.332 106.672 637.707 106.863 637.795 107.316C638.443 110.64 638.225 113.924 637.172 117.116C637.028 117.552 637.654 117.74 637.796 117.307Z" fill="url(#paint35_linear_5742_33841)"/>
<path d="M544.361 100.205C551.6 107.245 559.478 113.412 567.885 118.607C568.25 118.833 568.577 118.211 568.212 117.985C559.853 112.818 552.018 106.696 544.819 99.695C544.507 99.3919 544.047 99.8988 544.361 100.205Z" fill="url(#paint36_linear_5742_33841)"/>
<path d="M560.292 108.682C567.293 113.742 574.769 117.899 582.607 121.103C582.999 121.263 583.168 120.567 582.779 120.409C574.993 117.226 567.573 113.087 560.619 108.06C560.269 107.807 559.943 108.43 560.292 108.682Z" fill="url(#paint37_linear_5742_33841)"/>
<path d="M537.63 101.826C534.86 98.0272 532.177 93.8611 531.479 88.9137C530.797 84.0794 532.444 78.9038 536.622 76.7725C537 76.5795 536.672 75.9589 536.294 76.1511C532.284 78.1967 530.384 83.0418 530.71 87.7739C531.096 93.3837 534.083 98.1006 537.171 102.335C537.434 102.696 537.89 102.183 537.63 101.826Z" fill="url(#paint38_linear_5742_33841)"/>
<path d="M568.266 37.8181L567.745 46.2648C567.756 46.3577 567.807 46.4384 567.883 46.4801C569.816 48.0505 572.241 48.9304 574.929 49.4373C575.593 49.811 575.593 50.3539 574.922 50.7118C572.717 51.7594 570.667 52.4823 569.11 52.1763C568.791 52.329 568.455 52.676 568.442 52.7682C568.987 52.7732 568.741 60.2637 568.034 61.4719C567.406 62.5434 567.647 63.2749 566.922 61.9825L562.656 55.595C562.475 55.3301 562.314 55.2933 561.951 55.4215L555.122 57.8883C554.387 58.0194 554.15 57.727 554.503 56.9991L558.502 50.076C558.542 49.9939 558.615 49.5518 558.577 49.469L554.105 43.636C553.766 42.9001 554.498 42.3529 555.229 42.5019C557.655 42.9066 559.819 43.7894 561.618 45.3367C561.701 45.3533 561.786 45.3238 561.846 45.2575L566.579 37.7757C567.104 37.1895 568.166 36.9987 568.266 37.8181Z" stroke="url(#paint39_linear_5742_33841)" stroke-width="0.963694" stroke-miterlimit="10" stroke-linecap="round" stroke-linejoin="round"/>
<path d="M541.674 46.9577L542.767 50.9553L545.649 51.671C546.056 51.7718 546.078 52.4083 545.679 52.543L542.689 53.5532L541.648 57.2606C541.532 57.6761 541.006 57.6855 540.877 57.2743L539.737 53.6144L536.852 52.5689C536.457 52.4256 536.488 51.7934 536.895 51.6984L539.815 51.0165L540.897 46.9613C541.011 46.5314 541.557 46.5293 541.674 46.9577Z" stroke="url(#paint40_linear_5742_33841)" stroke-width="0.963694" stroke-miterlimit="10" stroke-linecap="round" stroke-linejoin="round"/>
</g>
<g opacity="0.2">
<path d="M1276.23 374.153C1271.93 370.719 1271.12 366.138 1275.26 365.725C1279.41 365.311 1302.21 374.965 1308.3 390.779C1313.02 403.03 1297.03 402.032 1294.36 401.731C1287.95 401.007 1268.34 392.857 1256.89 382.12C1245.44 371.383 1234.22 355.744 1235.94 347.243C1237.67 338.743 1251.86 336.386 1262.8 337.594C1273.74 338.802 1286.79 346.324 1286.79 346.324" stroke="url(#paint41_linear_5742_33841)" stroke-width="0.963694" stroke-miterlimit="10" stroke-linecap="round" stroke-linejoin="round"/>
<path d="M1283.64 373.819C1283.64 373.819 1296.65 382.009 1289.77 384.963C1282.89 387.919 1265.63 376.523 1260.33 368.535C1255.77 361.65 1255.24 358.521 1262.03 355.379C1268.81 352.237 1286.73 356.525 1300.21 367.178C1320.28 383.029 1330.16 401.257 1324.78 413.049C1317.62 428.739 1289.99 418.044 1272.53 407.437" stroke="url(#paint42_linear_5742_33841)" stroke-width="0.963694" stroke-miterlimit="10" stroke-linecap="round" stroke-linejoin="round"/>
<path d="M1256.03 328.495C1247.53 325.757 1227.69 329.369 1224.11 345.258C1220.53 361.144 1245.34 384.426 1245.34 384.426" stroke="url(#paint43_linear_5742_33841)" stroke-width="0.963694" stroke-miterlimit="10" stroke-linecap="round" stroke-linejoin="round" stroke-dasharray="0.96 2.89"/>
<path d="M1315.94 393.372C1315.94 393.372 1327.73 417.767 1297.69 410.65" stroke="url(#paint44_linear_5742_33841)" stroke-width="0.963694" stroke-miterlimit="10" stroke-linecap="round" stroke-linejoin="round" stroke-dasharray="0.96 2.89"/>
<path d="M1297.48 346.652L1296.77 350.014L1298.56 351.859C1298.81 352.119 1298.59 352.583 1298.25 352.495L1295.74 351.835L1293.6 354.002C1293.36 354.245 1292.99 354.008 1293.05 353.656L1293.6 350.512L1291.93 348.43C1291.71 348.146 1291.96 347.708 1292.29 347.828L1294.63 348.691L1296.93 346.294C1297.17 346.04 1297.56 346.292 1297.48 346.652Z" stroke="url(#paint45_linear_5742_33841)" stroke-width="0.963694" stroke-miterlimit="10" stroke-linecap="round" stroke-linejoin="round"/>
<path d="M1303.9 356.492C1304.95 356.492 1304.96 354.668 1303.9 354.668C1302.84 354.668 1302.84 356.492 1303.9 356.492Z" fill="url(#paint46_linear_5742_33841)"/>
<path d="M1308.53 359.905C1309.59 359.905 1309.59 358.081 1308.53 358.081C1307.47 358.081 1307.47 359.905 1308.53 359.905Z" fill="url(#paint47_linear_5742_33841)"/>
<path d="M1268.05 399.119L1267.33 402.481L1269.12 404.326C1269.38 404.587 1269.16 405.05 1268.82 404.963L1266.3 404.302L1264.17 406.471C1263.93 406.714 1263.55 406.477 1263.61 406.125L1264.17 402.981L1262.5 400.899C1262.27 400.615 1262.53 400.177 1262.86 400.297L1265.2 401.16L1267.49 398.763C1267.73 398.508 1268.12 398.758 1268.05 399.119Z" stroke="url(#paint48_linear_5742_33841)" stroke-width="0.963694" stroke-miterlimit="10" stroke-linecap="round" stroke-linejoin="round"/>
<path d="M1258.64 398.916C1259.69 398.916 1259.7 397.092 1258.64 397.092C1257.58 397.092 1257.58 398.916 1258.64 398.916Z" fill="url(#paint49_linear_5742_33841)"/>
<path d="M1253.81 395.534C1254.87 395.534 1254.87 393.709 1253.81 393.709C1252.75 393.709 1252.75 395.534 1253.81 395.534Z" fill="url(#paint50_linear_5742_33841)"/>
<path d="M1346.87 383.383L1345.43 388.82L1348.23 392.011C1348.62 392.461 1348.22 393.2 1347.68 393.025L1343.61 391.704L1339.95 395.052C1339.54 395.428 1338.93 395.003 1339.06 394.43L1340.22 389.336L1337.64 385.769C1337.29 385.28 1337.75 384.589 1338.27 384.817L1342.04 386.453L1345.98 382.746C1346.4 382.352 1347.02 382.801 1346.87 383.383Z" stroke="url(#paint51_linear_5742_33841)" stroke-width="0.963694" stroke-miterlimit="10" stroke-linecap="round" stroke-linejoin="round"/>
<path d="M1208.18 341.322L1206.75 346.759L1209.54 349.95C1209.94 350.4 1209.53 351.139 1208.99 350.964L1204.92 349.643L1201.26 352.991C1200.85 353.367 1200.25 352.942 1200.38 352.369L1201.53 347.275L1198.96 343.708C1198.61 343.219 1199.07 342.528 1199.59 342.756L1203.36 344.392L1207.3 340.685C1207.72 340.291 1208.34 340.74 1208.18 341.322Z" stroke="url(#paint52_linear_5742_33841)" stroke-width="0.963694" stroke-miterlimit="10" stroke-linecap="round" stroke-linejoin="round"/>
</g>
<g opacity="0.2">
<path d="M1836.05 415.667C1836.97 418.694 1838.33 422.132 1839.81 425.186" stroke="url(#paint53_linear_5742_33841)" stroke-width="0.963694" stroke-miterlimit="10" stroke-linecap="round" stroke-linejoin="round"/>
<path d="M1927.61 390.934C1927.34 389.405 1926.98 387.921 1926.52 386.494C1919.59 364.67 1905.34 342.418 1865.67 351.833C1838.05 358.389 1832.17 384.783 1834.09 405.323C1834.22 406.741 1834.63 409.142 1834.92 410.687" stroke="url(#paint54_linear_5742_33841)" stroke-width="0.963694" stroke-miterlimit="10" stroke-linecap="round" stroke-linejoin="round"/>
<path d="M1842.37 429.917C1850.3 443.098 1864.1 453.769 1884.93 449.824C1905.33 445.96 1918.76 431.706 1924.7 416.211" stroke="url(#paint55_linear_5742_33841)" stroke-width="0.963694" stroke-miterlimit="10" stroke-linecap="round" stroke-linejoin="round"/>
<path d="M1891.63 414.846C1920.75 413.966 1939.74 409.912 1940.06 406.593C1940.42 402.773 1932.82 398.954 1928.48 398.351" stroke="url(#paint56_linear_5742_33841)" stroke-width="0.963694" stroke-miterlimit="10" stroke-linecap="round" stroke-linejoin="round"/>
<path d="M1833.58 399.739C1833.58 399.739 1821.37 400.759 1819.2 404.578C1817.08 408.314 1842.48 414.6 1878.51 414.348" stroke="url(#paint57_linear_5742_33841)" stroke-width="0.963694" stroke-miterlimit="10" stroke-linecap="round" stroke-linejoin="round"/>
<path d="M1878.36 419.863C1915.45 420.064 1943.13 413.191 1943.57 408.056C1944.16 401.036 1934.61 396.756 1929.66 395.615" stroke="url(#paint58_linear_5742_33841)" stroke-width="0.963694" stroke-miterlimit="10" stroke-linecap="round" stroke-linejoin="round"/>
<path d="M1833.51 397.14C1833.51 397.14 1818.16 396.805 1816.18 404.04C1814.42 410.466 1834.66 418.63 1867.41 418.001" stroke="url(#paint59_linear_5742_33841)" stroke-width="0.963694" stroke-miterlimit="10" stroke-linecap="round" stroke-linejoin="round"/>
<path d="M1834.59 415.357C1831.6 416.843 1823.38 421.228 1822.62 424.821C1821.69 429.219 1846.5 426.491 1881.61 413.208C1916.72 399.925 1938.06 385.763 1937.32 382.011C1936.33 376.99 1928.34 378.228 1924.06 379.235" stroke="url(#paint60_linear_5742_33841)" stroke-width="0.963694" stroke-miterlimit="10" stroke-linecap="round" stroke-linejoin="round"/>
<path d="M1829.28 414.165C1824.48 417.241 1818.68 422.116 1819.21 427.795C1819.79 433.894 1848.23 431.317 1883.34 418.034C1918.45 404.751 1945.14 387.644 1943.28 380.615C1940.78 371.211 1927.68 374.999 1923.06 376.764" stroke="url(#paint61_linear_5742_33841)" stroke-width="0.963694" stroke-miterlimit="10" stroke-linecap="round" stroke-linejoin="round"/>
<path d="M1868.62 352.045C1873.1 353.392 1879.12 352.35 1883.34 350.323C1883.82 350.094 1883.41 349.319 1882.93 349.547C1878.91 351.478 1873.1 352.461 1868.83 351.178C1868.33 351.026 1868.11 351.894 1868.62 352.045Z" fill="url(#paint62_linear_5742_33841)"/>
<path d="M1856.99 355.586C1869.25 356.968 1881.97 355.607 1893.73 351.472C1894.22 351.297 1894.01 350.429 1893.51 350.605C1881.82 354.719 1869.19 356.062 1856.99 354.686C1856.47 354.628 1856.47 355.528 1856.99 355.586Z" fill="url(#paint63_linear_5742_33841)"/>
<path d="M1850.59 359.587C1858.51 360.962 1866.5 361.904 1874.53 361.488C1884.27 360.983 1893.78 358.497 1902.86 354.557C1903.34 354.348 1903.13 353.478 1902.64 353.69C1893.63 357.601 1884.2 360.087 1874.53 360.588C1866.57 361 1858.66 360.082 1850.81 358.719C1850.3 358.631 1850.08 359.497 1850.59 359.587Z" fill="url(#paint64_linear_5742_33841)"/>
<path d="M1844.22 365.452C1856.15 367.422 1868.23 369.105 1880.29 367.824C1890.51 366.739 1899.73 362.869 1909.23 358.839C1909.71 358.635 1909.5 357.765 1909.02 357.972C1899.58 361.973 1890.44 365.837 1880.29 366.924C1868.31 368.207 1856.29 366.542 1844.44 364.584C1843.93 364.5 1843.71 365.367 1844.22 365.452Z" fill="url(#paint65_linear_5742_33841)"/>
<path d="M1839.89 372.07C1865.13 375.653 1890.33 373.532 1914.34 363.859C1914.83 363.662 1914.62 362.793 1914.13 362.991C1890.17 372.639 1865.06 374.743 1839.89 371.171C1839.37 371.098 1839.38 371.997 1839.89 372.07Z" fill="url(#paint66_linear_5742_33841)"/>
<path d="M1836.09 381.199C1857.6 384.636 1880.16 383.747 1901.04 376.74C1906.95 374.757 1912.7 372.235 1918.21 369.14C1918.68 368.879 1918.27 368.103 1917.8 368.364C1893.04 382.273 1863.45 384.668 1836.31 380.332C1835.8 380.251 1835.58 381.117 1836.09 381.199Z" fill="url(#paint67_linear_5742_33841)"/>
<path d="M1834.16 394.797C1849.55 397.197 1865.17 395.452 1880.44 392.814C1895.28 390.25 1909.39 384.443 1921.73 374.821C1922.16 374.49 1921.75 373.71 1921.32 374.044C1909.25 383.456 1895.44 389.252 1880.93 391.823C1865.6 394.538 1849.83 396.34 1834.38 393.93C1833.87 393.849 1833.65 394.717 1834.16 394.797Z" fill="url(#paint68_linear_5742_33841)"/>
<path d="M1834.61 406.976C1848.63 409.8 1862.96 408.678 1876.86 405.526C1888.27 402.937 1899.48 399.079 1909.9 393.204C1915.26 390.18 1920.5 386.602 1924.75 381.826C1925.12 381.414 1924.54 380.778 1924.18 381.19C1916.54 389.771 1905.78 394.967 1895.7 398.922C1883.89 403.554 1871.3 406.472 1858.8 407.433C1850.79 408.049 1842.74 407.702 1834.83 406.108C1834.32 406.006 1834.1 406.873 1834.61 406.976Z" fill="url(#paint69_linear_5742_33841)"/>
<path d="M1911.28 413.722C1917.37 409.917 1923.09 405.475 1928.27 400.257C1928.65 399.868 1928.08 399.232 1927.69 399.621C1922.57 404.788 1916.9 409.178 1910.87 412.945C1910.41 413.229 1910.82 414.006 1911.28 413.722Z" fill="url(#paint70_linear_5742_33841)"/>
<path d="M1842.49 430.194C1862.12 431.905 1882.19 428.334 1900.34 419.845C1900.82 419.623 1900.61 418.753 1900.13 418.977C1882.03 427.44 1862.06 431.001 1842.49 429.295C1841.97 429.249 1841.97 430.149 1842.49 430.194Z" fill="url(#paint71_linear_5742_33841)"/>
<path d="M1845.48 434.47C1858.13 437.495 1871.7 436.975 1884.36 434.448C1898.39 431.649 1911.91 426.008 1924.16 417.94C1924.61 417.645 1924.2 416.867 1923.75 417.164C1911.76 425.061 1898.56 430.606 1884.85 433.438C1872.13 436.065 1858.41 436.644 1845.7 433.603C1845.19 433.481 1844.97 434.349 1845.48 434.47Z" fill="url(#paint72_linear_5742_33841)"/>
<path d="M1850.53 440.815C1856.71 441.638 1862.97 441.696 1869.19 441.584C1875.16 441.477 1881.24 441.363 1887.13 440.16C1898.8 437.779 1910.92 432.491 1920.73 425.014C1921.15 424.689 1920.75 423.909 1920.32 424.237C1910.55 431.688 1898.54 436.919 1886.92 439.293C1881 440.5 1874.87 440.591 1868.87 440.69C1862.76 440.79 1856.6 440.724 1850.53 439.916C1850.02 439.846 1850.02 440.747 1850.53 440.815Z" fill="url(#paint73_linear_5742_33841)"/>
<path d="M1857.3 445.828C1865.77 447.747 1874.6 447.398 1883.13 446.146C1891.93 444.853 1900.68 442.516 1908.9 438.75C1909.37 438.532 1909.16 437.661 1908.68 437.882C1900.62 441.579 1892.03 443.905 1883.4 445.205C1874.87 446.49 1865.99 446.882 1857.51 444.961C1857.01 444.845 1856.79 445.713 1857.3 445.828Z" fill="url(#paint74_linear_5742_33841)"/>
<path d="M1810.63 404.987C1810.63 405.07 1810.63 405.154 1810.63 405.238C1810.63 405.817 1811.44 405.818 1811.44 405.238C1811.44 405.154 1811.44 405.07 1811.44 404.987C1811.44 404.408 1810.63 404.407 1810.63 404.987Z" fill="url(#paint75_linear_5742_33841)"/>
<path d="M1812.1 409.068C1812.18 409.152 1812.25 409.236 1812.33 409.319C1812.7 409.73 1813.27 409.094 1812.9 408.683C1812.82 408.6 1812.75 408.516 1812.67 408.432C1812.31 408.022 1811.73 408.658 1812.1 409.068Z" fill="url(#paint76_linear_5742_33841)"/>
<path d="M1815.55 412.211C1816.07 412.211 1816.07 411.311 1815.55 411.311C1815.03 411.311 1815.03 412.211 1815.55 412.211Z" fill="url(#paint77_linear_5742_33841)"/>
</g>
<g opacity="0.2">
<path d="M1822.44 50.0607L1830.64 51.2578C1832.42 51.5191 1836.23 52.8993 1836.31 52.7601C1838.02 48.0123 1840.15 43.5739 1842.65 39.4043C1843.4 38.1676 1844.28 38.2886 1844.71 39.7031C1845.44 44.2153 1846 48.4813 1845.77 51.5919C1845.94 52.26 1846.42 53.0064 1846.57 53.0535C1851.18 54.6307 1855.82 55.5741 1860.5 55.8118C1861.79 56.2229 1863.32 56.9843 1861.08 58.1364C1857.44 60.8401 1853.6 63.2911 1849.83 65.1949C1849.36 65.4937 1849.27 65.8074 1849.4 66.557L1851.84 80.6944C1851.89 82.1849 1851.37 82.5907 1850.27 81.7255L1840.01 72.2246C1839.89 72.1271 1839.19 71.8819 1839.05 71.9387L1828.65 79.5304C1827.39 80.0401 1825.29 79.3966 1826.88 74.7998L1831.89 65.3009C1831.94 65.1403 1831.88 64.1135 1831.78 63.9807L1822 53.4068C1821.17 52.2311 1821.1 50.0746 1822.44 50.0607Z" stroke="url(#paint78_linear_5742_33841)" stroke-width="0.963694" stroke-miterlimit="10" stroke-linecap="round" stroke-linejoin="round"/>
<path d="M1809.92 60.4984L1814.23 62.7835L1817.3 60.3935C1817.73 60.0562 1818.29 60.5777 1818.06 61.1099L1816.35 65.091L1818.59 69.3505C1818.84 69.8281 1818.4 70.3838 1817.94 70.1654L1813.87 68.2187L1810.52 70.3281C1810.06 70.6172 1809.56 70.0433 1809.82 69.539L1811.75 65.9123L1809.25 61.3122C1808.99 60.825 1809.45 60.2543 1809.92 60.4984Z" stroke="url(#paint79_linear_5742_33841)" stroke-width="0.963694" stroke-miterlimit="10" stroke-linecap="round" stroke-linejoin="round"/>
<path d="M1817.91 92.9478L1822.22 95.2329L1825.3 92.8429C1825.73 92.5056 1826.29 93.0271 1826.06 93.5592L1824.35 97.5404L1826.59 101.8C1826.84 102.277 1826.39 102.834 1825.94 102.615L1821.87 100.668L1818.52 102.778C1818.06 103.067 1817.55 102.493 1817.82 101.988L1819.75 98.3617L1817.25 93.7616C1816.99 93.2734 1817.45 92.7026 1817.91 92.9478Z" stroke="url(#paint80_linear_5742_33841)" stroke-width="0.963694" stroke-miterlimit="10" stroke-linecap="round" stroke-linejoin="round"/>
<path d="M1883.44 163.058L1889.42 166.227L1893.68 162.911C1894.29 162.443 1895.06 163.167 1894.74 163.904L1892.37 169.426L1895.48 175.334C1895.82 175.997 1895.21 176.768 1894.57 176.465L1888.93 173.765L1884.28 176.692C1883.65 177.092 1882.94 176.297 1883.31 175.597L1885.98 170.566L1882.52 164.184C1882.16 163.51 1882.8 162.718 1883.44 163.058Z" stroke="url(#paint81_linear_5742_33841)" stroke-width="0.963694" stroke-miterlimit="10" stroke-linecap="round" stroke-linejoin="round"/>
</g>
<g opacity="0.2">
<path d="M601.275 356.394C585.017 353.309 563.495 365.722 564.094 390.043C564.694 414.364 575.996 429.711 597.976 429.023C619.266 428.357 627.661 416.363 629.76 400.704C631.971 384.215 625.863 361.058 601.275 356.394Z" stroke="url(#paint82_linear_5742_33841)" stroke-width="0.963694" stroke-miterlimit="10" stroke-linecap="round" stroke-linejoin="round"/>
<path d="M574.677 364.852C576.583 366.936 579.043 367.504 581.644 367.531C585.052 367.567 588.416 367.22 591.829 367.515C595.686 367.849 599.808 368.517 603.459 370.014C604.62 370.49 605.862 371.396 605.367 373.014C605.101 373.885 603.737 374.349 603.062 374.53C601.178 375.039 599.029 374.865 597.117 374.661C593.465 374.272 589.892 373.27 586.243 372.847C583.878 372.574 579.87 371.9 578.167 374.344C576.63 376.548 578.445 378.466 580.293 379.214C581.813 379.829 583.45 379.911 584.985 380.459C587.731 381.44 590.165 385.025 586.743 387.227C582.89 389.708 578.17 386.83 574.611 385.08C571.449 383.525 567.987 382.154 564.533 383.266C564.122 383.399 564.297 384.114 564.711 383.981C572.228 381.56 578.571 391.312 586.023 388.391C588.238 387.522 590.013 385.249 588.69 382.648C587.032 379.386 583.533 379.656 580.734 378.606C579.815 378.261 577.715 377.318 578.309 375.635C578.603 374.801 579.395 374.009 580.137 373.737C581.105 373.382 582.204 373.388 583.211 373.391C585.419 373.399 587.611 373.746 589.784 374.148C593.599 374.854 597.449 375.797 601.34 375.511C603.085 375.383 606.206 374.831 606.215 372.238C606.224 369.341 602.003 368.72 600.222 368.244C595.951 367.103 591.548 366.547 587.156 366.599C583.139 366.647 578.324 367.8 575.149 364.328C574.843 363.993 574.371 364.516 574.677 364.852Z" fill="url(#paint83_linear_5742_33841)"/>
<path d="M625.685 375.091C621.281 382.494 612.562 381.051 605.722 381.636C603.475 381.828 600.803 382.345 599.814 384.928C598.865 387.408 600.52 389.255 602.573 389.885C605.655 390.83 610.104 389.996 611.722 393.863C612.683 396.159 611.525 397.753 609.543 398.393C608.514 398.726 607.398 398.955 606.656 399.896C605.368 401.528 606.195 403.901 607.377 405.289C609.044 407.244 611.814 407.95 614.151 407.573C615.92 407.287 617.426 406.164 619.156 405.756C620.235 405.501 621.586 405.554 622.421 406.47C623.046 407.155 623.206 408.188 623.529 409.055C624.413 411.433 626.48 411.456 627.935 409.551C628.211 409.19 627.742 408.663 627.464 409.027C626.612 410.142 625.121 410.587 624.287 409.156C623.994 408.654 623.902 407.964 623.694 407.41C623.393 406.609 623.018 405.939 622.336 405.478C620.462 404.213 618.313 405.229 616.485 406.034C613.537 407.334 609.329 407.409 607.356 404.081C606.317 402.33 606.531 400.297 608.443 399.51C609.499 399.076 610.659 398.986 611.586 398.216C612.825 397.186 612.978 395.45 612.461 393.921C611.694 391.652 609.843 390.538 607.807 390.059C605.561 389.53 598.062 389.461 600.645 384.741C602.448 381.447 607.986 382.254 610.924 382.191C616.566 382.07 622.878 381.151 626.26 375.466C626.499 375.066 625.922 374.695 625.685 375.091Z" fill="url(#paint84_linear_5742_33841)"/>
<path d="M564.583 397.584C567.924 400.2 572.113 401.619 576.18 401.843C578.649 401.979 581.138 401.651 583.575 401.235C586.428 400.747 589.476 399.623 592.371 399.718C594.028 399.773 596.049 400.588 596.525 402.592C597.085 404.947 595.028 406.648 593.307 407.308C590.601 408.345 587.597 408.35 584.767 408.418C581.89 408.488 579.014 408.548 576.137 408.614C574.698 408.646 573.256 408.655 571.818 408.711C570.272 408.772 568.825 409.002 567.443 408.011C567.082 407.752 566.747 408.393 567.106 408.651C568.852 409.902 570.835 409.475 572.814 409.43C575.583 409.367 578.352 409.304 581.121 409.241C583.838 409.18 586.576 409.215 589.282 408.914C591.269 408.693 593.486 408.383 595.194 407.138C598.052 405.054 597.779 400.864 594.577 399.432C592.622 398.557 590.432 399.111 588.441 399.523C585.641 400.104 582.841 400.714 579.999 400.983C574.746 401.479 569.293 400.368 564.92 396.945C564.568 396.669 564.234 397.311 564.583 397.584Z" fill="url(#paint85_linear_5742_33841)"/>
<path d="M586.257 427.198C585.736 424.24 587.392 421.366 589.61 419.841C591.847 418.302 594.674 418.345 597.216 418.397C602.242 418.499 606.835 418.058 611.53 415.9C612.825 415.305 614.238 414.437 615.697 414.832C617.782 415.398 617.72 417.931 616.486 419.374C615.523 420.499 614.014 420.855 612.769 421.447C611.711 421.951 610.676 422.514 609.671 423.136C608.754 423.702 606.285 424.813 606.314 426.305C606.342 427.688 608.686 427.5 609.507 427.52C609.936 427.532 609.936 426.791 609.507 426.779C609.08 426.768 607.808 426.872 607.52 426.579C606.526 425.572 608.662 424.643 609.21 424.282C610.59 423.374 612.028 422.577 613.511 421.899C615.307 421.077 617.264 420.421 617.904 418.14C618.359 416.519 617.763 414.905 616.31 414.268C614.15 413.322 611.876 415.02 609.922 415.817C607.045 416.991 604.008 417.633 600.944 417.715C598.035 417.792 595.096 417.365 592.213 417.988C588.354 418.822 584.801 422.772 585.613 427.395C585.695 427.863 586.338 427.665 586.257 427.198Z" fill="url(#paint86_linear_5742_33841)"/>
<path d="M589.3 387.335C588.373 389.212 585.907 390.099 584.115 390.477C582.187 390.883 580.242 390.684 578.374 390.053C575.349 389.031 572.577 387.255 569.338 387.264C568.909 387.265 568.908 388.006 569.338 388.005C573.461 387.994 576.905 390.999 580.963 391.39C583.821 391.664 588.355 390.789 589.876 387.709C590.083 387.291 589.507 386.916 589.3 387.335Z" fill="url(#paint87_linear_5742_33841)"/>
<path d="M581.204 376.249C580.539 374.567 584.97 375.344 585.244 375.404C586.243 375.619 587.224 375.933 588.21 376.211C590.361 376.817 592.526 377.373 594.72 377.746C598.248 378.346 602.227 378.744 605.562 377.008C607.855 375.814 610.583 372.965 609.155 369.921C607.486 366.364 602.471 366.314 599.395 365.663C598.976 365.574 598.796 366.288 599.218 366.377C602.265 367.022 611.902 368.143 608.055 373.933C605.458 377.842 600.268 377.751 596.377 377.25C592.346 376.73 588.531 375.141 584.537 374.517C583.359 374.332 579.64 374.121 580.628 376.623C580.8 377.058 581.375 376.682 581.204 376.249Z" fill="url(#paint88_linear_5742_33841)"/>
<path d="M593.027 364.592C588.799 364.767 584.58 364.621 580.37 364.154C579.943 364.106 579.946 364.848 580.37 364.895C584.58 365.362 588.799 365.508 593.027 365.333C593.455 365.314 593.457 364.573 593.027 364.592Z" fill="url(#paint89_linear_5742_33841)"/>
<path d="M597.872 383.251C596.338 386.202 597.367 389.768 600.037 391.389C601.731 392.418 603.695 392.322 605.526 392.805C606.4 393.035 607.693 393.443 608.251 394.301C609.681 396.503 606.538 397.648 605.42 398.349C605.046 398.584 605.382 399.224 605.757 398.989C606.799 398.335 609.18 397.504 609.552 396.052C609.926 394.59 608.319 393.243 607.339 392.717C605.596 391.778 603.645 391.909 601.811 391.354C598.743 390.425 596.704 386.977 598.448 383.626C598.663 383.212 598.087 382.838 597.872 383.251Z" fill="url(#paint90_linear_5742_33841)"/>
<path d="M603.691 400.649C602.273 405.079 606.504 409.339 610.084 410.24C610.502 410.345 610.681 409.631 610.262 409.526C607.034 408.713 603.041 404.883 604.334 400.846C604.479 400.396 603.835 400.202 603.691 400.649Z" fill="url(#paint91_linear_5742_33841)"/>
<path d="M571.49 412.282C575.155 412.149 578.821 412.017 582.487 411.883C585.752 411.765 589.014 411.688 592.145 410.536C592.55 410.386 592.377 409.67 591.967 409.821C588.684 411.03 585.241 411.043 581.821 411.167C578.377 411.291 574.933 411.416 571.49 411.541C571.062 411.556 571.06 412.297 571.49 412.282Z" fill="url(#paint92_linear_5742_33841)"/>
<path d="M613.676 379.3C615.864 379.282 618.131 379.117 620.166 378.14C622.235 377.146 623.312 375.073 625.177 373.813C625.543 373.566 625.209 372.925 624.84 373.174C623.163 374.306 622.135 376.237 620.353 377.233C618.303 378.378 615.929 378.54 613.675 378.558C613.246 378.561 613.246 379.302 613.676 379.3Z" fill="url(#paint93_linear_5742_33841)"/>
<path d="M589.146 425.735C590.338 419.41 598.369 421.01 602.56 420.854C606.836 420.694 610.921 419.287 614.544 416.769C614.907 416.516 614.573 415.875 614.207 416.129C611.83 417.781 609.248 418.985 606.497 419.613C603.755 420.239 601.004 420.107 598.225 420.103C594.496 420.097 589.436 420.585 588.502 425.54C588.415 426.003 589.058 426.203 589.146 425.735Z" fill="url(#paint94_linear_5742_33841)"/>
<path d="M625.114 396.376C626.707 397.3 628.156 398.447 629.457 399.824C629.768 400.153 630.24 399.63 629.929 399.3C628.587 397.881 627.093 396.688 625.451 395.736C625.071 395.516 624.734 396.156 625.114 396.376Z" fill="url(#paint95_linear_5742_33841)"/>
<path d="M625.207 392.718C626.947 393.268 628.491 394.565 629.827 395.879C630.147 396.194 630.621 395.671 630.298 395.355C628.871 393.952 627.241 392.59 625.385 392.004C624.971 391.873 624.795 392.587 625.207 392.718Z" fill="url(#paint96_linear_5742_33841)"/>
<path d="M626.833 390.236C627.999 390.821 629.037 391.612 629.942 392.617C630.246 392.954 630.718 392.431 630.414 392.093C629.471 391.045 628.385 390.206 627.17 389.597C626.782 389.402 626.443 390.041 626.833 390.236Z" fill="url(#paint97_linear_5742_33841)"/>
</g>
<g opacity="0.2">
<path d="M1252.6 91.7213C1248.98 94.669 1248.48 100.992 1252.84 103.738C1257.21 106.483 1259.23 108.416 1266.93 107.047C1274.64 105.677 1277.93 106.17 1277.37 100.882C1276.8 95.5942 1271.51 91.1789 1268.13 89.7446C1264.75 88.3103 1252.6 91.7213 1252.6 91.7213Z" stroke="url(#paint98_linear_5742_33841)" stroke-width="0.963694" stroke-miterlimit="10" stroke-linecap="round" stroke-linejoin="round"/>
<path d="M1293.24 102.086C1298.11 97.4876 1305.59 98.7915 1311.35 96.5444C1315.02 95.1101 1319.28 92.9641 1321.93 89.6877C1322.78 88.6362 1323.89 86.1644 1321.91 85.6567C1320.92 85.4056 1318.78 86.3627 1317.84 86.5791C1316.35 86.9217 1314.87 87.263 1313.38 87.6042C1310.49 88.2686 1307.9 88.8929 1304.94 88.5821C1305 89.0357 1305.05 89.4907 1305.11 89.9443C1309.39 88.0814 1312.98 85.0186 1316.43 81.7047C1317.47 80.7046 1323.13 76.059 1321.62 73.9034C1320.74 72.6411 1318.53 74.1794 1317.52 74.5609C1314.5 75.708 1311.5 76.9176 1308.47 78.0274C1301.77 80.4784 1294.59 82.9462 1287.45 82.3344C1287.6 82.7298 1287.74 83.1237 1287.89 83.5191C1290.29 81.3107 1294.28 80.7725 1296.13 77.8193C1297.39 75.8135 1295.76 74.7398 1294.1 75.2961C1288.65 77.1229 1283.42 78.2729 1277.68 78.0662C1271.61 77.847 1266.18 79.9957 1260.56 82.3719C1260.81 82.6562 1261.07 82.9406 1261.33 83.225C1261.73 80.6796 1265.63 79.9721 1267.16 78.4366C1267.57 78.0246 1267.24 77.2547 1266.72 77.2519C1261.87 77.2339 1255.73 78.1563 1252.43 82.5605C1252.78 82.7853 1253.13 83.01 1253.48 83.2347C1253.49 83.1848 1253.49 83.1348 1253.5 83.0849C1253.6 82.4829 1253.09 82.0168 1252.59 82.3011C1247.42 85.2211 1242.78 90.1024 1244.03 96.991C1244.83 101.437 1247.17 107.632 1250.55 110.463C1255.39 114.523 1262.75 114.832 1268.54 114.602C1274.73 114.355 1281.16 113.361 1286.57 109.804C1289.75 107.709 1293.13 106.945 1296.53 105.423C1297.8 104.851 1299.64 103.961 1299.13 102.094C1299.05 101.781 1298.81 101.61 1298.53 101.585C1296.8 101.43 1295.06 101.273 1293.33 101.118C1292.53 101.046 1292.53 102.433 1293.33 102.505C1294.38 102.599 1295.98 102.408 1296.97 102.832C1297.86 103.214 1298.02 102.868 1297.06 103.648C1295.91 104.581 1293.97 104.93 1292.62 105.39C1289.83 106.336 1287.67 107.554 1285.14 109.124C1278.89 113.014 1270.75 113.587 1263.74 113.178C1259.99 112.958 1256.2 112.234 1252.81 110.355C1250.31 108.969 1249.35 106.7 1247.95 104.176C1246.32 101.225 1244.92 97.5043 1245.06 93.9601C1245.24 89.2521 1249.71 85.4777 1253.22 83.4969C1252.91 83.2361 1252.6 82.9739 1252.3 82.7131C1252.29 82.7631 1252.28 82.813 1252.27 82.8629C1252.17 83.4719 1252.88 84.1225 1253.32 83.5385C1256.38 79.4408 1262.22 78.6197 1266.72 78.6363C1266.57 78.241 1266.43 77.847 1266.28 77.4517C1264.36 79.3798 1260.64 79.556 1260.12 82.8518C1260.05 83.3165 1260.4 83.9116 1260.89 83.7049C1265.44 81.7796 1270.36 79.4755 1275.29 79.3757C1279.38 79.2924 1283.31 79.4922 1287.38 78.7348C1289.25 78.3866 1291.12 77.9302 1292.92 77.2658C1292.87 77.2824 1294.62 76.4848 1294.68 76.5348C1295.63 77.313 1293.88 78.1605 1293.39 78.5156C1291.29 80.0373 1288.95 80.7503 1287.01 82.5342C1286.56 82.9517 1286.96 83.6772 1287.45 83.7188C1297.86 84.6107 1308.22 79.5574 1317.86 75.8967C1318.2 75.7663 1320.29 74.7384 1320.48 74.866C1320.62 74.9604 1319.72 76.213 1319.46 76.5514C1318.3 78.0759 1316.91 79.4186 1315.55 80.7212C1312.28 83.8686 1308.85 86.8343 1304.78 88.6043C1304.12 88.8915 1304.23 89.8902 1304.95 89.9665C1308.92 90.3854 1312.63 89.1897 1316.5 88.2978C1317.61 88.0425 1323.18 86.1477 1320.88 88.9151C1319.67 90.3632 1317.98 91.4605 1316.45 92.4259C1312.57 94.8687 1308.64 96.1282 1304.25 96.8273C1300.09 97.4904 1295.69 97.9606 1292.37 101.101C1291.75 101.685 1292.63 102.662 1293.24 102.086Z" fill="url(#paint99_linear_5742_33841)"/>
<path d="M1259.05 93.6757C1258.09 94.1876 1257.3 94.2125 1256.27 94.1862C1255.78 94.1737 1255.35 94.1806 1254.89 94.3998C1254.06 94.8021 1253.47 95.6954 1253.22 96.647C1252.63 98.84 1253.75 100.987 1255.8 101.359C1256.6 101.505 1257.42 101.32 1258 100.66C1258.3 100.319 1258.47 99.9068 1258.64 99.4781C1259 98.6153 1259.23 98.3435 1260.06 97.9606C1260.83 97.611 1261.65 97.224 1261.75 96.1587C1261.83 95.2279 1261.26 94.5191 1260.55 94.1459C1259.83 93.7659 1259.19 94.9616 1259.92 95.343C1261.13 95.9811 1258.8 96.9438 1258.61 97.0908C1258.35 97.2906 1258.14 97.5486 1257.97 97.8399C1257.32 98.9191 1257.19 100.51 1255.6 99.8887C1254.49 99.4573 1254.08 98.195 1254.42 97.016C1254.81 95.6746 1255.7 95.5691 1256.83 95.6565C1257.87 95.737 1258.75 95.368 1259.68 94.8742C1260.4 94.4872 1259.77 93.2915 1259.05 93.6757Z" fill="url(#paint100_linear_5742_33841)"/>
<path d="M1271.37 97.1346C1271.37 97.0847 1271.38 97.0348 1271.39 96.9848C1271.54 96.1123 1270.33 95.7378 1270.19 96.6159C1270.18 96.6658 1270.17 96.7157 1270.16 96.767C1270.02 97.6382 1271.22 98.0127 1271.37 97.1346Z" fill="url(#paint101_linear_5742_33841)"/>
<path d="M1264.88 104.381C1265.91 102.827 1269.1 103.743 1270.68 103.307C1272.07 102.924 1273.29 102.124 1274.2 100.886C1274.71 100.201 1273.83 99.2135 1273.32 99.9057C1271.67 102.146 1269.47 102.089 1267.09 102.16C1265.78 102.199 1264.61 102.473 1263.8 103.68C1263.33 104.399 1264.41 105.092 1264.88 104.381Z" fill="url(#paint102_linear_5742_33841)"/>
<path d="M1283.71 73.9129C1283.71 73.9129 1324.16 49.8515 1359.7 52.9656" stroke="url(#paint103_linear_5742_33841)" stroke-width="0.963694" stroke-miterlimit="10" stroke-linecap="round" stroke-linejoin="round" stroke-dasharray="0.96 2.89"/>
<path d="M1322.54 81.2098C1322.54 81.2098 1332.14 75.1604 1352.52 75.3074" stroke="url(#paint104_linear_5742_33841)" stroke-width="0.963694" stroke-miterlimit="10" stroke-linecap="round" stroke-linejoin="round" stroke-dasharray="0.96 2.89"/>
<path d="M1240.79 81.052C1239.24 78.8228 1239.9 76.7754 1242.28 75.9001C1244.67 75.0262 1246.43 74.0233 1248.11 73.5503C1249.78 73.0759 1248.68 77.763 1247.31 78.3012C1245.94 78.8381 1240.79 81.052 1240.79 81.052Z" stroke="url(#paint105_linear_5742_33841)" stroke-width="0.963694" stroke-miterlimit="10" stroke-linecap="round" stroke-linejoin="round"/>
</g>
<g opacity="0.2">
<path d="M48.7912 63.0412C45.6004 57.3672 40.3945 50.7531 33.1504 46.6606" stroke="url(#paint106_linear_5742_33841)" stroke-width="0.963694" stroke-miterlimit="10" stroke-linecap="round"/>
<path d="M-9.07991 58.0793C-19.1033 72.0647 -17.6442 92.1149 -13.3491 101.609C-10.0484 108.905 -0.00092869 118.058 10.566 120.152C21.5955 122.338 35.5208 116.599 44.3483 107.35C49.7324 101.708 52.6187 93.5026 53.2287 84.8722" stroke="url(#paint107_linear_5742_33841)" stroke-width="0.963694" stroke-miterlimit="10" stroke-linecap="round"/>
<path d="M14.7322 42.9294C11.5848 43.3363 8.54724 44.4339 5.06445 46.0957" stroke="url(#paint108_linear_5742_33841)" stroke-width="0.963694" stroke-miterlimit="10" stroke-linecap="round"/>
<path d="M15.4345 42.7139C15.3979 41.8872 17.5787 41.1816 18.1762 41.1377C18.7265 41.097 19.3596 41.2651 19.909 41.3272C21.4538 41.5017 22.9976 41.6881 24.5337 41.9397C27.1203 42.3637 32.278 42.7385 32.5758 46.5119C32.6297 47.1929 33.5934 47.1993 33.5395 46.5119C33.1414 41.4611 26.941 41.2094 23.4977 40.7072C21.4046 40.4021 14.2733 38.2252 14.4708 42.7139C14.5017 43.4002 15.4654 43.4034 15.4345 42.7139Z" fill="url(#paint109_linear_5742_33841)"/>
<path d="M49.3133 63.8358C50.3406 63.3871 51.7881 64.5639 52.295 65.4644C52.6766 66.1422 52.8048 67.1038 53.0052 67.8747C53.4042 69.4092 53.7386 70.9671 54.0055 72.5369C54.3207 74.3936 56.142 83.3538 53.2355 83.9781C52.6274 84.1087 52.8847 85.1409 53.4919 85.0103C55.373 84.6055 55.72 82.8816 55.7383 80.9692C55.7672 77.9089 55.3865 74.778 54.8507 71.7809C54.2889 68.6382 53.515 60.8558 49.0579 62.8014C48.4865 63.0531 48.7351 64.0885 49.3133 63.8358Z" fill="url(#paint110_linear_5742_33841)"/>
<path d="M25.8949 55.1897C21.7202 57.2028 21.3443 61.9859 21.9129 66.4682C22.4478 70.6816 24.6575 73.5031 28.6973 73.3982C32.0674 73.3104 37.3725 71.4023 38.739 67.6267C40.1662 63.6831 39.7008 58.4395 35.8798 56.5143C35.3189 56.2316 34.8284 57.1546 35.3931 57.4394C38.6918 59.1012 39.2507 63.8715 37.7975 67.2616C36.4435 70.4214 31.7619 72.2899 28.6964 72.3274C24.7809 72.3756 23.1648 69.4706 22.7697 65.5484C22.3842 61.7214 22.8101 57.8367 26.3806 56.1149C26.9482 55.8408 26.4587 54.9177 25.8949 55.1897Z" fill="url(#paint111_linear_5742_33841)"/>
<path d="M26.2866 57.8362C25.3518 60.4018 23.6394 63.6334 24.8218 66.4398C25.6641 68.4379 27.7235 68.7806 29.5073 68.9904C33.6974 69.4819 37.559 66.6069 36.6213 61.5197C36.497 60.8451 35.568 61.131 35.6923 61.8045C36.575 66.5887 32.5053 68.4518 28.9069 67.8244C23.5517 66.8896 25.9089 61.7103 27.2166 58.121C27.4488 57.4829 26.5169 57.2045 26.2866 57.8362Z" fill="url(#paint112_linear_5742_33841)"/>
<path d="M37.0912 81.6606C34.5316 85.45 35.9232 91.9592 39.9023 93.8427C43.4631 95.5281 47.4875 92.6413 46.8428 88.2244C46.7435 87.5455 45.8145 87.8336 45.9138 88.5092C46.6038 93.2356 41.2312 94.5377 38.6851 91.6723C36.5554 89.2759 36.0735 84.9403 37.9228 82.2013C38.2958 81.6499 37.4593 81.1155 37.0912 81.6606Z" fill="url(#paint113_linear_5742_33841)"/>
<path d="M40.123 81.5894C41.4712 81.3431 43.2482 81.0968 43.9633 82.7351C44.2341 83.3551 45.0648 82.8133 44.795 82.1944C43.8717 80.0806 41.636 80.2338 39.8657 80.5561C39.2557 80.6685 39.5149 81.7007 40.123 81.5894Z" fill="url(#paint114_linear_5742_33841)"/>
<path d="M39.9474 83.7689C38.6532 85.2487 37.8746 87.5787 38.8575 89.5125C39.694 91.1583 41.5221 91.8639 43.0602 91.0737C43.623 90.7846 43.1334 89.8616 42.5735 90.1486C41.3853 90.7589 39.9484 89.9023 39.5388 88.5745C39.084 87.1001 39.7017 85.5839 40.6288 84.5249C41.0615 84.0323 40.3801 83.2742 39.9474 83.7689Z" fill="url(#paint115_linear_5742_33841)"/>
<path d="M0.833206 91.3228C-0.0283364 91.7039 -0.636415 92.6516 -0.473551 93.7191C-0.312614 94.7738 0.57109 95.6187 1.55309 95.4463C2.52064 95.2771 3.28582 94.232 3.16536 93.1388C3.03911 91.9931 2.0118 91.1514 0.995106 91.281C0.386051 91.3592 0.379305 92.431 0.995106 92.3518C1.48659 92.2886 2.03204 92.5445 2.18334 93.1174C2.32886 93.6677 1.94049 94.277 1.44419 94.3852C0.350398 94.6229 0.175017 92.7608 1.0886 92.355C1.65814 92.1023 1.40949 91.0668 0.833206 91.3228Z" fill="url(#paint116_linear_5742_33841)"/>
<path d="M0.735078 83.1217C0.292743 83.58 0.0460394 84.4837 0.490302 85.0394C0.924928 85.5823 1.69877 85.4998 2.18062 85.094C2.70101 84.655 2.93713 83.8337 2.5478 83.2009C2.14883 82.5531 1.35475 82.597 0.832424 83.0178C0.335158 83.4183 0.815053 84.3477 1.31906 83.943C1.40291 83.8755 1.61301 83.6881 1.72865 83.7834C1.88092 83.9098 1.68914 84.1667 1.59181 84.246C1.52821 84.2984 1.29981 84.4312 1.22175 84.3327C1.14273 84.2331 1.36437 83.9333 1.41641 83.8798C1.87127 83.4086 1.18898 82.6527 0.735078 83.1217Z" fill="url(#paint117_linear_5742_33841)"/>
<path d="M10.761 94.2443C9.69031 94.5442 8.96463 95.9533 9.24988 97.1386C9.55634 98.4139 10.8304 99.2834 11.9829 98.8786C13.0257 98.5124 13.7407 97.1932 13.468 96.0025C13.1692 94.6951 11.9396 93.9777 10.7928 94.2368C10.1856 94.3739 10.4429 95.4072 11.0491 95.2691C12.5062 94.9393 13.1577 97.2843 11.7266 97.8453C10.2598 98.4203 9.50527 95.7006 11.0173 95.2766C11.6177 95.1084 11.3633 94.0752 10.761 94.2443Z" fill="url(#paint118_linear_5742_33841)"/>
<path d="M20.615 97.8528C20.4772 98.8679 21.8746 98.8476 21.7204 97.8507C21.6154 97.1729 20.6864 97.4599 20.7914 98.1355C20.7943 98.1548 20.7972 98.1741 20.8001 98.1934C20.8415 98.0199 20.883 97.8464 20.9244 97.673C21.0873 97.674 21.2501 97.674 21.413 97.6751C21.4544 97.8486 21.4959 98.022 21.5373 98.1966C21.5402 98.1773 21.5421 98.158 21.545 98.1387C21.6366 97.4631 20.7076 97.1729 20.615 97.8528Z" fill="url(#paint119_linear_5742_33841)"/>
<path d="M6.57112 109.76C6.57112 109.67 6.57112 109.581 6.57112 109.492C6.57112 108.802 5.60742 108.801 5.60742 109.492C5.60742 109.581 5.60742 109.671 5.60742 109.76C5.60742 110.449 6.57112 110.45 6.57112 109.76Z" fill="url(#paint120_linear_5742_33841)"/>
<path d="M-5.82852 64.6947C-8.54807 65.759 -9.46357 62.1302 -9.03858 59.8805C-8.85837 58.9243 -8.49794 57.9981 -8.16932 57.0976C-7.29236 54.6926 -6.21207 52.716 -4.3454 51.098C-1.8899 48.9704 5.79846 43.3264 7.20449 49.3955C7.35868 50.0626 8.28864 49.7799 8.13348 49.1107C6.34101 41.3701 -3.60432 48.4971 -6.32387 51.6013C-8.4517 54.0298 -10.7954 59.1267 -10.0707 62.5949C-9.59754 64.8606 -7.65088 66.5407 -5.57219 65.7269C-4.99108 65.4999 -5.24163 64.4645 -5.82852 64.6947Z" fill="url(#paint121_linear_5742_33841)"/>
<path d="M-7.95592 61.0052C-6.13936 63.1253 -3.9402 60.6412 -2.57079 59.1774C-0.0613308 56.4941 2.01832 53.3963 3.70575 50.0159C4.00642 49.413 3.17475 48.8723 2.87408 49.4751C1.80148 51.6231 0.589142 53.6576 -0.833271 55.5432C-1.68036 56.6664 -5.66425 62.1252 -7.27362 60.2471C-7.70247 59.7481 -8.3838 60.5062 -7.95592 61.0052Z" fill="url(#paint122_linear_5742_33841)"/>
<path d="M2.87295 26.4016C4.23562 30.5755 5.21086 34.8371 5.80835 39.2273C5.90087 39.9062 6.82989 39.6181 6.73737 38.9425C6.14085 34.5523 5.1656 30.2906 3.80197 26.1168C3.59285 25.4743 2.66094 25.7516 2.87295 26.4016Z" fill="url(#paint123_linear_5742_33841)"/>
<path d="M8.88086 27.9481C8.88086 30.4184 8.88086 32.8887 8.88086 35.3589C8.88086 36.0485 9.84455 36.0496 9.84455 35.3589C9.84455 32.8887 9.84455 30.4184 9.84455 27.9481C9.84455 27.2596 8.88086 27.2585 8.88086 27.9481Z" fill="url(#paint124_linear_5742_33841)"/>
<path d="M13.4231 28.9722C13.5888 30.4509 13.32 31.829 12.5972 33.0882C12.2628 33.6707 13.0964 34.2082 13.4288 33.629C14.2306 32.2327 14.5699 30.6179 14.3858 28.9722C14.3116 28.2976 13.3469 28.289 13.4231 28.9722Z" fill="url(#paint125_linear_5742_33841)"/>
<path d="M61.9374 16.7456C56.3451 18.0766 52.3505 19.8519 53.5494 24.2903C54.7473 28.7286 57.5439 30.9472 62.3373 33.167C67.1307 35.3856 77.1165 32.2793 76.3176 26.0656C75.5187 19.853 61.9374 16.7456 61.9374 16.7456Z" stroke="url(#paint126_linear_5742_33841)" stroke-width="0.963694" stroke-miterlimit="10" stroke-linecap="round" stroke-linejoin="round"/>
<path d="M58.0671 21.0927C56.741 21.7758 55.9759 23.5383 56.5175 25.0984C57.0369 26.5932 58.6627 27.5066 60.0388 26.9648C61.4978 26.3908 61.5933 24.1765 61.3726 22.7299C61.1355 21.1751 59.7988 19.9459 58.4034 20.6986C57.8454 20.9995 58.334 21.9236 58.8901 21.6227C60.5255 20.7404 61.4843 26.1938 59.0886 26.0407C56.9762 25.9058 56.8056 22.9173 58.5537 22.0167C59.1156 21.7276 58.627 20.8046 58.0671 21.0927Z" fill="url(#paint127_linear_5742_33841)"/>
<path d="M63.9048 29.8785C66.0433 29.2136 68.3436 30.9076 70.4271 29.7982C71.4534 29.2521 72.2379 27.904 71.889 26.617C71.1682 23.9636 65.4622 23.5953 66.1107 27.1599C66.2331 27.8344 67.1621 27.5496 67.0397 26.875C66.7603 25.3374 68.7146 25.695 69.3651 25.8439C69.979 25.9841 70.9311 26.829 70.9697 27.5753C71.0111 28.3891 69.8634 28.9159 69.341 29.0251C68.7628 29.1451 68.2338 29.0872 67.6459 28.993C66.2707 28.7714 65.0256 28.4169 63.6495 28.8452C63.052 29.0316 63.3054 30.0649 63.9048 29.8785Z" fill="url(#paint128_linear_5742_33841)"/>
<path d="M63.8255 20.7772C64.5811 21.1349 65.3356 21.4914 66.0912 21.8491C66.6549 22.1157 67.1474 21.1938 66.5778 20.925C65.8223 20.5684 65.0677 20.2108 64.3122 19.8532C63.7475 19.5855 63.256 20.5074 63.8255 20.7772Z" fill="url(#paint129_linear_5742_33841)"/>
</g>
<g opacity="0.2">
<path d="M946.072 183.315C946.072 183.315 928.751 161.746 917.294 174.48C905.328 187.781 909.621 200.073 910.484 202.701C913.217 211.021 920.374 219.035 932.751 217.095C942.285 215.602 950.693 206.137 949.055 204.512C949.055 204.512 927.134 215.512 923.862 200.659C922.628 195.058 923.731 187.78 928.526 184.358C934.785 179.894 945.9 185.689 946.072 183.315Z" stroke="url(#paint130_linear_5742_33841)" stroke-width="0.963694" stroke-miterlimit="10" stroke-linecap="round" stroke-linejoin="round"/>
<path d="M912.284 182.125C914.069 184.173 917.81 185.16 919.48 182.394C921.066 179.77 919.533 175.701 916.997 174.688C916.412 174.455 916.16 175.489 916.741 175.72C918.746 176.521 920.027 180.214 918.45 182.121C916.994 183.884 914.242 182.831 912.966 181.367C912.533 180.871 911.853 181.629 912.284 182.125Z" fill="url(#paint131_linear_5742_33841)"/>
<path d="M914.459 191.323C913.081 191.375 912.188 193.171 912.115 194.561C912.036 196.047 913.221 197.099 914.512 196.976C915.869 196.846 916.796 195.385 916.971 193.983C917.06 193.277 916.942 192.532 916.469 192.008C915.992 191.481 915.28 191.473 914.658 191.331C914.053 191.191 913.794 192.224 914.402 192.363C915.072 192.516 915.97 192.477 916.034 193.458C916.091 194.325 915.594 195.395 914.876 195.77C914.244 196.101 913.29 195.831 913.093 195.012C912.899 194.201 913.603 192.423 914.457 192.392C915.077 192.37 915.08 191.3 914.459 191.323Z" fill="url(#paint132_linear_5742_33841)"/>
<path d="M930.812 182.622C930.401 180.639 932.258 179.155 933.803 178.898C935.118 178.679 938.006 179.738 937.124 181.938C936.875 182.562 937.705 183.107 937.956 182.479C938.957 179.978 936.56 177.823 934.453 177.762C932.026 177.691 929.28 180.004 929.883 182.908C930.022 183.578 930.952 183.295 930.812 182.622Z" fill="url(#paint133_linear_5742_33841)"/>
<path d="M922.259 194.567C920.873 194.872 919.556 195.327 918.858 196.81C918.218 198.172 918.077 200.119 918.514 201.572C919.317 204.234 922.252 205.196 924.309 203.657C924.821 203.275 924.339 202.346 923.822 202.733C922.016 204.083 919.658 203.015 919.308 200.592C919.141 199.438 919.274 198.153 919.85 197.164C920.489 196.067 921.426 195.839 922.515 195.599C923.124 195.466 922.866 194.433 922.259 194.567Z" fill="url(#paint134_linear_5742_33841)"/>
<path d="M920.032 214.426C917.154 210.698 923.086 205.362 925.759 208.487C926.884 209.802 926.932 211.983 926.053 213.441C925.034 215.129 923.066 215.679 921.355 215.241C920.752 215.086 920.493 216.119 921.098 216.273C923.343 216.847 925.913 215.999 927.086 213.657C928.134 211.564 927.639 208.578 925.861 207.164C923.974 205.664 921.308 206.963 919.713 208.469C917.957 210.128 917.871 213.266 919.35 215.183C919.755 215.706 920.434 214.946 920.032 214.426Z" fill="url(#paint135_linear_5742_33841)"/>
<path d="M937.197 210.075C936.259 210.024 935.392 211.114 935.334 212.114C935.267 213.253 936.159 214.257 937.178 214.23C938.133 214.204 939.032 213.296 939.047 212.213C939.062 211.055 938.222 210.169 937.228 210.052C936.612 209.979 936.617 211.05 937.228 211.122C938.343 211.255 938.301 213.073 937.185 213.157C935.972 213.247 936.132 211.088 937.196 211.146C937.817 211.179 937.815 210.108 937.197 210.075Z" fill="url(#paint136_linear_5742_33841)"/>
<path d="M923.914 170.719C923.565 172.864 924.979 175.512 927.03 175.802C929.106 176.097 930.96 173.845 930.986 171.653C930.995 170.963 930.031 170.963 930.022 171.653C930.003 173.256 928.547 175.077 926.997 174.715C925.64 174.399 924.606 172.463 924.843 171.004C924.953 170.329 924.024 170.04 923.914 170.719Z" fill="url(#paint137_linear_5742_33841)"/>
<path d="M922.213 170.869C921.199 174.435 922.834 179.212 926.799 178.702C927.408 178.623 927.414 177.552 926.799 177.631C923.47 178.059 922.306 174.096 923.142 171.154C923.33 170.495 922.4 170.214 922.213 170.869Z" fill="url(#paint138_linear_5742_33841)"/>
<path d="M929.727 177.052C931.286 176.429 932.451 174.946 932.7 173.11C932.792 172.435 931.864 172.145 931.771 172.825C931.574 174.279 930.732 175.515 929.472 176.019C928.892 176.251 929.142 177.287 929.727 177.052Z" fill="url(#paint139_linear_5742_33841)"/>
<path d="M935.491 207.847C931.189 209.605 934.12 217.754 938.473 215.804C939.041 215.549 938.793 214.514 938.217 214.772C934.975 216.224 932.664 210.141 935.748 208.88C936.325 208.644 936.075 207.608 935.491 207.847Z" fill="url(#paint140_linear_5742_33841)"/>
<path d="M939.095 209.754C939.665 210.364 940.08 211.083 940.327 211.919C940.519 212.571 941.449 212.292 941.256 211.634C940.959 210.625 940.465 209.734 939.776 208.996C939.33 208.518 938.648 209.274 939.095 209.754Z" fill="url(#paint141_linear_5742_33841)"/>
<path d="M922.812 209.489C920.902 209.721 920.282 212.268 921.826 213.538C922.326 213.948 922.806 213.02 922.313 212.614C921.559 211.995 921.876 210.674 922.812 210.559C923.422 210.484 923.429 209.414 922.812 209.489Z" fill="url(#paint142_linear_5742_33841)"/>
<path d="M911.435 203.533C912.716 202.389 914.431 203.343 914.826 204.978C915.187 206.471 914.453 207.834 913.437 208.744C912.954 209.176 913.639 209.929 914.118 209.501C915.706 208.081 916.48 205.61 915.313 203.577C914.294 201.8 912.203 201.482 910.753 202.776C910.269 203.208 910.955 203.961 911.435 203.533Z" fill="url(#paint143_linear_5742_33841)"/>
<path d="M917.286 188.689C915.061 188.193 912.82 189.292 911.694 191.494C911.387 192.094 912.219 192.635 912.526 192.035C913.431 190.267 915.226 189.321 917.03 189.722C917.636 189.856 917.895 188.824 917.286 188.689Z" fill="url(#paint144_linear_5742_33841)"/>
<path d="M900.93 164.882L902.315 169.948L905.968 170.855C906.484 170.984 906.511 171.789 906.006 171.96L902.216 173.241L900.897 177.94C900.749 178.466 900.082 178.478 899.92 177.957L898.474 173.317L894.818 171.991C894.317 171.81 894.356 171.008 894.872 170.889L898.573 170.024L899.945 164.885C900.089 164.342 900.781 164.339 900.93 164.882Z" stroke="url(#paint145_linear_5742_33841)" stroke-width="0.963694" stroke-miterlimit="10" stroke-linecap="round" stroke-linejoin="round"/>
<path d="M892.909 179.272L893.985 183.209L896.823 183.913C897.224 184.013 897.245 184.639 896.852 184.772L893.907 185.767L892.883 189.418C892.768 189.827 892.25 189.837 892.123 189.431L891 185.827L888.159 184.797C887.769 184.655 887.8 184.033 888.2 183.94L891.076 183.269L892.142 179.276C892.255 178.852 892.794 178.85 892.909 179.272Z" stroke="url(#paint146_linear_5742_33841)" stroke-width="0.963694" stroke-miterlimit="10" stroke-linecap="round" stroke-linejoin="round"/>
<path d="M946.766 219.197L947.52 221.954L949.508 222.448C949.788 222.517 949.804 222.956 949.528 223.05L947.466 223.747L946.748 226.304C946.667 226.591 946.305 226.597 946.216 226.313L945.43 223.788L943.439 223.067C943.167 222.968 943.188 222.532 943.468 222.466L945.483 221.996L946.229 219.199C946.308 218.904 946.685 218.901 946.766 219.197Z" stroke="url(#paint147_linear_5742_33841)" stroke-width="0.963694" stroke-miterlimit="10" stroke-linecap="round" stroke-linejoin="round"/>
</g>
</g>
<defs>
<linearGradient id="paint0_linear_5742_33841" x1="1920" y1="240" x2="0" y2="240" gradientUnits="userSpaceOnUse">
<stop stop-color="#FDF3EC"/>
<stop offset="1" stop-color="#F9E9EC"/>
</linearGradient>
<linearGradient id="paint1_linear_5742_33841" x1="-37.5234" y1="387.073" x2="52.7098" y2="387.073" gradientUnits="userSpaceOnUse">
<stop stop-color="#C32853"/>
<stop offset="1" stop-color="#EE7E49"/>
</linearGradient>
<linearGradient id="paint2_linear_5742_33841" x1="12.877" y1="386.951" x2="28.044" y2="386.951" gradientUnits="userSpaceOnUse">
<stop stop-color="#C32853"/>
<stop offset="1" stop-color="#EE7E49"/>
</linearGradient>
<linearGradient id="paint3_linear_5742_33841" x1="-26.3789" y1="359.013" x2="42.0146" y2="359.013" gradientUnits="userSpaceOnUse">
<stop stop-color="#C32853"/>
<stop offset="1" stop-color="#EE7E49"/>
</linearGradient>
<linearGradient id="paint4_linear_5742_33841" x1="-29.2227" y1="365.862" x2="45.2833" y2="365.862" gradientUnits="userSpaceOnUse">
<stop stop-color="#C32853"/>
<stop offset="1" stop-color="#EE7E49"/>
</linearGradient>
<linearGradient id="paint5_linear_5742_33841" x1="-31.1348" y1="369.511" x2="48.7056" y2="369.511" gradientUnits="userSpaceOnUse">
<stop stop-color="#C32853"/>
<stop offset="1" stop-color="#EE7E49"/>
</linearGradient>
<linearGradient id="paint6_linear_5742_33841" x1="-35.5312" y1="380.621" x2="50.6218" y2="380.621" gradientUnits="userSpaceOnUse">
<stop stop-color="#C32853"/>
<stop offset="1" stop-color="#EE7E49"/>
</linearGradient>
<linearGradient id="paint7_linear_5742_33841" x1="-36.5781" y1="386.824" x2="51.6258" y2="386.824" gradientUnits="userSpaceOnUse">
<stop stop-color="#C32853"/>
<stop offset="1" stop-color="#EE7E49"/>
</linearGradient>
<linearGradient id="paint8_linear_5742_33841" x1="-37.5254" y1="395.392" x2="52.6076" y2="395.392" gradientUnits="userSpaceOnUse">
<stop stop-color="#C32853"/>
<stop offset="1" stop-color="#EE7E49"/>
</linearGradient>
<linearGradient id="paint9_linear_5742_33841" x1="-29.9805" y1="408.058" x2="51.7971" y2="408.058" gradientUnits="userSpaceOnUse">
<stop stop-color="#C32853"/>
<stop offset="1" stop-color="#EE7E49"/>
</linearGradient>
<linearGradient id="paint10_linear_5742_33841" x1="-25.6602" y1="417.319" x2="47.8224" y2="417.319" gradientUnits="userSpaceOnUse">
<stop stop-color="#C32853"/>
<stop offset="1" stop-color="#EE7E49"/>
</linearGradient>
<linearGradient id="paint11_linear_5742_33841" x1="-23.291" y1="423.866" x2="41.2532" y2="423.866" gradientUnits="userSpaceOnUse">
<stop stop-color="#C32853"/>
<stop offset="1" stop-color="#EE7E49"/>
</linearGradient>
<linearGradient id="paint12_linear_5742_33841" x1="-18.0234" y1="354.096" x2="16.381" y2="354.096" gradientUnits="userSpaceOnUse">
<stop stop-color="#C32853"/>
<stop offset="1" stop-color="#EE7E49"/>
</linearGradient>
<linearGradient id="paint13_linear_5742_33841" x1="20.002" y1="350.386" x2="26.825" y2="350.386" gradientUnits="userSpaceOnUse">
<stop stop-color="#C32853"/>
<stop offset="1" stop-color="#EE7E49"/>
</linearGradient>
<linearGradient id="paint14_linear_5742_33841" x1="11.2324" y1="343.305" x2="21.0196" y2="343.305" gradientUnits="userSpaceOnUse">
<stop stop-color="#C32853"/>
<stop offset="1" stop-color="#EE7E49"/>
</linearGradient>
<linearGradient id="paint15_linear_5742_33841" x1="19.7402" y1="342.716" x2="24.395" y2="342.716" gradientUnits="userSpaceOnUse">
<stop stop-color="#C32853"/>
<stop offset="1" stop-color="#EE7E49"/>
</linearGradient>
<linearGradient id="paint16_linear_5742_33841" x1="-12.1348" y1="343.585" x2="3.75582" y2="343.585" gradientUnits="userSpaceOnUse">
<stop stop-color="#C32853"/>
<stop offset="1" stop-color="#EE7E49"/>
</linearGradient>
<linearGradient id="paint17_linear_5742_33841" x1="42.2246" y1="391.939" x2="52.5802" y2="391.939" gradientUnits="userSpaceOnUse">
<stop stop-color="#C32853"/>
<stop offset="1" stop-color="#EE7E49"/>
</linearGradient>
<linearGradient id="paint18_linear_5742_33841" x1="556.914" y1="100.92" x2="629.621" y2="100.92" gradientUnits="userSpaceOnUse">
<stop stop-color="#C32853"/>
<stop offset="1" stop-color="#EE7E49"/>
</linearGradient>
<linearGradient id="paint19_linear_5742_33841" x1="556.717" y1="132.395" x2="612.358" y2="132.395" gradientUnits="userSpaceOnUse">
<stop stop-color="#C32853"/>
<stop offset="1" stop-color="#EE7E49"/>
</linearGradient>
<linearGradient id="paint20_linear_5742_33841" x1="539.883" y1="110.764" x2="646.702" y2="110.764" gradientUnits="userSpaceOnUse">
<stop stop-color="#C32853"/>
<stop offset="1" stop-color="#EE7E49"/>
</linearGradient>
<linearGradient id="paint21_linear_5742_33841" x1="534.215" y1="113.563" x2="650.172" y2="113.563" gradientUnits="userSpaceOnUse">
<stop stop-color="#C32853"/>
<stop offset="1" stop-color="#EE7E49"/>
</linearGradient>
<linearGradient id="paint22_linear_5742_33841" x1="575.787" y1="83.4412" x2="581.703" y2="83.4412" gradientUnits="userSpaceOnUse">
<stop stop-color="#C32853"/>
<stop offset="1" stop-color="#EE7E49"/>
</linearGradient>
<linearGradient id="paint23_linear_5742_33841" x1="614.648" y1="102.982" x2="624.562" y2="102.982" gradientUnits="userSpaceOnUse">
<stop stop-color="#C32853"/>
<stop offset="1" stop-color="#EE7E49"/>
</linearGradient>
<linearGradient id="paint24_linear_5742_33841" x1="596.398" y1="78.2346" x2="603.098" y2="78.2346" gradientUnits="userSpaceOnUse">
<stop stop-color="#C32853"/>
<stop offset="1" stop-color="#EE7E49"/>
</linearGradient>
<linearGradient id="paint25_linear_5742_33841" x1="605.551" y1="83.7588" x2="609.652" y2="83.7588" gradientUnits="userSpaceOnUse">
<stop stop-color="#C32853"/>
<stop offset="1" stop-color="#EE7E49"/>
</linearGradient>
<linearGradient id="paint26_linear_5742_33841" x1="600.76" y1="118.849" x2="611.895" y2="118.849" gradientUnits="userSpaceOnUse">
<stop stop-color="#C32853"/>
<stop offset="1" stop-color="#EE7E49"/>
</linearGradient>
<linearGradient id="paint27_linear_5742_33841" x1="564.682" y1="134.553" x2="585.761" y2="134.553" gradientUnits="userSpaceOnUse">
<stop stop-color="#C32853"/>
<stop offset="1" stop-color="#EE7E49"/>
</linearGradient>
<linearGradient id="paint28_linear_5742_33841" x1="589.309" y1="144.453" x2="593.059" y2="144.453" gradientUnits="userSpaceOnUse">
<stop stop-color="#C32853"/>
<stop offset="1" stop-color="#EE7E49"/>
</linearGradient>
<linearGradient id="paint29_linear_5742_33841" x1="591.906" y1="116.05" x2="594.583" y2="116.05" gradientUnits="userSpaceOnUse">
<stop stop-color="#C32853"/>
<stop offset="1" stop-color="#EE7E49"/>
</linearGradient>
<linearGradient id="paint30_linear_5742_33841" x1="602.129" y1="136.967" x2="628.103" y2="136.967" gradientUnits="userSpaceOnUse">
<stop stop-color="#C32853"/>
<stop offset="1" stop-color="#EE7E49"/>
</linearGradient>
<linearGradient id="paint31_linear_5742_33841" x1="578.801" y1="125.903" x2="590.666" y2="125.903" gradientUnits="userSpaceOnUse">
<stop stop-color="#C32853"/>
<stop offset="1" stop-color="#EE7E49"/>
</linearGradient>
<linearGradient id="paint32_linear_5742_33841" x1="567.883" y1="73.013" x2="581.112" y2="73.013" gradientUnits="userSpaceOnUse">
<stop stop-color="#C32853"/>
<stop offset="1" stop-color="#EE7E49"/>
</linearGradient>
<linearGradient id="paint33_linear_5742_33841" x1="583.09" y1="66.9883" x2="587.484" y2="66.9883" gradientUnits="userSpaceOnUse">
<stop stop-color="#C32853"/>
<stop offset="1" stop-color="#EE7E49"/>
</linearGradient>
<linearGradient id="paint34_linear_5742_33841" x1="632.623" y1="107.699" x2="633.841" y2="107.699" gradientUnits="userSpaceOnUse">
<stop stop-color="#C32853"/>
<stop offset="1" stop-color="#EE7E49"/>
</linearGradient>
<linearGradient id="paint35_linear_5742_33841" x1="637.15" y1="112.209" x2="638.805" y2="112.209" gradientUnits="userSpaceOnUse">
<stop stop-color="#C32853"/>
<stop offset="1" stop-color="#EE7E49"/>
</linearGradient>
<linearGradient id="paint36_linear_5742_33841" x1="544.256" y1="109.129" x2="568.372" y2="109.129" gradientUnits="userSpaceOnUse">
<stop stop-color="#C32853"/>
<stop offset="1" stop-color="#EE7E49"/>
</linearGradient>
<linearGradient id="paint37_linear_5742_33841" x1="560.143" y1="114.564" x2="582.999" y2="114.564" gradientUnits="userSpaceOnUse">
<stop stop-color="#C32853"/>
<stop offset="1" stop-color="#EE7E49"/>
</linearGradient>
<linearGradient id="paint38_linear_5742_33841" x1="530.674" y1="89.2864" x2="537.708" y2="89.2864" gradientUnits="userSpaceOnUse">
<stop stop-color="#C32853"/>
<stop offset="1" stop-color="#EE7E49"/>
</linearGradient>
<linearGradient id="paint39_linear_5742_33841" x1="554.02" y1="49.9699" x2="575.426" y2="49.9699" gradientUnits="userSpaceOnUse">
<stop stop-color="#C32853"/>
<stop offset="1" stop-color="#EE7E49"/>
</linearGradient>
<linearGradient id="paint40_linear_5742_33841" x1="536.572" y1="52.1076" x2="545.967" y2="52.1076" gradientUnits="userSpaceOnUse">
<stop stop-color="#C32853"/>
<stop offset="1" stop-color="#EE7E49"/>
</linearGradient>
<linearGradient id="paint41_linear_5742_33841" x1="1235.77" y1="369.591" x2="1309.17" y2="369.591" gradientUnits="userSpaceOnUse">
<stop stop-color="#C32853"/>
<stop offset="1" stop-color="#EE7E49"/>
</linearGradient>
<linearGradient id="paint42_linear_5742_33841" x1="1256.91" y1="387.672" x2="1326.23" y2="387.672" gradientUnits="userSpaceOnUse">
<stop stop-color="#C32853"/>
<stop offset="1" stop-color="#EE7E49"/>
</linearGradient>
<linearGradient id="paint43_linear_5742_33841" x1="1223.76" y1="356.044" x2="1256.03" y2="356.044" gradientUnits="userSpaceOnUse">
<stop stop-color="#C32853"/>
<stop offset="1" stop-color="#EE7E49"/>
</linearGradient>
<linearGradient id="paint44_linear_5742_33841" x1="1297.69" y1="402.661" x2="1318.22" y2="402.661" gradientUnits="userSpaceOnUse">
<stop stop-color="#C32853"/>
<stop offset="1" stop-color="#EE7E49"/>
</linearGradient>
<linearGradient id="paint45_linear_5742_33841" x1="1291.85" y1="350.146" x2="1298.67" y2="350.146" gradientUnits="userSpaceOnUse">
<stop stop-color="#C32853"/>
<stop offset="1" stop-color="#EE7E49"/>
</linearGradient>
<linearGradient id="paint46_linear_5742_33841" x1="1303.1" y1="355.58" x2="1304.69" y2="355.58" gradientUnits="userSpaceOnUse">
<stop stop-color="#C32853"/>
<stop offset="1" stop-color="#EE7E49"/>
</linearGradient>
<linearGradient id="paint47_linear_5742_33841" x1="1307.74" y1="358.993" x2="1309.32" y2="358.993" gradientUnits="userSpaceOnUse">
<stop stop-color="#C32853"/>
<stop offset="1" stop-color="#EE7E49"/>
</linearGradient>
<linearGradient id="paint48_linear_5742_33841" x1="1262.41" y1="402.615" x2="1269.23" y2="402.615" gradientUnits="userSpaceOnUse">
<stop stop-color="#C32853"/>
<stop offset="1" stop-color="#EE7E49"/>
</linearGradient>
<linearGradient id="paint49_linear_5742_33841" x1="1257.84" y1="398.004" x2="1259.43" y2="398.004" gradientUnits="userSpaceOnUse">
<stop stop-color="#C32853"/>
<stop offset="1" stop-color="#EE7E49"/>
</linearGradient>
<linearGradient id="paint50_linear_5742_33841" x1="1253.02" y1="394.622" x2="1254.6" y2="394.622" gradientUnits="userSpaceOnUse">
<stop stop-color="#C32853"/>
<stop offset="1" stop-color="#EE7E49"/>
</linearGradient>
<linearGradient id="paint51_linear_5742_33841" x1="1337.52" y1="388.896" x2="1348.38" y2="388.896" gradientUnits="userSpaceOnUse">
<stop stop-color="#C32853"/>
<stop offset="1" stop-color="#EE7E49"/>
</linearGradient>
<linearGradient id="paint52_linear_5742_33841" x1="1198.84" y1="346.835" x2="1209.7" y2="346.835" gradientUnits="userSpaceOnUse">
<stop stop-color="#C32853"/>
<stop offset="1" stop-color="#EE7E49"/>
</linearGradient>
<linearGradient id="paint53_linear_5742_33841" x1="1836.05" y1="420.427" x2="1839.81" y2="420.427" gradientUnits="userSpaceOnUse">
<stop stop-color="#C32853"/>
<stop offset="1" stop-color="#EE7E49"/>
</linearGradient>
<linearGradient id="paint54_linear_5742_33841" x1="1833.76" y1="380.15" x2="1927.61" y2="380.15" gradientUnits="userSpaceOnUse">
<stop stop-color="#C32853"/>
<stop offset="1" stop-color="#EE7E49"/>
</linearGradient>
<linearGradient id="paint55_linear_5742_33841" x1="1842.37" y1="433.433" x2="1924.7" y2="433.433" gradientUnits="userSpaceOnUse">
<stop stop-color="#C32853"/>
<stop offset="1" stop-color="#EE7E49"/>
</linearGradient>
<linearGradient id="paint56_linear_5742_33841" x1="1891.63" y1="406.599" x2="1940.07" y2="406.599" gradientUnits="userSpaceOnUse">
<stop stop-color="#C32853"/>
<stop offset="1" stop-color="#EE7E49"/>
</linearGradient>
<linearGradient id="paint57_linear_5742_33841" x1="1819.08" y1="407.047" x2="1878.51" y2="407.047" gradientUnits="userSpaceOnUse">
<stop stop-color="#C32853"/>
<stop offset="1" stop-color="#EE7E49"/>
</linearGradient>
<linearGradient id="paint58_linear_5742_33841" x1="1878.36" y1="407.741" x2="1943.59" y2="407.741" gradientUnits="userSpaceOnUse">
<stop stop-color="#C32853"/>
<stop offset="1" stop-color="#EE7E49"/>
</linearGradient>
<linearGradient id="paint59_linear_5742_33841" x1="1816.08" y1="407.586" x2="1867.41" y2="407.586" gradientUnits="userSpaceOnUse">
<stop stop-color="#C32853"/>
<stop offset="1" stop-color="#EE7E49"/>
</linearGradient>
<linearGradient id="paint60_linear_5742_33841" x1="1822.6" y1="402.545" x2="1937.34" y2="402.545" gradientUnits="userSpaceOnUse">
<stop stop-color="#C32853"/>
<stop offset="1" stop-color="#EE7E49"/>
</linearGradient>
<linearGradient id="paint61_linear_5742_33841" x1="1819.18" y1="402.714" x2="1943.37" y2="402.714" gradientUnits="userSpaceOnUse">
<stop stop-color="#C32853"/>
<stop offset="1" stop-color="#EE7E49"/>
</linearGradient>
<linearGradient id="paint62_linear_5742_33841" x1="1868.33" y1="351.078" x2="1883.56" y2="351.078" gradientUnits="userSpaceOnUse">
<stop stop-color="#C32853"/>
<stop offset="1" stop-color="#EE7E49"/>
</linearGradient>
<linearGradient id="paint63_linear_5742_33841" x1="1856.6" y1="353.344" x2="1894.01" y2="353.344" gradientUnits="userSpaceOnUse">
<stop stop-color="#C32853"/>
<stop offset="1" stop-color="#EE7E49"/>
</linearGradient>
<linearGradient id="paint64_linear_5742_33841" x1="1850.3" y1="357.622" x2="1903.13" y2="357.622" gradientUnits="userSpaceOnUse">
<stop stop-color="#C32853"/>
<stop offset="1" stop-color="#EE7E49"/>
</linearGradient>
<linearGradient id="paint65_linear_5742_33841" x1="1843.93" y1="363.106" x2="1909.5" y2="363.106" gradientUnits="userSpaceOnUse">
<stop stop-color="#C32853"/>
<stop offset="1" stop-color="#EE7E49"/>
</linearGradient>
<linearGradient id="paint66_linear_5742_33841" x1="1839.5" y1="368.333" x2="1914.62" y2="368.333" gradientUnits="userSpaceOnUse">
<stop stop-color="#C32853"/>
<stop offset="1" stop-color="#EE7E49"/>
</linearGradient>
<linearGradient id="paint67_linear_5742_33841" x1="1835.8" y1="375.729" x2="1918.42" y2="375.729" gradientUnits="userSpaceOnUse">
<stop stop-color="#C32853"/>
<stop offset="1" stop-color="#EE7E49"/>
</linearGradient>
<linearGradient id="paint68_linear_5742_33841" x1="1833.87" y1="384.949" x2="1921.91" y2="384.949" gradientUnits="userSpaceOnUse">
<stop stop-color="#C32853"/>
<stop offset="1" stop-color="#EE7E49"/>
</linearGradient>
<linearGradient id="paint69_linear_5742_33841" x1="1834.32" y1="394.825" x2="1924.87" y2="394.825" gradientUnits="userSpaceOnUse">
<stop stop-color="#C32853"/>
<stop offset="1" stop-color="#EE7E49"/>
</linearGradient>
<linearGradient id="paint70_linear_5742_33841" x1="1910.67" y1="406.642" x2="1928.39" y2="406.642" gradientUnits="userSpaceOnUse">
<stop stop-color="#C32853"/>
<stop offset="1" stop-color="#EE7E49"/>
</linearGradient>
<linearGradient id="paint71_linear_5742_33841" x1="1842.1" y1="424.776" x2="1900.61" y2="424.776" gradientUnits="userSpaceOnUse">
<stop stop-color="#C32853"/>
<stop offset="1" stop-color="#EE7E49"/>
</linearGradient>
<linearGradient id="paint72_linear_5742_33841" x1="1845.19" y1="426.822" x2="1924.36" y2="426.822" gradientUnits="userSpaceOnUse">
<stop stop-color="#C32853"/>
<stop offset="1" stop-color="#EE7E49"/>
</linearGradient>
<linearGradient id="paint73_linear_5742_33841" x1="1850.15" y1="432.893" x2="1920.91" y2="432.893" gradientUnits="userSpaceOnUse">
<stop stop-color="#C32853"/>
<stop offset="1" stop-color="#EE7E49"/>
</linearGradient>
<linearGradient id="paint74_linear_5742_33841" x1="1857.01" y1="442.511" x2="1909.16" y2="442.511" gradientUnits="userSpaceOnUse">
<stop stop-color="#C32853"/>
<stop offset="1" stop-color="#EE7E49"/>
</linearGradient>
<linearGradient id="paint75_linear_5742_33841" x1="1810.63" y1="405.112" x2="1811.44" y2="405.112" gradientUnits="userSpaceOnUse">
<stop stop-color="#C32853"/>
<stop offset="1" stop-color="#EE7E49"/>
</linearGradient>
<linearGradient id="paint76_linear_5742_33841" x1="1811.98" y1="408.876" x2="1813.02" y2="408.876" gradientUnits="userSpaceOnUse">
<stop stop-color="#C32853"/>
<stop offset="1" stop-color="#EE7E49"/>
</linearGradient>
<linearGradient id="paint77_linear_5742_33841" x1="1815.16" y1="411.761" x2="1815.94" y2="411.761" gradientUnits="userSpaceOnUse">
<stop stop-color="#C32853"/>
<stop offset="1" stop-color="#EE7E49"/>
</linearGradient>
<linearGradient id="paint78_linear_5742_33841" x1="1821.4" y1="60.3641" x2="1862.22" y2="60.3641" gradientUnits="userSpaceOnUse">
<stop stop-color="#C32853"/>
<stop offset="1" stop-color="#EE7E49"/>
</linearGradient>
<linearGradient id="paint79_linear_5742_33841" x1="1809.18" y1="65.3462" x2="1818.66" y2="65.3462" gradientUnits="userSpaceOnUse">
<stop stop-color="#C32853"/>
<stop offset="1" stop-color="#EE7E49"/>
</linearGradient>
<linearGradient id="paint80_linear_5742_33841" x1="1817.17" y1="97.7956" x2="1826.66" y2="97.7956" gradientUnits="userSpaceOnUse">
<stop stop-color="#C32853"/>
<stop offset="1" stop-color="#EE7E49"/>
</linearGradient>
<linearGradient id="paint81_linear_5742_33841" x1="1882.42" y1="169.781" x2="1895.58" y2="169.781" gradientUnits="userSpaceOnUse">
<stop stop-color="#C32853"/>
<stop offset="1" stop-color="#EE7E49"/>
</linearGradient>
<linearGradient id="paint82_linear_5742_33841" x1="564.082" y1="392.488" x2="630.18" y2="392.488" gradientUnits="userSpaceOnUse">
<stop stop-color="#C32853"/>
<stop offset="1" stop-color="#EE7E49"/>
</linearGradient>
<linearGradient id="paint83_linear_5742_33841" x1="564.299" y1="376.581" x2="606.215" y2="376.581" gradientUnits="userSpaceOnUse">
<stop stop-color="#C32853"/>
<stop offset="1" stop-color="#EE7E49"/>
</linearGradient>
<linearGradient id="paint84_linear_5742_33841" x1="599.539" y1="392.918" x2="628.019" y2="392.918" gradientUnits="userSpaceOnUse">
<stop stop-color="#C32853"/>
<stop offset="1" stop-color="#EE7E49"/>
</linearGradient>
<linearGradient id="paint85_linear_5742_33841" x1="564.436" y1="403.207" x2="597.17" y2="403.207" gradientUnits="userSpaceOnUse">
<stop stop-color="#C32853"/>
<stop offset="1" stop-color="#EE7E49"/>
</linearGradient>
<linearGradient id="paint86_linear_5742_33841" x1="585.496" y1="420.826" x2="618.054" y2="420.826" gradientUnits="userSpaceOnUse">
<stop stop-color="#C32853"/>
<stop offset="1" stop-color="#EE7E49"/>
</linearGradient>
<linearGradient id="paint87_linear_5742_33841" x1="569.016" y1="389.295" x2="589.92" y2="389.295" gradientUnits="userSpaceOnUse">
<stop stop-color="#C32853"/>
<stop offset="1" stop-color="#EE7E49"/>
</linearGradient>
<linearGradient id="paint88_linear_5742_33841" x1="580.463" y1="371.957" x2="609.551" y2="371.957" gradientUnits="userSpaceOnUse">
<stop stop-color="#C32853"/>
<stop offset="1" stop-color="#EE7E49"/>
</linearGradient>
<linearGradient id="paint89_linear_5742_33841" x1="580.051" y1="364.778" x2="593.349" y2="364.778" gradientUnits="userSpaceOnUse">
<stop stop-color="#C32853"/>
<stop offset="1" stop-color="#EE7E49"/>
</linearGradient>
<linearGradient id="paint90_linear_5742_33841" x1="597.156" y1="391.056" x2="609.607" y2="391.056" gradientUnits="userSpaceOnUse">
<stop stop-color="#C32853"/>
<stop offset="1" stop-color="#EE7E49"/>
</linearGradient>
<linearGradient id="paint91_linear_5742_33841" x1="603.41" y1="405.323" x2="610.501" y2="405.323" gradientUnits="userSpaceOnUse">
<stop stop-color="#C32853"/>
<stop offset="1" stop-color="#EE7E49"/>
</linearGradient>
<linearGradient id="paint92_linear_5742_33841" x1="571.168" y1="411.041" x2="592.375" y2="411.041" gradientUnits="userSpaceOnUse">
<stop stop-color="#C32853"/>
<stop offset="1" stop-color="#EE7E49"/>
</linearGradient>
<linearGradient id="paint93_linear_5742_33841" x1="613.354" y1="376.208" x2="625.336" y2="376.208" gradientUnits="userSpaceOnUse">
<stop stop-color="#C32853"/>
<stop offset="1" stop-color="#EE7E49"/>
</linearGradient>
<linearGradient id="paint94_linear_5742_33841" x1="588.494" y1="421.036" x2="614.701" y2="421.036" gradientUnits="userSpaceOnUse">
<stop stop-color="#C32853"/>
<stop offset="1" stop-color="#EE7E49"/>
</linearGradient>
<linearGradient id="paint95_linear_5742_33841" x1="624.947" y1="397.81" x2="630.031" y2="397.81" gradientUnits="userSpaceOnUse">
<stop stop-color="#C32853"/>
<stop offset="1" stop-color="#EE7E49"/>
</linearGradient>
<linearGradient id="paint96_linear_5742_33841" x1="624.973" y1="393.982" x2="630.406" y2="393.982" gradientUnits="userSpaceOnUse">
<stop stop-color="#C32853"/>
<stop offset="1" stop-color="#EE7E49"/>
</linearGradient>
<linearGradient id="paint97_linear_5742_33841" x1="626.66" y1="391.143" x2="630.512" y2="391.143" gradientUnits="userSpaceOnUse">
<stop stop-color="#C32853"/>
<stop offset="1" stop-color="#EE7E49"/>
</linearGradient>
<linearGradient id="paint98_linear_5742_33841" x1="1249.72" y1="98.4451" x2="1277.43" y2="98.4451" gradientUnits="userSpaceOnUse">
<stop stop-color="#C32853"/>
<stop offset="1" stop-color="#EE7E49"/>
</linearGradient>
<linearGradient id="paint99_linear_5742_33841" x1="1243.82" y1="94.0367" x2="1323.02" y2="94.0367" gradientUnits="userSpaceOnUse">
<stop stop-color="#C32853"/>
<stop offset="1" stop-color="#EE7E49"/>
</linearGradient>
<linearGradient id="paint100_linear_5742_33841" x1="1253.06" y1="97.5032" x2="1261.76" y2="97.5032" gradientUnits="userSpaceOnUse">
<stop stop-color="#C32853"/>
<stop offset="1" stop-color="#EE7E49"/>
</linearGradient>
<linearGradient id="paint101_linear_5742_33841" x1="1270.15" y1="96.8753" x2="1271.4" y2="96.8753" gradientUnits="userSpaceOnUse">
<stop stop-color="#C32853"/>
<stop offset="1" stop-color="#EE7E49"/>
</linearGradient>
<linearGradient id="paint102_linear_5742_33841" x1="1263.68" y1="102.175" x2="1274.35" y2="102.175" gradientUnits="userSpaceOnUse">
<stop stop-color="#C32853"/>
<stop offset="1" stop-color="#EE7E49"/>
</linearGradient>
<linearGradient id="paint103_linear_5742_33841" x1="1283.71" y1="63.3002" x2="1359.7" y2="63.3002" gradientUnits="userSpaceOnUse">
<stop stop-color="#C32853"/>
<stop offset="1" stop-color="#EE7E49"/>
</linearGradient>
<linearGradient id="paint104_linear_5742_33841" x1="1322.54" y1="78.2573" x2="1352.52" y2="78.2573" gradientUnits="userSpaceOnUse">
<stop stop-color="#C32853"/>
<stop offset="1" stop-color="#EE7E49"/>
</linearGradient>
<linearGradient id="paint105_linear_5742_33841" x1="1239.95" y1="77.2843" x2="1248.95" y2="77.2843" gradientUnits="userSpaceOnUse">
<stop stop-color="#C32853"/>
<stop offset="1" stop-color="#EE7E49"/>
</linearGradient>
<linearGradient id="paint106_linear_5742_33841" x1="33.1504" y1="54.8509" x2="48.7912" y2="54.8509" gradientUnits="userSpaceOnUse">
<stop stop-color="#C32853"/>
<stop offset="1" stop-color="#EE7E49"/>
</linearGradient>
<linearGradient id="paint107_linear_5742_33841" x1="-16.6367" y1="89.348" x2="53.2287" y2="89.348" gradientUnits="userSpaceOnUse">
<stop stop-color="#C32853"/>
<stop offset="1" stop-color="#EE7E49"/>
</linearGradient>
<linearGradient id="paint108_linear_5742_33841" x1="5.06445" y1="44.5126" x2="14.7322" y2="44.5126" gradientUnits="userSpaceOnUse">
<stop stop-color="#C32853"/>
<stop offset="1" stop-color="#EE7E49"/>
</linearGradient>
<linearGradient id="paint109_linear_5742_33841" x1="14.4668" y1="43.4687" x2="33.5416" y2="43.4687" gradientUnits="userSpaceOnUse">
<stop stop-color="#C32853"/>
<stop offset="1" stop-color="#EE7E49"/>
</linearGradient>
<linearGradient id="paint110_linear_5742_33841" x1="48.7344" y1="73.7575" x2="55.7398" y2="73.7575" gradientUnits="userSpaceOnUse">
<stop stop-color="#C32853"/>
<stop offset="1" stop-color="#EE7E49"/>
</linearGradient>
<linearGradient id="paint111_linear_5742_33841" x1="21.7051" y1="64.2706" x2="39.4812" y2="64.2706" gradientUnits="userSpaceOnUse">
<stop stop-color="#C32853"/>
<stop offset="1" stop-color="#EE7E49"/>
</linearGradient>
<linearGradient id="paint112_linear_5742_33841" x1="24.4199" y1="63.2622" x2="36.7632" y2="63.2622" gradientUnits="userSpaceOnUse">
<stop stop-color="#C32853"/>
<stop offset="1" stop-color="#EE7E49"/>
</linearGradient>
<linearGradient id="paint113_linear_5742_33841" x1="35.7969" y1="87.8812" x2="46.9113" y2="87.8812" gradientUnits="userSpaceOnUse">
<stop stop-color="#C32853"/>
<stop offset="1" stop-color="#EE7E49"/>
</linearGradient>
<linearGradient id="paint114_linear_5742_33841" x1="39.5176" y1="81.6882" x2="44.8482" y2="81.6882" gradientUnits="userSpaceOnUse">
<stop stop-color="#C32853"/>
<stop offset="1" stop-color="#EE7E49"/>
</linearGradient>
<linearGradient id="paint115_linear_5742_33841" x1="38.4141" y1="87.5029" x2="43.3095" y2="87.5029" gradientUnits="userSpaceOnUse">
<stop stop-color="#C32853"/>
<stop offset="1" stop-color="#EE7E49"/>
</linearGradient>
<linearGradient id="paint116_linear_5742_33841" x1="-0.5" y1="93.3683" x2="3.17787" y2="93.3683" gradientUnits="userSpaceOnUse">
<stop stop-color="#C32853"/>
<stop offset="1" stop-color="#EE7E49"/>
</linearGradient>
<linearGradient id="paint117_linear_5742_33841" x1="0.255859" y1="84.0647" x2="2.74144" y2="84.0647" gradientUnits="userSpaceOnUse">
<stop stop-color="#C32853"/>
<stop offset="1" stop-color="#EE7E49"/>
</linearGradient>
<linearGradient id="paint118_linear_5742_33841" x1="9.1875" y1="96.5816" x2="13.5263" y2="96.5816" gradientUnits="userSpaceOnUse">
<stop stop-color="#C32853"/>
<stop offset="1" stop-color="#EE7E49"/>
</linearGradient>
<linearGradient id="paint119_linear_5742_33841" x1="20.6055" y1="98.0349" x2="21.7323" y2="98.0349" gradientUnits="userSpaceOnUse">
<stop stop-color="#C32853"/>
<stop offset="1" stop-color="#EE7E49"/>
</linearGradient>
<linearGradient id="paint120_linear_5742_33841" x1="5.60742" y1="109.626" x2="6.57112" y2="109.626" gradientUnits="userSpaceOnUse">
<stop stop-color="#C32853"/>
<stop offset="1" stop-color="#EE7E49"/>
</linearGradient>
<linearGradient id="paint121_linear_5742_33841" x1="-10.2051" y1="55.7806" x2="8.15087" y2="55.7806" gradientUnits="userSpaceOnUse">
<stop stop-color="#C32853"/>
<stop offset="1" stop-color="#EE7E49"/>
</linearGradient>
<linearGradient id="paint122_linear_5742_33841" x1="-8.0918" y1="55.5194" x2="3.77024" y2="55.5194" gradientUnits="userSpaceOnUse">
<stop stop-color="#C32853"/>
<stop offset="1" stop-color="#EE7E49"/>
</linearGradient>
<linearGradient id="paint123_linear_5742_33841" x1="2.8418" y1="32.6836" x2="6.74384" y2="32.6836" gradientUnits="userSpaceOnUse">
<stop stop-color="#C32853"/>
<stop offset="1" stop-color="#EE7E49"/>
</linearGradient>
<linearGradient id="paint124_linear_5742_33841" x1="8.88086" y1="31.6539" x2="9.84455" y2="31.6539" gradientUnits="userSpaceOnUse">
<stop stop-color="#C32853"/>
<stop offset="1" stop-color="#EE7E49"/>
</linearGradient>
<linearGradient id="paint125_linear_5742_33841" x1="12.5195" y1="31.1704" x2="14.4347" y2="31.1704" gradientUnits="userSpaceOnUse">
<stop stop-color="#C32853"/>
<stop offset="1" stop-color="#EE7E49"/>
</linearGradient>
<linearGradient id="paint126_linear_5742_33841" x1="53.3359" y1="25.3137" x2="76.3629" y2="25.3137" gradientUnits="userSpaceOnUse">
<stop stop-color="#C32853"/>
<stop offset="1" stop-color="#EE7E49"/>
</linearGradient>
<linearGradient id="paint127_linear_5742_33841" x1="56.3418" y1="23.7968" x2="61.4625" y2="23.7968" gradientUnits="userSpaceOnUse">
<stop stop-color="#C32853"/>
<stop offset="1" stop-color="#EE7E49"/>
</linearGradient>
<linearGradient id="paint128_linear_5742_33841" x1="63.3086" y1="27.371" x2="71.9732" y2="27.371" gradientUnits="userSpaceOnUse">
<stop stop-color="#C32853"/>
<stop offset="1" stop-color="#EE7E49"/>
</linearGradient>
<linearGradient id="paint129_linear_5742_33841" x1="63.5723" y1="20.8509" x2="66.8309" y2="20.8509" gradientUnits="userSpaceOnUse">
<stop stop-color="#C32853"/>
<stop offset="1" stop-color="#EE7E49"/>
</linearGradient>
<linearGradient id="paint130_linear_5742_33841" x1="909.029" y1="193.923" x2="949.26" y2="193.923" gradientUnits="userSpaceOnUse">
<stop stop-color="#C32853"/>
<stop offset="1" stop-color="#EE7E49"/>
</linearGradient>
<linearGradient id="paint131_linear_5742_33841" x1="912.146" y1="179.374" x2="920.125" y2="179.374" gradientUnits="userSpaceOnUse">
<stop stop-color="#C32853"/>
<stop offset="1" stop-color="#EE7E49"/>
</linearGradient>
<linearGradient id="paint132_linear_5742_33841" x1="912.111" y1="194.152" x2="916.998" y2="194.152" gradientUnits="userSpaceOnUse">
<stop stop-color="#C32853"/>
<stop offset="1" stop-color="#EE7E49"/>
</linearGradient>
<linearGradient id="paint133_linear_5742_33841" x1="929.799" y1="180.526" x2="938.191" y2="180.526" gradientUnits="userSpaceOnUse">
<stop stop-color="#C32853"/>
<stop offset="1" stop-color="#EE7E49"/>
</linearGradient>
<linearGradient id="paint134_linear_5742_33841" x1="918.262" y1="199.474" x2="924.527" y2="199.474" gradientUnits="userSpaceOnUse">
<stop stop-color="#C32853"/>
<stop offset="1" stop-color="#EE7E49"/>
</linearGradient>
<linearGradient id="paint135_linear_5742_33841" x1="918.312" y1="211.472" x2="927.631" y2="211.472" gradientUnits="userSpaceOnUse">
<stop stop-color="#C32853"/>
<stop offset="1" stop-color="#EE7E49"/>
</linearGradient>
<linearGradient id="paint136_linear_5742_33841" x1="935.33" y1="212.139" x2="939.047" y2="212.139" gradientUnits="userSpaceOnUse">
<stop stop-color="#C32853"/>
<stop offset="1" stop-color="#EE7E49"/>
</linearGradient>
<linearGradient id="paint137_linear_5742_33841" x1="923.861" y1="173.08" x2="930.986" y2="173.08" gradientUnits="userSpaceOnUse">
<stop stop-color="#C32853"/>
<stop offset="1" stop-color="#EE7E49"/>
</linearGradient>
<linearGradient id="paint138_linear_5742_33841" x1="921.92" y1="174.618" x2="927.258" y2="174.618" gradientUnits="userSpaceOnUse">
<stop stop-color="#C32853"/>
<stop offset="1" stop-color="#EE7E49"/>
</linearGradient>
<linearGradient id="paint139_linear_5742_33841" x1="929.143" y1="174.762" x2="932.707" y2="174.762" gradientUnits="userSpaceOnUse">
<stop stop-color="#C32853"/>
<stop offset="1" stop-color="#EE7E49"/>
</linearGradient>
<linearGradient id="paint140_linear_5742_33841" x1="933.383" y1="211.957" x2="938.794" y2="211.957" gradientUnits="userSpaceOnUse">
<stop stop-color="#C32853"/>
<stop offset="1" stop-color="#EE7E49"/>
</linearGradient>
<linearGradient id="paint141_linear_5742_33841" x1="938.949" y1="210.567" x2="941.282" y2="210.567" gradientUnits="userSpaceOnUse">
<stop stop-color="#C32853"/>
<stop offset="1" stop-color="#EE7E49"/>
</linearGradient>
<linearGradient id="paint142_linear_5742_33841" x1="920.955" y1="211.563" x2="923.272" y2="211.563" gradientUnits="userSpaceOnUse">
<stop stop-color="#C32853"/>
<stop offset="1" stop-color="#EE7E49"/>
</linearGradient>
<linearGradient id="paint143_linear_5742_33841" x1="910.588" y1="205.807" x2="915.875" y2="205.807" gradientUnits="userSpaceOnUse">
<stop stop-color="#C32853"/>
<stop offset="1" stop-color="#EE7E49"/>
</linearGradient>
<linearGradient id="paint144_linear_5742_33841" x1="911.627" y1="190.434" x2="917.633" y2="190.434" gradientUnits="userSpaceOnUse">
<stop stop-color="#C32853"/>
<stop offset="1" stop-color="#EE7E49"/>
</linearGradient>
<linearGradient id="paint145_linear_5742_33841" x1="894.463" y1="171.409" x2="906.371" y2="171.409" gradientUnits="userSpaceOnUse">
<stop stop-color="#C32853"/>
<stop offset="1" stop-color="#EE7E49"/>
</linearGradient>
<linearGradient id="paint146_linear_5742_33841" x1="887.883" y1="184.343" x2="897.136" y2="184.343" gradientUnits="userSpaceOnUse">
<stop stop-color="#C32853"/>
<stop offset="1" stop-color="#EE7E49"/>
</linearGradient>
<linearGradient id="paint147_linear_5742_33841" x1="943.246" y1="222.75" x2="949.727" y2="222.75" gradientUnits="userSpaceOnUse">
<stop stop-color="#C32853"/>
<stop offset="1" stop-color="#EE7E49"/>
</linearGradient>
<clipPath id="clip0_5742_33841">
<rect width="1920" height="480" fill="white"/>
</clipPath>
</defs>
</svg>
