<svg width="145" height="42" viewBox="0 0 145 42" fill="none" xmlns="http://www.w3.org/2000/svg">
<path d="M139.273 41.782H5.35667C2.41184 41.782 0 39.4304 0 36.5592V5.22272C0 2.35152 2.41184 -2.67029e-05 5.35667 -2.67029e-05H139.273C142.218 -2.67029e-05 144.63 2.35152 144.63 5.22272V36.5592C144.63 39.4304 142.218 41.782 139.273 41.782Z" fill="white"/>
<path d="M10.3757 7.87462C10.061 8.19582 9.87891 8.6959 9.87891 9.34352V32.4437C9.87891 33.0914 10.061 33.5914 10.3757 33.9126L10.4534 33.9832L23.7299 21.0438V20.7383L10.4534 7.79889L10.3757 7.87462Z" fill="black"/>
<path d="M29.7585 25.3594L25.3379 21.0441V20.7385L29.7638 16.4232L29.8629 16.4794L35.1044 19.3872C36.6003 20.2124 36.6003 21.5703 35.1044 22.4007L29.8629 25.3032L29.7585 25.3594Z" fill="black"/>
<path d="M29.0589 26.1067L24.5339 21.6948L11.1797 34.7164C11.6765 35.2256 12.4867 35.287 13.4081 34.7778L29.0589 26.1067Z" fill="black"/>
<path d="M29.0589 15.6757L13.4081 7.00466C12.4867 6.50066 11.6765 6.56203 11.1797 7.07125L24.5339 20.0876L29.0589 15.6757Z" fill="black"/>
<path d="M50.8004 10.7002C50.8004 11.5724 50.5325 12.2709 50.0049 12.7919C49.3983 13.4095 48.6082 13.7202 47.6399 13.7202C46.7146 13.7202 45.9245 13.4043 45.2763 12.7814C44.6268 12.1495 44.3027 11.3739 44.3027 10.4456C44.3027 9.51722 44.6268 8.74164 45.2763 8.11491C45.9245 7.48688 46.7146 7.1709 47.6399 7.1709C48.1006 7.1709 48.5399 7.2636 48.959 7.43595C49.3768 7.60961 49.717 7.84463 49.9634 8.1345L49.4036 8.6855C48.9737 8.19064 48.3885 7.94648 47.6399 7.94648C46.965 7.94648 46.3798 8.17628 45.883 8.6398C45.3915 9.10462 45.1451 9.70654 45.1451 10.4456C45.1451 11.1846 45.3915 11.7917 45.883 12.2566C46.3798 12.7148 46.965 12.9499 47.6399 12.9499C48.3564 12.9499 48.959 12.7148 49.4344 12.2513C49.7478 11.9445 49.9259 11.5215 49.9728 10.9809H47.6399V10.2262H50.7522C50.7897 10.3894 50.8004 10.5474 50.8004 10.7002Z" fill="black" stroke="black" stroke-width="0.111254" stroke-miterlimit="10"/>
<path d="M55.7373 8.08375H52.8139V10.0684H55.4494V10.8231H52.8139V12.8077H55.7373V13.5768H51.9863V7.3147H55.7373V8.08375Z" fill="black" stroke="black" stroke-width="0.111254" stroke-miterlimit="10"/>
<path d="M59.2223 13.5768H58.3947V8.08375H56.6016V7.3147H61.0168V8.08375H59.2223V13.5768Z" fill="black" stroke="black" stroke-width="0.111254" stroke-miterlimit="10"/>
<path d="M64.2129 13.5768V7.3147H65.0392V13.5768H64.2129Z" fill="black" stroke="black" stroke-width="0.111254" stroke-miterlimit="10"/>
<path d="M68.7008 13.5768H67.8799V8.08375H66.0801V7.3147H70.5007V8.08375H68.7008V13.5768Z" fill="black" stroke="black" stroke-width="0.111254" stroke-miterlimit="10"/>
<path d="M78.8599 12.771C78.2265 13.4043 77.4417 13.7202 76.5056 13.7202C75.5642 13.7202 74.7794 13.4043 74.146 12.771C73.5139 12.139 73.1992 11.3635 73.1992 10.4456C73.1992 9.52767 73.5139 8.75209 74.146 8.12013C74.7794 7.48688 75.5642 7.1709 76.5056 7.1709C77.4363 7.1709 78.2211 7.48687 78.8545 8.12536C79.492 8.76253 79.8067 9.53289 79.8067 10.4456C79.8067 11.3635 79.492 12.139 78.8599 12.771ZM74.758 12.2461C75.2348 12.7148 75.8146 12.9499 76.5056 12.9499C77.1913 12.9499 77.7765 12.7148 78.2479 12.2461C78.7233 11.7774 78.9643 11.1754 78.9643 10.4456C78.9643 9.71568 78.7233 9.11376 78.2479 8.64502C77.7765 8.17628 77.1913 7.94125 76.5056 7.94125C75.8146 7.94125 75.2348 8.17628 74.758 8.64502C74.2826 9.11376 74.0416 9.71568 74.0416 10.4456C74.0416 11.1754 74.2826 11.7774 74.758 12.2461Z" fill="black" stroke="black" stroke-width="0.111254" stroke-miterlimit="10"/>
<path d="M80.9668 13.5768V7.3147H81.9712L85.0941 12.1849H85.1303L85.0941 10.9811V7.3147H85.9204V13.5768H85.058L81.7877 8.46631H81.7515L81.7877 9.67538V13.5768H80.9668Z" fill="black" stroke="black" stroke-width="0.111254" stroke-miterlimit="10"/>
<path d="M72.9946 22.7219C70.4783 22.7219 68.4227 24.589 68.4227 27.1651C68.4227 29.7204 70.4783 31.6071 72.9946 31.6071C75.5162 31.6071 77.5718 29.7204 77.5718 27.1651C77.5718 24.589 75.5162 22.7219 72.9946 22.7219ZM72.9946 29.8575C71.6139 29.8575 70.4261 28.7463 70.4261 27.1651C70.4261 25.563 71.6139 24.4715 72.9946 24.4715C74.3753 24.4715 75.5685 25.563 75.5685 27.1651C75.5685 28.7463 74.3753 29.8575 72.9946 29.8575ZM63.0191 22.7219C60.4975 22.7219 58.4472 24.589 58.4472 27.1651C58.4472 29.7204 60.4975 31.6071 63.0191 31.6071C65.5394 31.6071 67.591 29.7204 67.591 27.1651C67.591 24.589 65.5394 22.7219 63.0191 22.7219ZM63.0191 29.8575C61.6371 29.8575 60.4452 28.7463 60.4452 27.1651C60.4452 25.563 61.6371 24.4715 63.0191 24.4715C64.3998 24.4715 65.5876 25.563 65.5876 27.1651C65.5876 28.7463 64.3998 29.8575 63.0191 29.8575ZM51.1487 24.0837V25.9717H55.7729C55.6376 27.0267 55.2761 27.8023 54.7216 28.3429C54.0467 28.9957 52.9955 29.7204 51.1487 29.7204C48.303 29.7204 46.0746 27.4811 46.0746 24.7065C46.0746 21.9319 48.303 19.6927 51.1487 19.6927C52.6874 19.6927 53.807 20.2789 54.6333 21.0388L55.9979 19.7083C54.8422 18.6325 53.3048 17.806 51.1487 17.806C47.2464 17.806 43.9668 20.9017 43.9668 24.7065C43.9668 28.5113 47.2464 31.6071 51.1487 31.6071C53.2579 31.6071 54.8422 30.9333 56.0876 29.6694C57.3638 28.4251 57.7616 26.6755 57.7616 25.2627C57.7616 24.824 57.7241 24.4206 57.6571 24.0837H51.1487ZM99.6882 25.5474C99.3119 24.5537 98.1508 22.7219 95.7859 22.7219C93.4423 22.7219 91.4911 24.5224 91.4911 27.1651C91.4911 29.6538 93.4222 31.6071 96.0108 31.6071C98.1039 31.6071 99.3119 30.3628 99.8087 29.6381L98.2553 28.6288C97.737 29.3678 97.0313 29.8575 96.0108 29.8575C94.9971 29.8575 94.2699 29.4044 93.8039 28.5113L99.8984 26.0527L99.6882 25.5474ZM93.4744 27.0267C93.4222 25.3137 94.8391 24.4362 95.8541 24.4362C96.6496 24.4362 97.3246 24.824 97.5495 25.3789L93.4744 27.0267ZM88.5209 31.3368H90.5243V18.2799H88.5209V31.3368ZM85.2399 23.7116H85.173C84.723 23.1919 83.8646 22.7219 82.7772 22.7219C80.4953 22.7219 78.4088 24.6752 78.4088 27.1795C78.4088 29.6694 80.4953 31.6071 82.7772 31.6071C83.8646 31.6071 84.723 31.1331 85.173 30.5978H85.2399V31.235C85.2399 32.9337 84.3092 33.8463 82.808 33.8463C81.584 33.8463 80.8247 32.9846 80.5113 32.2599L78.7691 32.9689C79.2712 34.1466 80.601 35.5959 82.808 35.5959C85.1569 35.5959 87.1389 34.2485 87.1389 30.9699V22.9921H85.2399V23.7116ZM82.9486 29.8575C81.5679 29.8575 80.4122 28.7306 80.4122 27.1795C80.4122 25.614 81.5679 24.4715 82.9486 24.4715C84.3092 24.4715 85.3819 25.614 85.3819 27.1795C85.3819 28.7306 84.3092 29.8575 82.9486 29.8575ZM109.068 18.2799H104.276V31.3368H106.274V26.3895H109.068C111.287 26.3895 113.463 24.824 113.463 22.3341C113.463 19.8454 111.281 18.2799 109.068 18.2799ZM109.12 24.5733H106.274V20.0961H109.12C110.612 20.0961 111.463 21.3039 111.463 22.3341C111.463 23.3447 110.612 24.5733 109.12 24.5733ZM121.471 22.6971C120.027 22.6971 118.526 23.3186 117.909 24.6961L119.682 25.4207C120.064 24.6961 120.765 24.461 121.507 24.461C122.544 24.461 123.595 25.0682 123.611 26.1402V26.2773C123.249 26.0736 122.475 25.772 121.523 25.772C119.614 25.772 117.668 26.7969 117.668 28.7098C117.668 30.4594 119.232 31.5862 120.99 31.5862C122.335 31.5862 123.077 30.9947 123.543 30.3066H123.611V31.3159H125.541V26.3073C125.541 23.9923 123.768 22.6971 121.471 22.6971ZM121.23 29.8522C120.576 29.8522 119.666 29.5363 119.666 28.7463C119.666 27.7357 120.801 27.3479 121.784 27.3479C122.664 27.3479 123.077 27.5372 123.611 27.7866C123.454 28.9957 122.387 29.8522 121.23 29.8522ZM132.571 22.983L130.275 28.6432H130.206L127.832 22.983H125.677L129.245 30.8929L127.209 35.2943H129.297L134.794 22.983H132.571ZM114.561 31.3368H116.564V18.2799H114.561V31.3368Z" fill="black"/>
</svg>
