<svg width="26" height="29" viewBox="0 0 26 29" fill="none" xmlns="http://www.w3.org/2000/svg">
<path d="M8.8336 12.611C8.8336 13.7161 9.27259 14.7759 10.054 15.5573C10.8354 16.3387 11.8952 16.7777 13.0003 16.7777C14.1053 16.7777 15.1651 16.3387 15.9465 15.5573C16.728 14.7759 17.1669 13.7161 17.1669 12.611C17.1669 11.5059 16.728 10.4461 15.9465 9.66474C15.1651 8.88334 14.1053 8.44435 13.0003 8.44435C11.8952 8.44435 10.8354 8.88334 10.054 9.66474C9.27259 10.4461 8.8336 11.5059 8.8336 12.611Z" stroke="white" stroke-width="2.5" stroke-linecap="round" stroke-linejoin="round"/>
<path d="M20.8572 20.4679L14.9642 26.3609C14.4433 26.8813 13.7372 27.1736 13.001 27.1736C12.2647 27.1736 11.5586 26.8813 11.0378 26.3609L5.14333 20.4679C3.58947 18.914 2.5313 16.9341 2.10262 14.7788C1.67394 12.6235 1.89401 10.3894 2.735 8.35918C3.57599 6.32893 5.00013 4.59364 6.82733 3.37276C8.65453 2.15188 10.8027 1.50024 13.0003 1.50024C15.1978 1.50024 17.346 2.15188 19.1732 3.37276C21.0004 4.59364 22.4246 6.32893 23.2655 8.35918C24.1065 10.3894 24.3266 12.6235 23.8979 14.7788C23.4693 16.9341 22.4111 18.914 20.8572 20.4679Z" stroke="white" stroke-width="2.5" stroke-linecap="round" stroke-linejoin="round"/>
</svg>
